999
dxfrw 0.6.3
  0
SECTION
  2
HEADER
  9
$ACADVER
  1
AC1021
  9
$DWGCODEPAGE
  3
ANSI_1252
  9
$INSBASE
 10
0
 20
0
 30
0
  9
$EXTMIN
 10
-7.639622717522623
 20
-2
 30
0
  9
$EXTMAX
 10
45.5
 20
11.45377370912233
 30
0
  9
$LIMMIN
 10
0
 20
0
  9
$LIMMAX
 10
420
 20
297
  9
$ORTHOMODE
 70
    0
  9
$REGENMODE
 70
    1
  9
$FILLMODE
 70
    1
  9
$QTEXTMODE
 70
    0
  9
$MIRRTEXT
 70
    0
  9
$LTSCALE
 40
1
  9
$ATTMODE
 70
    0
  9
$TEXTSIZE
 40
2.5
  9
$TRACEWID
 40
15.68
  9
$TEXTSTYLE
  7
STANDARD
  9
$CLAYER
  8
cotes
  9
$CELTYPE
  6
BYLAYER
  9
$CECOLOR
 62
  256
  9
$CELTSCALE
 40
1
  9
$DISPSILH
 70
    0
  9
$DIMSCALE
 40
1
  9
$DIMASZ
 40
1
  9
$DIMEXO
 40
0.625
  9
$DIMDLI
 40
3.75
  9
$DIMRND
 40
0
  9
$DIMDLE
 40
0
  9
$DIMEXE
 40
1.25
  9
$DIMTP
 40
0
  9
$DIMTM
 40
0
  9
$DIMTXT
 40
1
  9
$DIMCEN
 40
2.5
  9
$DIMTSZ
 40
0
  9
$DIMTOL
 70
    0
  9
$DIMLIM
 70
    0
  9
$DIMTIH
 70
    0
  9
$DIMTOH
 70
    0
  9
$DIMSE1
 70
    0
  9
$DIMSE2
 70
    0
  9
$DIMTAD
 70
    1
  9
$DIMZIN
 70
    1
  9
$DIMBLK
  1

  9
$DIMASO
 70
    1
  9
$DIMSHO
 70
    1
  9
$DIMPOST
  1

  9
$DIMAPOST
  1

  9
$DIMALT
 70
    0
  9
$DIMALTD
 70
    3
  9
$DIMALTF
 40
0.03937
  9
$DIMLFAC
 40
1
  9
$DIMTOFL
 70
    1
  9
$DIMTVP
 40
0
  9
$DIMTIX
 70
    0
  9
$DIMSOXD
 70
    0
  9
$DIMSAH
 70
    0
  9
$DIMBLK1
  1

  9
$DIMBLK2
  1

  9
$DIMSTYLE
  2
STANDARD
  9
$DIMCLRD
 70
    0
  9
$DIMCLRE
 70
    0
  9
$DIMCLRT
 70
    0
  9
$DIMTFAC
 40
1
  9
$DIMGAP
 40
0.625
  9
$DIMJUST
 70
    0
  9
$DIMSD1
 70
    0
  9
$DIMSD2
 70
    0
  9
$DIMTOLJ
 70
    0
  9
$DIMTZIN
 70
    8
  9
$DIMALTZ
 70
    0
  9
$DIMALTTZ
 70
    0
  9
$DIMUPT
 70
    0
  9
$DIMDEC
 70
    2
  9
$DIMTDEC
 70
    2
  9
$DIMALTU
 70
    2
  9
$DIMALTTD
 70
    3
  9
$DIMTXSTY
  7
standard
  9
$DIMAUNIT
 70
    0
  9
$DIMADEC
 70
    2
  9
$DIMALTRND
 40
0
  9
$DIMAZIN
 70
    0
  9
$DIMDSEP
 70
    0
  9
$DIMATFIT
 70
    3
  9
$DIMFRAC
 70
    0
  9
$DIMLDRBLK
  1
STANDARD
  9
$DIMLUNIT
 70
    2
  9
$DIMLWD
 70
   -2
  9
$DIMLWE
 70
   -2
  9
$DIMTMOVE
 70
    0
  9
$DIMFXL
 40
1
  9
$DIMFXLON
 70
    0
  9
$DIMJOGANG
 40
0.7854
  9
$DIMTFILL
 70
    0
  9
$DIMTFILLCLR
 70
    0
  9
$DIMARCSYM
 70
    0
  9
$DIMLTYPE
  6

  9
$DIMLTEX1
  6

  9
$DIMLTEX2
  6

  9
$LUNITS
 70
    2
  9
$LUPREC
 70
    4
  9
$SKETCHINC
 40
1
  9
$FILLETRAD
 40
0
  9
$AUNITS
 70
    0
  9
$AUPREC
 70
    2
  9
$MENU
  1
.
  9
$ELEVATION
 40
0
  9
$PELEVATION
 40
0
  9
$THICKNESS
 40
0
  9
$LIMCHECK
 70
    0
  9
$CHAMFERA
 40
0
  9
$CHAMFERB
 40
0
  9
$CHAMFERC
 40
0
  9
$CHAMFERD
 40
0
  9
$SKPOLY
 70
    0
  9
$USRTIMER
 70
    1
  9
$ANGBASE
 50
0
  9
$ANGDIR
 70
    0
  9
$PDMODE
 70
   34
  9
$PDSIZE
 40
0
  9
$PLINEWID
 40
0
  9
$SPLFRAME
 70
    0
  9
$SPLINETYPE
 70
    2
  9
$SPLINESEGS
 70
    8
  9
$HANDSEED
  5
20000
  9
$SURFTAB1
 70
    6
  9
$SURFTAB2
 70
    6
  9
$SURFTYPE
 70
    6
  9
$SURFU
 70
    6
  9
$SURFV
 70
    6
  9
$UCSBASE
  2

  9
$UCSNAME
  2

  9
$UCSORG
 10
0
 20
0
 30
0
  9
$UCSXDIR
 10
1
 20
0
 30
0
  9
$UCSYDIR
 10
0
 20
1
 30
0
  9
$UCSORTHOREF
  2

  9
$UCSORTHOVIEW
 70
    0
  9
$UCSORGTOP
 10
0
 20
0
 30
0
  9
$UCSORGBOTTOM
 10
0
 20
0
 30
0
  9
$UCSORGLEFT
 10
0
 20
0
 30
0
  9
$UCSORGRIGHT
 10
0
 20
0
 30
0
  9
$UCSORGFRONT
 10
0
 20
0
 30
0
  9
$UCSORGBACK
 10
0
 20
0
 30
0
  9
$PUCSBASE
  2

  9
$PUCSNAME
  2

  9
$PUCSORG
 10
0
 20
0
 30
0
  9
$PUCSXDIR
 10
1
 20
0
 30
0
  9
$PUCSYDIR
 10
0
 20
1
 30
0
  9
$PUCSORTHOREF
  2

  9
$PUCSORTHOVIEW
 70
    0
  9
$PUCSORGTOP
 10
0
 20
0
 30
0
  9
$PUCSORGBOTTOM
 10
0
 20
0
 30
0
  9
$PUCSORGLEFT
 10
0
 20
0
 30
0
  9
$PUCSORGRIGHT
 10
0
 20
0
 30
0
  9
$PUCSORGFRONT
 10
0
 20
0
 30
0
  9
$PUCSORGBACK
 10
0
 20
0
 30
0
  9
$USERI1
 70
    0
  9
$USERI2
 70
    0
  9
$USERI3
 70
    0
  9
$USERI4
 70
    0
  9
$USERI5
 70
    0
  9
$USERR1
 40
0
  9
$USERR2
 40
0
  9
$USERR3
 40
0
  9
$USERR4
 40
0
  9
$USERR5
 40
0
  9
$WORLDVIEW
 70
    1
  9
$SHADEDGE
 70
    3
  9
$SHADEDIF
 70
   70
  9
$TILEMODE
 70
    1
  9
$MAXACTVP
 70
   64
  9
$PINSBASE
 10
0
 20
0
 30
0
  9
$PLIMCHECK
 70
    0
  9
$PEXTMIN
 10
0
 20
0
 30
0
  9
$PEXTMAX
 10
0
 20
0
 30
0
  9
$GRIDMODE
 70
    1
  9
$SNAPSTYLE
 70
    0
  9
$GRIDUNIT
 10
0
 20
0
  9
$PLIMMIN
 10
0
 20
0
  9
$PLIMMAX
 10
210
 20
297
  9
$UNITMODE
 70
    0
  9
$VISRETAIN
 70
    1
  9
$PLINEGEN
 70
    0
  9
$PSLTSCALE
 70
    1
  9
$TREEDEPTH
 70
 3020
  9
$CMLSTYLE
  2
Standard
  9
$CMLJUST
 70
    0
  9
$CMLSCALE
 40
20
  9
$PROXYGRAPHICS
 70
    1
  9
$MEASUREMENT
 70
    1
  9
$CELWEIGHT
370
   -1
  9
$ENDCAPS
280
    0
  9
$JOINSTYLE
280
    0
  9
$LWDISPLAY
290
    0
  9
$INSUNITS
 70
    4
  9
$HYPERLINKBASE
  1

  9
$STYLESHEET
  1

  9
$XEDIT
290
    1
  9
$CEPSNTYPE
380
    0
  9
$PSTYLEMODE
290
    1
  9
$EXTNAMES
290
    1
  9
$PSVPSCALE
 40
1
  9
$OLESTARTUP
290
    0
  9
$SORTENTS
280
  127
  9
$INDEXCTL
280
    0
  9
$HIDETEXT
280
    1
  9
$XCLIPFRAME
290
    0
  9
$HALOGAP
280
    0
  9
$OBSCOLOR
 70
  257
  9
$OBSLTYPE
280
    0
  9
$INTERSECTIONDISPLAY
280
    0
  9
$INTERSECTIONCOLOR
 70
  257
  9
$DIMASSOC
280
    1
  9
$PROJECTNAME
  1

  9
$CAMERADISPLAY
290
    0
  9
$LENSLENGTH
 40
50
  9
$CAMERAHEIGHT
 40
0
  9
$STEPSPERSEC
 40
2
  9
$STEPSIZE
 40
50
  9
$3DDWFPREC
 40
2
  9
$PSOLWIDTH
 40
5
  9
$PSOLHEIGHT
 40
80
  9
$LOFTANG1
 40
1.570796326794897
  9
$LOFTANG2
 40
1.570796326794897
  9
$LOFTMAG1
 40
0
  9
$LOFTMAG2
 40
0
  9
$LOFTPARAM
 70
    7
  9
$LOFTNORMALS
280
    1
  9
$LATITUDE
 40
1
  9
$LONGITUDE
 40
1
  9
$NORTHDIRECTION
 40
0
  9
$TIMEZONE
 70
-8000
  9
$LIGHTGLYPHDISPLAY
280
    1
  9
$TILEMODELIGHTSYNCH
280
    1
  9
$SOLIDHIST
280
    1
  9
$SHOWHIST
280
    1
  9
$DWFFRAME
280
    2
  9
$DGNFRAME
280
    0
  9
$REALWORLDSCALE
290
    1
  9
$INTERFERECOLOR
 62
    1
  9
$CSHADOW
280
    0
  9
$SHADOWPLANELOCATION
 40
0
  0
ENDSEC
  0
SECTION
  2
CLASSES
  0
ENDSEC
  0
SECTION
  2
TABLES
  0
TABLE
  2
VPORT
  5
8
330
0
100
AcDbSymbolTable
 70
    1
  0
VPORT
  5
31
330
2
100
AcDbSymbolTableRecord
100
AcDbViewportTableRecord
  2
*ACTIVE
 70
    0
 10
0
 20
0
 11
1
 21
1
 12
27.21250034391333
 22
10.23219352554153
 13
0
 23
0
 14
10
 24
10
 15
10
 25
10
 16
0
 26
0
 36
1
 17
0
 27
0
 37
0
 40
28.23938714934402
 41
2.327272727272727
 42
50
 43
0
 44
0
 50
0
 51
0
 71
    0
 72
  100
 73
    1
 74
    3
 75
    0
 76
    1
 77
    0
 78
    0
281
    0
 65
    1
110
0
120
0
130
0
111
1
121
0
131
0
112
0
122
1
132
0
 79
    0
146
0
348
10020
 60
    7
 61
    5
292
1
282
    1
141
0
142
0
 63
  250
421
3358443
  0
ENDTAB
  0
TABLE
  2
LTYPE
  5
5
330
0
100
AcDbSymbolTable
 70
    4
  0
LTYPE
  5
14
330
5
100
AcDbSymbolTableRecord
100
AcDbLinetypeTableRecord
  2
ByBlock
 70
    0
  3

 72
   65
 73
    0
 40
0
  0
LTYPE
  5
15
330
5
100
AcDbSymbolTableRecord
100
AcDbLinetypeTableRecord
  2
ByLayer
 70
    0
  3

 72
   65
 73
    0
 40
0
  0
LTYPE
  5
16
330
5
100
AcDbSymbolTableRecord
100
AcDbLinetypeTableRecord
  2
Continuous
 70
    0
  3
Solid line
 72
   65
 73
    0
 40
0
  0
LTYPE
  5
32
330
5
100
AcDbSymbolTableRecord
100
AcDbLinetypeTableRecord
  2
DOT
 70
    0
  3
Dot . . . . . . . . . . . . . . . . . . . . . .
 72
   65
 73
    2
 40
6.35
 49
0
 74
    0
 49
-6.35
 74
    0
  0
LTYPE
  5
33
330
5
100
AcDbSymbolTableRecord
100
AcDbLinetypeTableRecord
  2
DOTTINY
 70
    0
  3
Dot (.15x) .....................................
 72
   65
 73
    2
 40
0.9525
 49
0
 74
    0
 49
-0.9525
 74
    0
  0
LTYPE
  5
34
330
5
100
AcDbSymbolTableRecord
100
AcDbLinetypeTableRecord
  2
DOT2
 70
    0
  3
Dot (.5x) .....................................
 72
   65
 73
    2
 40
3.175
 49
0
 74
    0
 49
-3.175
 74
    0
  0
LTYPE
  5
35
330
5
100
AcDbSymbolTableRecord
100
AcDbLinetypeTableRecord
  2
DOTX2
 70
    0
  3
Dot (2x) .  .  .  .  .  .  .  .  .  .  .  .  .
 72
   65
 73
    2
 40
12.7
 49
0
 74
    0
 49
-12.7
 74
    0
  0
LTYPE
  5
36
330
5
100
AcDbSymbolTableRecord
100
AcDbLinetypeTableRecord
  2
DASHED
 70
    0
  3
Dashed _ _ _ _ _ _ _ _ _ _ _ _ _ _ _ _ _
 72
   65
 73
    2
 40
19.05
 49
12.7
 74
    0
 49
-6.35
 74
    0
  0
LTYPE
  5
37
330
5
100
AcDbSymbolTableRecord
100
AcDbLinetypeTableRecord
  2
DASHEDTINY
 70
    0
  3
Dashed (.15x) _ _ _ _ _ _ _ _ _ _ _ _ _ _ _ _ _
 72
   65
 73
    2
 40
2.8575
 49
1.905
 74
    0
 49
-0.9525
 74
    0
  0
LTYPE
  5
38
330
5
100
AcDbSymbolTableRecord
100
AcDbLinetypeTableRecord
  2
DASHED2
 70
    0
  3
Dashed (.5x) _ _ _ _ _ _ _ _ _ _ _ _ _ _ _ _ _
 72
   65
 73
    2
 40
9.524999999999999
 49
6.35
 74
    0
 49
-3.175
 74
    0
  0
LTYPE
  5
39
330
5
100
AcDbSymbolTableRecord
100
AcDbLinetypeTableRecord
  2
DASHEDX2
 70
    0
  3
Dashed (2x) ____  ____  ____  ____  ____  ___
 72
   65
 73
    2
 40
38.09999999999999
 49
25.4
 74
    0
 49
-12.7
 74
    0
  0
LTYPE
  5
3A
330
5
100
AcDbSymbolTableRecord
100
AcDbLinetypeTableRecord
  2
DASHDOT
 70
    0
  3
Dash dot __ . __ . __ . __ . __ . __ . __ . __
 72
   65
 73
    4
 40
25.4
 49
12.7
 74
    0
 49
-6.35
 74
    0
 49
0
 74
    0
 49
-6.35
 74
    0
  0
LTYPE
  5
3B
330
5
100
AcDbSymbolTableRecord
100
AcDbLinetypeTableRecord
  2
DASHDOTTINY
 70
    0
  3
Dash dot (.15x) _._._._._._._._._._._._._._._.
 72
   65
 73
    4
 40
3.81
 49
1.905
 74
    0
 49
-0.9525
 74
    0
 49
0
 74
    0
 49
-0.9525
 74
    0
  0
LTYPE
  5
3C
330
5
100
AcDbSymbolTableRecord
100
AcDbLinetypeTableRecord
  2
DASHDOT2
 70
    0
  3
Dash dot (.5x) _._._._._._._._._._._._._._._.
 72
   65
 73
    4
 40
12.7
 49
6.35
 74
    0
 49
-3.175
 74
    0
 49
0
 74
    0
 49
-3.175
 74
    0
  0
LTYPE
  5
3D
330
5
100
AcDbSymbolTableRecord
100
AcDbLinetypeTableRecord
  2
DASHDOTX2
 70
    0
  3
Dash dot (2x) ____  .  ____  .  ____  .  ___
 72
   65
 73
    4
 40
50.8
 49
25.4
 74
    0
 49
-12.7
 74
    0
 49
0
 74
    0
 49
-12.7
 74
    0
  0
LTYPE
  5
3E
330
5
100
AcDbSymbolTableRecord
100
AcDbLinetypeTableRecord
  2
DIVIDE
 70
    0
  3
Divide ____ . . ____ . . ____ . . ____ . . ____
 72
   65
 73
    6
 40
31.75
 49
12.7
 74
    0
 49
-6.35
 74
    0
 49
0
 74
    0
 49
-6.35
 74
    0
 49
0
 74
    0
 49
-6.35
 74
    0
  0
LTYPE
  5
3F
330
5
100
AcDbSymbolTableRecord
100
AcDbLinetypeTableRecord
  2
DIVIDETINY
 70
    0
  3
Divide (.15x) __..__..__..__..__..__..__..__.._
 72
   65
 73
    6
 40
4.7625
 49
1.905
 74
    0
 49
-0.9525
 74
    0
 49
0
 74
    0
 49
-0.9525
 74
    0
 49
0
 74
    0
 49
-0.9525
 74
    0
  0
LTYPE
  5
40
330
5
100
AcDbSymbolTableRecord
100
AcDbLinetypeTableRecord
  2
DIVIDE2
 70
    0
  3
Divide (.5x) __..__..__..__..__..__..__..__.._
 72
   65
 73
    6
 40
15.875
 49
6.35
 74
    0
 49
-3.175
 74
    0
 49
0
 74
    0
 49
-3.175
 74
    0
 49
0
 74
    0
 49
-3.175
 74
    0
  0
LTYPE
  5
41
330
5
100
AcDbSymbolTableRecord
100
AcDbLinetypeTableRecord
  2
DIVIDEX2
 70
    0
  3
Divide (2x) ________  .  .  ________  .  .  _
 72
   65
 73
    6
 40
63.5
 49
25.4
 74
    0
 49
-12.7
 74
    0
 49
0
 74
    0
 49
-12.7
 74
    0
 49
0
 74
    0
 49
-12.7
 74
    0
  0
LTYPE
  5
42
330
5
100
AcDbSymbolTableRecord
100
AcDbLinetypeTableRecord
  2
BORDER
 70
    0
  3
Border __ __ . __ __ . __ __ . __ __ . __ __ .
 72
   65
 73
    6
 40
44.45
 49
12.7
 74
    0
 49
-6.35
 74
    0
 49
12.7
 74
    0
 49
-6.35
 74
    0
 49
0
 74
    0
 49
-6.35
 74
    0
  0
LTYPE
  5
43
330
5
100
AcDbSymbolTableRecord
100
AcDbLinetypeTableRecord
  2
BORDERTINY
 70
    0
  3
Border (.15x) __.__.__.__.__.__.__.__.__.__.__.
 72
   65
 73
    6
 40
6.6675
 49
1.905
 74
    0
 49
-0.9525
 74
    0
 49
1.905
 74
    0
 49
-0.9525
 74
    0
 49
0
 74
    0
 49
-0.9525
 74
    0
  0
LTYPE
  5
44
330
5
100
AcDbSymbolTableRecord
100
AcDbLinetypeTableRecord
  2
BORDER2
 70
    0
  3
Border (.5x) __.__.__.__.__.__.__.__.__.__.__.
 72
   65
 73
    6
 40
22.225
 49
6.35
 74
    0
 49
-3.175
 74
    0
 49
6.35
 74
    0
 49
-3.175
 74
    0
 49
0
 74
    0
 49
-3.175
 74
    0
  0
LTYPE
  5
45
330
5
100
AcDbSymbolTableRecord
100
AcDbLinetypeTableRecord
  2
BORDERX2
 70
    0
  3
Border (2x) ____  ____  .  ____  ____  .  ___
 72
   65
 73
    6
 40
88.89999999999999
 49
25.4
 74
    0
 49
-12.7
 74
    0
 49
25.4
 74
    0
 49
-12.7
 74
    0
 49
0
 74
    0
 49
-12.7
 74
    0
  0
LTYPE
  5
46
330
5
100
AcDbSymbolTableRecord
100
AcDbLinetypeTableRecord
  2
CENTER
 70
    0
  3
Center ____ _ ____ _ ____ _ ____ _ ____ _ ____
 72
   65
 73
    4
 40
50.8
 49
31.75
 74
    0
 49
-6.35
 74
    0
 49
6.35
 74
    0
 49
-6.35
 74
    0
  0
LTYPE
  5
47
330
5
100
AcDbSymbolTableRecord
100
AcDbLinetypeTableRecord
  2
CENTERTINY
 70
    0
  3
Center (.15x) ___ _ ___ _ ___ _ ___ _ ___ _ ___
 72
   65
 73
    4
 40
7.619999999999999
 49
4.7625
 74
    0
 49
-0.9525
 74
    0
 49
0.9525
 74
    0
 49
-0.9525
 74
    0
  0
LTYPE
  5
48
330
5
100
AcDbSymbolTableRecord
100
AcDbLinetypeTableRecord
  2
CENTER2
 70
    0
  3
Center (.5x) ___ _ ___ _ ___ _ ___ _ ___ _ ___
 72
   65
 73
    4
 40
28.575
 49
19.05
 74
    0
 49
-3.175
 74
    0
 49
3.175
 74
    0
 49
-3.175
 74
    0
  0
LTYPE
  5
49
330
5
100
AcDbSymbolTableRecord
100
AcDbLinetypeTableRecord
  2
CENTERX2
 70
    0
  3
Center (2x) ________  __  ________  __  _____
 72
   65
 73
    4
 40
101.6
 49
63.5
 74
    0
 49
-12.7
 74
    0
 49
12.7
 74
    0
 49
-12.7
 74
    0
  0
ENDTAB
  0
TABLE
  2
LAYER
  5
2
330
0
100
AcDbSymbolTable
 70
    1
  0
LAYER
  5
10
330
2
100
AcDbSymbolTableRecord
100
AcDbLayerTableRecord
  2
0
 70
    5
 62
    7
  6
CONTINUOUS
370
    0
390
F
  0
LAYER
  5
4A
330
2
100
AcDbSymbolTableRecord
100
AcDbLayerTableRecord
  2
cotes
 70
    0
 62
    7
  6
CONTINUOUS
370
    0
390
F
  0
LAYER
  5
4B
330
2
100
AcDbSymbolTableRecord
100
AcDbLayerTableRecord
  2
rails
 70
    5
 62
    7
  6
CONTINUOUS
370
    0
390
F
  0
LAYER
  5
4C
330
2
100
AcDbSymbolTableRecord
100
AcDbLayerTableRecord
  2
rails-courbes
 70
    5
 62
    7
  6
CONTINUOUS
370
    0
390
F
  0
LAYER
  5
4D
330
2
100
AcDbSymbolTableRecord
100
AcDbLayerTableRecord
  2
rails-courbes-traverses
 70
    5
 62
    7
  6
CONTINUOUS
370
    0
390
F
  0
LAYER
  5
4E
330
2
100
AcDbSymbolTableRecord
100
AcDbLayerTableRecord
  2
traverses
 70
    5
 62
    7
  6
CONTINUOUS
370
    0
390
F
  0
ENDTAB
  0
TABLE
  2
STYLE
  5
3
330
0
100
AcDbSymbolTable
 70
    3
  0
STYLE
  5
4F
330
2
100
AcDbSymbolTableRecord
100
AcDbTextStyleTableRecord
  2
Standard
 70
    0
 40
0
 41
1
 50
0
 71
    0
 42
1
  3
txt
  4

  0
ENDTAB
  0
TABLE
  2
VIEW
  5
6
330
0
100
AcDbSymbolTable
 70
    0
  0
ENDTAB
  0
TABLE
  2
UCS
  5
7
330
0
100
AcDbSymbolTable
 70
    0
  0
ENDTAB
  0
TABLE
  2
APPID
  5
9
330
0
100
AcDbSymbolTable
 70
    1
  0
APPID
  5
12
330
9
100
AcDbSymbolTableRecord
100
AcDbRegAppTableRecord
  2
ACAD
 70
    0
  0
APPID
  5
50
330
9
100
AcDbSymbolTableRecord
100
AcDbRegAppTableRecord
  2
LibreCad
 70
    0
  0
ENDTAB
  0
TABLE
  2
DIMSTYLE
  5
A
330
0
100
AcDbSymbolTable
 70
    1
100
AcDbDimStyleTable
 71
    1
  0
DIMSTYLE
105
51
330
A
100
AcDbSymbolTableRecord
100
AcDbDimStyleTableRecord
  2
Standard
 70
    0
 40
1
 41
1
 42
0.625
 43
0.38
 44
1.25
 45
0
 46
0
 47
0
 48
0
 49
1
140
1
141
0.09
142
0
143
25.4
144
1
145
0
146
1
147
0.625
148
0
 71
    0
 72
    0
 73
    0
 74
    1
 75
    0
 76
    0
 77
    0
 78
    1
 79
    0
170
    0
171
    2
172
    0
173
    0
174
    0
175
    0
176
    0
177
    0
178
    0
179
    2
271
    2
272
    4
273
    2
274
    2
275
    0
276
    0
277
    2
278
    0
279
    0
280
    0
281
    0
282
    0
283
    1
284
    0
285
    0
286
    0
288
    0
289
    3
340
standard
341

371
   -2
372
   -2
  0
ENDTAB
  0
TABLE
  2
BLOCK_RECORD
  5
1
330
0
100
AcDbSymbolTable
 70
    2
  0
BLOCK_RECORD
  5
1F
330
1
100
AcDbSymbolTableRecord
100
AcDbBlockTableRecord
  2
*Model_Space
 70
    0
280
    1
281
    0
  0
BLOCK_RECORD
  5
1E
330
1
100
AcDbSymbolTableRecord
100
AcDbBlockTableRecord
  2
*Paper_Space
 70
    0
280
    1
281
    0
  0
BLOCK_RECORD
  5
52
330
1
100
AcDbSymbolTableRecord
100
AcDbBlockTableRecord
  2
*D5
 70
    0
280
    1
281
    0
  0
BLOCK_RECORD
  5
55
330
1
100
AcDbSymbolTableRecord
100
AcDbBlockTableRecord
  2
*D3
 70
    0
280
    1
281
    0
  0
BLOCK_RECORD
  5
58
330
1
100
AcDbSymbolTableRecord
100
AcDbBlockTableRecord
  2
*D8
 70
    0
280
    1
281
    0
  0
BLOCK_RECORD
  5
5B
330
1
100
AcDbSymbolTableRecord
100
AcDbBlockTableRecord
  2
*D4
 70
    0
280
    1
281
    0
  0
BLOCK_RECORD
  5
5E
330
1
100
AcDbSymbolTableRecord
100
AcDbBlockTableRecord
  2
*D1
 70
    0
280
    1
281
    0
  0
BLOCK_RECORD
  5
61
330
1
100
AcDbSymbolTableRecord
100
AcDbBlockTableRecord
  2
*D7
 70
    0
280
    1
281
    0
  0
BLOCK_RECORD
  5
64
330
1
100
AcDbSymbolTableRecord
100
AcDbBlockTableRecord
  2
*D2
 70
    0
280
    1
281
    0
  0
BLOCK_RECORD
  5
67
330
1
100
AcDbSymbolTableRecord
100
AcDbBlockTableRecord
  2
*D6
 70
    0
280
    1
281
    0
  0
ENDTAB
  0
ENDSEC
  0
SECTION
  2
BLOCKS
  0
BLOCK
  5
20
330
1F
100
AcDbEntity
  8
0
100
AcDbBlockBegin
  2
*Model_Space
 70
    0
 10
0
 20
0
 30
0
  3
*Model_Space
  1

  0
ENDBLK
  5
21
330
1F
100
AcDbEntity
  8
0
100
AcDbBlockEnd
  0
BLOCK
  5
1C
330
1B
100
AcDbEntity
  8
0
100
AcDbBlockBegin
  2
*Paper_Space
 70
    0
 10
0
 20
0
 30
0
  3
*Paper_Space
  1

  0
ENDBLK
  5
1D
330
1F
100
AcDbEntity
  8
0
100
AcDbBlockEnd
  0
BLOCK
  5
53
330
52
100
AcDbEntity
  8
0
100
AcDbBlockBegin
  2
*D5
 70
    1
 10
0
 20
0
  3
*D5
  1

  0
LINE
  5
6A
100
AcDbEntity
  8
cotes
  6
ByBlock
 62
    0
370
   -2
100
AcDbLine
 10
36.21
 20
5.941273659991856
 11
45.5
 21
5.941273659991856
  0
SOLID
  5
6B
100
AcDbEntity
  8
cotes
  6
ByBlock
 62
    0
370
   -2
100
AcDbTrace
 10
36.21
 20
5.941273659991856
 30
0
 11
37.21
 21
6.107787523100992
 31
0
 12
37.21
 22
5.774759796882719
 32
0
 13
37.21
 23
5.774759796882719
 33
0
  0
SOLID
  5
6C
100
AcDbEntity
  8
cotes
  6
ByBlock
 62
    0
370
   -2
100
AcDbTrace
 10
45.5
 20
5.941273659991856
 30
0
 11
44.5
 21
5.774759796882719
 31
0
 12
44.5
 22
6.107787523100992
 32
0
 13
44.5
 23
6.107787523100992
 33
0
  0
MTEXT
  5
6D
100
AcDbEntity
  8
cotes
  6
CONTINUOUS
 62
    0
370
   -2
100
AcDbMText
 10
40.855
 20
7.066273659991856
 30
0
 40
1
 41
2.333333333333395
 71
    5
 72
    1
  1
9.29
  7
standard
210
0
220
0
230
1
 50
0
 73
    2
 44
1
  0
LINE
  5
6E
100
AcDbEntity
  8
cotes
  6
ByBlock
 62
    0
370
   -2
100
AcDbLine
 10
36.21
 20
5.125000000000009
 11
36.21
 21
7.191273659991856
  0
LINE
  5
6F
100
AcDbEntity
  8
cotes
  6
ByBlock
 62
    0
370
   -2
100
AcDbLine
 10
45.5
 20
2.625000000000003
 11
45.5
 21
7.191273659991856
  0
ENDBLK
  5
54
330
52
100
AcDbEntity
  8
0
100
AcDbBlockEnd
  0
BLOCK
  5
56
330
55
100
AcDbEntity
  8
0
100
AcDbBlockBegin
  2
*D3
 70
    1
 10
0
 20
0
  3
*D3
  1

  0
LINE
  5
70
100
AcDbEntity
  8
cotes
  6
ByBlock
 62
    0
370
   -2
100
AcDbLine
 10
10.79
 20
5.941273659991857
 11
34.71
 21
5.941273659991857
  0
SOLID
  5
71
100
AcDbEntity
  8
cotes
  6
ByBlock
 62
    0
370
   -2
100
AcDbTrace
 10
10.79
 20
5.941273659991857
 30
0
 11
11.79
 21
6.107787523100993
 31
0
 12
11.79
 22
5.77475979688272
 32
0
 13
11.79
 23
5.77475979688272
 33
0
  0
SOLID
  5
72
100
AcDbEntity
  8
cotes
  6
ByBlock
 62
    0
370
   -2
100
AcDbTrace
 10
34.71
 20
5.941273659991857
 30
0
 11
33.71
 21
5.77475979688272
 31
0
 12
33.71
 22
6.107787523100993
 32
0
 13
33.71
 23
6.107787523100993
 33
0
  0
MTEXT
  5
73
100
AcDbEntity
  8
cotes
  6
CONTINUOUS
 62
    0
370
   -2
100
AcDbMText
 10
22.75
 20
7.066273659991857
 30
0
 40
1
 41
3.111111111111173
 71
    5
 72
    1
  1
23.92
  7
standard
210
0
220
0
230
1
 50
0
 73
    2
 44
1
  0
LINE
  5
74
100
AcDbEntity
  8
cotes
  6
ByBlock
 62
    0
370
   -2
100
AcDbLine
 10
10.79
 20
5.125000000000001
 11
10.79
 21
7.191273659991857
  0
LINE
  5
75
100
AcDbEntity
  8
cotes
  6
ByBlock
 62
    0
370
   -2
100
AcDbLine
 10
34.71
 20
5.125000000000008
 11
34.71
 21
7.191273659991857
  0
ENDBLK
  5
57
330
55
100
AcDbEntity
  8
0
100
AcDbBlockEnd
  0
BLOCK
  5
59
330
58
100
AcDbEntity
  8
0
100
AcDbBlockBegin
  2
*D8
 70
    1
 10
0
 20
0
  3
*D8
  1

  0
LINE
  5
76
100
AcDbEntity
  8
cotes
  6
ByBlock
 62
    0
370
   -2
100
AcDbLine
 10
-3.2273585313536
 20
2
 11
-3.2273585313536
 21
4.500000000000002
  0
SOLID
  5
77
100
AcDbEntity
  8
cotes
  6
ByBlock
 62
    0
370
   -2
100
AcDbTrace
 10
-3.2273585313536
 20
2
 30
0
 11
-3.393872394462736
 21
3
 31
0
 12
-3.060844668244464
 22
3
 32
0
 13
-3.060844668244464
 23
3
 33
0
  0
SOLID
  5
78
100
AcDbEntity
  8
cotes
  6
ByBlock
 62
    0
370
   -2
100
AcDbTrace
 10
-3.2273585313536
 20
4.500000000000002
 30
0
 11
-3.060844668244464
 21
3.500000000000002
 31
0
 12
-3.393872394462736
 22
3.500000000000002
 32
0
 13
-3.393872394462736
 23
3.500000000000002
 33
0
  0
MTEXT
  5
79
100
AcDbEntity
  8
cotes
  6
CONTINUOUS
 62
    0
370
   -2
100
AcDbMText
 10
-4.3523585313536
 20
3.250000000000001
 30
0
 40
1
 41
2.333333333333396
 71
    5
 72
    1
  1
2.50
  7
standard
210
0
220
0
230
1
 50
90
 73
    2
 44
1
  0
LINE
  5
7A
100
AcDbEntity
  8
cotes
  6
ByBlock
 62
    0
370
   -2
100
AcDbLine
 10
-0.6249999999999999
 20
2
 11
-4.4773585313536
 21
2
  0
LINE
  5
7B
100
AcDbEntity
  8
cotes
  6
ByBlock
 62
    0
370
   -2
100
AcDbLine
 10
8.664999999999999
 20
4.500000000000001
 11
-4.4773585313536
 21
4.500000000000002
  0
ENDBLK
  5
5A
330
58
100
AcDbEntity
  8
0
100
AcDbBlockEnd
  0
BLOCK
  5
5C
330
5B
100
AcDbEntity
  8
0
100
AcDbBlockBegin
  2
*D4
 70
    1
 10
0
 20
0
  3
*D4
  1

  0
LINE
  5
7C
100
AcDbEntity
  8
cotes
  6
ByBlock
 62
    0
370
   -2
100
AcDbLine
 10
32.71
 20
5.941273659991857
 11
38.21
 21
5.941273659991857
  0
SOLID
  5
7D
100
AcDbEntity
  8
cotes
  6
ByBlock
 62
    0
370
   -2
100
AcDbTrace
 10
34.71
 20
5.941273659991857
 30
0
 11
33.71
 21
5.77475979688272
 31
0
 12
33.71
 22
6.107787523100993
 32
0
 13
33.71
 23
6.107787523100993
 33
0
  0
SOLID
  5
7E
100
AcDbEntity
  8
cotes
  6
ByBlock
 62
    0
370
   -2
100
AcDbTrace
 10
36.21
 20
5.941273659991857
 30
0
 11
37.21
 21
6.107787523100993
 31
0
 12
37.21
 22
5.77475979688272
 32
0
 13
37.21
 23
5.77475979688272
 33
0
  0
MTEXT
  5
7F
100
AcDbEntity
  8
cotes
  6
CONTINUOUS
 62
    0
370
   -2
100
AcDbMText
 10
37.89055555555559
 20
7.066273659991857
 30
0
 40
1
 41
2.111111111111173
 71
    5
 72
    1
  1
1.50
  7
standard
210
0
220
0
230
1
 50
0
 73
    2
 44
1
  0
LINE
  5
80
100
AcDbEntity
  8
cotes
  6
ByBlock
 62
    0
370
   -2
100
AcDbLine
 10
34.71
 20
5.125000000000008
 11
34.71
 21
7.191273659991857
  0
LINE
  5
81
100
AcDbEntity
  8
cotes
  6
ByBlock
 62
    0
370
   -2
100
AcDbLine
 10
36.21
 20
5.125000000000009
 11
36.21
 21
7.191273659991857
  0
ENDBLK
  5
5D
330
5B
100
AcDbEntity
  8
0
100
AcDbBlockEnd
  0
BLOCK
  5
5F
330
5E
100
AcDbEntity
  8
0
100
AcDbBlockBegin
  2
*D1
 70
    1
 10
0
 20
0
  3
*D1
  1

  0
LINE
  5
82
100
AcDbEntity
  8
cotes
  6
ByBlock
 62
    0
370
   -2
100
AcDbLine
 10
0
 20
5.941273659991859
 11
9.289999999999999
 21
5.941273659991859
  0
SOLID
  5
83
100
AcDbEntity
  8
cotes
  6
ByBlock
 62
    0
370
   -2
100
AcDbTrace
 10
0
 20
5.941273659991859
 30
0
 11
1
 21
6.107787523100995
 31
0
 12
1
 22
5.774759796882723
 32
0
 13
1
 23
5.774759796882723
 33
0
  0
SOLID
  5
84
100
AcDbEntity
  8
cotes
  6
ByBlock
 62
    0
370
   -2
100
AcDbTrace
 10
9.289999999999999
 20
5.941273659991859
 30
0
 11
8.289999999999999
 21
5.774759796882723
 31
0
 12
8.289999999999999
 22
6.107787523100995
 32
0
 13
8.289999999999999
 23
6.107787523100995
 33
0
  0
MTEXT
  5
85
100
AcDbEntity
  8
cotes
  6
CONTINUOUS
 62
    0
370
   -2
100
AcDbMText
 10
4.645
 20
7.066273659991859
 30
0
 40
1
 41
2.333333333333395
 71
    5
 72
    1
  1
9.29
  7
standard
210
0
220
0
230
1
 50
0
 73
    2
 44
1
  0
LINE
  5
86
100
AcDbEntity
  8
cotes
  6
ByBlock
 62
    0
370
   -2
100
AcDbLine
 10
1.607348923880901e-16
 20
2.625
 11
7.654042494670958e-17
 21
7.191273659991859
  0
LINE
  5
87
100
AcDbEntity
  8
cotes
  6
ByBlock
 62
    0
370
   -2
100
AcDbLine
 10
9.289999999999999
 20
2.625
 11
9.289999999999999
 21
7.191273659991859
  0
ENDBLK
  5
60
330
5E
100
AcDbEntity
  8
0
100
AcDbBlockEnd
  0
BLOCK
  5
62
330
61
100
AcDbEntity
  8
0
100
AcDbBlockBegin
  2
*D7
 70
    1
 10
0
 20
0
  3
*D7
  1

  0
LINE
  5
88
100
AcDbEntity
  8
cotes
  6
ByBlock
 62
    0
370
   -2
100
AcDbLine
 10
-6.014622717522623
 20
-2
 11
-6.014622717522623
 21
4
  0
SOLID
  5
89
100
AcDbEntity
  8
cotes
  6
ByBlock
 62
    0
370
   -2
100
AcDbTrace
 10
-6.014622717522623
 20
0
 30
0
 11
-5.848108854413486
 21
-1
 31
0
 12
-6.181136580631759
 22
-1
 32
0
 13
-6.181136580631759
 23
-1
 33
0
  0
SOLID
  5
8A
100
AcDbEntity
  8
cotes
  6
ByBlock
 62
    0
370
   -2
100
AcDbTrace
 10
-6.014622717522623
 20
2
 30
0
 11
-6.181136580631759
 21
3
 31
0
 12
-5.848108854413486
 22
3
 32
0
 13
-5.848108854413486
 23
3
 33
0
  0
MTEXT
  5
8B
100
AcDbEntity
  8
cotes
  6
CONTINUOUS
 62
    0
370
   -2
100
AcDbMText
 10
-7.139622717522623
 20
3.791666666666667
 30
0
 40
1
 41
2.333333333333333
 71
    5
 72
    1
  1
2.00
  7
standard
210
0
220
0
230
1
 50
90
 73
    2
 44
1
  0
LINE
  5
8C
100
AcDbEntity
  8
cotes
  6
ByBlock
 62
    0
370
   -2
100
AcDbLine
 10
-0.625
 20
7.654042494670958e-17
 11
-7.264622717522623
 21
1.530808498934192e-16
  0
LINE
  5
8D
100
AcDbEntity
  8
cotes
  6
ByBlock
 62
    0
370
   -2
100
AcDbLine
 10
-0.6249999999999999
 20
2
 11
-7.264622717522623
 21
2
  0
ENDBLK
  5
63
330
61
100
AcDbEntity
  8
0
100
AcDbBlockEnd
  0
BLOCK
  5
65
330
64
100
AcDbEntity
  8
0
100
AcDbBlockBegin
  2
*D2
 70
    1
 10
0
 20
0
  3
*D2
  1

  0
LINE
  5
8E
100
AcDbEntity
  8
cotes
  6
ByBlock
 62
    0
370
   -2
100
AcDbLine
 10
7.289999999999999
 20
5.941273659991858
 11
12.79
 21
5.941273659991858
  0
SOLID
  5
8F
100
AcDbEntity
  8
cotes
  6
ByBlock
 62
    0
370
   -2
100
AcDbTrace
 10
9.289999999999999
 20
5.941273659991858
 30
0
 11
8.289999999999999
 21
5.774759796882722
 31
0
 12
8.289999999999999
 22
6.107787523100995
 32
0
 13
8.289999999999999
 23
6.107787523100995
 33
0
  0
SOLID
  5
90
100
AcDbEntity
  8
cotes
  6
ByBlock
 62
    0
370
   -2
100
AcDbTrace
 10
10.79
 20
5.941273659991858
 30
0
 11
11.79
 21
6.107787523100995
 31
0
 12
11.79
 22
5.774759796882722
 32
0
 13
11.79
 23
5.774759796882722
 33
0
  0
MTEXT
  5
91
100
AcDbEntity
  8
cotes
  6
CONTINUOUS
 62
    0
370
   -2
100
AcDbMText
 10
12.47055555555558
 20
7.066273659991858
 30
0
 40
1
 41
2.111111111111173
 71
    5
 72
    1
  1
1.50
  7
standard
210
0
220
0
230
1
 50
0
 73
    2
 44
1
  0
LINE
  5
92
100
AcDbEntity
  8
cotes
  6
ByBlock
 62
    0
370
   -2
100
AcDbLine
 10
9.289999999999999
 20
5.125000000000001
 11
9.289999999999999
 21
7.191273659991858
  0
LINE
  5
93
100
AcDbEntity
  8
cotes
  6
ByBlock
 62
    0
370
   -2
100
AcDbLine
 10
10.79
 20
5.125000000000001
 11
10.79
 21
7.191273659991858
  0
ENDBLK
  5
66
330
64
100
AcDbEntity
  8
0
100
AcDbBlockEnd
  0
BLOCK
  5
68
330
67
100
AcDbEntity
  8
0
100
AcDbBlockBegin
  2
*D6
 70
    1
 10
0
 20
0
  3
*D6
  1

  0
LINE
  5
94
100
AcDbEntity
  8
cotes
  6
ByBlock
 62
    0
370
   -2
100
AcDbLine
 10
0
 20
9.828773709122331
 11
45.5
 21
9.828773709122331
  0
SOLID
  5
95
100
AcDbEntity
  8
cotes
  6
ByBlock
 62
    0
370
   -2
100
AcDbTrace
 10
0
 20
9.828773709122331
 30
0
 11
1
 21
9.995287572231467
 31
0
 12
1
 22
9.662259846013194
 32
0
 13
1
 23
9.662259846013194
 33
0
  0
SOLID
  5
96
100
AcDbEntity
  8
cotes
  6
ByBlock
 62
    0
370
   -2
100
AcDbTrace
 10
45.5
 20
9.828773709122331
 30
0
 11
44.5
 21
9.662259846013194
 31
0
 12
44.5
 22
9.995287572231467
 32
0
 13
44.5
 23
9.995287572231467
 33
0
  0
MTEXT
  5
97
100
AcDbEntity
  8
cotes
  6
CONTINUOUS
 62
    0
370
   -2
100
AcDbMText
 10
22.75
 20
10.95377370912233
 30
0
 40
1
 41
3.222222222222346
 71
    5
 72
    1
  1
45.50
  7
standard
210
0
220
0
230
1
 50
0
 73
    2
 44
1
  0
LINE
  5
98
100
AcDbEntity
  8
cotes
  6
ByBlock
 62
    0
370
   -2
100
AcDbLine
 10
1.607348923880901e-16
 20
2.625
 11
7.654042494670958e-17
 21
11.07877370912233
  0
LINE
  5
99
100
AcDbEntity
  8
cotes
  6
ByBlock
 62
    0
370
   -2
100
AcDbLine
 10
45.5
 20
2.625000000000003
 11
45.5
 21
11.07877370912233
  0
ENDBLK
  5
69
330
67
100
AcDbEntity
  8
0
100
AcDbBlockEnd
  0
ENDSEC
  0
SECTION
  2
ENTITIES
  0
HATCH
  5
9A
100
AcDbEntity
  8
cotes
  6
ByLayer
 62
  256
370
   -1
100
AcDbHatch
 10
0
 20
0
 30
0
210
0
220
0
230
1
  2
SOLID
 70
    1
 71
    0
 91
    1
 92
    0
 93
   12
 72
    1
 10
0
 20
0
 11
45.5
 21
2.786071468060229e-15
 72
    1
 10
45.5
 20
2.786071468060229e-15
 11
45.5
 21
2.000000000000003
 72
    1
 10
45.5
 20
2.000000000000003
 11
36.21
 21
2.000000000000003
 72
    1
 10
36.21
 20
2.000000000000003
 11
36.21
 21
4.500000000000009
 72
    1
 10
36.21
 20
4.500000000000009
 11
34.71
 21
4.500000000000008
 72
    1
 10
34.71
 20
4.500000000000008
 11
34.71
 21
2.000000000000008
 72
    1
 10
34.71
 20
2.000000000000008
 11
10.79
 21
2.000000000000001
 72
    1
 10
10.79
 20
2.000000000000001
 11
10.79
 21
4.500000000000001
 72
    1
 10
10.79
 20
4.500000000000001
 11
9.289999999999999
 21
4.500000000000001
 72
    1
 10
9.289999999999999
 20
4.500000000000001
 11
9.289999999999999
 21
2
 72
    1
 10
9.289999999999999
 20
2
 11
1.224646799147353e-16
 21
2
 72
    1
 10
1.224646799147353e-16
 20
2
 11
0
 21
0
 97
    0
 75
    0
 76
    1
 98
    0
  0
HATCH
  5
9B
100
AcDbEntity
  8
0
  6
ByLayer
 62
  256
370
   -1
100
AcDbHatch
 10
0
 20
0
 30
0
210
0
220
0
230
1
  2
SOLID
 70
    1
 71
    0
 91
    1
 92
    0
 93
  124
 72
    1
 10
2.03352600998418e-15
 20
33.21
 11
-3.354919906264174e-15
 21
-10.79
 72
    1
 10
-3.354919906264174e-15
 20
-10.79
 11
3.999999999999996
 21
-10.79
 72
    1
 10
3.999999999999996
 20
-10.79
 11
3.999999999999997
 21
-1.5
 72
    1
 10
3.999999999999997
 20
-1.5
 11
9.999999999999996
 21
-1.5
 72
    1
 10
9.999999999999996
 20
-1.5
 11
9.999999999999995
 21
-10.79
 72
    1
 10
9.999999999999995
 20
-10.79
 11
13.99999999999999
 21
-10.79
 72
    1
 10
13.99999999999999
 20
-10.79
 11
14
 21
-1.5
 72
    1
 10
14
 20
-1.5
 11
20
 21
-1.5
 72
    1
 10
20
 20
-1.5
 11
20
 21
-10.79
 72
    1
 10
20
 20
-10.79
 11
24
 21
-10.79
 72
    1
 10
24
 20
-10.79
 11
24
 21
-1.5
 72
    1
 10
24
 20
-1.5
 11
30
 21
-1.5
 72
    1
 10
30
 20
-1.5
 11
30
 21
-10.79
 72
    1
 10
30
 20
-10.79
 11
34
 21
-10.79
 72
    1
 10
34
 20
-10.79
 11
34
 21
-1.5
 72
    1
 10
34.00000000000001
 20
-1.5
 11
40
 21
-1.5
 72
    1
 10
40
 20
-1.5
 11
40
 21
-10.79
 72
    1
 10
40
 20
-10.79
 11
44
 21
-10.79
 72
    1
 10
44
 20
-10.79
 11
44
 21
-1.5
 72
    1
 10
44.00000000000001
 20
-1.5
 11
50
 21
-1.5
 72
    1
 10
50
 20
-1.5
 11
50
 21
-10.79
 72
    1
 10
50
 20
-10.79
 11
54
 21
-10.79
 72
    1
 10
54
 20
-10.79
 11
54
 21
-1.5
 72
    1
 10
54.00000000000001
 20
-1.5
 11
60
 21
-1.5
 72
    1
 10
60
 20
-1.5
 11
60
 21
-10.79
 72
    1
 10
60
 20
-10.79
 11
64
 21
-10.79
 72
    1
 10
64
 20
-10.79
 11
64
 21
-1.5
 72
    1
 10
64.00000000000001
 20
-1.5
 11
70.00000000000001
 21
-1.5
 72
    1
 10
70.00000000000001
 20
-1.5
 11
70.00000000000001
 21
-10.79
 72
    1
 10
70.00000000000001
 20
-10.79
 11
74.00000000000001
 21
-10.79
 72
    1
 10
74.00000000000001
 20
-10.79
 11
74.00000000000001
 21
-1.5
 72
    1
 10
74.00000000000001
 20
-1.5
 11
80.00000000000001
 21
-1.5
 72
    1
 10
80.00000000000001
 20
-1.5
 11
80.00000000000001
 21
-10.79
 72
    1
 10
80.00000000000001
 20
-10.79
 11
84.00000000000001
 21
-10.79
 72
    1
 10
84.00000000000001
 20
-10.79
 11
84.00000000000001
 21
-1.5
 72
    1
 10
84.00000000000001
 20
-1.5
 11
90.00000000000001
 21
-1.5
 72
    1
 10
90.00000000000001
 20
-1.5
 11
90.00000000000001
 21
-10.79
 72
    1
 10
90.00000000000001
 20
-10.79
 11
94.00000000000001
 21
-10.79
 72
    1
 10
94.00000000000001
 20
-10.79
 11
94.00000000000001
 21
-1.5
 72
    1
 10
94.00000000000001
 20
-1.5
 11
100
 21
-1.5
 72
    1
 10
100
 20
-1.5
 11
100
 21
-10.79
 72
    1
 10
100
 20
-10.79
 11
104
 21
-10.79
 72
    1
 10
104
 20
-10.79
 11
104
 21
33.21
 72
    1
 10
104
 20
33.21
 11
100
 21
33.21
 72
    1
 10
100
 20
33.21
 11
100
 21
23.92
 72
    1
 10
100
 20
23.92
 11
94.00000000000001
 21
23.92
 72
    1
 10
94.00000000000001
 20
23.92
 11
94.00000000000001
 21
33.21
 72
    1
 10
94.00000000000001
 20
33.21
 11
90.00000000000001
 21
33.21
 72
    1
 10
90.00000000000001
 20
33.21
 11
90.00000000000001
 21
23.92
 72
    1
 10
90.00000000000001
 20
23.92
 11
84.00000000000001
 21
23.92
 72
    1
 10
84.00000000000001
 20
23.92
 11
84.00000000000001
 21
33.21
 72
    1
 10
84.00000000000001
 20
33.21
 11
80.00000000000001
 21
33.21
 72
    1
 10
80.00000000000001
 20
33.21
 11
80.00000000000001
 21
23.92
 72
    1
 10
80.00000000000001
 20
23.92
 11
74.00000000000001
 21
23.92
 72
    1
 10
74.00000000000001
 20
23.92
 11
74.00000000000001
 21
33.21
 72
    1
 10
74.00000000000001
 20
33.21
 11
70.00000000000001
 21
33.21
 72
    1
 10
70.00000000000001
 20
33.21
 11
70.00000000000001
 21
23.92
 72
    1
 10
70.00000000000001
 20
23.92
 11
64.00000000000001
 21
23.92
 72
    1
 10
64.00000000000001
 20
23.92
 11
64.00000000000001
 21
33.21
 72
    1
 10
64.00000000000001
 20
33.21
 11
60.00000000000001
 21
33.21
 72
    1
 10
60.00000000000001
 20
33.21
 11
60.00000000000001
 21
23.92
 72
    1
 10
60.00000000000001
 20
23.92
 11
54.00000000000001
 21
23.92
 72
    1
 10
54.00000000000001
 20
23.92
 11
54.00000000000001
 21
33.21
 72
    1
 10
54.00000000000001
 20
33.21
 11
50.00000000000001
 21
33.21
 72
    1
 10
50.00000000000001
 20
33.21
 11
50.00000000000001
 21
23.92
 72
    1
 10
50.00000000000001
 20
23.92
 11
44.00000000000001
 21
23.92
 72
    1
 10
44.00000000000001
 20
23.92
 11
44.00000000000001
 21
33.21
 72
    1
 10
44.00000000000001
 20
33.21
 11
40.00000000000001
 21
33.21
 72
    1
 10
40.00000000000001
 20
33.21
 11
40.00000000000001
 21
23.92
 72
    1
 10
40.00000000000001
 20
23.92
 11
34.00000000000001
 21
23.92
 72
    1
 10
34.00000000000001
 20
23.92
 11
34.00000000000001
 21
33.21
 72
    1
 10
34.00000000000001
 20
33.21
 11
30.00000000000001
 21
33.21
 72
    1
 10
30.00000000000001
 20
33.21
 11
30
 21
23.92
 72
    1
 10
30
 20
23.92
 11
24
 21
23.92
 72
    1
 10
24
 20
23.92
 11
24
 21
33.21
 72
    1
 10
24
 20
33.21
 11
20
 21
33.21
 72
    1
 10
20
 20
33.21
 11
20
 21
23.92
 72
    1
 10
20
 20
23.92
 11
14
 21
23.92
 72
    1
 10
14
 20
23.92
 11
14
 21
33.21
 72
    1
 10
14
 20
33.21
 11
10
 21
33.21
 72
    1
 10
10
 20
33.21
 11
10
 21
23.92
 72
    1
 10
10
 20
23.92
 11
4
 21
23.92
 72
    1
 10
4
 20
23.92
 11
4.000000000000002
 21
33.21
 72
    1
 10
4.000000000000002
 20
33.21
 11
2.03352600998418e-15
 21
33.21
 72
    1
 10
4
 20
22.42
 11
3.999999999999997
 21
0
 72
    1
 10
3.999999999999997
 20
0
 11
9.999999999999996
 21
0
 72
    1
 10
9.999999999999996
 20
0
 11
10
 21
22.42
 72
    1
 10
10
 20
22.42
 11
4
 21
22.42
 72
    1
 10
14
 20
22.42
 11
14
 21
0
 72
    1
 10
14
 20
0
 11
20
 21
0
 72
    1
 10
20
 20
0
 11
20
 21
22.42
 72
    1
 10
20
 20
22.42
 11
14
 21
22.42
 72
    1
 10
24
 20
22.42
 11
24
 21
0
 72
    1
 10
24
 20
0
 11
30
 21
0
 72
    1
 10
30
 20
0
 11
30
 21
22.42
 72
    1
 10
30
 20
22.42
 11
24
 21
22.42
 72
    1
 10
34.00000000000001
 20
22.42
 11
34
 21
0
 72
    1
 10
34.00000000000001
 20
0
 11
40
 21
0
 72
    1
 10
40
 20
0
 11
40.00000000000001
 21
22.42
 72
    1
 10
40.00000000000001
 20
22.42
 11
34.00000000000001
 21
22.42
 72
    1
 10
44.00000000000001
 20
22.42
 11
44
 21
0
 72
    1
 10
44.00000000000001
 20
0
 11
50
 21
0
 72
    1
 10
50
 20
0
 11
50.00000000000001
 21
22.42
 72
    1
 10
50.00000000000001
 20
22.42
 11
44.00000000000001
 21
22.42
 72
    1
 10
54.00000000000001
 20
22.42
 11
54
 21
0
 72
    1
 10
54.00000000000001
 20
0
 11
60
 21
0
 72
    1
 10
60
 20
0
 11
60.00000000000001
 21
22.42
 72
    1
 10
60.00000000000001
 20
22.42
 11
54.00000000000001
 21
22.42
 72
    1
 10
64.00000000000001
 20
22.42
 11
64
 21
0
 72
    1
 10
64.00000000000001
 20
0
 11
70.00000000000001
 21
0
 72
    1
 10
70.00000000000001
 20
0
 11
70.00000000000001
 21
22.42
 72
    1
 10
70.00000000000001
 20
22.42
 11
64.00000000000001
 21
22.42
 72
    1
 10
74.00000000000001
 20
22.42
 11
74.00000000000001
 21
0
 72
    1
 10
74.00000000000001
 20
0
 11
80.00000000000001
 21
0
 72
    1
 10
80.00000000000001
 20
0
 11
80.00000000000001
 21
22.42
 72
    1
 10
80.00000000000001
 20
22.42
 11
74.00000000000001
 21
22.42
 72
    1
 10
84.00000000000001
 20
22.42
 11
84.00000000000001
 21
0
 72
    1
 10
84.00000000000001
 20
0
 11
90.00000000000001
 21
0
 72
    1
 10
90.00000000000001
 20
0
 11
90.00000000000001
 21
22.42
 72
    1
 10
90.00000000000001
 20
22.42
 11
84.00000000000001
 21
22.42
 72
    1
 10
94.00000000000001
 20
22.42
 11
94.00000000000001
 21
0
 72
    1
 10
94.00000000000001
 20
0
 11
100
 21
0
 72
    1
 10
100
 20
0
 11
100
 21
22.42
 72
    1
 10
100
 20
22.42
 11
94.00000000000001
 21
22.42
 97
    0
 75
    0
 76
    1
 98
    0
  0
LINE
  5
9C
100
AcDbEntity
  8
traverses
  6
ByLayer
 62
  256
370
   -1
100
AcDbLine
 10
3.999999999999997
 20
-1.5
 11
3.999999999999996
 21
-10.79
  0
LINE
  5
9D
100
AcDbEntity
  8
traverses
  6
ByLayer
 62
  256
370
   -1
100
AcDbLine
 10
9.999999999999995
 20
-10.79
 11
13.99999999999999
 21
-10.79
  0
LINE
  5
9E
100
AcDbEntity
  8
traverses
  6
ByLayer
 62
  256
370
   -1
100
AcDbLine
 10
3.999999999999997
 20
0
 11
9.999999999999996
 21
0
  0
LINE
  5
9F
100
AcDbEntity
  8
traverses
  6
ByLayer
 62
  256
370
   -1
100
AcDbLine
 10
9.999999999999996
 20
-1.5
 11
9.999999999999995
 21
-10.79
  0
LINE
  5
A0
100
AcDbEntity
  8
traverses
  6
ByLayer
 62
  256
370
   -1
100
AcDbLine
 10
3.999999999999997
 20
-1.5
 11
9.999999999999996
 21
-1.5
  0
LINE
  5
A1
100
AcDbEntity
  8
traverses
  6
ByLayer
 62
  256
370
   -1
100
AcDbLine
 10
14
 20
-1.5
 11
13.99999999999999
 21
-10.79
  0
LINE
  5
A2
100
AcDbEntity
  8
traverses
  6
ByLayer
 62
  256
370
   -1
100
AcDbLine
 10
20
 20
-10.79
 11
24
 21
-10.79
  0
LINE
  5
A3
100
AcDbEntity
  8
traverses
  6
ByLayer
 62
  256
370
   -1
100
AcDbLine
 10
14
 20
0
 11
20
 21
0
  0
LINE
  5
A4
100
AcDbEntity
  8
traverses
  6
ByLayer
 62
  256
370
   -1
100
AcDbLine
 10
20
 20
-1.5
 11
20
 21
-10.79
  0
LINE
  5
A5
100
AcDbEntity
  8
traverses
  6
ByLayer
 62
  256
370
   -1
100
AcDbLine
 10
14
 20
-1.5
 11
20
 21
-1.5
  0
LINE
  5
A6
100
AcDbEntity
  8
traverses
  6
ByLayer
 62
  256
370
   -1
100
AcDbLine
 10
24
 20
-1.5
 11
24
 21
-10.79
  0
LINE
  5
A7
100
AcDbEntity
  8
traverses
  6
ByLayer
 62
  256
370
   -1
100
AcDbLine
 10
30
 20
-10.79
 11
34
 21
-10.79
  0
LINE
  5
A8
100
AcDbEntity
  8
traverses
  6
ByLayer
 62
  256
370
   -1
100
AcDbLine
 10
24
 20
0
 11
30
 21
0
  0
LINE
  5
A9
100
AcDbEntity
  8
traverses
  6
ByLayer
 62
  256
370
   -1
100
AcDbLine
 10
30
 20
-1.5
 11
30
 21
-10.79
  0
LINE
  5
AA
100
AcDbEntity
  8
traverses
  6
ByLayer
 62
  256
370
   -1
100
AcDbLine
 10
24
 20
-1.5
 11
30
 21
-1.5
  0
LINE
  5
AB
100
AcDbEntity
  8
traverses
  6
ByLayer
 62
  256
370
   -1
100
AcDbLine
 10
34
 20
-1.5
 11
34
 21
-10.79
  0
LINE
  5
AC
100
AcDbEntity
  8
traverses
  6
ByLayer
 62
  256
370
   -1
100
AcDbLine
 10
40
 20
-10.79
 11
44
 21
-10.79
  0
LINE
  5
AD
100
AcDbEntity
  8
traverses
  6
ByLayer
 62
  256
370
   -1
100
AcDbLine
 10
34.00000000000001
 20
0
 11
40
 21
0
  0
LINE
  5
AE
100
AcDbEntity
  8
traverses
  6
ByLayer
 62
  256
370
   -1
100
AcDbLine
 10
40
 20
-1.5
 11
40
 21
-10.79
  0
LINE
  5
AF
100
AcDbEntity
  8
traverses
  6
ByLayer
 62
  256
370
   -1
100
AcDbLine
 10
34.00000000000001
 20
-1.5
 11
40
 21
-1.5
  0
LINE
  5
B0
100
AcDbEntity
  8
traverses
  6
ByLayer
 62
  256
370
   -1
100
AcDbLine
 10
44
 20
-1.5
 11
44
 21
-10.79
  0
LINE
  5
B1
100
AcDbEntity
  8
traverses
  6
ByLayer
 62
  256
370
   -1
100
AcDbLine
 10
50
 20
-10.79
 11
54
 21
-10.79
  0
LINE
  5
B2
100
AcDbEntity
  8
traverses
  6
ByLayer
 62
  256
370
   -1
100
AcDbLine
 10
44.00000000000001
 20
0
 11
50
 21
0
  0
LINE
  5
B3
100
AcDbEntity
  8
traverses
  6
ByLayer
 62
  256
370
   -1
100
AcDbLine
 10
50
 20
-1.5
 11
50
 21
-10.79
  0
LINE
  5
B4
100
AcDbEntity
  8
traverses
  6
ByLayer
 62
  256
370
   -1
100
AcDbLine
 10
44.00000000000001
 20
-1.5
 11
50
 21
-1.5
  0
LINE
  5
B5
100
AcDbEntity
  8
traverses
  6
ByLayer
 62
  256
370
   -1
100
AcDbLine
 10
54
 20
-1.5
 11
54
 21
-10.79
  0
LINE
  5
B6
100
AcDbEntity
  8
traverses
  6
ByLayer
 62
  256
370
   -1
100
AcDbLine
 10
60
 20
-10.79
 11
64
 21
-10.79
  0
LINE
  5
B7
100
AcDbEntity
  8
traverses
  6
ByLayer
 62
  256
370
   -1
100
AcDbLine
 10
54.00000000000001
 20
0
 11
60
 21
0
  0
LINE
  5
B8
100
AcDbEntity
  8
traverses
  6
ByLayer
 62
  256
370
   -1
100
AcDbLine
 10
60
 20
-1.5
 11
60
 21
-10.79
  0
LINE
  5
B9
100
AcDbEntity
  8
traverses
  6
ByLayer
 62
  256
370
   -1
100
AcDbLine
 10
54.00000000000001
 20
-1.5
 11
60
 21
-1.5
  0
LINE
  5
BA
100
AcDbEntity
  8
traverses
  6
ByLayer
 62
  256
370
   -1
100
AcDbLine
 10
64
 20
-1.5
 11
64
 21
-10.79
  0
LINE
  5
BB
100
AcDbEntity
  8
traverses
  6
ByLayer
 62
  256
370
   -1
100
AcDbLine
 10
70.00000000000001
 20
-10.79
 11
74.00000000000001
 21
-10.79
  0
LINE
  5
BC
100
AcDbEntity
  8
traverses
  6
ByLayer
 62
  256
370
   -1
100
AcDbLine
 10
64.00000000000001
 20
0
 11
70.00000000000001
 21
0
  0
LINE
  5
BD
100
AcDbEntity
  8
traverses
  6
ByLayer
 62
  256
370
   -1
100
AcDbLine
 10
70.00000000000001
 20
-1.5
 11
70.00000000000001
 21
-10.79
  0
LINE
  5
BE
100
AcDbEntity
  8
traverses
  6
ByLayer
 62
  256
370
   -1
100
AcDbLine
 10
64.00000000000001
 20
-1.5
 11
70.00000000000001
 21
-1.5
  0
LINE
  5
BF
100
AcDbEntity
  8
traverses
  6
ByLayer
 62
  256
370
   -1
100
AcDbLine
 10
74.00000000000001
 20
-1.5
 11
74.00000000000001
 21
-10.79
  0
LINE
  5
C0
100
AcDbEntity
  8
traverses
  6
ByLayer
 62
  256
370
   -1
100
AcDbLine
 10
80.00000000000001
 20
-10.79
 11
84.00000000000001
 21
-10.79
  0
LINE
  5
C1
100
AcDbEntity
  8
traverses
  6
ByLayer
 62
  256
370
   -1
100
AcDbLine
 10
74.00000000000001
 20
0
 11
80.00000000000001
 21
0
  0
LINE
  5
C2
100
AcDbEntity
  8
traverses
  6
ByLayer
 62
  256
370
   -1
100
AcDbLine
 10
80.00000000000001
 20
-1.5
 11
80.00000000000001
 21
-10.79
  0
LINE
  5
C3
100
AcDbEntity
  8
traverses
  6
ByLayer
 62
  256
370
   -1
100
AcDbLine
 10
74.00000000000001
 20
-1.5
 11
80.00000000000001
 21
-1.5
  0
LINE
  5
C4
100
AcDbEntity
  8
traverses
  6
ByLayer
 62
  256
370
   -1
100
AcDbLine
 10
84.00000000000001
 20
-1.5
 11
84.00000000000001
 21
-10.79
  0
LINE
  5
C5
100
AcDbEntity
  8
traverses
  6
ByLayer
 62
  256
370
   -1
100
AcDbLine
 10
90.00000000000001
 20
-10.79
 11
94.00000000000001
 21
-10.79
  0
LINE
  5
C6
100
AcDbEntity
  8
traverses
  6
ByLayer
 62
  256
370
   -1
100
AcDbLine
 10
84.00000000000001
 20
0
 11
90.00000000000001
 21
0
  0
LINE
  5
C7
100
AcDbEntity
  8
traverses
  6
ByLayer
 62
  256
370
   -1
100
AcDbLine
 10
90.00000000000001
 20
-1.5
 11
90.00000000000001
 21
-10.79
  0
LINE
  5
C8
100
AcDbEntity
  8
traverses
  6
ByLayer
 62
  256
370
   -1
100
AcDbLine
 10
84.00000000000001
 20
-1.5
 11
90.00000000000001
 21
-1.5
  0
LINE
  5
C9
100
AcDbEntity
  8
traverses
  6
ByLayer
 62
  256
370
   -1
100
AcDbLine
 10
94.00000000000001
 20
-1.5
 11
94.00000000000001
 21
-10.79
  0
LINE
  5
CA
100
AcDbEntity
  8
traverses
  6
ByLayer
 62
  256
370
   -1
100
AcDbLine
 10
100
 20
-1.5
 11
100
 21
-10.79
  0
LINE
  5
CB
100
AcDbEntity
  8
traverses
  6
ByLayer
 62
  256
370
   -1
100
AcDbLine
 10
1.999999999999996
 20
-10.79
 11
3.999999999999996
 21
-10.79
  0
LINE
  5
CC
100
AcDbEntity
  8
traverses
  6
ByLayer
 62
  256
370
   -1
100
AcDbLine
 10
3.999999999999998
 20
9.210000000000001
 11
3.999999999999997
 21
0
  0
LINE
  5
CD
100
AcDbEntity
  8
traverses
  6
ByLayer
 62
  256
370
   -1
100
AcDbLine
 10
1.999999999999999
 20
9.210000000000001
 11
3.999999999999998
 21
9.210000000000001
  0
LINE
  5
CE
100
AcDbEntity
  8
traverses
  6
ByLayer
 62
  256
370
   -1
100
AcDbLine
 10
1.999999999999999
 20
9.210000000000001
 11
1.999999999999996
 21
-10.79
  0
LINE
  5
CF
100
AcDbEntity
  8
rails
  6
ByLayer
 62
  256
370
   -1
100
AcDbLine
 10
1.999999999999998
 20
0
 11
1.999999999999997
 21
-1.5
  0
LINE
  5
D0
100
AcDbEntity
  8
traverses
  6
ByLayer
 62
  256
370
   -1
100
AcDbLine
 10
100
 20
-10.79
 11
102
 21
-10.79
  0
LINE
  5
D1
100
AcDbEntity
  8
traverses
  6
ByLayer
 62
  256
370
   -1
100
AcDbLine
 10
102
 20
13.11
 11
104.2
 21
13.11
  0
LINE
  5
D2
100
AcDbEntity
  8
traverses
  6
ByLayer
 62
  256
370
   -1
100
AcDbLine
 10
102
 20
9.31
 11
102
 21
-10.79
  0
LINE
  5
D3
100
AcDbEntity
  8
traverses
  6
ByLayer
 62
  256
370
   -1
100
AcDbLine
 10
102
 20
9.31
 11
104.2
 21
9.31
  0
LINE
  5
D4
100
AcDbEntity
  8
traverses
  6
ByLayer
 62
  256
370
   -1
100
AcDbLine
 10
104.2
 20
16.11
 11
106.4
 21
16.11
  0
LINE
  5
D5
100
AcDbEntity
  8
traverses
  6
ByLayer
 62
  256
370
   -1
100
AcDbLine
 10
104.2
 20
16.11
 11
104.2
 21
13.11
  0
LINE
  5
D6
100
AcDbEntity
  8
traverses
  6
ByLayer
 62
  256
370
   -1
100
AcDbLine
 10
106.4
 20
16.11
 11
106.4
 21
6.31
  0
LINE
  5
D7
100
AcDbEntity
  8
traverses
  6
ByLayer
 62
  256
370
   -1
100
AcDbLine
 10
104.2
 20
6.31
 11
106.4
 21
6.31
  0
LINE
  5
D8
100
AcDbEntity
  8
traverses
  6
ByLayer
 62
  256
370
   -1
100
AcDbLine
 10
104.2
 20
9.31
 11
104.2
 21
6.31
  0
LINE
  5
D9
100
AcDbEntity
  8
rails
  6
ByLayer
 62
  256
370
   -1
100
AcDbLine
 10
1.999999999999998
 20
0
 11
102
 21
0
  0
LINE
  5
DA
100
AcDbEntity
  8
rails
  6
ByLayer
 62
  256
370
   -1
100
AcDbLine
 10
102
 20
-1.5
 11
1.999999999999997
 21
-1.5
  0
LINE
  5
DB
100
AcDbEntity
  8
rails
  6
ByLayer
 62
  256
370
   -1
100
AcDbLine
 10
102
 20
0
 11
102
 21
-1.5
  0
LINE
  5
DC
100
AcDbEntity
  8
traverses
  6
ByLayer
 62
  256
370
   -1
100
AcDbLine
 10
94.00000000000001
 20
0
 11
100
 21
0
  0
LINE
  5
DD
100
AcDbEntity
  8
traverses
  6
ByLayer
 62
  256
370
   -1
100
AcDbLine
 10
94.00000000000001
 20
-1.5
 11
100
 21
-1.5
  0
LINE
  5
DE
100
AcDbEntity
  8
traverses
  6
ByLayer
 62
  256
370
   -1
100
AcDbLine
 10
4.000000000000002
 20
34.71
 11
4
 21
25.42
  0
LINE
  5
DF
100
AcDbEntity
  8
traverses
  6
ByLayer
 62
  256
370
   -1
100
AcDbLine
 10
10
 20
34.71
 11
14
 21
34.71
  0
LINE
  5
E0
100
AcDbEntity
  8
traverses
  6
ByLayer
 62
  256
370
   -1
100
AcDbLine
 10
10
 20
34.71
 11
10
 21
25.42
  0
LINE
  5
E1
100
AcDbEntity
  8
traverses
  6
ByLayer
 62
  256
370
   -1
100
AcDbLine
 10
4
 20
25.42
 11
10
 21
25.42
  0
LINE
  5
E2
100
AcDbEntity
  8
traverses
  6
ByLayer
 62
  256
370
   -1
100
AcDbLine
 10
14
 20
34.71
 11
14
 21
25.42
  0
LINE
  5
E3
100
AcDbEntity
  8
traverses
  6
ByLayer
 62
  256
370
   -1
100
AcDbLine
 10
20
 20
34.71
 11
24
 21
34.71
  0
LINE
  5
E4
100
AcDbEntity
  8
traverses
  6
ByLayer
 62
  256
370
   -1
100
AcDbLine
 10
20
 20
34.71
 11
20
 21
25.42
  0
LINE
  5
E5
100
AcDbEntity
  8
traverses
  6
ByLayer
 62
  256
370
   -1
100
AcDbLine
 10
14
 20
25.42
 11
20
 21
25.42
  0
LINE
  5
E6
100
AcDbEntity
  8
traverses
  6
ByLayer
 62
  256
370
   -1
100
AcDbLine
 10
24
 20
34.71
 11
24
 21
25.42
  0
LINE
  5
E7
100
AcDbEntity
  8
traverses
  6
ByLayer
 62
  256
370
   -1
100
AcDbLine
 10
30.00000000000001
 20
34.71
 11
34.00000000000001
 21
34.71
  0
LINE
  5
E8
100
AcDbEntity
  8
traverses
  6
ByLayer
 62
  256
370
   -1
100
AcDbLine
 10
30.00000000000001
 20
34.71
 11
30
 21
25.42
  0
LINE
  5
E9
100
AcDbEntity
  8
traverses
  6
ByLayer
 62
  256
370
   -1
100
AcDbLine
 10
24
 20
25.42
 11
30
 21
25.42
  0
LINE
  5
EA
100
AcDbEntity
  8
traverses
  6
ByLayer
 62
  256
370
   -1
100
AcDbLine
 10
24
 20
23.92
 11
30
 21
23.92
  0
LINE
  5
EB
100
AcDbEntity
  8
traverses
  6
ByLayer
 62
  256
370
   -1
100
AcDbLine
 10
34.00000000000001
 20
34.71
 11
34.00000000000001
 21
25.42
  0
LINE
  5
EC
100
AcDbEntity
  8
traverses
  6
ByLayer
 62
  256
370
   -1
100
AcDbLine
 10
40.00000000000001
 20
34.71
 11
44.00000000000001
 21
34.71
  0
LINE
  5
ED
100
AcDbEntity
  8
traverses
  6
ByLayer
 62
  256
370
   -1
100
AcDbLine
 10
40.00000000000001
 20
34.71
 11
40.00000000000001
 21
25.42
  0
LINE
  5
EE
100
AcDbEntity
  8
traverses
  6
ByLayer
 62
  256
370
   -1
100
AcDbLine
 10
34.00000000000001
 20
25.42
 11
40.00000000000001
 21
25.42
  0
LINE
  5
EF
100
AcDbEntity
  8
traverses
  6
ByLayer
 62
  256
370
   -1
100
AcDbLine
 10
44.00000000000001
 20
34.71
 11
44.00000000000001
 21
25.42
  0
LINE
  5
F0
100
AcDbEntity
  8
traverses
  6
ByLayer
 62
  256
370
   -1
100
AcDbLine
 10
50.00000000000001
 20
34.71
 11
54.00000000000001
 21
34.71
  0
LINE
  5
F1
100
AcDbEntity
  8
traverses
  6
ByLayer
 62
  256
370
   -1
100
AcDbLine
 10
50.00000000000001
 20
34.71
 11
50.00000000000001
 21
25.42
  0
LINE
  5
F2
100
AcDbEntity
  8
traverses
  6
ByLayer
 62
  256
370
   -1
100
AcDbLine
 10
44.00000000000001
 20
25.42
 11
50.00000000000001
 21
25.42
  0
LINE
  5
F3
100
AcDbEntity
  8
traverses
  6
ByLayer
 62
  256
370
   -1
100
AcDbLine
 10
54.00000000000001
 20
34.71
 11
54.00000000000001
 21
25.42
  0
LINE
  5
F4
100
AcDbEntity
  8
traverses
  6
ByLayer
 62
  256
370
   -1
100
AcDbLine
 10
60.00000000000001
 20
34.71
 11
64.00000000000001
 21
34.71
  0
LINE
  5
F5
100
AcDbEntity
  8
traverses
  6
ByLayer
 62
  256
370
   -1
100
AcDbLine
 10
60.00000000000001
 20
34.71
 11
60.00000000000001
 21
25.42
  0
LINE
  5
F6
100
AcDbEntity
  8
traverses
  6
ByLayer
 62
  256
370
   -1
100
AcDbLine
 10
54.00000000000001
 20
25.42
 11
60.00000000000001
 21
25.42
  0
LINE
  5
F7
100
AcDbEntity
  8
traverses
  6
ByLayer
 62
  256
370
   -1
100
AcDbLine
 10
54.00000000000001
 20
23.92
 11
60.00000000000001
 21
23.92
  0
LINE
  5
F8
100
AcDbEntity
  8
traverses
  6
ByLayer
 62
  256
370
   -1
100
AcDbLine
 10
64.00000000000001
 20
34.71
 11
64.00000000000001
 21
25.42
  0
LINE
  5
F9
100
AcDbEntity
  8
traverses
  6
ByLayer
 62
  256
370
   -1
100
AcDbLine
 10
70.00000000000001
 20
34.71
 11
74.00000000000001
 21
34.71
  0
LINE
  5
FA
100
AcDbEntity
  8
traverses
  6
ByLayer
 62
  256
370
   -1
100
AcDbLine
 10
70.00000000000001
 20
34.71
 11
70.00000000000001
 21
25.42
  0
LINE
  5
FB
100
AcDbEntity
  8
traverses
  6
ByLayer
 62
  256
370
   -1
100
AcDbLine
 10
64.00000000000001
 20
25.42
 11
70.00000000000001
 21
25.42
  0
LINE
  5
FC
100
AcDbEntity
  8
traverses
  6
ByLayer
 62
  256
370
   -1
100
AcDbLine
 10
64.00000000000001
 20
23.92
 11
70.00000000000001
 21
23.92
  0
LINE
  5
FD
100
AcDbEntity
  8
traverses
  6
ByLayer
 62
  256
370
   -1
100
AcDbLine
 10
74.00000000000001
 20
34.71
 11
74.00000000000001
 21
25.42
  0
LINE
  5
FE
100
AcDbEntity
  8
traverses
  6
ByLayer
 62
  256
370
   -1
100
AcDbLine
 10
80.00000000000001
 20
34.71
 11
84.00000000000001
 21
34.71
  0
LINE
  5
FF
100
AcDbEntity
  8
traverses
  6
ByLayer
 62
  256
370
   -1
100
AcDbLine
 10
80.00000000000001
 20
34.71
 11
80.00000000000001
 21
25.42
  0
LINE
  5
100
100
AcDbEntity
  8
traverses
  6
ByLayer
 62
  256
370
   -1
100
AcDbLine
 10
74.00000000000001
 20
25.42
 11
80.00000000000001
 21
25.42
  0
LINE
  5
101
100
AcDbEntity
  8
traverses
  6
ByLayer
 62
  256
370
   -1
100
AcDbLine
 10
74.00000000000001
 20
23.92
 11
80.00000000000001
 21
23.92
  0
LINE
  5
102
100
AcDbEntity
  8
traverses
  6
ByLayer
 62
  256
370
   -1
100
AcDbLine
 10
84.00000000000001
 20
34.71
 11
84.00000000000001
 21
25.42
  0
LINE
  5
103
100
AcDbEntity
  8
traverses
  6
ByLayer
 62
  256
370
   -1
100
AcDbLine
 10
90.00000000000001
 20
34.71
 11
94.00000000000001
 21
34.71
  0
LINE
  5
104
100
AcDbEntity
  8
traverses
  6
ByLayer
 62
  256
370
   -1
100
AcDbLine
 10
90.00000000000001
 20
34.71
 11
90.00000000000001
 21
25.42
  0
LINE
  5
105
100
AcDbEntity
  8
traverses
  6
ByLayer
 62
  256
370
   -1
100
AcDbLine
 10
84.00000000000001
 20
25.42
 11
90.00000000000001
 21
25.42
  0
LINE
  5
106
100
AcDbEntity
  8
traverses
  6
ByLayer
 62
  256
370
   -1
100
AcDbLine
 10
84.00000000000001
 20
23.92
 11
90.00000000000001
 21
23.92
  0
LINE
  5
107
100
AcDbEntity
  8
traverses
  6
ByLayer
 62
  256
370
   -1
100
AcDbLine
 10
94.00000000000001
 20
34.71
 11
94.00000000000001
 21
25.42
  0
LINE
  5
108
100
AcDbEntity
  8
traverses
  6
ByLayer
 62
  256
370
   -1
100
AcDbLine
 10
100
 20
34.71
 11
100
 21
25.42
  0
LINE
  5
109
100
AcDbEntity
  8
traverses
  6
ByLayer
 62
  256
370
   -1
100
AcDbLine
 10
2.000000000000002
 20
34.71
 11
4.000000000000002
 21
34.71
  0
LINE
  5
10A
100
AcDbEntity
  8
traverses
  6
ByLayer
 62
  256
370
   -1
100
AcDbLine
 10
100
 20
34.71
 11
102
 21
34.71
  0
LINE
  5
10B
100
AcDbEntity
  8
traverses
  6
ByLayer
 62
  256
370
   -1
100
AcDbLine
 10
94.00000000000001
 20
25.42
 11
100
 21
25.42
  0
LINE
  5
10C
100
AcDbEntity
  8
traverses
  6
ByLayer
 62
  256
370
   -1
100
AcDbLine
 10
1.999999999999999
 20
13.21
 11
3.999999999999999
 21
13.21
  0
LINE
  5
10D
100
AcDbEntity
  8
traverses
  6
ByLayer
 62
  256
370
   -1
100
AcDbLine
 10
2.000000000000002
 20
34.71
 11
1.999999999999999
 21
13.21
  0
LINE
  5
10E
100
AcDbEntity
  8
traverses
  6
ByLayer
 62
  256
370
   -1
100
AcDbLine
 10
4
 20
23.92
 11
3.999999999999999
 21
13.21
  0
LINE
  5
10F
100
AcDbEntity
  8
traverses
  6
ByLayer
 62
  256
370
   -1
100
AcDbLine
 10
10
 20
23.92
 11
9.999999999999996
 21
0
  0
LINE
  5
110
100
AcDbEntity
  8
traverses
  6
ByLayer
 62
  256
370
   -1
100
AcDbLine
 10
4
 20
23.92
 11
10
 21
23.92
  0
LINE
  5
111
100
AcDbEntity
  8
traverses
  6
ByLayer
 62
  256
370
   -1
100
AcDbLine
 10
14
 20
23.92
 11
14
 21
0
  0
LINE
  5
112
100
AcDbEntity
  8
traverses
  6
ByLayer
 62
  256
370
   -1
100
AcDbLine
 10
14
 20
23.92
 11
20
 21
23.92
  0
LINE
  5
113
100
AcDbEntity
  8
traverses
  6
ByLayer
 62
  256
370
   -1
100
AcDbLine
 10
20
 20
23.92
 11
20
 21
0
  0
LINE
  5
114
100
AcDbEntity
  8
traverses
  6
ByLayer
 62
  256
370
   -1
100
AcDbLine
 10
24
 20
23.92
 11
24
 21
0
  0
LINE
  5
115
100
AcDbEntity
  8
traverses
  6
ByLayer
 62
  256
370
   -1
100
AcDbLine
 10
30
 20
23.92
 11
30
 21
0
  0
LINE
  5
116
100
AcDbEntity
  8
traverses
  6
ByLayer
 62
  256
370
   -1
100
AcDbLine
 10
34.00000000000001
 20
23.92
 11
34
 21
0
  0
LINE
  5
117
100
AcDbEntity
  8
traverses
  6
ByLayer
 62
  256
370
   -1
100
AcDbLine
 10
40.00000000000001
 20
23.92
 11
40
 21
0
  0
LINE
  5
118
100
AcDbEntity
  8
traverses
  6
ByLayer
 62
  256
370
   -1
100
AcDbLine
 10
34.00000000000001
 20
23.92
 11
40.00000000000001
 21
23.92
  0
LINE
  5
119
100
AcDbEntity
  8
traverses
  6
ByLayer
 62
  256
370
   -1
100
AcDbLine
 10
44.00000000000001
 20
23.92
 11
44
 21
0
  0
LINE
  5
11A
100
AcDbEntity
  8
traverses
  6
ByLayer
 62
  256
370
   -1
100
AcDbLine
 10
44.00000000000001
 20
23.92
 11
50
 21
23.92
  0
LINE
  5
11B
100
AcDbEntity
  8
traverses
  6
ByLayer
 62
  256
370
   -1
100
AcDbLine
 10
50
 20
23.92
 11
50
 21
0
  0
LINE
  5
11C
100
AcDbEntity
  8
traverses
  6
ByLayer
 62
  256
370
   -1
100
AcDbLine
 10
54.00000000000001
 20
23.92
 11
54
 21
0
  0
LINE
  5
11D
100
AcDbEntity
  8
traverses
  6
ByLayer
 62
  256
370
   -1
100
AcDbLine
 10
60.00000000000001
 20
23.92
 11
60
 21
0
  0
LINE
  5
11E
100
AcDbEntity
  8
traverses
  6
ByLayer
 62
  256
370
   -1
100
AcDbLine
 10
64.00000000000001
 20
23.92
 11
64
 21
0
  0
LINE
  5
11F
100
AcDbEntity
  8
traverses
  6
ByLayer
 62
  256
370
   -1
100
AcDbLine
 10
70.00000000000001
 20
23.92
 11
70.00000000000001
 21
0
  0
LINE
  5
120
100
AcDbEntity
  8
traverses
  6
ByLayer
 62
  256
370
   -1
100
AcDbLine
 10
74.00000000000001
 20
23.92
 11
74.00000000000001
 21
0
  0
LINE
  5
121
100
AcDbEntity
  8
traverses
  6
ByLayer
 62
  256
370
   -1
100
AcDbLine
 10
80.00000000000001
 20
23.92
 11
80.00000000000001
 21
0
  0
LINE
  5
122
100
AcDbEntity
  8
traverses
  6
ByLayer
 62
  256
370
   -1
100
AcDbLine
 10
84.00000000000001
 20
23.92
 11
84.00000000000001
 21
0
  0
LINE
  5
123
100
AcDbEntity
  8
traverses
  6
ByLayer
 62
  256
370
   -1
100
AcDbLine
 10
90.00000000000001
 20
23.92
 11
90.00000000000001
 21
0
  0
LINE
  5
124
100
AcDbEntity
  8
traverses
  6
ByLayer
 62
  256
370
   -1
100
AcDbLine
 10
94.00000000000001
 20
23.92
 11
94.00000000000001
 21
0
  0
LINE
  5
125
100
AcDbEntity
  8
traverses
  6
ByLayer
 62
  256
370
   -1
100
AcDbLine
 10
94.00000000000001
 20
23.92
 11
99.99999999999999
 21
23.92
  0
LINE
  5
126
100
AcDbEntity
  8
traverses
  6
ByLayer
 62
  256
370
   -1
100
AcDbLine
 10
99.99999999999999
 20
23.92
 11
100
 21
0
  0
LINE
  5
127
100
AcDbEntity
  8
traverses
  6
ByLayer
 62
  256
370
   -1
100
AcDbLine
 10
102
 20
34.71
 11
102
 21
13.11
  0
LINE
  5
128
100
AcDbEntity
  8
rails
  6
ByLayer
 62
  256
370
   -1
100
AcDbLine
 10
2.000000000000002
 20
25.42
 11
2.000000000000001
 21
23.92
  0
LINE
  5
129
100
AcDbEntity
  8
rails
  6
ByLayer
 62
  256
370
   -1
100
AcDbLine
 10
2.000000000000002
 20
25.42
 11
102
 21
25.42
  0
LINE
  5
12A
100
AcDbEntity
  8
rails
  6
ByLayer
 62
  256
370
   -1
100
AcDbLine
 10
102
 20
23.92
 11
2.000000000000001
 21
23.92
  0
LINE
  5
12B
100
AcDbEntity
  8
rails
  6
ByLayer
 62
  256
370
   -1
100
AcDbLine
 10
102
 20
25.42
 11
102
 21
23.92
  0
LINE
  5
12C
100
AcDbEntity
  8
rails-courbes-traverses
  6
ByLayer
 62
  256
370
   -1
100
AcDbLine
 10
101.9999999999999
 20
-401.5
 11
1.999999999999923
 21
-401.5
  0
LINE
  5
12D
100
AcDbEntity
  8
rails-courbes-traverses
  6
ByLayer
 62
  256
370
   -1
100
AcDbLine
 10
-47.30295571911172
 20
8.706499496092647
 11
-45.4235704775399
 21
9.390539782743984
  0
LINE
  5
12E
100
AcDbEntity
  8
rails-courbes-traverses
  6
ByLayer
 62
  256
370
   -1
100
AcDbLine
 10
-36.70023008119075
 20
12.43114281330126
 11
-32.89600401601014
 21
13.66721079080105
  0
LINE
  5
12F
100
AcDbEntity
  8
rails-courbes-traverses
  6
ByLayer
 62
  256
370
   -1
100
AcDbLine
 10
-22.16974909490483
 20
17.01955536749926
 11
-18.32470231115155
 21
18.12210479076725
  0
LINE
  5
130
100
AcDbEntity
  8
rails-courbes-traverses
  6
ByLayer
 62
  256
370
   -1
100
AcDbLine
 10
-7.487986396230356
 20
21.09806631147731
 11
-3.606803491126371
 21
22.06575389387598
  0
LINE
  5
131
100
AcDbEntity
  8
rails-courbes-traverses
  6
ByLayer
 62
  256
370
   -1
100
AcDbLine
 10
7.327170548536529
 20
24.66170660789672
 11
11.23976095147175
 21
25.49335337116776
  0
LINE
  5
132
100
AcDbEntity
  8
rails-courbes-traverses
  6
ByLayer
 62
  256
370
   -1
100
AcDbLine
 10
22.2576717527586
 20
27.70613450999288
 11
26.19690276480743
 21
28.4007272206606
  0
LINE
  5
133
100
AcDbEntity
  8
rails-courbes-traverses
  6
ByLayer
 62
  256
370
   -1
100
AcDbLine
 10
37.2853267005859
 20
30.22764085132536
 11
41.24639897555218
 21
30.78433325516562
  0
LINE
  5
134
100
AcDbEntity
  8
rails-courbes-traverses
  6
ByLayer
 62
  256
370
   -1
100
AcDbLine
 10
52.3918265092973
 20
32.22315356482552
 11
56.36991409077039
 21
32.64126741789613
  0
LINE
  5
135
100
AcDbEntity
  8
rails-courbes-traverses
  6
ByLayer
 62
  256
370
   -1
100
AcDbLine
 10
67.5587662358538
 20
33.6902414256371
 11
71.5490224368931
 21
33.9692673206136
  0
LINE
  5
136
100
AcDbEntity
  8
rails-courbes-traverses
  6
ByLayer
 62
  256
370
   -1
100
AcDbLine
 10
82.76766730048655
 20
34.62711701318929
 11
86.76523060856293
 21
34.76671499999929
  0
LINE
  5
137
100
AcDbEntity
  8
rails-courbes-traverses
  6
ByLayer
 62
  256
370
   -1
100
AcDbLine
 10
99.9999999999999
 20
35.03263888889326
 11
101.9999999999999
 21
35.03263888889326
  0
LINE
  5
138
100
AcDbEntity
  8
rails-courbes-traverses
  6
ByLayer
 62
  256
370
   -1
100
AcDbLine
 10
-31.63069019877209
 20
-34.35269613273775
 11
-29.74955418356334
 21
-33.67346605712046
  0
LINE
  5
139
100
AcDbEntity
  8
rails-courbes-traverses
  6
ByLayer
 62
  256
370
   -1
100
AcDbLine
 10
-22.5339284803875
 20
-31.16825040615037
 11
-18.73602987223578
 21
-29.91270851832055
  0
LINE
  5
13A
100
AcDbEntity
  8
rails-courbes-traverses
  6
ByLayer
 62
  256
370
   -1
100
AcDbLine
 10
-9.533674102169403
 20
-27.04767507562318
 11
-5.694271291259821
 21
-25.92544277993944
  0
LINE
  5
13B
100
AcDbEntity
  8
rails-courbes-traverses
  6
ByLayer
 62
  256
370
   -1
100
AcDbLine
 10
3.602466877496715
 20
-23.38331222305742
 11
7.478696170253739
 21
-22.39575678670543
  0
LINE
  5
13C
100
AcDbEntity
  8
rails-courbes-traverses
  6
ByLayer
 62
  256
370
   -1
100
AcDbLine
 10
16.85849009429458
 20
-20.17962631013712
 11
20.76682328059317
 21
-19.32795091729482
  0
LINE
  5
13D
100
AcDbEntity
  8
rails-courbes-traverses
  6
ByLayer
 62
  256
370
   -1
100
AcDbLine
 10
30.21824512586834
 20
-17.44052053465719
 11
34.15392050375356
 21
-16.7257628206002
  0
LINE
  5
13E
100
AcDbEntity
  8
rails-courbes-traverses
  6
ByLayer
 62
  256
370
   -1
100
AcDbLine
 10
43.66545516862451
 20
-15.16933207507815
 11
47.62367772389275
 21
-14.59236286198108
  0
LINE
  5
13F
100
AcDbEntity
  8
rails-courbes-traverses
  6
ByLayer
 62
  256
370
   -1
100
AcDbLine
 10
57.18373686850995
 20
-13.36882802468823
 11
61.15968411669502
 21
-12.93035026066194
  0
LINE
  5
140
100
AcDbEntity
  8
rails-courbes-traverses
  6
ByLayer
 62
  256
370
   -1
100
AcDbLine
 10
70.75662028160497
 20
-12.04120202032645
 11
74.74544814343271
 21
-11.74174992298408
  0
LINE
  5
141
100
AcDbEntity
  8
rails-courbes-traverses
  6
ByLayer
 62
  256
370
   -1
100
AcDbLine
 10
84.36756894021316
 20
-11.18807156977401
 11
88.36441764336575
 21
-11.02800997536912
  0
LINE
  5
142
100
AcDbEntity
  8
rails-courbes-traverses
  6
ByLayer
 62
  256
370
   -1
100
AcDbLine
 10
99.9999999999999
 20
-10.79511891966335
 11
101.9999999999999
 21
-10.79000000000003
  0
LINE
  5
143
100
AcDbEntity
  8
rails-courbes-traverses
  6
ByLayer
 62
  256
370
   -1
100
AcDbLine
 10
-42.1342520701564
 20
0.3532117330613762
 11
-45.4235704775399
 21
9.390539782743984
  0
ARC
  5
144
100
AcDbEntity
  8
rails-courbes-traverses
  6
ByLayer
 62
  256
370
   -1
100
AcDbCircle
 10
101.9999999999999
 20
-401.5
 40
426.92
100
AcDbArc
 50
108.5368370452925
 51
109.7315844228913
  0
ARC
  5
145
100
AcDbEntity
  8
rails-courbes-traverses
  6
ByLayer
 62
  256
370
   -1
100
AcDbCircle
 10
101.9999999999999
 20
-401.5
 40
425.42
100
AcDbArc
 50
108.5387299493819
 51
109.7306380021149
  0
ARC
  5
146
100
AcDbEntity
  8
rails-courbes-traverses
  6
ByLayer
 62
  256
370
   -1
100
AcDbCircle
 10
101.9999999999999
 20
-401.5
 40
401.5
100
AcDbArc
 50
108.5708266736059
 51
109.7145902043952
  0
LINE
  5
147
100
AcDbEntity
  8
rails-courbes-traverses
  6
ByLayer
 62
  256
370
   -1
100
AcDbLine
 10
-33.72397054618525
 20
3.271157840054459
 11
-36.70023008119075
 21
12.43114281330126
  0
LINE
  5
148
100
AcDbEntity
  8
rails-courbes-traverses
  6
ByLayer
 62
  256
370
   -1
100
AcDbLine
 10
-25.86839190373162
 20
-20.90582722280976
 11
-33.26042463593156
 21
1.844510223341842
  0
LINE
  5
149
100
AcDbEntity
  8
rails-courbes-traverses
  6
ByLayer
 62
  256
370
   -1
100
AcDbLine
 10
-22.5339284803875
 20
-31.16825040615037
 11
-25.40484332075596
 21
-22.3324830653163
  0
ARC
  5
14A
100
AcDbEntity
  8
rails-courbes-traverses
  6
ByLayer
 62
  256
370
   -1
100
AcDbCircle
 10
101.9999999999999
 20
-401.5
 40
400
100
AcDbArc
 50
108.5729673448571
 51
109.7135199087591
  0
LINE
  5
14B
100
AcDbEntity
  8
rails-courbes-traverses
  6
ByLayer
 62
  256
370
   -1
100
AcDbLine
 10
-29.74955418356334
 20
-33.67346605712046
 11
-32.92696197729085
 21
-24.94360989145498
  0
ARC
  5
14C
100
AcDbEntity
  8
rails-courbes
  6
ByLayer
 62
  256
370
   -1
100
AcDbCircle
 10
101.9999999999999
 20
-401.5
 40
426.92
100
AcDbArc
 50
90
 51
110
  0
ARC
  5
14D
100
AcDbEntity
  8
rails-courbes
  6
ByLayer
 62
  256
370
   -1
100
AcDbCircle
 10
101.9999999999999
 20
-401.5
 40
425.42
100
AcDbArc
 50
90
 51
110
  0
LINE
  5
14E
100
AcDbEntity
  8
rails-courbes
  6
ByLayer
 62
  256
370
   -1
100
AcDbLine
 10
101.9999999999999
 20
9.947598300641403e-14
 11
101.9999999999999
 21
-1.500000000000021
  0
ARC
  5
14F
100
AcDbEntity
  8
rails-courbes
  6
ByLayer
 62
  256
370
   -1
100
AcDbCircle
 10
101.9999999999999
 20
-401.5
 40
400
100
AcDbArc
 50
90
 51
110
  0
ARC
  5
150
100
AcDbEntity
  8
rails-courbes
  6
ByLayer
 62
  256
370
   -1
100
AcDbCircle
 10
101.9999999999999
 20
-401.5
 40
401.5000000000001
100
AcDbArc
 50
90
 51
110
  0
LINE
  5
151
100
AcDbEntity
  8
rails-courbes
  6
ByLayer
 62
  256
370
   -1
100
AcDbLine
 10
-35.32108754525611
 20
-24.21341275445769
 11
-34.80805733026757
 21
-25.62295168563662
  0
LINE
  5
152
100
AcDbEntity
  8
rails-courbes
  6
ByLayer
 62
  256
370
   -1
100
AcDbLine
 10
101.9999999999999
 20
25.42000000000002
 11
101.9999999999999
 21
23.92000000000002
  0
LINE
  5
153
100
AcDbEntity
  8
rails-courbes
  6
ByLayer
 62
  256
370
   -1
100
AcDbLine
 10
-44.01523958859458
 20
-0.3264263340799403
 11
-43.50220937360608
 21
-1.735965265258812
  0
LINE
  5
154
100
AcDbEntity
  8
rails-courbes-traverses
  6
ByLayer
 62
  256
370
   -1
100
AcDbLine
 10
-18.73602987223578
 20
-29.91270851832055
 11
-21.60679774997905
 21
-21.07739348193855
  0
LINE
  5
155
100
AcDbEntity
  8
rails-courbes-traverses
  6
ByLayer
 62
  256
370
   -1
100
AcDbLine
 10
-9.533674102169403
 20
-27.04767507562318
 11
-12.09447622561112
 21
-18.11709676251408
  0
LINE
  5
156
100
AcDbEntity
  8
rails-courbes-traverses
  6
ByLayer
 62
  256
370
   -1
100
AcDbLine
 10
-5.694271291259821
 20
-25.92544277993944
 11
-8.25494232679975
 21
-16.99532162467244
  0
LINE
  5
157
100
AcDbEntity
  8
rails-courbes-traverses
  6
ByLayer
 62
  256
370
   -1
100
AcDbLine
 10
3.602466877496715
 20
-23.38331222305742
 11
1.354897413907825
 21
-14.36880347169771
  0
LINE
  5
158
100
AcDbEntity
  8
rails-courbes-traverses
  6
ByLayer
 62
  256
370
   -1
100
AcDbLine
 10
7.478696170253739
 20
-22.39575678670543
 11
5.231241760132819
 21
-13.3817094896014
  0
LINE
  5
159
100
AcDbEntity
  8
rails-courbes-traverses
  6
ByLayer
 62
  256
370
   -1
100
AcDbLine
 10
16.85849009429458
 20
-20.17962631013712
 11
14.92689160773836
 21
-11.0921699108617
  0
LINE
  5
15A
100
AcDbEntity
  8
rails-courbes-traverses
  6
ByLayer
 62
  256
370
   -1
100
AcDbLine
 10
20.76682328059317
 20
-19.32795091729482
 11
18.83532367289618
 21
-10.24095970647773
  0
LINE
  5
15B
100
AcDbEntity
  8
rails-courbes-traverses
  6
ByLayer
 62
  256
370
   -1
100
AcDbLine
 10
30.21824512586834
 20
-17.44052053465719
 11
28.60497097156071
 21
-8.291188153273225
  0
LINE
  5
15C
100
AcDbEntity
  8
rails-courbes-traverses
  6
ByLayer
 62
  256
370
   -1
100
AcDbLine
 10
34.15392050375356
 20
-16.7257628206002
 11
32.54072893322778
 21
-7.576898795116763
  0
LINE
  5
15D
100
AcDbEntity
  8
rails-courbes-traverses
  6
ByLayer
 62
  256
370
   -1
100
AcDbLine
 10
43.66545516862451
 20
-15.16933207507815
 11
42.37247087261667
 21
-5.969270763745747
  0
LINE
  5
15E
100
AcDbEntity
  8
rails-courbes-traverses
  6
ByLayer
 62
  256
370
   -1
100
AcDbLine
 10
47.62367772389275
 20
-14.59236286198108
 11
46.33075961597373
 21
-5.39277250337186
  0
LINE
  5
15F
100
AcDbEntity
  8
rails-courbes-traverses
  6
ByLayer
 62
  256
370
   -1
100
AcDbLine
 10
57.18373686850995
 20
-13.36882802468823
 11
56.21261773299764
 21
-4.129246640954443
  0
LINE
  5
160
100
AcDbEntity
  8
rails-courbes-traverses
  6
ByLayer
 62
  256
370
   -1
100
AcDbLine
 10
61.15968411669502
 20
-12.93035026066194
 11
60.18861469293851
 21
-3.691241852690656
  0
LINE
  5
161
100
AcDbEntity
  8
rails-courbes-traverses
  6
ByLayer
 62
  256
370
   -1
100
AcDbLine
 10
70.75662028160497
 20
-12.04120202032645
 11
70.10854946566536
 21
-2.773357570858956
  0
LINE
  5
162
100
AcDbEntity
  8
rails-courbes-traverses
  6
ByLayer
 62
  256
370
   -1
100
AcDbLine
 10
74.74544814343271
 20
-11.74174992298408
 11
74.09741050234979
 21
-2.474379896070288
  0
LINE
  5
163
100
AcDbEntity
  8
rails-courbes-traverses
  6
ByLayer
 62
  256
370
   -1
100
AcDbLine
 10
84.36756894021316
 20
-11.18807156977401
 11
84.0433360183078
 21
-1.903255495432483
  0
LINE
  5
164
100
AcDbEntity
  8
rails-courbes-traverses
  6
ByLayer
 62
  256
370
   -1
100
AcDbLine
 10
88.36441764336575
 20
-11.02800997536912
 11
88.04020131899951
 21
-1.7436691923617
  0
LINE
  5
165
100
AcDbEntity
  8
rails-courbes-traverses
  6
ByLayer
 62
  256
370
   -1
100
AcDbLine
 10
99.9999999999999
 20
-10.79511891966335
 11
99.99999999999989
 21
-1.50500003125039
  0
LINE
  5
166
100
AcDbEntity
  8
rails-courbes-traverses
  6
ByLayer
 62
  256
370
   -1
100
AcDbLine
 10
-22.07032324154147
 20
-19.65080870749582
 11
-12.50795285644395
 21
-16.67513238795698
  0
LINE
  5
167
100
AcDbEntity
  8
rails-courbes-traverses
  6
ByLayer
 62
  256
370
   -1
100
AcDbLine
 10
-21.60679774997905
 20
-21.07739348193855
 11
-12.09447622561112
 21
-18.11709676251408
  0
LINE
  5
168
100
AcDbEntity
  8
rails-courbes-traverses
  6
ByLayer
 62
  256
370
   -1
100
AcDbLine
 10
-8.668398360525249
 20
-15.55342908076496
 11
0.9919964928017072
 21
-12.9132873765627
  0
LINE
  5
169
100
AcDbEntity
  8
rails-courbes-traverses
  6
ByLayer
 62
  256
370
   -1
100
AcDbLine
 10
4.868358916733317
 20
-11.9262659001874
 11
14.61500853523073
 21
-9.624875417305637
  0
LINE
  5
16A
100
AcDbEntity
  8
rails-courbes-traverses
  6
ByLayer
 62
  256
370
   -1
100
AcDbLine
 10
18.52345613666954
 20
-8.773738305377023
 11
28.34448572913351
 21
-6.813902933617121
  0
LINE
  5
16B
100
AcDbEntity
  8
rails-courbes-traverses
  6
ByLayer
 62
  256
370
   -1
100
AcDbLine
 10
32.28025666672738
 20
-6.09968716559845
 11
42.16370082141313
 21
-4.48379466247141
  0
LINE
  5
16C
100
AcDbEntity
  8
rails-courbes-traverses
  6
ByLayer
 62
  256
370
   -1
100
AcDbLine
 10
46.12199996453364
 20
-3.907370400259508
 11
56.05581722716656
 21
-2.637389481871221
  0
LINE
  5
16D
100
AcDbEntity
  8
rails-courbes-traverses
  6
ByLayer
 62
  256
370
   -1
100
AcDbLine
 10
60.03182199803703
 20
-2.199459009638244
 11
70.00390954246986
 21
-1.276936952112212
  0
LINE
  5
16E
100
AcDbEntity
  8
rails-courbes-traverses
  6
ByLayer
 62
  256
370
   -1
100
AcDbLine
 10
73.99277579173359
 20
-0.978033820680555
 11
83.99098416537575
 21
-0.404094575040235
  0
LINE
  5
16F
100
AcDbEntity
  8
rails-courbes-traverses
  6
ByLayer
 62
  256
370
   -1
100
AcDbLine
 10
87.98785207394576
 20
-0.2445829518330568
 11
99.99999999999989
 21
-0.004981350951247521
  0
LINE
  5
170
100
AcDbEntity
  8
rails-courbes-traverses
  6
ByLayer
 62
  256
370
   -1
100
AcDbLine
 10
99.99999999999989
 20
-1.50500003125039
 11
88.04020131899951
 21
-1.7436691923617
  0
LINE
  5
171
100
AcDbEntity
  8
rails-courbes-traverses
  6
ByLayer
 62
  256
370
   -1
100
AcDbLine
 10
84.0433360183078
 20
-1.903255495432483
 11
74.09741050234979
 21
-2.474379896070288
  0
LINE
  5
172
100
AcDbEntity
  8
rails-courbes-traverses
  6
ByLayer
 62
  256
370
   -1
100
AcDbLine
 10
70.10854946566536
 20
-2.773357570858956
 11
60.18861469293851
 21
-3.691241852690656
  0
LINE
  5
173
100
AcDbEntity
  8
rails-courbes-traverses
  6
ByLayer
 62
  256
370
   -1
100
AcDbLine
 10
56.21261773299764
 20
-4.129246640954443
 11
46.33075961597373
 21
-5.39277250337186
  0
LINE
  5
174
100
AcDbEntity
  8
rails-courbes-traverses
  6
ByLayer
 62
  256
370
   -1
100
AcDbLine
 10
42.37247087261667
 20
-5.969270763745747
 11
32.54072893322778
 21
-7.576898795116763
  0
LINE
  5
175
100
AcDbEntity
  8
rails-courbes-traverses
  6
ByLayer
 62
  256
370
   -1
100
AcDbLine
 10
28.60497097156071
 20
-8.291188153273225
 11
18.83532367289618
 21
-10.24095970647773
  0
LINE
  5
176
100
AcDbEntity
  8
rails-courbes-traverses
  6
ByLayer
 62
  256
370
   -1
100
AcDbLine
 10
14.92689160773836
 20
-11.0921699108617
 11
5.231241760132819
 21
-13.3817094896014
  0
LINE
  5
177
100
AcDbEntity
  8
rails-courbes-traverses
  6
ByLayer
 62
  256
370
   -1
100
AcDbLine
 10
1.354897413907825
 20
-14.36880347169771
 11
-8.25494232679975
 21
-16.99532162467244
  0
LINE
  5
178
100
AcDbEntity
  8
rails-courbes-traverses
  6
ByLayer
 62
  256
370
   -1
100
AcDbLine
 10
-29.92553523855264
 20
4.525047936726987
 11
-32.89600401601014
 21
13.66721079080105
  0
LINE
  5
179
100
AcDbEntity
  8
rails-courbes-traverses
  6
ByLayer
 62
  256
370
   -1
100
AcDbLine
 10
-22.07032324154147
 20
-19.65080870749582
 11
-29.46200974699022
 21
3.098463162284278
  0
LINE
  5
17A
100
AcDbEntity
  8
rails-courbes-traverses
  6
ByLayer
 62
  256
370
   -1
100
AcDbLine
 10
-19.51498148216113
 20
7.761280449775844
 11
-22.16974909490483
 21
17.01955536749926
  0
LINE
  5
17B
100
AcDbEntity
  8
rails-courbes-traverses
  6
ByLayer
 62
  256
370
   -1
100
AcDbLine
 10
-12.50795285644395
 20
-16.67513238795698
 11
-19.10150723534651
 21
6.319324389278269
  0
LINE
  5
17C
100
AcDbEntity
  8
rails-courbes-traverses
  6
ByLayer
 62
  256
370
   -1
100
AcDbLine
 10
-8.668398360525249
 20
-15.55342908076496
 11
-15.26164391166788
 21
7.439950686079655
  0
LINE
  5
17D
100
AcDbEntity
  8
rails-courbes-traverses
  6
ByLayer
 62
  256
370
   -1
100
AcDbLine
 10
-15.67509994539337
 20
8.881843229987114
 11
-18.32470231115155
 21
18.12210479076725
  0
LINE
  5
17E
100
AcDbEntity
  8
rails-courbes-traverses
  6
ByLayer
 62
  256
370
   -1
100
AcDbLine
 10
0.9919964928017072
 20
-12.9132873765627
 11
-4.795046302452175
 21
10.29727352819755
  0
LINE
  5
17F
100
AcDbEntity
  8
rails-courbes-traverses
  6
ByLayer
 62
  256
370
   -1
100
AcDbLine
 10
-5.157945131148858
 20
11.7527812311367
 11
-7.487986396230356
 21
21.09806631147731
  0
LINE
  5
180
100
AcDbEntity
  8
rails-courbes-traverses
  6
ByLayer
 62
  256
370
   -1
100
AcDbLine
 10
-1.281295669410238
 20
12.73865146174843
 11
-3.606803491126371
 21
22.06575389387598
  0
LINE
  5
181
100
AcDbEntity
  8
rails-courbes-traverses
  6
ByLayer
 62
  256
370
   -1
100
AcDbLine
 10
4.868358916733317
 20
-11.9262659001874
 11
-0.9184128260107411
 21
11.28320787233446
  0
LINE
  5
182
100
AcDbEntity
  8
rails-courbes-traverses
  6
ByLayer
 62
  256
370
   -1
100
AcDbLine
 10
9.329646669589678
 20
15.24079715527846
 11
7.327170548536529
 21
24.66170660789672
  0
LINE
  5
183
100
AcDbEntity
  8
rails-courbes-traverses
  6
ByLayer
 62
  256
370
   -1
100
AcDbLine
 10
14.61500853523073
 20
-9.624875417305637
 11
9.641527943845929
 21
13.77351112182999
  0
LINE
  5
184
100
AcDbEntity
  8
rails-courbes-traverses
  6
ByLayer
 62
  256
370
   -1
100
AcDbLine
 10
13.2383409560821
 20
16.09077370527632
 11
11.23976095147175
 21
25.49335337116776
  0
LINE
  5
185
100
AcDbEntity
  8
rails-courbes-traverses
  6
ByLayer
 62
  256
370
   -1
100
AcDbLine
 10
18.52345613666954
 20
-8.773738305377023
 11
13.55020849230873
 21
14.62355230417564
  0
LINE
  5
186
100
AcDbEntity
  8
rails-courbes-traverses
  6
ByLayer
 62
  256
370
   -1
100
AcDbLine
 10
28.34448572913351
 20
-6.813902933617121
 11
24.19062676161244
 21
16.7438019101411
  0
LINE
  5
187
100
AcDbEntity
  8
rails-courbes-traverses
  6
ByLayer
 62
  256
370
   -1
100
AcDbLine
 10
23.93014302108768
 20
18.2210786120852
 11
22.2576717527586
 21
27.70613450999288
  0
LINE
  5
188
100
AcDbEntity
  8
rails-courbes-traverses
  6
ByLayer
 62
  256
370
   -1
100
AcDbLine
 10
27.86611999043401
 20
18.93412591597189
 11
26.19690276480743
 21
28.4007272206606
  0
LINE
  5
189
100
AcDbEntity
  8
rails-courbes-traverses
  6
ByLayer
 62
  256
370
   -1
100
AcDbLine
 10
32.28025666672738
 20
-6.09968716559845
 11
28.1265922569344
 21
17.4569142864536
  0
LINE
  5
18A
100
AcDbEntity
  8
rails-courbes-traverses
  6
ByLayer
 62
  256
370
   -1
100
AcDbLine
 10
38.6257554675749
 20
20.68999458767899
 11
37.2853267005859
 21
30.22764085132536
  0
LINE
  5
18B
100
AcDbEntity
  8
rails-courbes-traverses
  6
ByLayer
 62
  256
370
   -1
100
AcDbLine
 10
42.16370082141313
 20
-4.48379466247141
 11
38.83452431505479
 21
19.20452705134353
  0
LINE
  5
18C
100
AcDbEntity
  8
rails-courbes-traverses
  6
ByLayer
 62
  256
370
   -1
100
AcDbLine
 10
42.58421973812877
 20
21.26524390715122
 11
41.24639897555218
 21
30.78433325516562
  0
LINE
  5
18D
100
AcDbEntity
  8
rails-courbes-traverses
  6
ByLayer
 62
  256
370
   -1
100
AcDbLine
 10
46.12199996453364
 20
-3.907370400259508
 11
42.79297938956886
 21
19.77984180403888
  0
LINE
  5
18E
100
AcDbEntity
  8
rails-courbes-traverses
  6
ByLayer
 62
  256
370
   -1
100
AcDbLine
 10
53.39857966897089
 20
22.64453708825091
 11
52.3918265092973
 21
32.22315356482552
  0
LINE
  5
18F
100
AcDbEntity
  8
rails-courbes-traverses
  6
ByLayer
 62
  256
370
   -1
100
AcDbLine
 10
56.05581722716656
 20
-2.637389481871221
 11
53.55537927072363
 21
21.15268853089839
  0
LINE
  5
190
100
AcDbEntity
  8
rails-courbes-traverses
  6
ByLayer
 62
  256
370
   -1
100
AcDbLine
 10
57.37470846177329
 20
23.08128757062327
 11
56.36991409077039
 21
32.64126741789613
  0
LINE
  5
191
100
AcDbEntity
  8
rails-courbes-traverses
  6
ByLayer
 62
  256
370
   -1
100
AcDbLine
 10
60.03182199803703
 20
-2.199459009638244
 11
57.53150115667476
 21
21.58950472757089
  0
LINE
  5
192
100
AcDbEntity
  8
rails-courbes-traverses
  6
ByLayer
 62
  256
370
   -1
100
AcDbLine
 10
68.23061721456531
 20
24.08232480483822
 11
67.5587662358538
 21
33.6902414256371
  0
LINE
  5
193
100
AcDbEntity
  8
rails-courbes-traverses
  6
ByLayer
 62
  256
370
   -1
100
AcDbLine
 10
70.00390954246986
 20
-1.276936952112212
 11
68.33525653442929
 21
22.5859128141341
  0
LINE
  5
194
100
AcDbEntity
  8
rails-courbes-traverses
  6
ByLayer
 62
  256
370
   -1
100
AcDbLine
 10
72.21956622915792
 20
24.38004433692419
 11
71.5490224368931
 21
33.9692673206136
  0
LINE
  5
195
100
AcDbEntity
  8
rails-courbes-traverses
  6
ByLayer
 62
  256
370
   -1
100
AcDbLine
 10
73.99277579173359
 20
-0.978033820680555
 11
72.3242009397741
 21
22.88369826153448
  0
LINE
  5
196
100
AcDbEntity
  8
rails-courbes-traverses
  6
ByLayer
 62
  256
370
   -1
100
AcDbLine
 10
83.10379755130917
 20
25.00160601458245
 11
82.76766730048655
 21
34.62711701318929
  0
LINE
  5
197
100
AcDbEntity
  8
rails-courbes-traverses
  6
ByLayer
 62
  256
370
   -1
100
AcDbLine
 10
83.99098416537575
 20
-0.404094575040235
 11
83.15614910239159
 21
23.50245373803284
  0
LINE
  5
198
100
AcDbEntity
  8
rails-courbes-traverses
  6
ByLayer
 62
  256
370
   -1
100
AcDbLine
 10
87.1007068677682
 20
25.15993187099237
 11
86.76523060856293
 21
34.76671499999929
  0
LINE
  5
199
100
AcDbEntity
  8
rails-courbes-traverses
  6
ByLayer
 62
  256
370
   -1
100
AcDbLine
 10
87.98785207394576
 20
-0.2445829518330568
 11
87.15305611282194
 21
23.66084563046375
  0
LINE
  5
19A
100
AcDbEntity
  8
rails-courbes-traverses
  6
ByLayer
 62
  256
370
   -1
100
AcDbLine
 10
99.99999999999989
 20
-0.004981350951247521
 11
99.9999999999999
 21
23.91529873759832
  0
LINE
  5
19B
100
AcDbEntity
  8
rails-courbes-traverses
  6
ByLayer
 62
  256
370
   -1
100
AcDbLine
 10
99.99999999999991
 20
25.41531525584792
 11
99.9999999999999
 21
35.03263888889326
  0
LINE
  5
19C
100
AcDbEntity
  8
rails-courbes-traverses
  6
ByLayer
 62
  256
370
   -1
100
AcDbLine
 10
-29.92553523855264
 20
4.525047936726987
 11
-19.51498148216113
 21
7.761280449775844
  0
LINE
  5
19D
100
AcDbEntity
  8
rails-courbes-traverses
  6
ByLayer
 62
  256
370
   -1
100
AcDbLine
 10
-15.67509994539337
 20
8.881843229987114
 11
-5.157945131148858
 21
11.7527812311367
  0
LINE
  5
19E
100
AcDbEntity
  8
rails-courbes-traverses
  6
ByLayer
 62
  256
370
   -1
100
AcDbLine
 10
-1.281295669410238
 20
12.73865146174843
 11
9.329646669589678
 21
15.24079715527846
  0
LINE
  5
19F
100
AcDbEntity
  8
rails-courbes-traverses
  6
ByLayer
 62
  256
370
   -1
100
AcDbLine
 10
13.2383409560821
 20
16.09077370527632
 11
23.93014302108768
 21
18.2210786120852
  0
LINE
  5
1A0
100
AcDbEntity
  8
rails-courbes-traverses
  6
ByLayer
 62
  256
370
   -1
100
AcDbLine
 10
27.86611999043401
 20
18.93412591597189
 11
38.6257554675749
 21
20.68999458767899
  0
LINE
  5
1A1
100
AcDbEntity
  8
rails-courbes-traverses
  6
ByLayer
 62
  256
370
   -1
100
AcDbLine
 10
-29.46200974699022
 20
3.098463162284278
 11
-19.10150723534651
 21
6.319324389278269
  0
LINE
  5
1A2
100
AcDbEntity
  8
rails-courbes-traverses
  6
ByLayer
 62
  256
370
   -1
100
AcDbLine
 10
-15.26164391166788
 20
7.439950686079655
 11
-4.795046302452175
 21
10.29727352819755
  0
LINE
  5
1A3
100
AcDbEntity
  8
rails-courbes-traverses
  6
ByLayer
 62
  256
370
   -1
100
AcDbLine
 10
-0.9184128260107411
 20
11.28320787233446
 11
9.641527943845929
 21
13.77351112182999
  0
LINE
  5
1A4
100
AcDbEntity
  8
rails-courbes-traverses
  6
ByLayer
 62
  256
370
   -1
100
AcDbLine
 10
13.55020849230873
 20
14.62355230417564
 11
24.19062676161244
 21
16.7438019101411
  0
LINE
  5
1A5
100
AcDbEntity
  8
rails-courbes-traverses
  6
ByLayer
 62
  256
370
   -1
100
AcDbLine
 10
28.1265922569344
 20
17.4569142864536
 11
38.83452431505479
 21
19.20452705134353
  0
LINE
  5
1A6
100
AcDbEntity
  8
rails-courbes-traverses
  6
ByLayer
 62
  256
370
   -1
100
AcDbLine
 10
42.58421973812877
 20
21.26524390715122
 11
53.39857966897089
 21
22.64453708825091
  0
LINE
  5
1A7
100
AcDbEntity
  8
rails-courbes-traverses
  6
ByLayer
 62
  256
370
   -1
100
AcDbLine
 10
57.37470846177329
 20
23.08128757062327
 11
68.23061721456531
 21
24.08232480483822
  0
LINE
  5
1A8
100
AcDbEntity
  8
rails-courbes-traverses
  6
ByLayer
 62
  256
370
   -1
100
AcDbLine
 10
72.21956622915792
 20
24.38004433692419
 11
83.10379755130917
 21
25.00160601458245
  0
LINE
  5
1A9
100
AcDbEntity
  8
rails-courbes-traverses
  6
ByLayer
 62
  256
370
   -1
100
AcDbLine
 10
87.1007068677682
 20
25.15993187099237
 11
99.99999999999991
 21
25.41531525584792
  0
LINE
  5
1AA
100
AcDbEntity
  8
rails-courbes-traverses
  6
ByLayer
 62
  256
370
   -1
100
AcDbLine
 10
42.79297938956886
 20
19.77984180403888
 11
53.55537927072363
 21
21.15268853089839
  0
LINE
  5
1AB
100
AcDbEntity
  8
rails-courbes-traverses
  6
ByLayer
 62
  256
370
   -1
100
AcDbLine
 10
57.53150115667476
 20
21.58950472757089
 11
68.33525653442929
 21
22.5859128141341
  0
LINE
  5
1AC
100
AcDbEntity
  8
rails-courbes-traverses
  6
ByLayer
 62
  256
370
   -1
100
AcDbLine
 10
72.3242009397741
 20
22.88369826153448
 11
83.15614910239159
 21
23.50245373803284
  0
LINE
  5
1AD
100
AcDbEntity
  8
rails-courbes-traverses
  6
ByLayer
 62
  256
370
   -1
100
AcDbLine
 10
87.15305611282194
 20
23.66084563046375
 11
99.9999999999999
 21
23.91529873759832
  0
LINE
  5
1AE
100
AcDbEntity
  8
rails-courbes-traverses
  6
ByLayer
 62
  256
370
   -1
100
AcDbLine
 10
104.2
 20
9.31
 11
102
 21
9.31
  0
LINE
  5
1AF
100
AcDbEntity
  8
rails-courbes-traverses
  6
ByLayer
 62
  256
370
   -1
100
AcDbLine
 10
104.2
 20
13.11
 11
104.2
 21
16.11
  0
LINE
  5
1B0
100
AcDbEntity
  8
rails-courbes-traverses
  6
ByLayer
 62
  256
370
   -1
100
AcDbLine
 10
104.2
 20
16.11
 11
106.4
 21
16.11
  0
LINE
  5
1B1
100
AcDbEntity
  8
rails-courbes-traverses
  6
ByLayer
 62
  256
370
   -1
100
AcDbLine
 10
106.4
 20
16.11
 11
106.4
 21
6.31
  0
LINE
  5
1B2
100
AcDbEntity
  8
rails-courbes-traverses
  6
ByLayer
 62
  256
370
   -1
100
AcDbLine
 10
106.4
 20
6.31
 11
104.2
 21
6.31
  0
LINE
  5
1B3
100
AcDbEntity
  8
rails-courbes-traverses
  6
ByLayer
 62
  256
370
   -1
100
AcDbLine
 10
104.2
 20
9.31
 11
104.2
 21
6.31
  0
LINE
  5
1B4
100
AcDbEntity
  8
rails-courbes-traverses
  6
ByLayer
 62
  256
370
   -1
100
AcDbLine
 10
101.9999999999999
 20
-10.79000000000003
 11
102
 21
9.31
  0
LINE
  5
1B5
100
AcDbEntity
  8
rails-courbes-traverses
  6
ByLayer
 62
  256
370
   -1
100
AcDbLine
 10
104.2
 20
13.11
 11
102
 21
13.11
  0
LINE
  5
1B6
100
AcDbEntity
  8
rails-courbes-traverses
  6
ByLayer
 62
  256
370
   -1
100
AcDbLine
 10
102
 20
13.11
 11
101.9999999999999
 21
35.03263888889326
  0
LINE
  5
1B7
100
AcDbEntity
  8
rails-courbes-traverses
  6
ByLayer
 62
  256
370
   -1
100
AcDbLine
 10
-37.99234135693333
 20
-11.02659442491617
 11
-41.6212162055938
 21
-1.056342720194727
  0
LINE
  5
1B8
100
AcDbEntity
  8
rails-courbes-traverses
  6
ByLayer
 62
  256
370
   -1
100
AcDbLine
 10
-33.43999858131794
 20
-23.53405340653686
 11
-36.55583988710968
 21
-14.97334977627004
  0
LINE
  5
1B9
100
AcDbEntity
  8
rails-courbes-traverses
  6
ByLayer
 62
  256
370
   -1
100
AcDbLine
 10
-39.87337565292072
 20
-11.7061039717973
 11
-47.30295571911172
 21
8.706499496092647
  0
LINE
  5
1BA
100
AcDbEntity
  8
rails-courbes-traverses
  6
ByLayer
 62
  256
370
   -1
100
AcDbLine
 10
-31.63069019877209
 20
-34.35269613273775
 11
-38.43689105095292
 21
-15.65281297909812
  0
LINE
  5
1BB
100
AcDbEntity
  8
rails-courbes-traverses
  6
ByLayer
 62
  256
370
   -1
100
AcDbLine
 10
-39.87337565292072
 20
-11.7061039717973
 11
-37.99234135693333
 21
-11.02659442491617
  0
LINE
  5
1BC
100
AcDbEntity
  8
rails-courbes-traverses
  6
ByLayer
 62
  256
370
   -1
100
AcDbLine
 10
-38.43689105095292
 20
-15.65281297909812
 11
-36.55583988710968
 21
-14.97334977627004
  0
LINE
  5
1BD
100
AcDbEntity
  8
cotes
  6
ByLayer
 62
  256
370
   -1
100
AcDbLine
 10
0
 20
0
 11
45.5
 21
2.786071468060229e-15
  0
LINE
  5
1BE
100
AcDbEntity
  8
cotes
  6
ByLayer
 62
  256
370
   -1
100
AcDbLine
 10
1.224646799147353e-16
 20
2
 11
0
 21
0
  0
LINE
  5
1BF
100
AcDbEntity
  8
cotes
  6
ByLayer
 62
  256
370
   -1
100
AcDbLine
 10
45.5
 20
2.000000000000003
 11
45.5
 21
2.786071468060229e-15
  0
LINE
  5
1C0
100
AcDbEntity
  8
cotes
  6
ByLayer
 62
  256
370
   -1
100
AcDbLine
 10
1.224646799147353e-16
 20
2
 11
9.289999999999999
 21
2
  0
LINE
  5
1C1
100
AcDbEntity
  8
cotes
  6
ByLayer
 62
  256
370
   -1
100
AcDbLine
 10
36.21
 20
2.000000000000003
 11
45.5
 21
2.000000000000003
  0
LINE
  5
1C2
100
AcDbEntity
  8
cotes
  6
ByLayer
 62
  256
370
   -1
100
AcDbLine
 10
10.79
 20
2.000000000000001
 11
34.71
 21
2.000000000000008
  0
LINE
  5
1C3
100
AcDbEntity
  8
cotes
  6
ByLayer
 62
  256
370
   -1
100
AcDbLine
 10
10.79
 20
2.000000000000001
 11
10.79
 21
4.500000000000001
  0
LINE
  5
1C4
100
AcDbEntity
  8
cotes
  6
ByLayer
 62
  256
370
   -1
100
AcDbLine
 10
9.289999999999999
 20
4.500000000000001
 11
9.289999999999999
 21
2
  0
LINE
  5
1C5
100
AcDbEntity
  8
cotes
  6
ByLayer
 62
  256
370
   -1
100
AcDbLine
 10
34.71
 20
4.500000000000008
 11
34.71
 21
2.000000000000008
  0
LINE
  5
1C6
100
AcDbEntity
  8
cotes
  6
ByLayer
 62
  256
370
   -1
100
AcDbLine
 10
36.21
 20
2.000000000000003
 11
36.21
 21
4.500000000000009
  0
LINE
  5
1C7
100
AcDbEntity
  8
cotes
  6
ByLayer
 62
  256
370
   -1
100
AcDbLine
 10
9.289999999999999
 20
4.500000000000001
 11
10.79
 21
4.500000000000001
  0
LINE
  5
1C8
100
AcDbEntity
  8
cotes
  6
ByLayer
 62
  256
370
   -1
100
AcDbLine
 10
34.71
 20
4.500000000000008
 11
36.21
 21
4.500000000000009
  0
DIMENSION
  5
1C9
100
AcDbEntity
  8
cotes
  6
ByLayer
 62
  256
370
   -1
100
AcDbDimension
  2
*D1
 10
9.289999999999999
 20
5.941273659991859
 30
0
 11
4.645
 21
7.066273659991859
 31
0
 70
   32
 71
    5
  3
Standard
 53
0
210
0
220
0
230
1
100
AcDbAlignedDimension
 13
1.224646799147353e-16
 23
2
 33
0
 14
9.289999999999999
 24
2
 34
0
100
AcDbRotatedDimension
  0
DIMENSION
  5
1CA
100
AcDbEntity
  8
cotes
  6
ByLayer
 62
  256
370
   -1
100
AcDbDimension
  2
*D2
 10
10.79
 20
5.941273659991858
 30
0
 11
10.04
 21
7.066273659991858
 31
0
 70
   32
 71
    5
  3
Standard
 53
0
210
0
220
0
230
1
100
AcDbAlignedDimension
 13
9.289999999999999
 23
4.500000000000001
 33
0
 14
10.79
 24
4.500000000000001
 34
0
100
AcDbRotatedDimension
  0
DIMENSION
  5
1CB
100
AcDbEntity
  8
cotes
  6
ByLayer
 62
  256
370
   -1
100
AcDbDimension
  2
*D3
 10
34.71
 20
5.941273659991857
 30
0
 11
22.75
 21
7.066273659991857
 31
0
 70
   32
 71
    5
  3
Standard
 53
0
210
0
220
0
230
1
100
AcDbAlignedDimension
 13
10.79
 23
4.500000000000001
 33
0
 14
34.71
 24
4.500000000000008
 34
0
100
AcDbRotatedDimension
  0
DIMENSION
  5
1CC
100
AcDbEntity
  8
cotes
  6
ByLayer
 62
  256
370
   -1
100
AcDbDimension
  2
*D4
 10
36.21
 20
5.941273659991857
 30
0
 11
35.46
 21
7.066273659991857
 31
0
 70
   32
 71
    5
  3
Standard
 53
0
210
0
220
0
230
1
100
AcDbAlignedDimension
 13
34.71
 23
4.500000000000008
 33
0
 14
36.21
 24
4.500000000000009
 34
0
100
AcDbRotatedDimension
  0
DIMENSION
  5
1CD
100
AcDbEntity
  8
cotes
  6
ByLayer
 62
  256
370
   -1
100
AcDbDimension
  2
*D5
 10
45.5
 20
5.941273659991856
 30
0
 11
40.855
 21
7.066273659991856
 31
0
 70
   32
 71
    5
  3
Standard
 53
0
210
0
220
0
230
1
100
AcDbAlignedDimension
 13
36.21
 23
4.500000000000009
 33
0
 14
45.5
 24
2.000000000000003
 34
0
100
AcDbRotatedDimension
  0
DIMENSION
  5
1CE
100
AcDbEntity
  8
cotes
  6
ByLayer
 62
  256
370
   -1
100
AcDbDimension
  2
*D6
 10
45.5
 20
9.828773709122331
 30
0
 11
22.75
 21
10.95377370912233
 31
0
 70
   32
 71
    5
  3
Standard
 53
0
210
0
220
0
230
1
100
AcDbAlignedDimension
 13
1.224646799147353e-16
 23
2
 33
0
 14
45.5
 24
2.000000000000003
 34
0
100
AcDbRotatedDimension
  0
DIMENSION
  5
1CF
100
AcDbEntity
  8
cotes
  6
ByLayer
 62
  256
370
   -1
100
AcDbDimension
  2
*D7
 10
-6.014622717522623
 20
2.000000000000001
 30
0
 11
-7.139622717522623
 21
1
 31
0
 70
   32
 71
    5
  3
Standard
 53
0
210
0
220
0
230
1
100
AcDbAlignedDimension
 13
0
 23
0
 33
0
 14
1.224646799147353e-16
 24
2
 34
0
 50
90
100
AcDbRotatedDimension
  0
DIMENSION
  5
1D0
100
AcDbEntity
  8
cotes
  6
ByLayer
 62
  256
370
   -1
100
AcDbDimension
  2
*D8
 10
-3.2273585313536
 20
4.500000000000003
 30
0
 11
-4.3523585313536
 21
3.250000000000001
 31
0
 70
   32
 71
    5
  3
Standard
 53
0
210
0
220
0
230
1
100
AcDbAlignedDimension
 13
1.224646799147353e-16
 23
2
 33
0
 14
9.289999999999999
 24
4.500000000000001
 34
0
 50
90
100
AcDbRotatedDimension
  0
ENDSEC
  0
SECTION
  2
OBJECTS
  0
DICTIONARY
  5
C
330
0
100
AcDbDictionary
281
    1
  3
ACAD_GROUP
350
D
  0
DICTIONARY
  5
D
330
C
100
AcDbDictionary
281
    1
  0
ENDSEC
  0
EOF
