solid OpenSCAD_Model
  facet normal 0 0 -1
    outer loop
      vertex 88 -22.75 0
      vertex 92 22.75 0
      vertex 92 -22.75 0
    endloop
  endfacet
  facet normal -0 0 -1
    outer loop
      vertex 92 22.75 0
      vertex 88 -22.75 0
      vertex 88 22.75 0
    endloop
  endfacet
  facet normal 0 0 -1
    outer loop
      vertex 98 -22.75 0
      vertex 100 -1.90039 0
      vertex 100 -22.75 0
    endloop
  endfacet
  facet normal -0 0 -1
    outer loop
      vertex 100 -1.90039 0
      vertex 98 -22.75 0
      vertex 100 1.90039 0
    endloop
  endfacet
  facet normal 0 0 -1
    outer loop
      vertex 98 22.75 0
      vertex 100 1.90039 0
      vertex 98 -22.75 0
    endloop
  endfacet
  facet normal 0 0 -1
    outer loop
      vertex 100 1.90039 0
      vertex 98 22.75 0
      vertex 100 22.75 0
    endloop
  endfacet
  facet normal 0 0 -1
    outer loop
      vertex 100 -1.90039 0
      vertex 102.2 1.90039 0
      vertex 102.2 -1.90039 0
    endloop
  endfacet
  facet normal -0 0 -1
    outer loop
      vertex 102.2 1.90039 0
      vertex 100 -1.90039 0
      vertex 100 1.90039 0
    endloop
  endfacet
  facet normal 0 0 -1
    outer loop
      vertex 102.2 -1.90039 0
      vertex 104.4 -4.90039 0
      vertex 102.2 -4.90039 0
    endloop
  endfacet
  facet normal 0 0 -1
    outer loop
      vertex 104.4 -4.90039 0
      vertex 102.2 -1.90039 0
      vertex 104.4 4.90039 0
    endloop
  endfacet
  facet normal 0 0 -1
    outer loop
      vertex 102.2 1.90039 0
      vertex 104.4 4.90039 0
      vertex 102.2 -1.90039 0
    endloop
  endfacet
  facet normal -0 0 -1
    outer loop
      vertex 104.4 4.90039 0
      vertex 102.2 1.90039 0
      vertex 102.2 4.90039 0
    endloop
  endfacet
  facet normal 0 0 -1
    outer loop
      vertex 0 2 0
      vertex 2 22.75 0
      vertex 2 2 0
    endloop
  endfacet
  facet normal -0 0 -1
    outer loop
      vertex 2 22.75 0
      vertex 0 2 0
      vertex 0 22.75 0
    endloop
  endfacet
  facet normal 0 0 -1
    outer loop
      vertex 78 -22.75 0
      vertex 82 22.75 0
      vertex 82 -22.75 0
    endloop
  endfacet
  facet normal -0 0 -1
    outer loop
      vertex 82 22.75 0
      vertex 78 -22.75 0
      vertex 78 22.75 0
    endloop
  endfacet
  facet normal 0 0 -1
    outer loop
      vertex 68 -22.75 0
      vertex 72 22.75 0
      vertex 72 -22.75 0
    endloop
  endfacet
  facet normal -0 0 -1
    outer loop
      vertex 72 22.75 0
      vertex 68 -22.75 0
      vertex 68 22.75 0
    endloop
  endfacet
  facet normal 0 0 -1
    outer loop
      vertex 58 -22.75 0
      vertex 62 22.75 0
      vertex 62 -22.75 0
    endloop
  endfacet
  facet normal -0 0 -1
    outer loop
      vertex 62 22.75 0
      vertex 58 -22.75 0
      vertex 58 22.75 0
    endloop
  endfacet
  facet normal 0 0 -1
    outer loop
      vertex 48 -22.75 0
      vertex 52 22.75 0
      vertex 52 -22.75 0
    endloop
  endfacet
  facet normal -0 0 -1
    outer loop
      vertex 52 22.75 0
      vertex 48 -22.75 0
      vertex 48 22.75 0
    endloop
  endfacet
  facet normal 0 0 -1
    outer loop
      vertex 38 -22.75 0
      vertex 42 22.75 0
      vertex 42 -22.75 0
    endloop
  endfacet
  facet normal -0 0 -1
    outer loop
      vertex 42 22.75 0
      vertex 38 -22.75 0
      vertex 38 22.75 0
    endloop
  endfacet
  facet normal 0 0 -1
    outer loop
      vertex 28 -22.75 0
      vertex 32 22.75 0
      vertex 32 -22.75 0
    endloop
  endfacet
  facet normal -0 0 -1
    outer loop
      vertex 32 22.75 0
      vertex 28 -22.75 0
      vertex 28 22.75 0
    endloop
  endfacet
  facet normal 0 0 -1
    outer loop
      vertex 18 -22.75 0
      vertex 22 22.75 0
      vertex 22 -22.75 0
    endloop
  endfacet
  facet normal -0 0 -1
    outer loop
      vertex 22 22.75 0
      vertex 18 -22.75 0
      vertex 18 22.75 0
    endloop
  endfacet
  facet normal 0 0 -1
    outer loop
      vertex 8 -22.75 0
      vertex 12 22.75 0
      vertex 12 -22.75 0
    endloop
  endfacet
  facet normal -0 0 -1
    outer loop
      vertex 12 22.75 0
      vertex 8 -22.75 0
      vertex 8 22.75 0
    endloop
  endfacet
  facet normal 0 0 -1
    outer loop
      vertex 0 -22.75 0
      vertex 2 -2 0
      vertex 2 -22.75 0
    endloop
  endfacet
  facet normal -0 0 -1
    outer loop
      vertex 2 -2 0
      vertex 0 -22.75 0
      vertex 0 -2 0
    endloop
  endfacet
  facet normal -0 0 1
    outer loop
      vertex 88 22.75 2
      vertex 92 13.46 2
      vertex 92 22.75 2
    endloop
  endfacet
  facet normal 0 0 1
    outer loop
      vertex 92 13.46 2
      vertex 88 22.75 2
      vertex 88 13.46 2
    endloop
  endfacet
  facet normal -0 0 1
    outer loop
      vertex 88 -13.46 2
      vertex 92 -22.75 2
      vertex 92 -13.46 2
    endloop
  endfacet
  facet normal 0 0 1
    outer loop
      vertex 92 -22.75 2
      vertex 88 -13.46 2
      vertex 88 -22.75 2
    endloop
  endfacet
  facet normal -0 0 1
    outer loop
      vertex 88 11.96 2
      vertex 92 -11.96 2
      vertex 92 11.96 2
    endloop
  endfacet
  facet normal 0 0 1
    outer loop
      vertex 92 -11.96 2
      vertex 88 11.96 2
      vertex 88 -11.96 2
    endloop
  endfacet
  facet normal -0 0 1
    outer loop
      vertex 98 11.96 2
      vertex 100 1.90039 2
      vertex 100 11.96 2
    endloop
  endfacet
  facet normal 0 0 1
    outer loop
      vertex 100 1.90039 2
      vertex 98 11.96 2
      vertex 100 -1.90039 2
    endloop
  endfacet
  facet normal 0 0 1
    outer loop
      vertex 98 -11.96 2
      vertex 100 -1.90039 2
      vertex 98 11.96 2
    endloop
  endfacet
  facet normal 0 0 1
    outer loop
      vertex 100 -1.90039 2
      vertex 98 -11.96 2
      vertex 100 -11.96 2
    endloop
  endfacet
  facet normal -0 0 1
    outer loop
      vertex 100 1.90039 2
      vertex 102.2 -1.90039 2
      vertex 102.2 1.90039 2
    endloop
  endfacet
  facet normal 0 0 1
    outer loop
      vertex 102.2 -1.90039 2
      vertex 100 1.90039 2
      vertex 100 -1.90039 2
    endloop
  endfacet
  facet normal 0 0 1
    outer loop
      vertex 102.2 1.90039 2
      vertex 104.4 4.90039 2
      vertex 102.2 4.90039 2
    endloop
  endfacet
  facet normal 0 0 1
    outer loop
      vertex 104.4 4.90039 2
      vertex 102.2 1.90039 2
      vertex 104.4 -4.90039 2
    endloop
  endfacet
  facet normal -0 0 1
    outer loop
      vertex 102.2 -1.90039 2
      vertex 104.4 -4.90039 2
      vertex 102.2 1.90039 2
    endloop
  endfacet
  facet normal 0 0 1
    outer loop
      vertex 104.4 -4.90039 2
      vertex 102.2 -1.90039 2
      vertex 102.2 -4.90039 2
    endloop
  endfacet
  facet normal -0 0 1
    outer loop
      vertex 98 22.75 2
      vertex 100 13.46 2
      vertex 100 22.75 2
    endloop
  endfacet
  facet normal 0 0 1
    outer loop
      vertex 100 13.46 2
      vertex 98 22.75 2
      vertex 98 13.46 2
    endloop
  endfacet
  facet normal -0 0 1
    outer loop
      vertex 98 -13.46 2
      vertex 100 -22.75 2
      vertex 100 -13.46 2
    endloop
  endfacet
  facet normal 0 0 1
    outer loop
      vertex 100 -22.75 2
      vertex 98 -13.46 2
      vertex 98 -22.75 2
    endloop
  endfacet
  facet normal -0 0 1
    outer loop
      vertex 0 22.75 2
      vertex 2 13.46 2
      vertex 2 22.75 2
    endloop
  endfacet
  facet normal 0 0 1
    outer loop
      vertex 2 13.46 2
      vertex 0 22.75 2
      vertex 0 13.46 2
    endloop
  endfacet
  facet normal -0 0 1
    outer loop
      vertex 0 11.96 2
      vertex 2 2 2
      vertex 2 11.96 2
    endloop
  endfacet
  facet normal 0 0 1
    outer loop
      vertex 2 2 2
      vertex 0 11.96 2
      vertex 0 2 2
    endloop
  endfacet
  facet normal -0 0 1
    outer loop
      vertex 78 -13.46 2
      vertex 82 -22.75 2
      vertex 82 -13.46 2
    endloop
  endfacet
  facet normal 0 0 1
    outer loop
      vertex 82 -22.75 2
      vertex 78 -13.46 2
      vertex 78 -22.75 2
    endloop
  endfacet
  facet normal -0 0 1
    outer loop
      vertex 78 22.75 2
      vertex 82 13.46 2
      vertex 82 22.75 2
    endloop
  endfacet
  facet normal 0 0 1
    outer loop
      vertex 82 13.46 2
      vertex 78 22.75 2
      vertex 78 13.46 2
    endloop
  endfacet
  facet normal -0 0 1
    outer loop
      vertex 78 11.96 2
      vertex 82 -11.96 2
      vertex 82 11.96 2
    endloop
  endfacet
  facet normal 0 0 1
    outer loop
      vertex 82 -11.96 2
      vertex 78 11.96 2
      vertex 78 -11.96 2
    endloop
  endfacet
  facet normal -0 0 1
    outer loop
      vertex 68 -13.46 2
      vertex 72 -22.75 2
      vertex 72 -13.46 2
    endloop
  endfacet
  facet normal 0 0 1
    outer loop
      vertex 72 -22.75 2
      vertex 68 -13.46 2
      vertex 68 -22.75 2
    endloop
  endfacet
  facet normal -0 0 1
    outer loop
      vertex 68 22.75 2
      vertex 72 13.46 2
      vertex 72 22.75 2
    endloop
  endfacet
  facet normal 0 0 1
    outer loop
      vertex 72 13.46 2
      vertex 68 22.75 2
      vertex 68 13.46 2
    endloop
  endfacet
  facet normal -0 0 1
    outer loop
      vertex 68 11.96 2
      vertex 72 -11.96 2
      vertex 72 11.96 2
    endloop
  endfacet
  facet normal 0 0 1
    outer loop
      vertex 72 -11.96 2
      vertex 68 11.96 2
      vertex 68 -11.96 2
    endloop
  endfacet
  facet normal -0 0 1
    outer loop
      vertex 58 -13.46 2
      vertex 62 -22.75 2
      vertex 62 -13.46 2
    endloop
  endfacet
  facet normal 0 0 1
    outer loop
      vertex 62 -22.75 2
      vertex 58 -13.46 2
      vertex 58 -22.75 2
    endloop
  endfacet
  facet normal -0 0 1
    outer loop
      vertex 58 22.75 2
      vertex 62 13.46 2
      vertex 62 22.75 2
    endloop
  endfacet
  facet normal 0 0 1
    outer loop
      vertex 62 13.46 2
      vertex 58 22.75 2
      vertex 58 13.46 2
    endloop
  endfacet
  facet normal -0 0 1
    outer loop
      vertex 58 11.96 2
      vertex 62 -11.96 2
      vertex 62 11.96 2
    endloop
  endfacet
  facet normal 0 0 1
    outer loop
      vertex 62 -11.96 2
      vertex 58 11.96 2
      vertex 58 -11.96 2
    endloop
  endfacet
  facet normal -0 0 1
    outer loop
      vertex 48 -13.46 2
      vertex 52 -22.75 2
      vertex 52 -13.46 2
    endloop
  endfacet
  facet normal 0 0 1
    outer loop
      vertex 52 -22.75 2
      vertex 48 -13.46 2
      vertex 48 -22.75 2
    endloop
  endfacet
  facet normal -0 0 1
    outer loop
      vertex 48 22.75 2
      vertex 52 13.46 2
      vertex 52 22.75 2
    endloop
  endfacet
  facet normal 0 0 1
    outer loop
      vertex 52 13.46 2
      vertex 48 22.75 2
      vertex 48 13.46 2
    endloop
  endfacet
  facet normal -0 0 1
    outer loop
      vertex 48 11.96 2
      vertex 52 -11.96 2
      vertex 52 11.96 2
    endloop
  endfacet
  facet normal 0 0 1
    outer loop
      vertex 52 -11.96 2
      vertex 48 11.96 2
      vertex 48 -11.96 2
    endloop
  endfacet
  facet normal -0 0 1
    outer loop
      vertex 38 -13.46 2
      vertex 42 -22.75 2
      vertex 42 -13.46 2
    endloop
  endfacet
  facet normal 0 0 1
    outer loop
      vertex 42 -22.75 2
      vertex 38 -13.46 2
      vertex 38 -22.75 2
    endloop
  endfacet
  facet normal -0 0 1
    outer loop
      vertex 38 22.75 2
      vertex 42 13.46 2
      vertex 42 22.75 2
    endloop
  endfacet
  facet normal 0 0 1
    outer loop
      vertex 42 13.46 2
      vertex 38 22.75 2
      vertex 38 13.46 2
    endloop
  endfacet
  facet normal -0 0 1
    outer loop
      vertex 38 11.96 2
      vertex 42 -11.96 2
      vertex 42 11.96 2
    endloop
  endfacet
  facet normal 0 0 1
    outer loop
      vertex 42 -11.96 2
      vertex 38 11.96 2
      vertex 38 -11.96 2
    endloop
  endfacet
  facet normal -0 0 1
    outer loop
      vertex 28 -13.46 2
      vertex 32 -22.75 2
      vertex 32 -13.46 2
    endloop
  endfacet
  facet normal 0 0 1
    outer loop
      vertex 32 -22.75 2
      vertex 28 -13.46 2
      vertex 28 -22.75 2
    endloop
  endfacet
  facet normal -0 0 1
    outer loop
      vertex 28 22.75 2
      vertex 32 13.46 2
      vertex 32 22.75 2
    endloop
  endfacet
  facet normal 0 0 1
    outer loop
      vertex 32 13.46 2
      vertex 28 22.75 2
      vertex 28 13.46 2
    endloop
  endfacet
  facet normal -0 0 1
    outer loop
      vertex 28 11.96 2
      vertex 32 -11.96 2
      vertex 32 11.96 2
    endloop
  endfacet
  facet normal 0 0 1
    outer loop
      vertex 32 -11.96 2
      vertex 28 11.96 2
      vertex 28 -11.96 2
    endloop
  endfacet
  facet normal -0 0 1
    outer loop
      vertex 18 22.75 2
      vertex 22 13.46 2
      vertex 22 22.75 2
    endloop
  endfacet
  facet normal 0 0 1
    outer loop
      vertex 22 13.46 2
      vertex 18 22.75 2
      vertex 18 13.46 2
    endloop
  endfacet
  facet normal -0 0 1
    outer loop
      vertex 18 -13.46 2
      vertex 22 -22.75 2
      vertex 22 -13.46 2
    endloop
  endfacet
  facet normal 0 0 1
    outer loop
      vertex 22 -22.75 2
      vertex 18 -13.46 2
      vertex 18 -22.75 2
    endloop
  endfacet
  facet normal -0 0 1
    outer loop
      vertex 18 11.96 2
      vertex 22 -11.96 2
      vertex 22 11.96 2
    endloop
  endfacet
  facet normal 0 0 1
    outer loop
      vertex 22 -11.96 2
      vertex 18 11.96 2
      vertex 18 -11.96 2
    endloop
  endfacet
  facet normal -0 0 1
    outer loop
      vertex 8 22.75 2
      vertex 12 13.46 2
      vertex 12 22.75 2
    endloop
  endfacet
  facet normal 0 0 1
    outer loop
      vertex 12 13.46 2
      vertex 8 22.75 2
      vertex 8 13.46 2
    endloop
  endfacet
  facet normal -0 0 1
    outer loop
      vertex 8 -13.46 2
      vertex 12 -22.75 2
      vertex 12 -13.46 2
    endloop
  endfacet
  facet normal 0 0 1
    outer loop
      vertex 12 -22.75 2
      vertex 8 -13.46 2
      vertex 8 -22.75 2
    endloop
  endfacet
  facet normal -0 0 1
    outer loop
      vertex 8 11.96 2
      vertex 12 -11.96 2
      vertex 12 11.96 2
    endloop
  endfacet
  facet normal 0 0 1
    outer loop
      vertex 12 -11.96 2
      vertex 8 11.96 2
      vertex 8 -11.96 2
    endloop
  endfacet
  facet normal -0 0 1
    outer loop
      vertex 0 -2 2
      vertex 2 -11.96 2
      vertex 2 -2 2
    endloop
  endfacet
  facet normal 0 0 1
    outer loop
      vertex 2 -11.96 2
      vertex 0 -2 2
      vertex 0 -11.96 2
    endloop
  endfacet
  facet normal -0 0 1
    outer loop
      vertex 0 -13.46 2
      vertex 2 -22.75 2
      vertex 2 -13.46 2
    endloop
  endfacet
  facet normal 0 0 1
    outer loop
      vertex 2 -22.75 2
      vertex 0 -13.46 2
      vertex 0 -22.75 2
    endloop
  endfacet
  facet normal 0 1 -0
    outer loop
      vertex 92 22.75 0
      vertex 88 22.75 2
      vertex 92 22.75 2
    endloop
  endfacet
  facet normal 0 1 0
    outer loop
      vertex 88 22.75 2
      vertex 92 22.75 0
      vertex 88 22.75 0
    endloop
  endfacet
  facet normal -1 0 0
    outer loop
      vertex 88 22.75 0
      vertex 88 13.46 0.000999451
      vertex 88 22.75 2
    endloop
  endfacet
  facet normal -1 0 0
    outer loop
      vertex 88 22.75 0
      vertex 88 11.96 0.000999451
      vertex 88 13.46 0.000999451
    endloop
  endfacet
  facet normal -1 0 0
    outer loop
      vertex 88 11.96 0.000999451
      vertex 88 -11.96 0.000999451
      vertex 88 11.96 2
    endloop
  endfacet
  facet normal -1 0 0
    outer loop
      vertex 88 22.75 0
      vertex 88 -11.96 0.000999451
      vertex 88 11.96 0.000999451
    endloop
  endfacet
  facet normal -1 0 0
    outer loop
      vertex 88 22.75 0
      vertex 88 -13.46 0.000999451
      vertex 88 -11.96 0.000999451
    endloop
  endfacet
  facet normal -1 0 0
    outer loop
      vertex 88 -22.75 0
      vertex 88 -13.46 0.000999451
      vertex 88 22.75 0
    endloop
  endfacet
  facet normal -1 0 0
    outer loop
      vertex 88 -22.75 0
      vertex 88 -13.46 2
      vertex 88 -13.46 0.000999451
    endloop
  endfacet
  facet normal -1 -0 0
    outer loop
      vertex 88 -13.46 2
      vertex 88 -22.75 0
      vertex 88 -22.75 2
    endloop
  endfacet
  facet normal -1 -0 0
    outer loop
      vertex 88 22.75 2
      vertex 88 13.46 0.000999451
      vertex 88 13.46 2
    endloop
  endfacet
  facet normal -1 -0 0
    outer loop
      vertex 88 11.96 2
      vertex 88 -11.96 0.000999451
      vertex 88 -11.96 2
    endloop
  endfacet
  facet normal 0 -1 0
    outer loop
      vertex 88 -22.75 0
      vertex 92 -22.75 2
      vertex 88 -22.75 2
    endloop
  endfacet
  facet normal 0 -1 -0
    outer loop
      vertex 92 -22.75 2
      vertex 88 -22.75 0
      vertex 92 -22.75 0
    endloop
  endfacet
  facet normal 1 0 0
    outer loop
      vertex 92 -13.46 2
      vertex 92 -22.75 2
      vertex 92 -13.46 0.000999451
    endloop
  endfacet
  facet normal 1 0 0
    outer loop
      vertex 92 11.96 2
      vertex 92 -11.96 2
      vertex 92 11.96 0.000999451
    endloop
  endfacet
  facet normal 1 -0 0
    outer loop
      vertex 92 13.46 2
      vertex 92 22.75 0
      vertex 92 22.75 2
    endloop
  endfacet
  facet normal 1 -0 0
    outer loop
      vertex 92 13.46 0.000999451
      vertex 92 22.75 0
      vertex 92 13.46 2
    endloop
  endfacet
  facet normal 1 -0 0
    outer loop
      vertex 92 11.96 0.000999451
      vertex 92 22.75 0
      vertex 92 13.46 0.000999451
    endloop
  endfacet
  facet normal 1 0 0
    outer loop
      vertex 92 -11.96 0.000999451
      vertex 92 11.96 0.000999451
      vertex 92 -11.96 2
    endloop
  endfacet
  facet normal 1 -0 0
    outer loop
      vertex 92 -11.96 0.000999451
      vertex 92 22.75 0
      vertex 92 11.96 0.000999451
    endloop
  endfacet
  facet normal 1 -0 0
    outer loop
      vertex 92 -13.46 0.000999451
      vertex 92 22.75 0
      vertex 92 -11.96 0.000999451
    endloop
  endfacet
  facet normal 1 0 0
    outer loop
      vertex 92 -13.46 0.000999451
      vertex 92 -22.75 0
      vertex 92 22.75 0
    endloop
  endfacet
  facet normal 1 0 0
    outer loop
      vertex 92 -22.75 0
      vertex 92 -13.46 0.000999451
      vertex 92 -22.75 2
    endloop
  endfacet
  facet normal 0 -1 0
    outer loop
      vertex 100 -1.90039 0
      vertex 102.2 -1.90039 2
      vertex 100 -1.90039 2
    endloop
  endfacet
  facet normal 0 -1 -0
    outer loop
      vertex 102.2 -1.90039 2
      vertex 100 -1.90039 0
      vertex 102.2 -1.90039 0
    endloop
  endfacet
  facet normal -1 0 0
    outer loop
      vertex 102.2 -4.90039 0
      vertex 102.2 -1.90039 2
      vertex 102.2 -1.90039 0
    endloop
  endfacet
  facet normal -1 -0 0
    outer loop
      vertex 102.2 -1.90039 2
      vertex 102.2 -4.90039 0
      vertex 102.2 -4.90039 2
    endloop
  endfacet
  facet normal 0 -1 0
    outer loop
      vertex 102.2 -4.90039 0
      vertex 104.4 -4.90039 2
      vertex 102.2 -4.90039 2
    endloop
  endfacet
  facet normal 0 -1 -0
    outer loop
      vertex 104.4 -4.90039 2
      vertex 102.2 -4.90039 0
      vertex 104.4 -4.90039 0
    endloop
  endfacet
  facet normal 1 -0 0
    outer loop
      vertex 104.4 -4.90039 2
      vertex 104.4 4.90039 0
      vertex 104.4 4.90039 2
    endloop
  endfacet
  facet normal 1 0 0
    outer loop
      vertex 104.4 4.90039 0
      vertex 104.4 -4.90039 2
      vertex 104.4 -4.90039 0
    endloop
  endfacet
  facet normal 0 1 -0
    outer loop
      vertex 104.4 4.90039 0
      vertex 102.2 4.90039 2
      vertex 104.4 4.90039 2
    endloop
  endfacet
  facet normal 0 1 0
    outer loop
      vertex 102.2 4.90039 2
      vertex 104.4 4.90039 0
      vertex 102.2 4.90039 0
    endloop
  endfacet
  facet normal -1 0 0
    outer loop
      vertex 102.2 1.90039 0
      vertex 102.2 4.90039 2
      vertex 102.2 4.90039 0
    endloop
  endfacet
  facet normal -1 -0 0
    outer loop
      vertex 102.2 4.90039 2
      vertex 102.2 1.90039 0
      vertex 102.2 1.90039 2
    endloop
  endfacet
  facet normal 0 1 -0
    outer loop
      vertex 102.2 1.90039 0
      vertex 100 1.90039 2
      vertex 102.2 1.90039 2
    endloop
  endfacet
  facet normal 0 1 0
    outer loop
      vertex 100 1.90039 2
      vertex 102.2 1.90039 0
      vertex 100 1.90039 0
    endloop
  endfacet
  facet normal 1 0 0
    outer loop
      vertex 100 13.46 4.501
      vertex 100 11.96 4.501
      vertex 100 13.46 2
    endloop
  endfacet
  facet normal 1 -0 0
    outer loop
      vertex 100 13.46 2
      vertex 100 22.75 0
      vertex 100 22.75 2
    endloop
  endfacet
  facet normal 1 0 0
    outer loop
      vertex 100 11.96 2
      vertex 100 13.46 2
      vertex 100 11.96 4.501
    endloop
  endfacet
  facet normal 1 -0 0
    outer loop
      vertex 100 11.96 2
      vertex 100 22.75 0
      vertex 100 13.46 2
    endloop
  endfacet
  facet normal 1 0 0
    outer loop
      vertex 100 1.90039 0
      vertex 100 11.96 2
      vertex 100 1.90039 2
    endloop
  endfacet
  facet normal 1 0 0
    outer loop
      vertex 100 11.96 2
      vertex 100 1.90039 0
      vertex 100 22.75 0
    endloop
  endfacet
  facet normal 0 1 -0
    outer loop
      vertex 100 22.75 0
      vertex 98 22.75 2
      vertex 100 22.75 2
    endloop
  endfacet
  facet normal 0 1 0
    outer loop
      vertex 98 22.75 2
      vertex 100 22.75 0
      vertex 98 22.75 0
    endloop
  endfacet
  facet normal -1 0 0
    outer loop
      vertex 98 22.75 0
      vertex 98 13.46 0.000999451
      vertex 98 22.75 2
    endloop
  endfacet
  facet normal -1 0 0
    outer loop
      vertex 98 22.75 0
      vertex 98 11.96 0.000999451
      vertex 98 13.46 0.000999451
    endloop
  endfacet
  facet normal -1 0 0
    outer loop
      vertex 98 11.96 0.000999451
      vertex 98 -11.96 0.000999451
      vertex 98 11.96 2
    endloop
  endfacet
  facet normal -1 0 0
    outer loop
      vertex 98 22.75 0
      vertex 98 -11.96 0.000999451
      vertex 98 11.96 0.000999451
    endloop
  endfacet
  facet normal -1 0 0
    outer loop
      vertex 98 22.75 0
      vertex 98 -13.46 0.000999451
      vertex 98 -11.96 0.000999451
    endloop
  endfacet
  facet normal -1 0 0
    outer loop
      vertex 98 -22.75 0
      vertex 98 -13.46 0.000999451
      vertex 98 22.75 0
    endloop
  endfacet
  facet normal -1 0 0
    outer loop
      vertex 98 -22.75 0
      vertex 98 -13.46 2
      vertex 98 -13.46 0.000999451
    endloop
  endfacet
  facet normal -1 -0 0
    outer loop
      vertex 98 -13.46 2
      vertex 98 -22.75 0
      vertex 98 -22.75 2
    endloop
  endfacet
  facet normal -1 -0 0
    outer loop
      vertex 98 22.75 2
      vertex 98 13.46 0.000999451
      vertex 98 13.46 2
    endloop
  endfacet
  facet normal -1 -0 0
    outer loop
      vertex 98 11.96 2
      vertex 98 -11.96 0.000999451
      vertex 98 -11.96 2
    endloop
  endfacet
  facet normal 0 -1 0
    outer loop
      vertex 98 -22.75 0
      vertex 100 -22.75 2
      vertex 98 -22.75 2
    endloop
  endfacet
  facet normal 0 -1 -0
    outer loop
      vertex 100 -22.75 2
      vertex 98 -22.75 0
      vertex 100 -22.75 0
    endloop
  endfacet
  facet normal 1 0 0
    outer loop
      vertex 100 -11.96 4.501
      vertex 100 -13.46 4.501
      vertex 100 -11.96 2
    endloop
  endfacet
  facet normal 1 -0 0
    outer loop
      vertex 100 -11.96 2
      vertex 100 -1.90039 0
      vertex 100 -1.90039 2
    endloop
  endfacet
  facet normal 1 0 0
    outer loop
      vertex 100 -13.46 2
      vertex 100 -11.96 2
      vertex 100 -13.46 4.501
    endloop
  endfacet
  facet normal 1 0 0
    outer loop
      vertex 100 -22.75 0
      vertex 100 -11.96 2
      vertex 100 -13.46 2
    endloop
  endfacet
  facet normal 1 0 0
    outer loop
      vertex 100 -22.75 0
      vertex 100 -13.46 2
      vertex 100 -22.75 2
    endloop
  endfacet
  facet normal 1 0 0
    outer loop
      vertex 100 -11.96 2
      vertex 100 -22.75 0
      vertex 100 -1.90039 0
    endloop
  endfacet
  facet normal 0 1 -0
    outer loop
      vertex 2 22.75 0
      vertex 0 22.75 2
      vertex 2 22.75 2
    endloop
  endfacet
  facet normal 0 1 0
    outer loop
      vertex 0 22.75 2
      vertex 2 22.75 0
      vertex 0 22.75 0
    endloop
  endfacet
  facet normal -1 0 0
    outer loop
      vertex 0 22.75 0
      vertex 0 13.46 2
      vertex 0 22.75 2
    endloop
  endfacet
  facet normal -1 0 0
    outer loop
      vertex 0 13.46 2
      vertex 0 11.96 2
      vertex 0 13.46 4.501
    endloop
  endfacet
  facet normal -1 0 0
    outer loop
      vertex 0 22.75 0
      vertex 0 11.96 2
      vertex 0 13.46 2
    endloop
  endfacet
  facet normal -1 0 0
    outer loop
      vertex 0 2 0
      vertex 0 11.96 2
      vertex 0 22.75 0
    endloop
  endfacet
  facet normal -1 -0 0
    outer loop
      vertex 0 11.96 2
      vertex 0 2 0
      vertex 0 2 2
    endloop
  endfacet
  facet normal -1 -0 0
    outer loop
      vertex 0 13.46 4.501
      vertex 0 11.96 2
      vertex 0 11.96 4.501
    endloop
  endfacet
  facet normal 0 -1 0
    outer loop
      vertex 0 2 0
      vertex 2 2 2
      vertex 0 2 2
    endloop
  endfacet
  facet normal 0 -1 -0
    outer loop
      vertex 2 2 2
      vertex 0 2 0
      vertex 2 2 0
    endloop
  endfacet
  facet normal 1 0 0
    outer loop
      vertex 2 11.96 2
      vertex 2 2 2
      vertex 2 11.96 0.000999451
    endloop
  endfacet
  facet normal 1 -0 0
    outer loop
      vertex 2 13.46 2
      vertex 2 22.75 0
      vertex 2 22.75 2
    endloop
  endfacet
  facet normal 1 -0 0
    outer loop
      vertex 2 13.46 0.000999451
      vertex 2 22.75 0
      vertex 2 13.46 2
    endloop
  endfacet
  facet normal 1 -0 0
    outer loop
      vertex 2 11.96 0.000999451
      vertex 2 22.75 0
      vertex 2 13.46 0.000999451
    endloop
  endfacet
  facet normal 1 0 0
    outer loop
      vertex 2 11.96 0.000999451
      vertex 2 2 0
      vertex 2 22.75 0
    endloop
  endfacet
  facet normal 1 0 0
    outer loop
      vertex 2 2 0
      vertex 2 11.96 0.000999451
      vertex 2 2 2
    endloop
  endfacet
  facet normal 0 1 -0
    outer loop
      vertex 82 22.75 0
      vertex 78 22.75 2
      vertex 82 22.75 2
    endloop
  endfacet
  facet normal 0 1 0
    outer loop
      vertex 78 22.75 2
      vertex 82 22.75 0
      vertex 78 22.75 0
    endloop
  endfacet
  facet normal -1 0 0
    outer loop
      vertex 78 22.75 0
      vertex 78 13.46 0.000999451
      vertex 78 22.75 2
    endloop
  endfacet
  facet normal -1 0 0
    outer loop
      vertex 78 22.75 0
      vertex 78 11.96 0.000999451
      vertex 78 13.46 0.000999451
    endloop
  endfacet
  facet normal -1 0 0
    outer loop
      vertex 78 11.96 0.000999451
      vertex 78 -11.96 0.000999451
      vertex 78 11.96 2
    endloop
  endfacet
  facet normal -1 0 0
    outer loop
      vertex 78 22.75 0
      vertex 78 -11.96 0.000999451
      vertex 78 11.96 0.000999451
    endloop
  endfacet
  facet normal -1 0 0
    outer loop
      vertex 78 22.75 0
      vertex 78 -13.46 0.000999451
      vertex 78 -11.96 0.000999451
    endloop
  endfacet
  facet normal -1 0 0
    outer loop
      vertex 78 -22.75 0
      vertex 78 -13.46 0.000999451
      vertex 78 22.75 0
    endloop
  endfacet
  facet normal -1 0 0
    outer loop
      vertex 78 -22.75 0
      vertex 78 -13.46 2
      vertex 78 -13.46 0.000999451
    endloop
  endfacet
  facet normal -1 -0 0
    outer loop
      vertex 78 -13.46 2
      vertex 78 -22.75 0
      vertex 78 -22.75 2
    endloop
  endfacet
  facet normal -1 -0 0
    outer loop
      vertex 78 22.75 2
      vertex 78 13.46 0.000999451
      vertex 78 13.46 2
    endloop
  endfacet
  facet normal -1 -0 0
    outer loop
      vertex 78 11.96 2
      vertex 78 -11.96 0.000999451
      vertex 78 -11.96 2
    endloop
  endfacet
  facet normal 0 -1 0
    outer loop
      vertex 78 -22.75 0
      vertex 82 -22.75 2
      vertex 78 -22.75 2
    endloop
  endfacet
  facet normal 0 -1 -0
    outer loop
      vertex 82 -22.75 2
      vertex 78 -22.75 0
      vertex 82 -22.75 0
    endloop
  endfacet
  facet normal 1 0 0
    outer loop
      vertex 82 -13.46 2
      vertex 82 -22.75 2
      vertex 82 -13.46 0.000999451
    endloop
  endfacet
  facet normal 1 0 0
    outer loop
      vertex 82 11.96 2
      vertex 82 -11.96 2
      vertex 82 11.96 0.000999451
    endloop
  endfacet
  facet normal 1 -0 0
    outer loop
      vertex 82 13.46 2
      vertex 82 22.75 0
      vertex 82 22.75 2
    endloop
  endfacet
  facet normal 1 -0 0
    outer loop
      vertex 82 13.46 0.000999451
      vertex 82 22.75 0
      vertex 82 13.46 2
    endloop
  endfacet
  facet normal 1 -0 0
    outer loop
      vertex 82 11.96 0.000999451
      vertex 82 22.75 0
      vertex 82 13.46 0.000999451
    endloop
  endfacet
  facet normal 1 0 0
    outer loop
      vertex 82 -11.96 0.000999451
      vertex 82 11.96 0.000999451
      vertex 82 -11.96 2
    endloop
  endfacet
  facet normal 1 -0 0
    outer loop
      vertex 82 -11.96 0.000999451
      vertex 82 22.75 0
      vertex 82 11.96 0.000999451
    endloop
  endfacet
  facet normal 1 -0 0
    outer loop
      vertex 82 -13.46 0.000999451
      vertex 82 22.75 0
      vertex 82 -11.96 0.000999451
    endloop
  endfacet
  facet normal 1 0 0
    outer loop
      vertex 82 -13.46 0.000999451
      vertex 82 -22.75 0
      vertex 82 22.75 0
    endloop
  endfacet
  facet normal 1 0 0
    outer loop
      vertex 82 -22.75 0
      vertex 82 -13.46 0.000999451
      vertex 82 -22.75 2
    endloop
  endfacet
  facet normal 0 1 -0
    outer loop
      vertex 72 22.75 0
      vertex 68 22.75 2
      vertex 72 22.75 2
    endloop
  endfacet
  facet normal 0 1 0
    outer loop
      vertex 68 22.75 2
      vertex 72 22.75 0
      vertex 68 22.75 0
    endloop
  endfacet
  facet normal -1 0 0
    outer loop
      vertex 68 22.75 0
      vertex 68 13.46 0.000999451
      vertex 68 22.75 2
    endloop
  endfacet
  facet normal -1 0 0
    outer loop
      vertex 68 22.75 0
      vertex 68 11.96 0.000999451
      vertex 68 13.46 0.000999451
    endloop
  endfacet
  facet normal -1 0 0
    outer loop
      vertex 68 11.96 0.000999451
      vertex 68 -11.96 0.000999451
      vertex 68 11.96 2
    endloop
  endfacet
  facet normal -1 0 0
    outer loop
      vertex 68 22.75 0
      vertex 68 -11.96 0.000999451
      vertex 68 11.96 0.000999451
    endloop
  endfacet
  facet normal -1 0 0
    outer loop
      vertex 68 22.75 0
      vertex 68 -13.46 0.000999451
      vertex 68 -11.96 0.000999451
    endloop
  endfacet
  facet normal -1 0 0
    outer loop
      vertex 68 -22.75 0
      vertex 68 -13.46 0.000999451
      vertex 68 22.75 0
    endloop
  endfacet
  facet normal -1 0 0
    outer loop
      vertex 68 -22.75 0
      vertex 68 -13.46 2
      vertex 68 -13.46 0.000999451
    endloop
  endfacet
  facet normal -1 -0 0
    outer loop
      vertex 68 -13.46 2
      vertex 68 -22.75 0
      vertex 68 -22.75 2
    endloop
  endfacet
  facet normal -1 -0 0
    outer loop
      vertex 68 22.75 2
      vertex 68 13.46 0.000999451
      vertex 68 13.46 2
    endloop
  endfacet
  facet normal -1 -0 0
    outer loop
      vertex 68 11.96 2
      vertex 68 -11.96 0.000999451
      vertex 68 -11.96 2
    endloop
  endfacet
  facet normal 0 -1 0
    outer loop
      vertex 68 -22.75 0
      vertex 72 -22.75 2
      vertex 68 -22.75 2
    endloop
  endfacet
  facet normal 0 -1 -0
    outer loop
      vertex 72 -22.75 2
      vertex 68 -22.75 0
      vertex 72 -22.75 0
    endloop
  endfacet
  facet normal 1 0 0
    outer loop
      vertex 72 -13.46 2
      vertex 72 -22.75 2
      vertex 72 -13.46 0.000999451
    endloop
  endfacet
  facet normal 1 0 0
    outer loop
      vertex 72 11.96 2
      vertex 72 -11.96 2
      vertex 72 11.96 0.000999451
    endloop
  endfacet
  facet normal 1 -0 0
    outer loop
      vertex 72 13.46 2
      vertex 72 22.75 0
      vertex 72 22.75 2
    endloop
  endfacet
  facet normal 1 -0 0
    outer loop
      vertex 72 13.46 0.000999451
      vertex 72 22.75 0
      vertex 72 13.46 2
    endloop
  endfacet
  facet normal 1 -0 0
    outer loop
      vertex 72 11.96 0.000999451
      vertex 72 22.75 0
      vertex 72 13.46 0.000999451
    endloop
  endfacet
  facet normal 1 0 0
    outer loop
      vertex 72 -11.96 0.000999451
      vertex 72 11.96 0.000999451
      vertex 72 -11.96 2
    endloop
  endfacet
  facet normal 1 -0 0
    outer loop
      vertex 72 -11.96 0.000999451
      vertex 72 22.75 0
      vertex 72 11.96 0.000999451
    endloop
  endfacet
  facet normal 1 -0 0
    outer loop
      vertex 72 -13.46 0.000999451
      vertex 72 22.75 0
      vertex 72 -11.96 0.000999451
    endloop
  endfacet
  facet normal 1 0 0
    outer loop
      vertex 72 -13.46 0.000999451
      vertex 72 -22.75 0
      vertex 72 22.75 0
    endloop
  endfacet
  facet normal 1 0 0
    outer loop
      vertex 72 -22.75 0
      vertex 72 -13.46 0.000999451
      vertex 72 -22.75 2
    endloop
  endfacet
  facet normal 0 1 -0
    outer loop
      vertex 62 22.75 0
      vertex 58 22.75 2
      vertex 62 22.75 2
    endloop
  endfacet
  facet normal 0 1 0
    outer loop
      vertex 58 22.75 2
      vertex 62 22.75 0
      vertex 58 22.75 0
    endloop
  endfacet
  facet normal -1 0 0
    outer loop
      vertex 58 22.75 0
      vertex 58 13.46 0.000999451
      vertex 58 22.75 2
    endloop
  endfacet
  facet normal -1 0 0
    outer loop
      vertex 58 22.75 0
      vertex 58 11.96 0.000999451
      vertex 58 13.46 0.000999451
    endloop
  endfacet
  facet normal -1 0 0
    outer loop
      vertex 58 11.96 0.000999451
      vertex 58 -11.96 0.000999451
      vertex 58 11.96 2
    endloop
  endfacet
  facet normal -1 0 0
    outer loop
      vertex 58 22.75 0
      vertex 58 -11.96 0.000999451
      vertex 58 11.96 0.000999451
    endloop
  endfacet
  facet normal -1 0 0
    outer loop
      vertex 58 22.75 0
      vertex 58 -13.46 0.000999451
      vertex 58 -11.96 0.000999451
    endloop
  endfacet
  facet normal -1 0 0
    outer loop
      vertex 58 -22.75 0
      vertex 58 -13.46 0.000999451
      vertex 58 22.75 0
    endloop
  endfacet
  facet normal -1 0 0
    outer loop
      vertex 58 -22.75 0
      vertex 58 -13.46 2
      vertex 58 -13.46 0.000999451
    endloop
  endfacet
  facet normal -1 -0 0
    outer loop
      vertex 58 -13.46 2
      vertex 58 -22.75 0
      vertex 58 -22.75 2
    endloop
  endfacet
  facet normal -1 -0 0
    outer loop
      vertex 58 22.75 2
      vertex 58 13.46 0.000999451
      vertex 58 13.46 2
    endloop
  endfacet
  facet normal -1 -0 0
    outer loop
      vertex 58 11.96 2
      vertex 58 -11.96 0.000999451
      vertex 58 -11.96 2
    endloop
  endfacet
  facet normal 0 -1 0
    outer loop
      vertex 58 -22.75 0
      vertex 62 -22.75 2
      vertex 58 -22.75 2
    endloop
  endfacet
  facet normal 0 -1 -0
    outer loop
      vertex 62 -22.75 2
      vertex 58 -22.75 0
      vertex 62 -22.75 0
    endloop
  endfacet
  facet normal 1 0 0
    outer loop
      vertex 62 -13.46 2
      vertex 62 -22.75 2
      vertex 62 -13.46 0.000999451
    endloop
  endfacet
  facet normal 1 0 0
    outer loop
      vertex 62 11.96 2
      vertex 62 -11.96 2
      vertex 62 11.96 0.000999451
    endloop
  endfacet
  facet normal 1 -0 0
    outer loop
      vertex 62 13.46 2
      vertex 62 22.75 0
      vertex 62 22.75 2
    endloop
  endfacet
  facet normal 1 -0 0
    outer loop
      vertex 62 13.46 0.000999451
      vertex 62 22.75 0
      vertex 62 13.46 2
    endloop
  endfacet
  facet normal 1 -0 0
    outer loop
      vertex 62 11.96 0.000999451
      vertex 62 22.75 0
      vertex 62 13.46 0.000999451
    endloop
  endfacet
  facet normal 1 0 0
    outer loop
      vertex 62 -11.96 0.000999451
      vertex 62 11.96 0.000999451
      vertex 62 -11.96 2
    endloop
  endfacet
  facet normal 1 -0 0
    outer loop
      vertex 62 -11.96 0.000999451
      vertex 62 22.75 0
      vertex 62 11.96 0.000999451
    endloop
  endfacet
  facet normal 1 -0 0
    outer loop
      vertex 62 -13.46 0.000999451
      vertex 62 22.75 0
      vertex 62 -11.96 0.000999451
    endloop
  endfacet
  facet normal 1 0 0
    outer loop
      vertex 62 -13.46 0.000999451
      vertex 62 -22.75 0
      vertex 62 22.75 0
    endloop
  endfacet
  facet normal 1 0 0
    outer loop
      vertex 62 -22.75 0
      vertex 62 -13.46 0.000999451
      vertex 62 -22.75 2
    endloop
  endfacet
  facet normal 0 1 -0
    outer loop
      vertex 52 22.75 0
      vertex 48 22.75 2
      vertex 52 22.75 2
    endloop
  endfacet
  facet normal 0 1 0
    outer loop
      vertex 48 22.75 2
      vertex 52 22.75 0
      vertex 48 22.75 0
    endloop
  endfacet
  facet normal -1 0 0
    outer loop
      vertex 48 22.75 0
      vertex 48 13.46 0.000999451
      vertex 48 22.75 2
    endloop
  endfacet
  facet normal -1 0 0
    outer loop
      vertex 48 22.75 0
      vertex 48 11.96 0.000999451
      vertex 48 13.46 0.000999451
    endloop
  endfacet
  facet normal -1 0 0
    outer loop
      vertex 48 11.96 0.000999451
      vertex 48 -11.96 0.000999451
      vertex 48 11.96 2
    endloop
  endfacet
  facet normal -1 0 0
    outer loop
      vertex 48 22.75 0
      vertex 48 -11.96 0.000999451
      vertex 48 11.96 0.000999451
    endloop
  endfacet
  facet normal -1 0 0
    outer loop
      vertex 48 22.75 0
      vertex 48 -13.46 0.000999451
      vertex 48 -11.96 0.000999451
    endloop
  endfacet
  facet normal -1 0 0
    outer loop
      vertex 48 -22.75 0
      vertex 48 -13.46 0.000999451
      vertex 48 22.75 0
    endloop
  endfacet
  facet normal -1 0 0
    outer loop
      vertex 48 -22.75 0
      vertex 48 -13.46 2
      vertex 48 -13.46 0.000999451
    endloop
  endfacet
  facet normal -1 -0 0
    outer loop
      vertex 48 -13.46 2
      vertex 48 -22.75 0
      vertex 48 -22.75 2
    endloop
  endfacet
  facet normal -1 -0 0
    outer loop
      vertex 48 22.75 2
      vertex 48 13.46 0.000999451
      vertex 48 13.46 2
    endloop
  endfacet
  facet normal -1 -0 0
    outer loop
      vertex 48 11.96 2
      vertex 48 -11.96 0.000999451
      vertex 48 -11.96 2
    endloop
  endfacet
  facet normal 0 -1 0
    outer loop
      vertex 48 -22.75 0
      vertex 52 -22.75 2
      vertex 48 -22.75 2
    endloop
  endfacet
  facet normal 0 -1 -0
    outer loop
      vertex 52 -22.75 2
      vertex 48 -22.75 0
      vertex 52 -22.75 0
    endloop
  endfacet
  facet normal 1 0 0
    outer loop
      vertex 52 -13.46 2
      vertex 52 -22.75 2
      vertex 52 -13.46 0.000999451
    endloop
  endfacet
  facet normal 1 0 0
    outer loop
      vertex 52 11.96 2
      vertex 52 -11.96 2
      vertex 52 11.96 0.000999451
    endloop
  endfacet
  facet normal 1 -0 0
    outer loop
      vertex 52 13.46 2
      vertex 52 22.75 0
      vertex 52 22.75 2
    endloop
  endfacet
  facet normal 1 -0 0
    outer loop
      vertex 52 13.46 0.000999451
      vertex 52 22.75 0
      vertex 52 13.46 2
    endloop
  endfacet
  facet normal 1 -0 0
    outer loop
      vertex 52 11.96 0.000999451
      vertex 52 22.75 0
      vertex 52 13.46 0.000999451
    endloop
  endfacet
  facet normal 1 0 0
    outer loop
      vertex 52 -11.96 0.000999451
      vertex 52 11.96 0.000999451
      vertex 52 -11.96 2
    endloop
  endfacet
  facet normal 1 -0 0
    outer loop
      vertex 52 -11.96 0.000999451
      vertex 52 22.75 0
      vertex 52 11.96 0.000999451
    endloop
  endfacet
  facet normal 1 -0 0
    outer loop
      vertex 52 -13.46 0.000999451
      vertex 52 22.75 0
      vertex 52 -11.96 0.000999451
    endloop
  endfacet
  facet normal 1 0 0
    outer loop
      vertex 52 -13.46 0.000999451
      vertex 52 -22.75 0
      vertex 52 22.75 0
    endloop
  endfacet
  facet normal 1 0 0
    outer loop
      vertex 52 -22.75 0
      vertex 52 -13.46 0.000999451
      vertex 52 -22.75 2
    endloop
  endfacet
  facet normal 0 1 -0
    outer loop
      vertex 42 22.75 0
      vertex 38 22.75 2
      vertex 42 22.75 2
    endloop
  endfacet
  facet normal 0 1 0
    outer loop
      vertex 38 22.75 2
      vertex 42 22.75 0
      vertex 38 22.75 0
    endloop
  endfacet
  facet normal -1 0 0
    outer loop
      vertex 38 22.75 0
      vertex 38 13.46 0.000999451
      vertex 38 22.75 2
    endloop
  endfacet
  facet normal -1 0 0
    outer loop
      vertex 38 22.75 0
      vertex 38 11.96 0.000999451
      vertex 38 13.46 0.000999451
    endloop
  endfacet
  facet normal -1 0 0
    outer loop
      vertex 38 11.96 0.000999451
      vertex 38 -11.96 0.000999451
      vertex 38 11.96 2
    endloop
  endfacet
  facet normal -1 0 0
    outer loop
      vertex 38 22.75 0
      vertex 38 -11.96 0.000999451
      vertex 38 11.96 0.000999451
    endloop
  endfacet
  facet normal -1 0 0
    outer loop
      vertex 38 22.75 0
      vertex 38 -13.46 0.000999451
      vertex 38 -11.96 0.000999451
    endloop
  endfacet
  facet normal -1 0 0
    outer loop
      vertex 38 -22.75 0
      vertex 38 -13.46 0.000999451
      vertex 38 22.75 0
    endloop
  endfacet
  facet normal -1 0 0
    outer loop
      vertex 38 -22.75 0
      vertex 38 -13.46 2
      vertex 38 -13.46 0.000999451
    endloop
  endfacet
  facet normal -1 -0 0
    outer loop
      vertex 38 -13.46 2
      vertex 38 -22.75 0
      vertex 38 -22.75 2
    endloop
  endfacet
  facet normal -1 -0 0
    outer loop
      vertex 38 22.75 2
      vertex 38 13.46 0.000999451
      vertex 38 13.46 2
    endloop
  endfacet
  facet normal -1 -0 0
    outer loop
      vertex 38 11.96 2
      vertex 38 -11.96 0.000999451
      vertex 38 -11.96 2
    endloop
  endfacet
  facet normal 0 -1 0
    outer loop
      vertex 38 -22.75 0
      vertex 42 -22.75 2
      vertex 38 -22.75 2
    endloop
  endfacet
  facet normal 0 -1 -0
    outer loop
      vertex 42 -22.75 2
      vertex 38 -22.75 0
      vertex 42 -22.75 0
    endloop
  endfacet
  facet normal 1 0 0
    outer loop
      vertex 42 -13.46 2
      vertex 42 -22.75 2
      vertex 42 -13.46 0.000999451
    endloop
  endfacet
  facet normal 1 0 0
    outer loop
      vertex 42 11.96 2
      vertex 42 -11.96 2
      vertex 42 11.96 0.000999451
    endloop
  endfacet
  facet normal 1 -0 0
    outer loop
      vertex 42 13.46 2
      vertex 42 22.75 0
      vertex 42 22.75 2
    endloop
  endfacet
  facet normal 1 -0 0
    outer loop
      vertex 42 13.46 0.000999451
      vertex 42 22.75 0
      vertex 42 13.46 2
    endloop
  endfacet
  facet normal 1 -0 0
    outer loop
      vertex 42 11.96 0.000999451
      vertex 42 22.75 0
      vertex 42 13.46 0.000999451
    endloop
  endfacet
  facet normal 1 0 0
    outer loop
      vertex 42 -11.96 0.000999451
      vertex 42 11.96 0.000999451
      vertex 42 -11.96 2
    endloop
  endfacet
  facet normal 1 -0 0
    outer loop
      vertex 42 -11.96 0.000999451
      vertex 42 22.75 0
      vertex 42 11.96 0.000999451
    endloop
  endfacet
  facet normal 1 -0 0
    outer loop
      vertex 42 -13.46 0.000999451
      vertex 42 22.75 0
      vertex 42 -11.96 0.000999451
    endloop
  endfacet
  facet normal 1 0 0
    outer loop
      vertex 42 -13.46 0.000999451
      vertex 42 -22.75 0
      vertex 42 22.75 0
    endloop
  endfacet
  facet normal 1 0 0
    outer loop
      vertex 42 -22.75 0
      vertex 42 -13.46 0.000999451
      vertex 42 -22.75 2
    endloop
  endfacet
  facet normal 0 1 -0
    outer loop
      vertex 32 22.75 0
      vertex 28 22.75 2
      vertex 32 22.75 2
    endloop
  endfacet
  facet normal 0 1 0
    outer loop
      vertex 28 22.75 2
      vertex 32 22.75 0
      vertex 28 22.75 0
    endloop
  endfacet
  facet normal -1 0 0
    outer loop
      vertex 28 22.75 0
      vertex 28 13.46 0.000999451
      vertex 28 22.75 2
    endloop
  endfacet
  facet normal -1 0 0
    outer loop
      vertex 28 22.75 0
      vertex 28 11.96 0.000999451
      vertex 28 13.46 0.000999451
    endloop
  endfacet
  facet normal -1 0 0
    outer loop
      vertex 28 11.96 0.000999451
      vertex 28 -11.96 0.000999451
      vertex 28 11.96 2
    endloop
  endfacet
  facet normal -1 0 0
    outer loop
      vertex 28 22.75 0
      vertex 28 -11.96 0.000999451
      vertex 28 11.96 0.000999451
    endloop
  endfacet
  facet normal -1 0 0
    outer loop
      vertex 28 22.75 0
      vertex 28 -13.46 0.000999451
      vertex 28 -11.96 0.000999451
    endloop
  endfacet
  facet normal -1 0 0
    outer loop
      vertex 28 -22.75 0
      vertex 28 -13.46 0.000999451
      vertex 28 22.75 0
    endloop
  endfacet
  facet normal -1 0 0
    outer loop
      vertex 28 -22.75 0
      vertex 28 -13.46 2
      vertex 28 -13.46 0.000999451
    endloop
  endfacet
  facet normal -1 -0 0
    outer loop
      vertex 28 -13.46 2
      vertex 28 -22.75 0
      vertex 28 -22.75 2
    endloop
  endfacet
  facet normal -1 -0 0
    outer loop
      vertex 28 22.75 2
      vertex 28 13.46 0.000999451
      vertex 28 13.46 2
    endloop
  endfacet
  facet normal -1 -0 0
    outer loop
      vertex 28 11.96 2
      vertex 28 -11.96 0.000999451
      vertex 28 -11.96 2
    endloop
  endfacet
  facet normal 0 -1 0
    outer loop
      vertex 28 -22.75 0
      vertex 32 -22.75 2
      vertex 28 -22.75 2
    endloop
  endfacet
  facet normal 0 -1 -0
    outer loop
      vertex 32 -22.75 2
      vertex 28 -22.75 0
      vertex 32 -22.75 0
    endloop
  endfacet
  facet normal 1 0 0
    outer loop
      vertex 32 -13.46 2
      vertex 32 -22.75 2
      vertex 32 -13.46 0.000999451
    endloop
  endfacet
  facet normal 1 0 0
    outer loop
      vertex 32 11.96 2
      vertex 32 -11.96 2
      vertex 32 11.96 0.000999451
    endloop
  endfacet
  facet normal 1 -0 0
    outer loop
      vertex 32 13.46 2
      vertex 32 22.75 0
      vertex 32 22.75 2
    endloop
  endfacet
  facet normal 1 -0 0
    outer loop
      vertex 32 13.46 0.000999451
      vertex 32 22.75 0
      vertex 32 13.46 2
    endloop
  endfacet
  facet normal 1 -0 0
    outer loop
      vertex 32 11.96 0.000999451
      vertex 32 22.75 0
      vertex 32 13.46 0.000999451
    endloop
  endfacet
  facet normal 1 0 0
    outer loop
      vertex 32 -11.96 0.000999451
      vertex 32 11.96 0.000999451
      vertex 32 -11.96 2
    endloop
  endfacet
  facet normal 1 -0 0
    outer loop
      vertex 32 -11.96 0.000999451
      vertex 32 22.75 0
      vertex 32 11.96 0.000999451
    endloop
  endfacet
  facet normal 1 -0 0
    outer loop
      vertex 32 -13.46 0.000999451
      vertex 32 22.75 0
      vertex 32 -11.96 0.000999451
    endloop
  endfacet
  facet normal 1 0 0
    outer loop
      vertex 32 -13.46 0.000999451
      vertex 32 -22.75 0
      vertex 32 22.75 0
    endloop
  endfacet
  facet normal 1 0 0
    outer loop
      vertex 32 -22.75 0
      vertex 32 -13.46 0.000999451
      vertex 32 -22.75 2
    endloop
  endfacet
  facet normal 0 1 -0
    outer loop
      vertex 22 22.75 0
      vertex 18 22.75 2
      vertex 22 22.75 2
    endloop
  endfacet
  facet normal 0 1 0
    outer loop
      vertex 18 22.75 2
      vertex 22 22.75 0
      vertex 18 22.75 0
    endloop
  endfacet
  facet normal -1 0 0
    outer loop
      vertex 18 22.75 0
      vertex 18 13.46 0.000999451
      vertex 18 22.75 2
    endloop
  endfacet
  facet normal -1 0 0
    outer loop
      vertex 18 22.75 0
      vertex 18 11.96 0.000999451
      vertex 18 13.46 0.000999451
    endloop
  endfacet
  facet normal -1 0 0
    outer loop
      vertex 18 11.96 0.000999451
      vertex 18 -11.96 0.000999451
      vertex 18 11.96 2
    endloop
  endfacet
  facet normal -1 0 0
    outer loop
      vertex 18 22.75 0
      vertex 18 -11.96 0.000999451
      vertex 18 11.96 0.000999451
    endloop
  endfacet
  facet normal -1 0 0
    outer loop
      vertex 18 22.75 0
      vertex 18 -13.46 0.000999451
      vertex 18 -11.96 0.000999451
    endloop
  endfacet
  facet normal -1 0 0
    outer loop
      vertex 18 -22.75 0
      vertex 18 -13.46 0.000999451
      vertex 18 22.75 0
    endloop
  endfacet
  facet normal -1 0 0
    outer loop
      vertex 18 -22.75 0
      vertex 18 -13.46 2
      vertex 18 -13.46 0.000999451
    endloop
  endfacet
  facet normal -1 -0 0
    outer loop
      vertex 18 -13.46 2
      vertex 18 -22.75 0
      vertex 18 -22.75 2
    endloop
  endfacet
  facet normal -1 -0 0
    outer loop
      vertex 18 22.75 2
      vertex 18 13.46 0.000999451
      vertex 18 13.46 2
    endloop
  endfacet
  facet normal -1 -0 0
    outer loop
      vertex 18 11.96 2
      vertex 18 -11.96 0.000999451
      vertex 18 -11.96 2
    endloop
  endfacet
  facet normal 0 -1 0
    outer loop
      vertex 18 -22.75 0
      vertex 22 -22.75 2
      vertex 18 -22.75 2
    endloop
  endfacet
  facet normal 0 -1 -0
    outer loop
      vertex 22 -22.75 2
      vertex 18 -22.75 0
      vertex 22 -22.75 0
    endloop
  endfacet
  facet normal 1 0 0
    outer loop
      vertex 22 -13.46 2
      vertex 22 -22.75 2
      vertex 22 -13.46 0.000999451
    endloop
  endfacet
  facet normal 1 0 0
    outer loop
      vertex 22 11.96 2
      vertex 22 -11.96 2
      vertex 22 11.96 0.000999451
    endloop
  endfacet
  facet normal 1 -0 0
    outer loop
      vertex 22 13.46 2
      vertex 22 22.75 0
      vertex 22 22.75 2
    endloop
  endfacet
  facet normal 1 -0 0
    outer loop
      vertex 22 13.46 0.000999451
      vertex 22 22.75 0
      vertex 22 13.46 2
    endloop
  endfacet
  facet normal 1 -0 0
    outer loop
      vertex 22 11.96 0.000999451
      vertex 22 22.75 0
      vertex 22 13.46 0.000999451
    endloop
  endfacet
  facet normal 1 0 0
    outer loop
      vertex 22 -11.96 0.000999451
      vertex 22 11.96 0.000999451
      vertex 22 -11.96 2
    endloop
  endfacet
  facet normal 1 -0 0
    outer loop
      vertex 22 -11.96 0.000999451
      vertex 22 22.75 0
      vertex 22 11.96 0.000999451
    endloop
  endfacet
  facet normal 1 -0 0
    outer loop
      vertex 22 -13.46 0.000999451
      vertex 22 22.75 0
      vertex 22 -11.96 0.000999451
    endloop
  endfacet
  facet normal 1 0 0
    outer loop
      vertex 22 -13.46 0.000999451
      vertex 22 -22.75 0
      vertex 22 22.75 0
    endloop
  endfacet
  facet normal 1 0 0
    outer loop
      vertex 22 -22.75 0
      vertex 22 -13.46 0.000999451
      vertex 22 -22.75 2
    endloop
  endfacet
  facet normal 0 1 -0
    outer loop
      vertex 12 22.75 0
      vertex 8 22.75 2
      vertex 12 22.75 2
    endloop
  endfacet
  facet normal 0 1 0
    outer loop
      vertex 8 22.75 2
      vertex 12 22.75 0
      vertex 8 22.75 0
    endloop
  endfacet
  facet normal -1 0 0
    outer loop
      vertex 8 22.75 0
      vertex 8 13.46 0.000999451
      vertex 8 22.75 2
    endloop
  endfacet
  facet normal -1 0 0
    outer loop
      vertex 8 22.75 0
      vertex 8 11.96 0.000999451
      vertex 8 13.46 0.000999451
    endloop
  endfacet
  facet normal -1 0 0
    outer loop
      vertex 8 11.96 0.000999451
      vertex 8 -11.96 0.000999451
      vertex 8 11.96 2
    endloop
  endfacet
  facet normal -1 0 0
    outer loop
      vertex 8 22.75 0
      vertex 8 -11.96 0.000999451
      vertex 8 11.96 0.000999451
    endloop
  endfacet
  facet normal -1 0 0
    outer loop
      vertex 8 22.75 0
      vertex 8 -13.46 0.000999451
      vertex 8 -11.96 0.000999451
    endloop
  endfacet
  facet normal -1 0 0
    outer loop
      vertex 8 -22.75 0
      vertex 8 -13.46 0.000999451
      vertex 8 22.75 0
    endloop
  endfacet
  facet normal -1 0 0
    outer loop
      vertex 8 -22.75 0
      vertex 8 -13.46 2
      vertex 8 -13.46 0.000999451
    endloop
  endfacet
  facet normal -1 -0 0
    outer loop
      vertex 8 -13.46 2
      vertex 8 -22.75 0
      vertex 8 -22.75 2
    endloop
  endfacet
  facet normal -1 -0 0
    outer loop
      vertex 8 22.75 2
      vertex 8 13.46 0.000999451
      vertex 8 13.46 2
    endloop
  endfacet
  facet normal -1 -0 0
    outer loop
      vertex 8 11.96 2
      vertex 8 -11.96 0.000999451
      vertex 8 -11.96 2
    endloop
  endfacet
  facet normal 0 -1 0
    outer loop
      vertex 8 -22.75 0
      vertex 12 -22.75 2
      vertex 8 -22.75 2
    endloop
  endfacet
  facet normal 0 -1 -0
    outer loop
      vertex 12 -22.75 2
      vertex 8 -22.75 0
      vertex 12 -22.75 0
    endloop
  endfacet
  facet normal 1 0 0
    outer loop
      vertex 12 -13.46 2
      vertex 12 -22.75 2
      vertex 12 -13.46 0.000999451
    endloop
  endfacet
  facet normal 1 0 0
    outer loop
      vertex 12 11.96 2
      vertex 12 -11.96 2
      vertex 12 11.96 0.000999451
    endloop
  endfacet
  facet normal 1 -0 0
    outer loop
      vertex 12 13.46 2
      vertex 12 22.75 0
      vertex 12 22.75 2
    endloop
  endfacet
  facet normal 1 -0 0
    outer loop
      vertex 12 13.46 0.000999451
      vertex 12 22.75 0
      vertex 12 13.46 2
    endloop
  endfacet
  facet normal 1 -0 0
    outer loop
      vertex 12 11.96 0.000999451
      vertex 12 22.75 0
      vertex 12 13.46 0.000999451
    endloop
  endfacet
  facet normal 1 0 0
    outer loop
      vertex 12 -11.96 0.000999451
      vertex 12 11.96 0.000999451
      vertex 12 -11.96 2
    endloop
  endfacet
  facet normal 1 -0 0
    outer loop
      vertex 12 -11.96 0.000999451
      vertex 12 22.75 0
      vertex 12 11.96 0.000999451
    endloop
  endfacet
  facet normal 1 -0 0
    outer loop
      vertex 12 -13.46 0.000999451
      vertex 12 22.75 0
      vertex 12 -11.96 0.000999451
    endloop
  endfacet
  facet normal 1 0 0
    outer loop
      vertex 12 -13.46 0.000999451
      vertex 12 -22.75 0
      vertex 12 22.75 0
    endloop
  endfacet
  facet normal 1 0 0
    outer loop
      vertex 12 -22.75 0
      vertex 12 -13.46 0.000999451
      vertex 12 -22.75 2
    endloop
  endfacet
  facet normal 0 1 -0
    outer loop
      vertex 2 -2 0
      vertex 0 -2 2
      vertex 2 -2 2
    endloop
  endfacet
  facet normal 0 1 0
    outer loop
      vertex 0 -2 2
      vertex 2 -2 0
      vertex 0 -2 0
    endloop
  endfacet
  facet normal -1 0 0
    outer loop
      vertex 0 -2 0
      vertex 0 -11.96 2
      vertex 0 -2 2
    endloop
  endfacet
  facet normal -1 0 0
    outer loop
      vertex 0 -11.96 2
      vertex 0 -13.46 2
      vertex 0 -11.96 4.501
    endloop
  endfacet
  facet normal -1 0 0
    outer loop
      vertex 0 -22.75 0
      vertex 0 -11.96 2
      vertex 0 -2 0
    endloop
  endfacet
  facet normal -1 -0 0
    outer loop
      vertex 0 -11.96 2
      vertex 0 -22.75 0
      vertex 0 -13.46 2
    endloop
  endfacet
  facet normal -1 -0 0
    outer loop
      vertex 0 -13.46 2
      vertex 0 -22.75 0
      vertex 0 -22.75 2
    endloop
  endfacet
  facet normal -1 -0 0
    outer loop
      vertex 0 -11.96 4.501
      vertex 0 -13.46 2
      vertex 0 -13.46 4.501
    endloop
  endfacet
  facet normal 0 -1 0
    outer loop
      vertex 0 -22.75 0
      vertex 2 -22.75 2
      vertex 0 -22.75 2
    endloop
  endfacet
  facet normal 0 -1 -0
    outer loop
      vertex 2 -22.75 2
      vertex 0 -22.75 0
      vertex 2 -22.75 0
    endloop
  endfacet
  facet normal 1 0 0
    outer loop
      vertex 2 -13.46 2
      vertex 2 -22.75 2
      vertex 2 -13.46 0.000999451
    endloop
  endfacet
  facet normal 1 -0 0
    outer loop
      vertex 2 -11.96 2
      vertex 2 -2 0
      vertex 2 -2 2
    endloop
  endfacet
  facet normal 1 -0 0
    outer loop
      vertex 2 -11.96 0.000999451
      vertex 2 -2 0
      vertex 2 -11.96 2
    endloop
  endfacet
  facet normal 1 -0 0
    outer loop
      vertex 2 -13.46 0.000999451
      vertex 2 -2 0
      vertex 2 -11.96 0.000999451
    endloop
  endfacet
  facet normal 1 0 0
    outer loop
      vertex 2 -13.46 0.000999451
      vertex 2 -22.75 0
      vertex 2 -2 0
    endloop
  endfacet
  facet normal 1 0 0
    outer loop
      vertex 2 -22.75 0
      vertex 2 -13.46 0.000999451
      vertex 2 -22.75 2
    endloop
  endfacet
  facet normal 0 0 -1
    outer loop
      vertex 2 11.96 0.000999451
      vertex 8 13.46 0.000999451
      vertex 8 11.96 0.000999451
    endloop
  endfacet
  facet normal -0 0 -1
    outer loop
      vertex 8 13.46 0.000999451
      vertex 2 11.96 0.000999451
      vertex 2 13.46 0.000999451
    endloop
  endfacet
  facet normal 0 0 -1
    outer loop
      vertex 12 11.96 0.000999451
      vertex 18 13.46 0.000999451
      vertex 18 11.96 0.000999451
    endloop
  endfacet
  facet normal -0 0 -1
    outer loop
      vertex 18 13.46 0.000999451
      vertex 12 11.96 0.000999451
      vertex 12 13.46 0.000999451
    endloop
  endfacet
  facet normal 0 0 -1
    outer loop
      vertex 22 11.96 0.000999451
      vertex 28 13.46 0.000999451
      vertex 28 11.96 0.000999451
    endloop
  endfacet
  facet normal -0 0 -1
    outer loop
      vertex 28 13.46 0.000999451
      vertex 22 11.96 0.000999451
      vertex 22 13.46 0.000999451
    endloop
  endfacet
  facet normal 0 0 -1
    outer loop
      vertex 32 11.96 0.000999451
      vertex 38 13.46 0.000999451
      vertex 38 11.96 0.000999451
    endloop
  endfacet
  facet normal -0 0 -1
    outer loop
      vertex 38 13.46 0.000999451
      vertex 32 11.96 0.000999451
      vertex 32 13.46 0.000999451
    endloop
  endfacet
  facet normal 0 0 -1
    outer loop
      vertex 42 11.96 0.000999451
      vertex 48 13.46 0.000999451
      vertex 48 11.96 0.000999451
    endloop
  endfacet
  facet normal -0 0 -1
    outer loop
      vertex 48 13.46 0.000999451
      vertex 42 11.96 0.000999451
      vertex 42 13.46 0.000999451
    endloop
  endfacet
  facet normal 0 0 -1
    outer loop
      vertex 52 11.96 0.000999451
      vertex 58 13.46 0.000999451
      vertex 58 11.96 0.000999451
    endloop
  endfacet
  facet normal -0 0 -1
    outer loop
      vertex 58 13.46 0.000999451
      vertex 52 11.96 0.000999451
      vertex 52 13.46 0.000999451
    endloop
  endfacet
  facet normal 0 0 -1
    outer loop
      vertex 62 11.96 0.000999451
      vertex 68 13.46 0.000999451
      vertex 68 11.96 0.000999451
    endloop
  endfacet
  facet normal -0 0 -1
    outer loop
      vertex 68 13.46 0.000999451
      vertex 62 11.96 0.000999451
      vertex 62 13.46 0.000999451
    endloop
  endfacet
  facet normal 0 0 -1
    outer loop
      vertex 72 11.96 0.000999451
      vertex 78 13.46 0.000999451
      vertex 78 11.96 0.000999451
    endloop
  endfacet
  facet normal -0 0 -1
    outer loop
      vertex 78 13.46 0.000999451
      vertex 72 11.96 0.000999451
      vertex 72 13.46 0.000999451
    endloop
  endfacet
  facet normal 0 0 -1
    outer loop
      vertex 82 11.96 0.000999451
      vertex 88 13.46 0.000999451
      vertex 88 11.96 0.000999451
    endloop
  endfacet
  facet normal -0 0 -1
    outer loop
      vertex 88 13.46 0.000999451
      vertex 82 11.96 0.000999451
      vertex 82 13.46 0.000999451
    endloop
  endfacet
  facet normal 0 0 -1
    outer loop
      vertex 92 11.96 0.000999451
      vertex 98 13.46 0.000999451
      vertex 98 11.96 0.000999451
    endloop
  endfacet
  facet normal -0 0 -1
    outer loop
      vertex 98 13.46 0.000999451
      vertex 92 11.96 0.000999451
      vertex 92 13.46 0.000999451
    endloop
  endfacet
  facet normal 0 0 -1
    outer loop
      vertex 2 -13.46 0.000999451
      vertex 8 -11.96 0.000999451
      vertex 8 -13.46 0.000999451
    endloop
  endfacet
  facet normal -0 0 -1
    outer loop
      vertex 8 -11.96 0.000999451
      vertex 2 -13.46 0.000999451
      vertex 2 -11.96 0.000999451
    endloop
  endfacet
  facet normal 0 0 -1
    outer loop
      vertex 12 -13.46 0.000999451
      vertex 18 -11.96 0.000999451
      vertex 18 -13.46 0.000999451
    endloop
  endfacet
  facet normal -0 0 -1
    outer loop
      vertex 18 -11.96 0.000999451
      vertex 12 -13.46 0.000999451
      vertex 12 -11.96 0.000999451
    endloop
  endfacet
  facet normal 0 0 -1
    outer loop
      vertex 22 -13.46 0.000999451
      vertex 28 -11.96 0.000999451
      vertex 28 -13.46 0.000999451
    endloop
  endfacet
  facet normal -0 0 -1
    outer loop
      vertex 28 -11.96 0.000999451
      vertex 22 -13.46 0.000999451
      vertex 22 -11.96 0.000999451
    endloop
  endfacet
  facet normal 0 0 -1
    outer loop
      vertex 32 -13.46 0.000999451
      vertex 38 -11.96 0.000999451
      vertex 38 -13.46 0.000999451
    endloop
  endfacet
  facet normal -0 0 -1
    outer loop
      vertex 38 -11.96 0.000999451
      vertex 32 -13.46 0.000999451
      vertex 32 -11.96 0.000999451
    endloop
  endfacet
  facet normal 0 0 -1
    outer loop
      vertex 42 -13.46 0.000999451
      vertex 48 -11.96 0.000999451
      vertex 48 -13.46 0.000999451
    endloop
  endfacet
  facet normal -0 0 -1
    outer loop
      vertex 48 -11.96 0.000999451
      vertex 42 -13.46 0.000999451
      vertex 42 -11.96 0.000999451
    endloop
  endfacet
  facet normal 0 0 -1
    outer loop
      vertex 52 -13.46 0.000999451
      vertex 58 -11.96 0.000999451
      vertex 58 -13.46 0.000999451
    endloop
  endfacet
  facet normal -0 0 -1
    outer loop
      vertex 58 -11.96 0.000999451
      vertex 52 -13.46 0.000999451
      vertex 52 -11.96 0.000999451
    endloop
  endfacet
  facet normal 0 0 -1
    outer loop
      vertex 62 -13.46 0.000999451
      vertex 68 -11.96 0.000999451
      vertex 68 -13.46 0.000999451
    endloop
  endfacet
  facet normal -0 0 -1
    outer loop
      vertex 68 -11.96 0.000999451
      vertex 62 -13.46 0.000999451
      vertex 62 -11.96 0.000999451
    endloop
  endfacet
  facet normal 0 0 -1
    outer loop
      vertex 72 -13.46 0.000999451
      vertex 78 -11.96 0.000999451
      vertex 78 -13.46 0.000999451
    endloop
  endfacet
  facet normal -0 0 -1
    outer loop
      vertex 78 -11.96 0.000999451
      vertex 72 -13.46 0.000999451
      vertex 72 -11.96 0.000999451
    endloop
  endfacet
  facet normal 0 0 -1
    outer loop
      vertex 82 -13.46 0.000999451
      vertex 88 -11.96 0.000999451
      vertex 88 -13.46 0.000999451
    endloop
  endfacet
  facet normal -0 0 -1
    outer loop
      vertex 88 -11.96 0.000999451
      vertex 82 -13.46 0.000999451
      vertex 82 -11.96 0.000999451
    endloop
  endfacet
  facet normal 0 0 -1
    outer loop
      vertex 92 -13.46 0.000999451
      vertex 98 -11.96 0.000999451
      vertex 98 -13.46 0.000999451
    endloop
  endfacet
  facet normal -0 0 -1
    outer loop
      vertex 98 -11.96 0.000999451
      vertex 92 -13.46 0.000999451
      vertex 92 -11.96 0.000999451
    endloop
  endfacet
  facet normal -0 0 1
    outer loop
      vertex 0 13.46 4.501
      vertex 100 11.96 4.501
      vertex 100 13.46 4.501
    endloop
  endfacet
  facet normal 0 0 1
    outer loop
      vertex 100 11.96 4.501
      vertex 0 13.46 4.501
      vertex 0 11.96 4.501
    endloop
  endfacet
  facet normal -0 0 1
    outer loop
      vertex 0 -11.96 4.501
      vertex 100 -13.46 4.501
      vertex 100 -11.96 4.501
    endloop
  endfacet
  facet normal 0 0 1
    outer loop
      vertex 100 -13.46 4.501
      vertex 0 -11.96 4.501
      vertex 0 -13.46 4.501
    endloop
  endfacet
  facet normal 0 1 -0
    outer loop
      vertex 8 13.46 0.000999451
      vertex 2 13.46 2
      vertex 8 13.46 2
    endloop
  endfacet
  facet normal 0 1 0
    outer loop
      vertex 2 13.46 2
      vertex 8 13.46 0.000999451
      vertex 2 13.46 0.000999451
    endloop
  endfacet
  facet normal 0 1 -0
    outer loop
      vertex 18 13.46 0.000999451
      vertex 12 13.46 2
      vertex 18 13.46 2
    endloop
  endfacet
  facet normal 0 1 0
    outer loop
      vertex 12 13.46 2
      vertex 18 13.46 0.000999451
      vertex 12 13.46 0.000999451
    endloop
  endfacet
  facet normal 0 1 -0
    outer loop
      vertex 28 13.46 0.000999451
      vertex 22 13.46 2
      vertex 28 13.46 2
    endloop
  endfacet
  facet normal 0 1 0
    outer loop
      vertex 22 13.46 2
      vertex 28 13.46 0.000999451
      vertex 22 13.46 0.000999451
    endloop
  endfacet
  facet normal 0 1 -0
    outer loop
      vertex 38 13.46 0.000999451
      vertex 32 13.46 2
      vertex 38 13.46 2
    endloop
  endfacet
  facet normal 0 1 0
    outer loop
      vertex 32 13.46 2
      vertex 38 13.46 0.000999451
      vertex 32 13.46 0.000999451
    endloop
  endfacet
  facet normal 0 1 -0
    outer loop
      vertex 48 13.46 0.000999451
      vertex 42 13.46 2
      vertex 48 13.46 2
    endloop
  endfacet
  facet normal 0 1 0
    outer loop
      vertex 42 13.46 2
      vertex 48 13.46 0.000999451
      vertex 42 13.46 0.000999451
    endloop
  endfacet
  facet normal 0 1 -0
    outer loop
      vertex 58 13.46 0.000999451
      vertex 52 13.46 2
      vertex 58 13.46 2
    endloop
  endfacet
  facet normal 0 1 0
    outer loop
      vertex 52 13.46 2
      vertex 58 13.46 0.000999451
      vertex 52 13.46 0.000999451
    endloop
  endfacet
  facet normal 0 1 -0
    outer loop
      vertex 68 13.46 0.000999451
      vertex 62 13.46 2
      vertex 68 13.46 2
    endloop
  endfacet
  facet normal 0 1 0
    outer loop
      vertex 62 13.46 2
      vertex 68 13.46 0.000999451
      vertex 62 13.46 0.000999451
    endloop
  endfacet
  facet normal 0 1 -0
    outer loop
      vertex 78 13.46 0.000999451
      vertex 72 13.46 2
      vertex 78 13.46 2
    endloop
  endfacet
  facet normal 0 1 0
    outer loop
      vertex 72 13.46 2
      vertex 78 13.46 0.000999451
      vertex 72 13.46 0.000999451
    endloop
  endfacet
  facet normal 0 1 -0
    outer loop
      vertex 88 13.46 0.000999451
      vertex 82 13.46 2
      vertex 88 13.46 2
    endloop
  endfacet
  facet normal 0 1 0
    outer loop
      vertex 82 13.46 2
      vertex 88 13.46 0.000999451
      vertex 82 13.46 0.000999451
    endloop
  endfacet
  facet normal 0 1 -0
    outer loop
      vertex 98 13.46 0.000999451
      vertex 92 13.46 2
      vertex 98 13.46 2
    endloop
  endfacet
  facet normal 0 1 0
    outer loop
      vertex 92 13.46 2
      vertex 98 13.46 0.000999451
      vertex 92 13.46 0.000999451
    endloop
  endfacet
  facet normal 0 1 0
    outer loop
      vertex 98 13.46 2
      vertex 100 13.46 4.501
      vertex 100 13.46 2
    endloop
  endfacet
  facet normal 0 1 0
    outer loop
      vertex 92 13.46 2
      vertex 100 13.46 4.501
      vertex 98 13.46 2
    endloop
  endfacet
  facet normal 0 1 0
    outer loop
      vertex 88 13.46 2
      vertex 100 13.46 4.501
      vertex 92 13.46 2
    endloop
  endfacet
  facet normal 0 1 0
    outer loop
      vertex 82 13.46 2
      vertex 100 13.46 4.501
      vertex 88 13.46 2
    endloop
  endfacet
  facet normal 0 1 0
    outer loop
      vertex 78 13.46 2
      vertex 100 13.46 4.501
      vertex 82 13.46 2
    endloop
  endfacet
  facet normal 0 1 0
    outer loop
      vertex 72 13.46 2
      vertex 100 13.46 4.501
      vertex 78 13.46 2
    endloop
  endfacet
  facet normal 0 1 0
    outer loop
      vertex 68 13.46 2
      vertex 100 13.46 4.501
      vertex 72 13.46 2
    endloop
  endfacet
  facet normal 0 1 0
    outer loop
      vertex 62 13.46 2
      vertex 100 13.46 4.501
      vertex 68 13.46 2
    endloop
  endfacet
  facet normal 0 1 0
    outer loop
      vertex 58 13.46 2
      vertex 100 13.46 4.501
      vertex 62 13.46 2
    endloop
  endfacet
  facet normal 0 1 0
    outer loop
      vertex 52 13.46 2
      vertex 100 13.46 4.501
      vertex 58 13.46 2
    endloop
  endfacet
  facet normal 0 1 0
    outer loop
      vertex 100 13.46 4.501
      vertex 52 13.46 2
      vertex 0 13.46 4.501
    endloop
  endfacet
  facet normal 0 1 -0
    outer loop
      vertex 48 13.46 2
      vertex 0 13.46 4.501
      vertex 52 13.46 2
    endloop
  endfacet
  facet normal 0 1 -0
    outer loop
      vertex 42 13.46 2
      vertex 0 13.46 4.501
      vertex 48 13.46 2
    endloop
  endfacet
  facet normal 0 1 -0
    outer loop
      vertex 38 13.46 2
      vertex 0 13.46 4.501
      vertex 42 13.46 2
    endloop
  endfacet
  facet normal 0 1 -0
    outer loop
      vertex 32 13.46 2
      vertex 0 13.46 4.501
      vertex 38 13.46 2
    endloop
  endfacet
  facet normal 0 1 -0
    outer loop
      vertex 28 13.46 2
      vertex 0 13.46 4.501
      vertex 32 13.46 2
    endloop
  endfacet
  facet normal 0 1 -0
    outer loop
      vertex 22 13.46 2
      vertex 0 13.46 4.501
      vertex 28 13.46 2
    endloop
  endfacet
  facet normal 0 1 -0
    outer loop
      vertex 18 13.46 2
      vertex 0 13.46 4.501
      vertex 22 13.46 2
    endloop
  endfacet
  facet normal 0 1 -0
    outer loop
      vertex 12 13.46 2
      vertex 0 13.46 4.501
      vertex 18 13.46 2
    endloop
  endfacet
  facet normal 0 1 -0
    outer loop
      vertex 8 13.46 2
      vertex 0 13.46 4.501
      vertex 12 13.46 2
    endloop
  endfacet
  facet normal 0 1 -0
    outer loop
      vertex 2 13.46 2
      vertex 0 13.46 4.501
      vertex 8 13.46 2
    endloop
  endfacet
  facet normal 0 1 0
    outer loop
      vertex 0 13.46 4.501
      vertex 2 13.46 2
      vertex 0 13.46 2
    endloop
  endfacet
  facet normal 0 -1 0
    outer loop
      vertex 92 11.96 0.000999451
      vertex 98 11.96 2
      vertex 92 11.96 2
    endloop
  endfacet
  facet normal 0 -1 -0
    outer loop
      vertex 98 11.96 2
      vertex 92 11.96 0.000999451
      vertex 98 11.96 0.000999451
    endloop
  endfacet
  facet normal 0 -1 0
    outer loop
      vertex 82 11.96 0.000999451
      vertex 88 11.96 2
      vertex 82 11.96 2
    endloop
  endfacet
  facet normal 0 -1 -0
    outer loop
      vertex 88 11.96 2
      vertex 82 11.96 0.000999451
      vertex 88 11.96 0.000999451
    endloop
  endfacet
  facet normal 0 -1 0
    outer loop
      vertex 72 11.96 0.000999451
      vertex 78 11.96 2
      vertex 72 11.96 2
    endloop
  endfacet
  facet normal 0 -1 -0
    outer loop
      vertex 78 11.96 2
      vertex 72 11.96 0.000999451
      vertex 78 11.96 0.000999451
    endloop
  endfacet
  facet normal 0 -1 0
    outer loop
      vertex 62 11.96 0.000999451
      vertex 68 11.96 2
      vertex 62 11.96 2
    endloop
  endfacet
  facet normal 0 -1 -0
    outer loop
      vertex 68 11.96 2
      vertex 62 11.96 0.000999451
      vertex 68 11.96 0.000999451
    endloop
  endfacet
  facet normal 0 -1 0
    outer loop
      vertex 52 11.96 0.000999451
      vertex 58 11.96 2
      vertex 52 11.96 2
    endloop
  endfacet
  facet normal 0 -1 -0
    outer loop
      vertex 58 11.96 2
      vertex 52 11.96 0.000999451
      vertex 58 11.96 0.000999451
    endloop
  endfacet
  facet normal 0 -1 0
    outer loop
      vertex 42 11.96 0.000999451
      vertex 48 11.96 2
      vertex 42 11.96 2
    endloop
  endfacet
  facet normal 0 -1 -0
    outer loop
      vertex 48 11.96 2
      vertex 42 11.96 0.000999451
      vertex 48 11.96 0.000999451
    endloop
  endfacet
  facet normal 0 -1 0
    outer loop
      vertex 32 11.96 0.000999451
      vertex 38 11.96 2
      vertex 32 11.96 2
    endloop
  endfacet
  facet normal 0 -1 -0
    outer loop
      vertex 38 11.96 2
      vertex 32 11.96 0.000999451
      vertex 38 11.96 0.000999451
    endloop
  endfacet
  facet normal 0 -1 0
    outer loop
      vertex 22 11.96 0.000999451
      vertex 28 11.96 2
      vertex 22 11.96 2
    endloop
  endfacet
  facet normal 0 -1 -0
    outer loop
      vertex 28 11.96 2
      vertex 22 11.96 0.000999451
      vertex 28 11.96 0.000999451
    endloop
  endfacet
  facet normal 0 -1 0
    outer loop
      vertex 12 11.96 0.000999451
      vertex 18 11.96 2
      vertex 12 11.96 2
    endloop
  endfacet
  facet normal 0 -1 -0
    outer loop
      vertex 18 11.96 2
      vertex 12 11.96 0.000999451
      vertex 18 11.96 0.000999451
    endloop
  endfacet
  facet normal 0 -1 0
    outer loop
      vertex 2 11.96 0.000999451
      vertex 8 11.96 2
      vertex 2 11.96 2
    endloop
  endfacet
  facet normal 0 -1 -0
    outer loop
      vertex 8 11.96 2
      vertex 2 11.96 0.000999451
      vertex 8 11.96 0.000999451
    endloop
  endfacet
  facet normal 0 -1 0
    outer loop
      vertex 2 11.96 2
      vertex 0 11.96 4.501
      vertex 0 11.96 2
    endloop
  endfacet
  facet normal 0 -1 0
    outer loop
      vertex 8 11.96 2
      vertex 0 11.96 4.501
      vertex 2 11.96 2
    endloop
  endfacet
  facet normal 0 -1 0
    outer loop
      vertex 12 11.96 2
      vertex 0 11.96 4.501
      vertex 8 11.96 2
    endloop
  endfacet
  facet normal 0 -1 0
    outer loop
      vertex 18 11.96 2
      vertex 0 11.96 4.501
      vertex 12 11.96 2
    endloop
  endfacet
  facet normal 0 -1 0
    outer loop
      vertex 22 11.96 2
      vertex 0 11.96 4.501
      vertex 18 11.96 2
    endloop
  endfacet
  facet normal 0 -1 0
    outer loop
      vertex 28 11.96 2
      vertex 0 11.96 4.501
      vertex 22 11.96 2
    endloop
  endfacet
  facet normal 0 -1 0
    outer loop
      vertex 32 11.96 2
      vertex 0 11.96 4.501
      vertex 28 11.96 2
    endloop
  endfacet
  facet normal 0 -1 0
    outer loop
      vertex 38 11.96 2
      vertex 0 11.96 4.501
      vertex 32 11.96 2
    endloop
  endfacet
  facet normal 0 -1 0
    outer loop
      vertex 42 11.96 2
      vertex 0 11.96 4.501
      vertex 38 11.96 2
    endloop
  endfacet
  facet normal 0 -1 0
    outer loop
      vertex 48 11.96 2
      vertex 0 11.96 4.501
      vertex 42 11.96 2
    endloop
  endfacet
  facet normal 0 -1 0
    outer loop
      vertex 0 11.96 4.501
      vertex 48 11.96 2
      vertex 100 11.96 4.501
    endloop
  endfacet
  facet normal 0 -1 0
    outer loop
      vertex 52 11.96 2
      vertex 100 11.96 4.501
      vertex 48 11.96 2
    endloop
  endfacet
  facet normal 0 -1 0
    outer loop
      vertex 58 11.96 2
      vertex 100 11.96 4.501
      vertex 52 11.96 2
    endloop
  endfacet
  facet normal 0 -1 0
    outer loop
      vertex 62 11.96 2
      vertex 100 11.96 4.501
      vertex 58 11.96 2
    endloop
  endfacet
  facet normal 0 -1 0
    outer loop
      vertex 68 11.96 2
      vertex 100 11.96 4.501
      vertex 62 11.96 2
    endloop
  endfacet
  facet normal 0 -1 0
    outer loop
      vertex 72 11.96 2
      vertex 100 11.96 4.501
      vertex 68 11.96 2
    endloop
  endfacet
  facet normal 0 -1 0
    outer loop
      vertex 78 11.96 2
      vertex 100 11.96 4.501
      vertex 72 11.96 2
    endloop
  endfacet
  facet normal 0 -1 0
    outer loop
      vertex 82 11.96 2
      vertex 100 11.96 4.501
      vertex 78 11.96 2
    endloop
  endfacet
  facet normal 0 -1 0
    outer loop
      vertex 88 11.96 2
      vertex 100 11.96 4.501
      vertex 82 11.96 2
    endloop
  endfacet
  facet normal 0 -1 0
    outer loop
      vertex 92 11.96 2
      vertex 100 11.96 4.501
      vertex 88 11.96 2
    endloop
  endfacet
  facet normal 0 -1 0
    outer loop
      vertex 98 11.96 2
      vertex 100 11.96 4.501
      vertex 92 11.96 2
    endloop
  endfacet
  facet normal 0 -1 -0
    outer loop
      vertex 100 11.96 4.501
      vertex 98 11.96 2
      vertex 100 11.96 2
    endloop
  endfacet
  facet normal 0 1 -0
    outer loop
      vertex 8 -11.96 0.000999451
      vertex 2 -11.96 2
      vertex 8 -11.96 2
    endloop
  endfacet
  facet normal 0 1 0
    outer loop
      vertex 2 -11.96 2
      vertex 8 -11.96 0.000999451
      vertex 2 -11.96 0.000999451
    endloop
  endfacet
  facet normal 0 1 -0
    outer loop
      vertex 18 -11.96 0.000999451
      vertex 12 -11.96 2
      vertex 18 -11.96 2
    endloop
  endfacet
  facet normal 0 1 0
    outer loop
      vertex 12 -11.96 2
      vertex 18 -11.96 0.000999451
      vertex 12 -11.96 0.000999451
    endloop
  endfacet
  facet normal 0 1 -0
    outer loop
      vertex 28 -11.96 0.000999451
      vertex 22 -11.96 2
      vertex 28 -11.96 2
    endloop
  endfacet
  facet normal 0 1 0
    outer loop
      vertex 22 -11.96 2
      vertex 28 -11.96 0.000999451
      vertex 22 -11.96 0.000999451
    endloop
  endfacet
  facet normal 0 1 -0
    outer loop
      vertex 38 -11.96 0.000999451
      vertex 32 -11.96 2
      vertex 38 -11.96 2
    endloop
  endfacet
  facet normal 0 1 0
    outer loop
      vertex 32 -11.96 2
      vertex 38 -11.96 0.000999451
      vertex 32 -11.96 0.000999451
    endloop
  endfacet
  facet normal 0 1 -0
    outer loop
      vertex 48 -11.96 0.000999451
      vertex 42 -11.96 2
      vertex 48 -11.96 2
    endloop
  endfacet
  facet normal 0 1 0
    outer loop
      vertex 42 -11.96 2
      vertex 48 -11.96 0.000999451
      vertex 42 -11.96 0.000999451
    endloop
  endfacet
  facet normal 0 1 -0
    outer loop
      vertex 58 -11.96 0.000999451
      vertex 52 -11.96 2
      vertex 58 -11.96 2
    endloop
  endfacet
  facet normal 0 1 0
    outer loop
      vertex 52 -11.96 2
      vertex 58 -11.96 0.000999451
      vertex 52 -11.96 0.000999451
    endloop
  endfacet
  facet normal 0 1 -0
    outer loop
      vertex 68 -11.96 0.000999451
      vertex 62 -11.96 2
      vertex 68 -11.96 2
    endloop
  endfacet
  facet normal 0 1 0
    outer loop
      vertex 62 -11.96 2
      vertex 68 -11.96 0.000999451
      vertex 62 -11.96 0.000999451
    endloop
  endfacet
  facet normal 0 1 -0
    outer loop
      vertex 78 -11.96 0.000999451
      vertex 72 -11.96 2
      vertex 78 -11.96 2
    endloop
  endfacet
  facet normal 0 1 0
    outer loop
      vertex 72 -11.96 2
      vertex 78 -11.96 0.000999451
      vertex 72 -11.96 0.000999451
    endloop
  endfacet
  facet normal 0 1 -0
    outer loop
      vertex 88 -11.96 0.000999451
      vertex 82 -11.96 2
      vertex 88 -11.96 2
    endloop
  endfacet
  facet normal 0 1 0
    outer loop
      vertex 82 -11.96 2
      vertex 88 -11.96 0.000999451
      vertex 82 -11.96 0.000999451
    endloop
  endfacet
  facet normal 0 1 -0
    outer loop
      vertex 98 -11.96 0.000999451
      vertex 92 -11.96 2
      vertex 98 -11.96 2
    endloop
  endfacet
  facet normal 0 1 0
    outer loop
      vertex 92 -11.96 2
      vertex 98 -11.96 0.000999451
      vertex 92 -11.96 0.000999451
    endloop
  endfacet
  facet normal 0 1 0
    outer loop
      vertex 98 -11.96 2
      vertex 100 -11.96 4.501
      vertex 100 -11.96 2
    endloop
  endfacet
  facet normal 0 1 0
    outer loop
      vertex 92 -11.96 2
      vertex 100 -11.96 4.501
      vertex 98 -11.96 2
    endloop
  endfacet
  facet normal 0 1 0
    outer loop
      vertex 88 -11.96 2
      vertex 100 -11.96 4.501
      vertex 92 -11.96 2
    endloop
  endfacet
  facet normal 0 1 0
    outer loop
      vertex 82 -11.96 2
      vertex 100 -11.96 4.501
      vertex 88 -11.96 2
    endloop
  endfacet
  facet normal 0 1 0
    outer loop
      vertex 78 -11.96 2
      vertex 100 -11.96 4.501
      vertex 82 -11.96 2
    endloop
  endfacet
  facet normal 0 1 0
    outer loop
      vertex 72 -11.96 2
      vertex 100 -11.96 4.501
      vertex 78 -11.96 2
    endloop
  endfacet
  facet normal 0 1 0
    outer loop
      vertex 68 -11.96 2
      vertex 100 -11.96 4.501
      vertex 72 -11.96 2
    endloop
  endfacet
  facet normal 0 1 0
    outer loop
      vertex 62 -11.96 2
      vertex 100 -11.96 4.501
      vertex 68 -11.96 2
    endloop
  endfacet
  facet normal 0 1 0
    outer loop
      vertex 58 -11.96 2
      vertex 100 -11.96 4.501
      vertex 62 -11.96 2
    endloop
  endfacet
  facet normal 0 1 0
    outer loop
      vertex 52 -11.96 2
      vertex 100 -11.96 4.501
      vertex 58 -11.96 2
    endloop
  endfacet
  facet normal 0 1 0
    outer loop
      vertex 100 -11.96 4.501
      vertex 52 -11.96 2
      vertex 0 -11.96 4.501
    endloop
  endfacet
  facet normal 0 1 -0
    outer loop
      vertex 48 -11.96 2
      vertex 0 -11.96 4.501
      vertex 52 -11.96 2
    endloop
  endfacet
  facet normal 0 1 -0
    outer loop
      vertex 42 -11.96 2
      vertex 0 -11.96 4.501
      vertex 48 -11.96 2
    endloop
  endfacet
  facet normal 0 1 -0
    outer loop
      vertex 38 -11.96 2
      vertex 0 -11.96 4.501
      vertex 42 -11.96 2
    endloop
  endfacet
  facet normal 0 1 -0
    outer loop
      vertex 32 -11.96 2
      vertex 0 -11.96 4.501
      vertex 38 -11.96 2
    endloop
  endfacet
  facet normal 0 1 -0
    outer loop
      vertex 28 -11.96 2
      vertex 0 -11.96 4.501
      vertex 32 -11.96 2
    endloop
  endfacet
  facet normal 0 1 -0
    outer loop
      vertex 22 -11.96 2
      vertex 0 -11.96 4.501
      vertex 28 -11.96 2
    endloop
  endfacet
  facet normal 0 1 -0
    outer loop
      vertex 18 -11.96 2
      vertex 0 -11.96 4.501
      vertex 22 -11.96 2
    endloop
  endfacet
  facet normal 0 1 -0
    outer loop
      vertex 12 -11.96 2
      vertex 0 -11.96 4.501
      vertex 18 -11.96 2
    endloop
  endfacet
  facet normal 0 1 -0
    outer loop
      vertex 8 -11.96 2
      vertex 0 -11.96 4.501
      vertex 12 -11.96 2
    endloop
  endfacet
  facet normal 0 1 -0
    outer loop
      vertex 2 -11.96 2
      vertex 0 -11.96 4.501
      vertex 8 -11.96 2
    endloop
  endfacet
  facet normal 0 1 0
    outer loop
      vertex 0 -11.96 4.501
      vertex 2 -11.96 2
      vertex 0 -11.96 2
    endloop
  endfacet
  facet normal 0 -1 0
    outer loop
      vertex 92 -13.46 0.000999451
      vertex 98 -13.46 2
      vertex 92 -13.46 2
    endloop
  endfacet
  facet normal 0 -1 -0
    outer loop
      vertex 98 -13.46 2
      vertex 92 -13.46 0.000999451
      vertex 98 -13.46 0.000999451
    endloop
  endfacet
  facet normal 0 -1 0
    outer loop
      vertex 82 -13.46 0.000999451
      vertex 88 -13.46 2
      vertex 82 -13.46 2
    endloop
  endfacet
  facet normal 0 -1 -0
    outer loop
      vertex 88 -13.46 2
      vertex 82 -13.46 0.000999451
      vertex 88 -13.46 0.000999451
    endloop
  endfacet
  facet normal 0 -1 0
    outer loop
      vertex 72 -13.46 0.000999451
      vertex 78 -13.46 2
      vertex 72 -13.46 2
    endloop
  endfacet
  facet normal 0 -1 -0
    outer loop
      vertex 78 -13.46 2
      vertex 72 -13.46 0.000999451
      vertex 78 -13.46 0.000999451
    endloop
  endfacet
  facet normal 0 -1 0
    outer loop
      vertex 62 -13.46 0.000999451
      vertex 68 -13.46 2
      vertex 62 -13.46 2
    endloop
  endfacet
  facet normal 0 -1 -0
    outer loop
      vertex 68 -13.46 2
      vertex 62 -13.46 0.000999451
      vertex 68 -13.46 0.000999451
    endloop
  endfacet
  facet normal 0 -1 0
    outer loop
      vertex 52 -13.46 0.000999451
      vertex 58 -13.46 2
      vertex 52 -13.46 2
    endloop
  endfacet
  facet normal 0 -1 -0
    outer loop
      vertex 58 -13.46 2
      vertex 52 -13.46 0.000999451
      vertex 58 -13.46 0.000999451
    endloop
  endfacet
  facet normal 0 -1 0
    outer loop
      vertex 42 -13.46 0.000999451
      vertex 48 -13.46 2
      vertex 42 -13.46 2
    endloop
  endfacet
  facet normal 0 -1 -0
    outer loop
      vertex 48 -13.46 2
      vertex 42 -13.46 0.000999451
      vertex 48 -13.46 0.000999451
    endloop
  endfacet
  facet normal 0 -1 0
    outer loop
      vertex 32 -13.46 0.000999451
      vertex 38 -13.46 2
      vertex 32 -13.46 2
    endloop
  endfacet
  facet normal 0 -1 -0
    outer loop
      vertex 38 -13.46 2
      vertex 32 -13.46 0.000999451
      vertex 38 -13.46 0.000999451
    endloop
  endfacet
  facet normal 0 -1 0
    outer loop
      vertex 22 -13.46 0.000999451
      vertex 28 -13.46 2
      vertex 22 -13.46 2
    endloop
  endfacet
  facet normal 0 -1 -0
    outer loop
      vertex 28 -13.46 2
      vertex 22 -13.46 0.000999451
      vertex 28 -13.46 0.000999451
    endloop
  endfacet
  facet normal 0 -1 0
    outer loop
      vertex 12 -13.46 0.000999451
      vertex 18 -13.46 2
      vertex 12 -13.46 2
    endloop
  endfacet
  facet normal 0 -1 -0
    outer loop
      vertex 18 -13.46 2
      vertex 12 -13.46 0.000999451
      vertex 18 -13.46 0.000999451
    endloop
  endfacet
  facet normal 0 -1 0
    outer loop
      vertex 2 -13.46 0.000999451
      vertex 8 -13.46 2
      vertex 2 -13.46 2
    endloop
  endfacet
  facet normal 0 -1 -0
    outer loop
      vertex 8 -13.46 2
      vertex 2 -13.46 0.000999451
      vertex 8 -13.46 0.000999451
    endloop
  endfacet
  facet normal 0 -1 0
    outer loop
      vertex 2 -13.46 2
      vertex 0 -13.46 4.501
      vertex 0 -13.46 2
    endloop
  endfacet
  facet normal 0 -1 0
    outer loop
      vertex 8 -13.46 2
      vertex 0 -13.46 4.501
      vertex 2 -13.46 2
    endloop
  endfacet
  facet normal 0 -1 0
    outer loop
      vertex 12 -13.46 2
      vertex 0 -13.46 4.501
      vertex 8 -13.46 2
    endloop
  endfacet
  facet normal 0 -1 0
    outer loop
      vertex 18 -13.46 2
      vertex 0 -13.46 4.501
      vertex 12 -13.46 2
    endloop
  endfacet
  facet normal 0 -1 0
    outer loop
      vertex 22 -13.46 2
      vertex 0 -13.46 4.501
      vertex 18 -13.46 2
    endloop
  endfacet
  facet normal 0 -1 0
    outer loop
      vertex 28 -13.46 2
      vertex 0 -13.46 4.501
      vertex 22 -13.46 2
    endloop
  endfacet
  facet normal 0 -1 0
    outer loop
      vertex 32 -13.46 2
      vertex 0 -13.46 4.501
      vertex 28 -13.46 2
    endloop
  endfacet
  facet normal 0 -1 0
    outer loop
      vertex 38 -13.46 2
      vertex 0 -13.46 4.501
      vertex 32 -13.46 2
    endloop
  endfacet
  facet normal 0 -1 0
    outer loop
      vertex 42 -13.46 2
      vertex 0 -13.46 4.501
      vertex 38 -13.46 2
    endloop
  endfacet
  facet normal 0 -1 0
    outer loop
      vertex 48 -13.46 2
      vertex 0 -13.46 4.501
      vertex 42 -13.46 2
    endloop
  endfacet
  facet normal 0 -1 0
    outer loop
      vertex 0 -13.46 4.501
      vertex 48 -13.46 2
      vertex 100 -13.46 4.501
    endloop
  endfacet
  facet normal 0 -1 0
    outer loop
      vertex 52 -13.46 2
      vertex 100 -13.46 4.501
      vertex 48 -13.46 2
    endloop
  endfacet
  facet normal 0 -1 0
    outer loop
      vertex 58 -13.46 2
      vertex 100 -13.46 4.501
      vertex 52 -13.46 2
    endloop
  endfacet
  facet normal 0 -1 0
    outer loop
      vertex 62 -13.46 2
      vertex 100 -13.46 4.501
      vertex 58 -13.46 2
    endloop
  endfacet
  facet normal 0 -1 0
    outer loop
      vertex 68 -13.46 2
      vertex 100 -13.46 4.501
      vertex 62 -13.46 2
    endloop
  endfacet
  facet normal 0 -1 0
    outer loop
      vertex 72 -13.46 2
      vertex 100 -13.46 4.501
      vertex 68 -13.46 2
    endloop
  endfacet
  facet normal 0 -1 0
    outer loop
      vertex 78 -13.46 2
      vertex 100 -13.46 4.501
      vertex 72 -13.46 2
    endloop
  endfacet
  facet normal 0 -1 0
    outer loop
      vertex 82 -13.46 2
      vertex 100 -13.46 4.501
      vertex 78 -13.46 2
    endloop
  endfacet
  facet normal 0 -1 0
    outer loop
      vertex 88 -13.46 2
      vertex 100 -13.46 4.501
      vertex 82 -13.46 2
    endloop
  endfacet
  facet normal 0 -1 0
    outer loop
      vertex 92 -13.46 2
      vertex 100 -13.46 4.501
      vertex 88 -13.46 2
    endloop
  endfacet
  facet normal 0 -1 0
    outer loop
      vertex 98 -13.46 2
      vertex 100 -13.46 4.501
      vertex 92 -13.46 2
    endloop
  endfacet
  facet normal 0 -1 -0
    outer loop
      vertex 100 -13.46 4.501
      vertex 98 -13.46 2
      vertex 100 -13.46 2
    endloop
  endfacet
endsolid OpenSCAD_Model
