solid OpenSCAD_Model
  facet normal 0 0 -1
    outer loop
      vertex 2 13.96 0
      vertex 4 23.9199 0
      vertex 4 13.96 0
    endloop
  endfacet
  facet normal 0 0 -1
    outer loop
      vertex 2 34.71 0
      vertex 4 23.9199 0
      vertex 2 13.96 0
    endloop
  endfacet
  facet normal 0 0 -1
    outer loop
      vertex 4 23.9199 0
      vertex 2 34.71 0
      vertex 4 25.4199 0
    endloop
  endfacet
  facet normal 0 0 -1
    outer loop
      vertex 4 25.4199 0
      vertex 2 34.71 0
      vertex 4 34.71 0
    endloop
  endfacet
  facet normal 0 0 -1
    outer loop
      vertex 2 -10.79 0
      vertex 4 -1.5 0
      vertex 4 -10.79 0
    endloop
  endfacet
  facet normal -0 0 -1
    outer loop
      vertex 4 -1.5 0
      vertex 2 -10.79 0
      vertex 4 0 0
    endloop
  endfacet
  facet normal 0 0 -1
    outer loop
      vertex 2 9.95996 0
      vertex 4 0 0
      vertex 2 -10.79 0
    endloop
  endfacet
  facet normal 0 0 -1
    outer loop
      vertex 4 0 0
      vertex 2 9.95996 0
      vertex 4 9.95996 0
    endloop
  endfacet
  facet normal 0 0 -1
    outer loop
      vertex 4 23.9199 0
      vertex 10 25.4199 0
      vertex 10 23.9199 0
    endloop
  endfacet
  facet normal -0 0 -1
    outer loop
      vertex 10 25.4199 0
      vertex 4 23.9199 0
      vertex 4 25.4199 0
    endloop
  endfacet
  facet normal 0 0 -1
    outer loop
      vertex 4 -1.5 0
      vertex 10 0 0
      vertex 10 -1.5 0
    endloop
  endfacet
  facet normal -0 0 -1
    outer loop
      vertex 10 0 0
      vertex 4 -1.5 0
      vertex 4 0 0
    endloop
  endfacet
  facet normal 0 0 -1
    outer loop
      vertex 10 -1.5 0
      vertex 14 -1.5 0
      vertex 14 -10.79 0
    endloop
  endfacet
  facet normal 0 0 -1
    outer loop
      vertex 14 -1.5 0
      vertex 10 -1.5 0
      vertex 14 0 0
    endloop
  endfacet
  facet normal 0 0 -1
    outer loop
      vertex 14 0 0
      vertex 10 0 0
      vertex 14 23.9199 0
    endloop
  endfacet
  facet normal 0 0 -1
    outer loop
      vertex 10 23.9199 0
      vertex 14 23.9199 0
      vertex 10 0 0
    endloop
  endfacet
  facet normal 0 0 -1
    outer loop
      vertex 10 -1.5 0
      vertex 14 -10.79 0
      vertex 10 -10.79 0
    endloop
  endfacet
  facet normal -0 0 -1
    outer loop
      vertex 14 0 0
      vertex 10 -1.5 0
      vertex 10 0 0
    endloop
  endfacet
  facet normal 0 0 -1
    outer loop
      vertex 14 23.9199 0
      vertex 10 23.9199 0
      vertex 14 25.4199 0
    endloop
  endfacet
  facet normal 0 0 -1
    outer loop
      vertex 10 25.4199 0
      vertex 14 25.4199 0
      vertex 10 23.9199 0
    endloop
  endfacet
  facet normal 0 0 -1
    outer loop
      vertex 14 25.4199 0
      vertex 10 25.4199 0
      vertex 14 34.71 0
    endloop
  endfacet
  facet normal -0 0 -1
    outer loop
      vertex 14 34.71 0
      vertex 10 25.4199 0
      vertex 10 34.71 0
    endloop
  endfacet
  facet normal 0 0 -1
    outer loop
      vertex 14 23.9199 0
      vertex 20 25.4199 0
      vertex 20 23.9199 0
    endloop
  endfacet
  facet normal -0 0 -1
    outer loop
      vertex 20 25.4199 0
      vertex 14 23.9199 0
      vertex 14 25.4199 0
    endloop
  endfacet
  facet normal 0 0 -1
    outer loop
      vertex 14 -1.5 0
      vertex 20 0 0
      vertex 20 -1.5 0
    endloop
  endfacet
  facet normal -0 0 -1
    outer loop
      vertex 20 0 0
      vertex 14 -1.5 0
      vertex 14 0 0
    endloop
  endfacet
  facet normal 0 0 -1
    outer loop
      vertex 20 -1.5 0
      vertex 24 -1.5 0
      vertex 24 -10.79 0
    endloop
  endfacet
  facet normal 0 0 -1
    outer loop
      vertex 24 -1.5 0
      vertex 20 -1.5 0
      vertex 24 0 0
    endloop
  endfacet
  facet normal 0 0 -1
    outer loop
      vertex 24 0 0
      vertex 20 0 0
      vertex 24 23.9199 0
    endloop
  endfacet
  facet normal 0 0 -1
    outer loop
      vertex 20 23.9199 0
      vertex 24 23.9199 0
      vertex 20 0 0
    endloop
  endfacet
  facet normal 0 0 -1
    outer loop
      vertex 20 -1.5 0
      vertex 24 -10.79 0
      vertex 20 -10.79 0
    endloop
  endfacet
  facet normal -0 0 -1
    outer loop
      vertex 24 0 0
      vertex 20 -1.5 0
      vertex 20 0 0
    endloop
  endfacet
  facet normal 0 0 -1
    outer loop
      vertex 24 23.9199 0
      vertex 20 23.9199 0
      vertex 24 25.4199 0
    endloop
  endfacet
  facet normal 0 0 -1
    outer loop
      vertex 20 25.4199 0
      vertex 24 25.4199 0
      vertex 20 23.9199 0
    endloop
  endfacet
  facet normal 0 0 -1
    outer loop
      vertex 24 25.4199 0
      vertex 20 25.4199 0
      vertex 24 34.71 0
    endloop
  endfacet
  facet normal -0 0 -1
    outer loop
      vertex 24 34.71 0
      vertex 20 25.4199 0
      vertex 20 34.71 0
    endloop
  endfacet
  facet normal 0 0 -1
    outer loop
      vertex 24 23.9199 0
      vertex 30 25.4199 0
      vertex 30 23.9199 0
    endloop
  endfacet
  facet normal -0 0 -1
    outer loop
      vertex 30 25.4199 0
      vertex 24 23.9199 0
      vertex 24 25.4199 0
    endloop
  endfacet
  facet normal 0 0 -1
    outer loop
      vertex 24 -1.5 0
      vertex 30 0 0
      vertex 30 -1.5 0
    endloop
  endfacet
  facet normal -0 0 -1
    outer loop
      vertex 30 0 0
      vertex 24 -1.5 0
      vertex 24 0 0
    endloop
  endfacet
  facet normal 0 0 -1
    outer loop
      vertex 30 -1.5 0
      vertex 34 -1.5 0
      vertex 34 -10.79 0
    endloop
  endfacet
  facet normal 0 0 -1
    outer loop
      vertex 34 -1.5 0
      vertex 30 -1.5 0
      vertex 34 0 0
    endloop
  endfacet
  facet normal 0 0 -1
    outer loop
      vertex 34 0 0
      vertex 30 0 0
      vertex 34 23.9199 0
    endloop
  endfacet
  facet normal 0 0 -1
    outer loop
      vertex 30 23.9199 0
      vertex 34 23.9199 0
      vertex 30 0 0
    endloop
  endfacet
  facet normal 0 0 -1
    outer loop
      vertex 30 -1.5 0
      vertex 34 -10.79 0
      vertex 30 -10.79 0
    endloop
  endfacet
  facet normal -0 0 -1
    outer loop
      vertex 34 0 0
      vertex 30 -1.5 0
      vertex 30 0 0
    endloop
  endfacet
  facet normal 0 0 -1
    outer loop
      vertex 34 23.9199 0
      vertex 30 23.9199 0
      vertex 34 25.4199 0
    endloop
  endfacet
  facet normal 0 0 -1
    outer loop
      vertex 30 25.4199 0
      vertex 34 25.4199 0
      vertex 30 23.9199 0
    endloop
  endfacet
  facet normal 0 0 -1
    outer loop
      vertex 34 25.4199 0
      vertex 30 25.4199 0
      vertex 34 34.71 0
    endloop
  endfacet
  facet normal -0 0 -1
    outer loop
      vertex 34 34.71 0
      vertex 30 25.4199 0
      vertex 30 34.71 0
    endloop
  endfacet
  facet normal 0 0 -1
    outer loop
      vertex 34 23.9199 0
      vertex 40 25.4199 0
      vertex 40 23.9199 0
    endloop
  endfacet
  facet normal -0 0 -1
    outer loop
      vertex 40 25.4199 0
      vertex 34 23.9199 0
      vertex 34 25.4199 0
    endloop
  endfacet
  facet normal 0 0 -1
    outer loop
      vertex 34 -1.5 0
      vertex 40 0 0
      vertex 40 -1.5 0
    endloop
  endfacet
  facet normal -0 0 -1
    outer loop
      vertex 40 0 0
      vertex 34 -1.5 0
      vertex 34 0 0
    endloop
  endfacet
  facet normal 0 0 -1
    outer loop
      vertex 40 -1.5 0
      vertex 44 -1.5 0
      vertex 44 -10.79 0
    endloop
  endfacet
  facet normal 0 0 -1
    outer loop
      vertex 44 -1.5 0
      vertex 40 -1.5 0
      vertex 44 0 0
    endloop
  endfacet
  facet normal 0 0 -1
    outer loop
      vertex 44 0 0
      vertex 40 0 0
      vertex 44 23.9199 0
    endloop
  endfacet
  facet normal 0 0 -1
    outer loop
      vertex 40 23.9199 0
      vertex 44 23.9199 0
      vertex 40 0 0
    endloop
  endfacet
  facet normal 0 0 -1
    outer loop
      vertex 40 -1.5 0
      vertex 44 -10.79 0
      vertex 40 -10.79 0
    endloop
  endfacet
  facet normal -0 0 -1
    outer loop
      vertex 44 0 0
      vertex 40 -1.5 0
      vertex 40 0 0
    endloop
  endfacet
  facet normal 0 0 -1
    outer loop
      vertex 44 23.9199 0
      vertex 40 23.9199 0
      vertex 44 25.4199 0
    endloop
  endfacet
  facet normal 0 0 -1
    outer loop
      vertex 40 25.4199 0
      vertex 44 25.4199 0
      vertex 40 23.9199 0
    endloop
  endfacet
  facet normal 0 0 -1
    outer loop
      vertex 44 25.4199 0
      vertex 40 25.4199 0
      vertex 44 34.71 0
    endloop
  endfacet
  facet normal -0 0 -1
    outer loop
      vertex 44 34.71 0
      vertex 40 25.4199 0
      vertex 40 34.71 0
    endloop
  endfacet
  facet normal 0 0 -1
    outer loop
      vertex 44 23.9199 0
      vertex 50 25.4199 0
      vertex 50 23.9199 0
    endloop
  endfacet
  facet normal -0 0 -1
    outer loop
      vertex 50 25.4199 0
      vertex 44 23.9199 0
      vertex 44 25.4199 0
    endloop
  endfacet
  facet normal 0 0 -1
    outer loop
      vertex 44 -1.5 0
      vertex 50 0 0
      vertex 50 -1.5 0
    endloop
  endfacet
  facet normal -0 0 -1
    outer loop
      vertex 50 0 0
      vertex 44 -1.5 0
      vertex 44 0 0
    endloop
  endfacet
  facet normal 0 0 -1
    outer loop
      vertex 50 -1.5 0
      vertex 54 -1.5 0
      vertex 54 -10.79 0
    endloop
  endfacet
  facet normal 0 0 -1
    outer loop
      vertex 54 -1.5 0
      vertex 50 -1.5 0
      vertex 54 0 0
    endloop
  endfacet
  facet normal 0 0 -1
    outer loop
      vertex 54 0 0
      vertex 50 0 0
      vertex 54 23.9199 0
    endloop
  endfacet
  facet normal 0 0 -1
    outer loop
      vertex 50 23.9199 0
      vertex 54 23.9199 0
      vertex 50 0 0
    endloop
  endfacet
  facet normal 0 0 -1
    outer loop
      vertex 50 -1.5 0
      vertex 54 -10.79 0
      vertex 50 -10.79 0
    endloop
  endfacet
  facet normal -0 0 -1
    outer loop
      vertex 54 0 0
      vertex 50 -1.5 0
      vertex 50 0 0
    endloop
  endfacet
  facet normal 0 0 -1
    outer loop
      vertex 54 23.9199 0
      vertex 50 23.9199 0
      vertex 54 25.4199 0
    endloop
  endfacet
  facet normal 0 0 -1
    outer loop
      vertex 50 25.4199 0
      vertex 54 25.4199 0
      vertex 50 23.9199 0
    endloop
  endfacet
  facet normal 0 0 -1
    outer loop
      vertex 54 25.4199 0
      vertex 50 25.4199 0
      vertex 54 34.71 0
    endloop
  endfacet
  facet normal -0 0 -1
    outer loop
      vertex 54 34.71 0
      vertex 50 25.4199 0
      vertex 50 34.71 0
    endloop
  endfacet
  facet normal 0 0 -1
    outer loop
      vertex 54 23.9199 0
      vertex 60 25.4199 0
      vertex 60 23.9199 0
    endloop
  endfacet
  facet normal -0 0 -1
    outer loop
      vertex 60 25.4199 0
      vertex 54 23.9199 0
      vertex 54 25.4199 0
    endloop
  endfacet
  facet normal 0 0 -1
    outer loop
      vertex 54 -1.5 0
      vertex 60 0 0
      vertex 60 -1.5 0
    endloop
  endfacet
  facet normal -0 0 -1
    outer loop
      vertex 60 0 0
      vertex 54 -1.5 0
      vertex 54 0 0
    endloop
  endfacet
  facet normal 0 0 -1
    outer loop
      vertex 60 -1.5 0
      vertex 64 -1.5 0
      vertex 64 -10.79 0
    endloop
  endfacet
  facet normal 0 0 -1
    outer loop
      vertex 64 -1.5 0
      vertex 60 -1.5 0
      vertex 64 0 0
    endloop
  endfacet
  facet normal 0 0 -1
    outer loop
      vertex 64 0 0
      vertex 60 0 0
      vertex 64 23.9199 0
    endloop
  endfacet
  facet normal 0 0 -1
    outer loop
      vertex 60 23.9199 0
      vertex 64 23.9199 0
      vertex 60 0 0
    endloop
  endfacet
  facet normal 0 0 -1
    outer loop
      vertex 60 -1.5 0
      vertex 64 -10.79 0
      vertex 60 -10.79 0
    endloop
  endfacet
  facet normal -0 0 -1
    outer loop
      vertex 64 0 0
      vertex 60 -1.5 0
      vertex 60 0 0
    endloop
  endfacet
  facet normal 0 0 -1
    outer loop
      vertex 64 23.9199 0
      vertex 60 23.9199 0
      vertex 64 25.4199 0
    endloop
  endfacet
  facet normal 0 0 -1
    outer loop
      vertex 60 25.4199 0
      vertex 64 25.4199 0
      vertex 60 23.9199 0
    endloop
  endfacet
  facet normal 0 0 -1
    outer loop
      vertex 64 25.4199 0
      vertex 60 25.4199 0
      vertex 64 34.71 0
    endloop
  endfacet
  facet normal -0 0 -1
    outer loop
      vertex 64 34.71 0
      vertex 60 25.4199 0
      vertex 60 34.71 0
    endloop
  endfacet
  facet normal 0 0 -1
    outer loop
      vertex 64 23.9199 0
      vertex 70 25.4199 0
      vertex 70 23.9199 0
    endloop
  endfacet
  facet normal -0 0 -1
    outer loop
      vertex 70 25.4199 0
      vertex 64 23.9199 0
      vertex 64 25.4199 0
    endloop
  endfacet
  facet normal 0 0 -1
    outer loop
      vertex 64 -1.5 0
      vertex 70 0 0
      vertex 70 -1.5 0
    endloop
  endfacet
  facet normal -0 0 -1
    outer loop
      vertex 70 0 0
      vertex 64 -1.5 0
      vertex 64 0 0
    endloop
  endfacet
  facet normal 0 0 -1
    outer loop
      vertex 70 -1.5 0
      vertex 74 -1.5 0
      vertex 74 -10.79 0
    endloop
  endfacet
  facet normal 0 0 -1
    outer loop
      vertex 74 -1.5 0
      vertex 70 -1.5 0
      vertex 74 0 0
    endloop
  endfacet
  facet normal 0 0 -1
    outer loop
      vertex 74 0 0
      vertex 70 0 0
      vertex 74 23.9199 0
    endloop
  endfacet
  facet normal 0 0 -1
    outer loop
      vertex 70 23.9199 0
      vertex 74 23.9199 0
      vertex 70 0 0
    endloop
  endfacet
  facet normal 0 0 -1
    outer loop
      vertex 70 -1.5 0
      vertex 74 -10.79 0
      vertex 70 -10.79 0
    endloop
  endfacet
  facet normal -0 0 -1
    outer loop
      vertex 74 0 0
      vertex 70 -1.5 0
      vertex 70 0 0
    endloop
  endfacet
  facet normal 0 0 -1
    outer loop
      vertex 74 23.9199 0
      vertex 70 23.9199 0
      vertex 74 25.4199 0
    endloop
  endfacet
  facet normal 0 0 -1
    outer loop
      vertex 70 25.4199 0
      vertex 74 25.4199 0
      vertex 70 23.9199 0
    endloop
  endfacet
  facet normal 0 0 -1
    outer loop
      vertex 74 25.4199 0
      vertex 70 25.4199 0
      vertex 74 34.71 0
    endloop
  endfacet
  facet normal -0 0 -1
    outer loop
      vertex 74 34.71 0
      vertex 70 25.4199 0
      vertex 70 34.71 0
    endloop
  endfacet
  facet normal 0 0 -1
    outer loop
      vertex 74 23.9199 0
      vertex 80 25.4199 0
      vertex 80 23.9199 0
    endloop
  endfacet
  facet normal -0 0 -1
    outer loop
      vertex 80 25.4199 0
      vertex 74 23.9199 0
      vertex 74 25.4199 0
    endloop
  endfacet
  facet normal 0 0 -1
    outer loop
      vertex 74 -1.5 0
      vertex 80 0 0
      vertex 80 -1.5 0
    endloop
  endfacet
  facet normal -0 0 -1
    outer loop
      vertex 80 0 0
      vertex 74 -1.5 0
      vertex 74 0 0
    endloop
  endfacet
  facet normal 0 0 -1
    outer loop
      vertex 80 -1.5 0
      vertex 84 -1.5 0
      vertex 84 -10.79 0
    endloop
  endfacet
  facet normal 0 0 -1
    outer loop
      vertex 84 -1.5 0
      vertex 80 -1.5 0
      vertex 84 0 0
    endloop
  endfacet
  facet normal 0 0 -1
    outer loop
      vertex 84 0 0
      vertex 80 0 0
      vertex 84 23.9199 0
    endloop
  endfacet
  facet normal 0 0 -1
    outer loop
      vertex 80 23.9199 0
      vertex 84 23.9199 0
      vertex 80 0 0
    endloop
  endfacet
  facet normal 0 0 -1
    outer loop
      vertex 80 -1.5 0
      vertex 84 -10.79 0
      vertex 80 -10.79 0
    endloop
  endfacet
  facet normal -0 0 -1
    outer loop
      vertex 84 0 0
      vertex 80 -1.5 0
      vertex 80 0 0
    endloop
  endfacet
  facet normal 0 0 -1
    outer loop
      vertex 84 23.9199 0
      vertex 80 23.9199 0
      vertex 84 25.4199 0
    endloop
  endfacet
  facet normal 0 0 -1
    outer loop
      vertex 80 25.4199 0
      vertex 84 25.4199 0
      vertex 80 23.9199 0
    endloop
  endfacet
  facet normal 0 0 -1
    outer loop
      vertex 84 25.4199 0
      vertex 80 25.4199 0
      vertex 84 34.71 0
    endloop
  endfacet
  facet normal -0 0 -1
    outer loop
      vertex 84 34.71 0
      vertex 80 25.4199 0
      vertex 80 34.71 0
    endloop
  endfacet
  facet normal 0 0 -1
    outer loop
      vertex 84 23.9199 0
      vertex 90 25.4199 0
      vertex 90 23.9199 0
    endloop
  endfacet
  facet normal -0 0 -1
    outer loop
      vertex 90 25.4199 0
      vertex 84 23.9199 0
      vertex 84 25.4199 0
    endloop
  endfacet
  facet normal 0 0 -1
    outer loop
      vertex 84 -1.5 0
      vertex 90 0 0
      vertex 90 -1.5 0
    endloop
  endfacet
  facet normal -0 0 -1
    outer loop
      vertex 90 0 0
      vertex 84 -1.5 0
      vertex 84 0 0
    endloop
  endfacet
  facet normal 0 0 -1
    outer loop
      vertex 90 -1.5 0
      vertex 94 -1.5 0
      vertex 94 -10.79 0
    endloop
  endfacet
  facet normal 0 0 -1
    outer loop
      vertex 94 -1.5 0
      vertex 90 -1.5 0
      vertex 94 0 0
    endloop
  endfacet
  facet normal 0 0 -1
    outer loop
      vertex 94 0 0
      vertex 90 0 0
      vertex 94 23.9199 0
    endloop
  endfacet
  facet normal 0 0 -1
    outer loop
      vertex 90 23.9199 0
      vertex 94 23.9199 0
      vertex 90 0 0
    endloop
  endfacet
  facet normal 0 0 -1
    outer loop
      vertex 90 -1.5 0
      vertex 94 -10.79 0
      vertex 90 -10.79 0
    endloop
  endfacet
  facet normal -0 0 -1
    outer loop
      vertex 94 0 0
      vertex 90 -1.5 0
      vertex 90 0 0
    endloop
  endfacet
  facet normal 0 0 -1
    outer loop
      vertex 94 23.9199 0
      vertex 90 23.9199 0
      vertex 94 25.4199 0
    endloop
  endfacet
  facet normal 0 0 -1
    outer loop
      vertex 90 25.4199 0
      vertex 94 25.4199 0
      vertex 90 23.9199 0
    endloop
  endfacet
  facet normal 0 0 -1
    outer loop
      vertex 94 25.4199 0
      vertex 90 25.4199 0
      vertex 94 34.71 0
    endloop
  endfacet
  facet normal -0 0 -1
    outer loop
      vertex 94 34.71 0
      vertex 90 25.4199 0
      vertex 90 34.71 0
    endloop
  endfacet
  facet normal 0 0 -1
    outer loop
      vertex 94 23.9199 0
      vertex 100 25.4199 0
      vertex 100 23.9199 0
    endloop
  endfacet
  facet normal -0 0 -1
    outer loop
      vertex 100 25.4199 0
      vertex 94 23.9199 0
      vertex 94 25.4199 0
    endloop
  endfacet
  facet normal 0 0 -1
    outer loop
      vertex 94 -1.5 0
      vertex 100 0 0
      vertex 100 -1.5 0
    endloop
  endfacet
  facet normal -0 0 -1
    outer loop
      vertex 100 0 0
      vertex 94 -1.5 0
      vertex 94 0 0
    endloop
  endfacet
  facet normal 0 0 -1
    outer loop
      vertex 100 0 0
      vertex 102 10.0596 0
      vertex 102 -10.79 0
    endloop
  endfacet
  facet normal -0 0 -1
    outer loop
      vertex 102 10.0596 0
      vertex 100 0 0
      vertex 102 13.8604 0
    endloop
  endfacet
  facet normal 0 0 -1
    outer loop
      vertex 100 -1.5 0
      vertex 102 -10.79 0
      vertex 100 -10.79 0
    endloop
  endfacet
  facet normal 0 0 -1
    outer loop
      vertex 100 0 0
      vertex 102 -10.79 0
      vertex 100 -1.5 0
    endloop
  endfacet
  facet normal 0 0 -1
    outer loop
      vertex 100 23.9199 0
      vertex 102 13.8604 0
      vertex 100 0 0
    endloop
  endfacet
  facet normal 0 0 -1
    outer loop
      vertex 102 13.8604 0
      vertex 100 23.9199 0
      vertex 102 34.71 0
    endloop
  endfacet
  facet normal 0 0 -1
    outer loop
      vertex 100 25.4199 0
      vertex 102 34.71 0
      vertex 100 23.9199 0
    endloop
  endfacet
  facet normal -0 0 -1
    outer loop
      vertex 102 34.71 0
      vertex 100 25.4199 0
      vertex 100 34.71 0
    endloop
  endfacet
  facet normal 0 0 -1
    outer loop
      vertex 102 10.0596 0
      vertex 104.2 13.8604 0
      vertex 104.2 10.0596 0
    endloop
  endfacet
  facet normal -0 0 -1
    outer loop
      vertex 104.2 13.8604 0
      vertex 102 10.0596 0
      vertex 102 13.8604 0
    endloop
  endfacet
  facet normal 0 0 -1
    outer loop
      vertex 104.2 10.0596 0
      vertex 106.4 7.05957 0
      vertex 104.2 7.05957 0
    endloop
  endfacet
  facet normal 0 0 -1
    outer loop
      vertex 106.4 7.05957 0
      vertex 104.2 10.0596 0
      vertex 106.4 16.8604 0
    endloop
  endfacet
  facet normal 0 0 -1
    outer loop
      vertex 104.2 13.8604 0
      vertex 106.4 16.8604 0
      vertex 104.2 10.0596 0
    endloop
  endfacet
  facet normal -0 0 -1
    outer loop
      vertex 106.4 16.8604 0
      vertex 104.2 13.8604 0
      vertex 104.2 16.8604 0
    endloop
  endfacet
  facet normal -0 0 1
    outer loop
      vertex 60 23.9199 2
      vertex 64 0 2
      vertex 64 23.9199 2
    endloop
  endfacet
  facet normal 0 0 1
    outer loop
      vertex 64 0 2
      vertex 60 23.9199 2
      vertex 60 0 2
    endloop
  endfacet
  facet normal -0 0 1
    outer loop
      vertex 70 -1.5 2
      vertex 74 -10.79 2
      vertex 74 -1.5 2
    endloop
  endfacet
  facet normal 0 0 1
    outer loop
      vertex 74 -10.79 2
      vertex 70 -1.5 2
      vertex 70 -10.79 2
    endloop
  endfacet
  facet normal -0 0 1
    outer loop
      vertex 70 23.9199 2
      vertex 74 0 2
      vertex 74 23.9199 2
    endloop
  endfacet
  facet normal 0 0 1
    outer loop
      vertex 74 0 2
      vertex 70 23.9199 2
      vertex 70 0 2
    endloop
  endfacet
  facet normal -0 0 1
    outer loop
      vertex 10 -1.5 2
      vertex 14 -10.79 2
      vertex 14 -1.5 2
    endloop
  endfacet
  facet normal 0 0 1
    outer loop
      vertex 14 -10.79 2
      vertex 10 -1.5 2
      vertex 10 -10.79 2
    endloop
  endfacet
  facet normal -0 0 1
    outer loop
      vertex 2 9.95996 2
      vertex 4 0 2
      vertex 4 9.95996 2
    endloop
  endfacet
  facet normal 0 0 1
    outer loop
      vertex 4 0 2
      vertex 2 9.95996 2
      vertex 2 0 2
    endloop
  endfacet
  facet normal -0 0 1
    outer loop
      vertex 10 23.9199 2
      vertex 14 0 2
      vertex 14 23.9199 2
    endloop
  endfacet
  facet normal 0 0 1
    outer loop
      vertex 14 0 2
      vertex 10 23.9199 2
      vertex 10 0 2
    endloop
  endfacet
  facet normal -0 0 1
    outer loop
      vertex 80 34.71 2
      vertex 84 25.4199 2
      vertex 84 34.71 2
    endloop
  endfacet
  facet normal 0 0 1
    outer loop
      vertex 84 25.4199 2
      vertex 80 34.71 2
      vertex 80 25.4199 2
    endloop
  endfacet
  facet normal -0 0 1
    outer loop
      vertex 20 -1.5 2
      vertex 24 -10.79 2
      vertex 24 -1.5 2
    endloop
  endfacet
  facet normal 0 0 1
    outer loop
      vertex 24 -10.79 2
      vertex 20 -1.5 2
      vertex 20 -10.79 2
    endloop
  endfacet
  facet normal -0 0 1
    outer loop
      vertex 80 23.9199 2
      vertex 84 0 2
      vertex 84 23.9199 2
    endloop
  endfacet
  facet normal 0 0 1
    outer loop
      vertex 84 0 2
      vertex 80 23.9199 2
      vertex 80 0 2
    endloop
  endfacet
  facet normal -0 0 1
    outer loop
      vertex 80 -1.5 2
      vertex 84 -10.79 2
      vertex 84 -1.5 2
    endloop
  endfacet
  facet normal 0 0 1
    outer loop
      vertex 84 -10.79 2
      vertex 80 -1.5 2
      vertex 80 -10.79 2
    endloop
  endfacet
  facet normal -0 0 1
    outer loop
      vertex 30 -1.5 2
      vertex 34 -10.79 2
      vertex 34 -1.5 2
    endloop
  endfacet
  facet normal 0 0 1
    outer loop
      vertex 34 -10.79 2
      vertex 30 -1.5 2
      vertex 30 -10.79 2
    endloop
  endfacet
  facet normal -0 0 1
    outer loop
      vertex 70 34.71 2
      vertex 74 25.4199 2
      vertex 74 34.71 2
    endloop
  endfacet
  facet normal 0 0 1
    outer loop
      vertex 74 25.4199 2
      vertex 70 34.71 2
      vertex 70 25.4199 2
    endloop
  endfacet
  facet normal -0 0 1
    outer loop
      vertex 90 34.71 2
      vertex 94 25.4199 2
      vertex 94 34.71 2
    endloop
  endfacet
  facet normal 0 0 1
    outer loop
      vertex 94 25.4199 2
      vertex 90 34.71 2
      vertex 90 25.4199 2
    endloop
  endfacet
  facet normal -0 0 1
    outer loop
      vertex 40 -1.5 2
      vertex 44 -10.79 2
      vertex 44 -1.5 2
    endloop
  endfacet
  facet normal 0 0 1
    outer loop
      vertex 44 -10.79 2
      vertex 40 -1.5 2
      vertex 40 -10.79 2
    endloop
  endfacet
  facet normal -0 0 1
    outer loop
      vertex 90 23.9199 2
      vertex 94 0 2
      vertex 94 23.9199 2
    endloop
  endfacet
  facet normal 0 0 1
    outer loop
      vertex 94 0 2
      vertex 90 23.9199 2
      vertex 90 0 2
    endloop
  endfacet
  facet normal -0 0 1
    outer loop
      vertex 90 -1.5 2
      vertex 94 -10.79 2
      vertex 94 -1.5 2
    endloop
  endfacet
  facet normal 0 0 1
    outer loop
      vertex 94 -10.79 2
      vertex 90 -1.5 2
      vertex 90 -10.79 2
    endloop
  endfacet
  facet normal -0 0 1
    outer loop
      vertex 50 -1.5 2
      vertex 54 -10.79 2
      vertex 54 -1.5 2
    endloop
  endfacet
  facet normal 0 0 1
    outer loop
      vertex 54 -10.79 2
      vertex 50 -1.5 2
      vertex 50 -10.79 2
    endloop
  endfacet
  facet normal -0 0 1
    outer loop
      vertex 100 34.71 2
      vertex 102 25.4199 2
      vertex 102 34.71 2
    endloop
  endfacet
  facet normal 0 0 1
    outer loop
      vertex 102 25.4199 2
      vertex 100 34.71 2
      vertex 100 25.4199 2
    endloop
  endfacet
  facet normal -0 0 1
    outer loop
      vertex 100 23.9199 2
      vertex 102 13.8604 2
      vertex 102 23.9199 2
    endloop
  endfacet
  facet normal 0 0 1
    outer loop
      vertex 102 13.8604 2
      vertex 100 23.9199 2
      vertex 102 10.0596 2
    endloop
  endfacet
  facet normal 0 0 1
    outer loop
      vertex 100 0 2
      vertex 102 10.0596 2
      vertex 100 23.9199 2
    endloop
  endfacet
  facet normal 0 0 1
    outer loop
      vertex 102 10.0596 2
      vertex 100 0 2
      vertex 102 0 2
    endloop
  endfacet
  facet normal -0 0 1
    outer loop
      vertex 102 13.8604 2
      vertex 104.2 10.0596 2
      vertex 104.2 13.8604 2
    endloop
  endfacet
  facet normal 0 0 1
    outer loop
      vertex 104.2 10.0596 2
      vertex 102 13.8604 2
      vertex 102 10.0596 2
    endloop
  endfacet
  facet normal 0 0 1
    outer loop
      vertex 104.2 13.8604 2
      vertex 106.4 16.8604 2
      vertex 104.2 16.8604 2
    endloop
  endfacet
  facet normal 0 0 1
    outer loop
      vertex 106.4 16.8604 2
      vertex 104.2 13.8604 2
      vertex 106.4 7.05957 2
    endloop
  endfacet
  facet normal -0 0 1
    outer loop
      vertex 104.2 10.0596 2
      vertex 106.4 7.05957 2
      vertex 104.2 13.8604 2
    endloop
  endfacet
  facet normal 0 0 1
    outer loop
      vertex 106.4 7.05957 2
      vertex 104.2 10.0596 2
      vertex 104.2 7.05957 2
    endloop
  endfacet
  facet normal -0 0 1
    outer loop
      vertex 60 -1.5 2
      vertex 64 -10.79 2
      vertex 64 -1.5 2
    endloop
  endfacet
  facet normal 0 0 1
    outer loop
      vertex 64 -10.79 2
      vertex 60 -1.5 2
      vertex 60 -10.79 2
    endloop
  endfacet
  facet normal -0 0 1
    outer loop
      vertex 10 34.71 2
      vertex 14 25.4199 2
      vertex 14 34.71 2
    endloop
  endfacet
  facet normal 0 0 1
    outer loop
      vertex 14 25.4199 2
      vertex 10 34.71 2
      vertex 10 25.4199 2
    endloop
  endfacet
  facet normal -0 0 1
    outer loop
      vertex 20 34.71 2
      vertex 24 25.4199 2
      vertex 24 34.71 2
    endloop
  endfacet
  facet normal 0 0 1
    outer loop
      vertex 24 25.4199 2
      vertex 20 34.71 2
      vertex 20 25.4199 2
    endloop
  endfacet
  facet normal -0 0 1
    outer loop
      vertex 20 23.9199 2
      vertex 24 0 2
      vertex 24 23.9199 2
    endloop
  endfacet
  facet normal 0 0 1
    outer loop
      vertex 24 0 2
      vertex 20 23.9199 2
      vertex 20 0 2
    endloop
  endfacet
  facet normal -0 0 1
    outer loop
      vertex 100 -1.5 2
      vertex 102 -10.79 2
      vertex 102 -1.5 2
    endloop
  endfacet
  facet normal 0 0 1
    outer loop
      vertex 102 -10.79 2
      vertex 100 -1.5 2
      vertex 100 -10.79 2
    endloop
  endfacet
  facet normal -0 0 1
    outer loop
      vertex 2 23.9199 2
      vertex 4 13.96 2
      vertex 4 23.9199 2
    endloop
  endfacet
  facet normal 0 0 1
    outer loop
      vertex 4 13.96 2
      vertex 2 23.9199 2
      vertex 2 13.96 2
    endloop
  endfacet
  facet normal -0 0 1
    outer loop
      vertex 2 34.71 2
      vertex 4 25.4199 2
      vertex 4 34.71 2
    endloop
  endfacet
  facet normal 0 0 1
    outer loop
      vertex 4 25.4199 2
      vertex 2 34.71 2
      vertex 2 25.4199 2
    endloop
  endfacet
  facet normal -0 0 1
    outer loop
      vertex 50 23.9199 2
      vertex 54 0 2
      vertex 54 23.9199 2
    endloop
  endfacet
  facet normal 0 0 1
    outer loop
      vertex 54 0 2
      vertex 50 23.9199 2
      vertex 50 0 2
    endloop
  endfacet
  facet normal -0 0 1
    outer loop
      vertex 60 34.71 2
      vertex 64 25.4199 2
      vertex 64 34.71 2
    endloop
  endfacet
  facet normal 0 0 1
    outer loop
      vertex 64 25.4199 2
      vertex 60 34.71 2
      vertex 60 25.4199 2
    endloop
  endfacet
  facet normal -0 0 1
    outer loop
      vertex 40 34.71 2
      vertex 44 25.4199 2
      vertex 44 34.71 2
    endloop
  endfacet
  facet normal 0 0 1
    outer loop
      vertex 44 25.4199 2
      vertex 40 34.71 2
      vertex 40 25.4199 2
    endloop
  endfacet
  facet normal -0 0 1
    outer loop
      vertex 40 23.9199 2
      vertex 44 0 2
      vertex 44 23.9199 2
    endloop
  endfacet
  facet normal 0 0 1
    outer loop
      vertex 44 0 2
      vertex 40 23.9199 2
      vertex 40 0 2
    endloop
  endfacet
  facet normal -0 0 1
    outer loop
      vertex 50 34.71 2
      vertex 54 25.4199 2
      vertex 54 34.71 2
    endloop
  endfacet
  facet normal 0 0 1
    outer loop
      vertex 54 25.4199 2
      vertex 50 34.71 2
      vertex 50 25.4199 2
    endloop
  endfacet
  facet normal -0 0 1
    outer loop
      vertex 30 34.71 2
      vertex 34 25.4199 2
      vertex 34 34.71 2
    endloop
  endfacet
  facet normal 0 0 1
    outer loop
      vertex 34 25.4199 2
      vertex 30 34.71 2
      vertex 30 25.4199 2
    endloop
  endfacet
  facet normal -0 0 1
    outer loop
      vertex 30 23.9199 2
      vertex 34 0 2
      vertex 34 23.9199 2
    endloop
  endfacet
  facet normal 0 0 1
    outer loop
      vertex 34 0 2
      vertex 30 23.9199 2
      vertex 30 0 2
    endloop
  endfacet
  facet normal -0 0 1
    outer loop
      vertex 2 -1.5 2
      vertex 4 -10.79 2
      vertex 4 -1.5 2
    endloop
  endfacet
  facet normal 0 0 1
    outer loop
      vertex 4 -10.79 2
      vertex 2 -1.5 2
      vertex 2 -10.79 2
    endloop
  endfacet
  facet normal 0 -1 0
    outer loop
      vertex 94 -1.5 0
      vertex 100 -1.5 2
      vertex 94 -1.5 2
    endloop
  endfacet
  facet normal 0 -1 -0
    outer loop
      vertex 100 -1.5 2
      vertex 94 -1.5 0
      vertex 100 -1.5 0
    endloop
  endfacet
  facet normal 0 -1 0
    outer loop
      vertex 84 -1.5 0
      vertex 90 -1.5 2
      vertex 84 -1.5 2
    endloop
  endfacet
  facet normal 0 -1 -0
    outer loop
      vertex 90 -1.5 2
      vertex 84 -1.5 0
      vertex 90 -1.5 0
    endloop
  endfacet
  facet normal 0 -1 0
    outer loop
      vertex 74 -1.5 0
      vertex 80 -1.5 2
      vertex 74 -1.5 2
    endloop
  endfacet
  facet normal 0 -1 -0
    outer loop
      vertex 80 -1.5 2
      vertex 74 -1.5 0
      vertex 80 -1.5 0
    endloop
  endfacet
  facet normal 0 -1 0
    outer loop
      vertex 64 -1.5 0
      vertex 70 -1.5 2
      vertex 64 -1.5 2
    endloop
  endfacet
  facet normal 0 -1 -0
    outer loop
      vertex 70 -1.5 2
      vertex 64 -1.5 0
      vertex 70 -1.5 0
    endloop
  endfacet
  facet normal 0 -1 0
    outer loop
      vertex 54 -1.5 0
      vertex 60 -1.5 2
      vertex 54 -1.5 2
    endloop
  endfacet
  facet normal 0 -1 -0
    outer loop
      vertex 60 -1.5 2
      vertex 54 -1.5 0
      vertex 60 -1.5 0
    endloop
  endfacet
  facet normal 0 -1 0
    outer loop
      vertex 44 -1.5 0
      vertex 50 -1.5 2
      vertex 44 -1.5 2
    endloop
  endfacet
  facet normal 0 -1 -0
    outer loop
      vertex 50 -1.5 2
      vertex 44 -1.5 0
      vertex 50 -1.5 0
    endloop
  endfacet
  facet normal 0 -1 0
    outer loop
      vertex 34 -1.5 0
      vertex 40 -1.5 2
      vertex 34 -1.5 2
    endloop
  endfacet
  facet normal 0 -1 -0
    outer loop
      vertex 40 -1.5 2
      vertex 34 -1.5 0
      vertex 40 -1.5 0
    endloop
  endfacet
  facet normal 0 -1 0
    outer loop
      vertex 24 -1.5 0
      vertex 30 -1.5 2
      vertex 24 -1.5 2
    endloop
  endfacet
  facet normal 0 -1 -0
    outer loop
      vertex 30 -1.5 2
      vertex 24 -1.5 0
      vertex 30 -1.5 0
    endloop
  endfacet
  facet normal 0 -1 0
    outer loop
      vertex 14 -1.5 0
      vertex 20 -1.5 2
      vertex 14 -1.5 2
    endloop
  endfacet
  facet normal 0 -1 -0
    outer loop
      vertex 20 -1.5 2
      vertex 14 -1.5 0
      vertex 20 -1.5 0
    endloop
  endfacet
  facet normal 0 -1 0
    outer loop
      vertex 4 -1.5 0
      vertex 10 -1.5 2
      vertex 4 -1.5 2
    endloop
  endfacet
  facet normal 0 -1 -0
    outer loop
      vertex 10 -1.5 2
      vertex 4 -1.5 0
      vertex 10 -1.5 0
    endloop
  endfacet
  facet normal 0 -1 0
    outer loop
      vertex 4 -1.5 2
      vertex 2 -1.5 4.39
      vertex 2 -1.5 2
    endloop
  endfacet
  facet normal 0 -1 0
    outer loop
      vertex 10 -1.5 2
      vertex 2 -1.5 4.39
      vertex 4 -1.5 2
    endloop
  endfacet
  facet normal 0 -1 0
    outer loop
      vertex 14 -1.5 2
      vertex 2 -1.5 4.39
      vertex 10 -1.5 2
    endloop
  endfacet
  facet normal 0 -1 0
    outer loop
      vertex 20 -1.5 2
      vertex 2 -1.5 4.39
      vertex 14 -1.5 2
    endloop
  endfacet
  facet normal 0 -1 0
    outer loop
      vertex 24 -1.5 2
      vertex 2 -1.5 4.39
      vertex 20 -1.5 2
    endloop
  endfacet
  facet normal 0 -1 0
    outer loop
      vertex 30 -1.5 2
      vertex 2 -1.5 4.39
      vertex 24 -1.5 2
    endloop
  endfacet
  facet normal 0 -1 0
    outer loop
      vertex 34 -1.5 2
      vertex 2 -1.5 4.39
      vertex 30 -1.5 2
    endloop
  endfacet
  facet normal 0 -1 0
    outer loop
      vertex 40 -1.5 2
      vertex 2 -1.5 4.39
      vertex 34 -1.5 2
    endloop
  endfacet
  facet normal 0 -1 0
    outer loop
      vertex 44 -1.5 2
      vertex 2 -1.5 4.39
      vertex 40 -1.5 2
    endloop
  endfacet
  facet normal 0 -1 0
    outer loop
      vertex 50 -1.5 2
      vertex 2 -1.5 4.39
      vertex 44 -1.5 2
    endloop
  endfacet
  facet normal 0 -1 0
    outer loop
      vertex 2 -1.5 4.39
      vertex 50 -1.5 2
      vertex 102 -1.5 4.39
    endloop
  endfacet
  facet normal 0 -1 0
    outer loop
      vertex 54 -1.5 2
      vertex 102 -1.5 4.39
      vertex 50 -1.5 2
    endloop
  endfacet
  facet normal 0 -1 0
    outer loop
      vertex 60 -1.5 2
      vertex 102 -1.5 4.39
      vertex 54 -1.5 2
    endloop
  endfacet
  facet normal 0 -1 0
    outer loop
      vertex 64 -1.5 2
      vertex 102 -1.5 4.39
      vertex 60 -1.5 2
    endloop
  endfacet
  facet normal 0 -1 0
    outer loop
      vertex 70 -1.5 2
      vertex 102 -1.5 4.39
      vertex 64 -1.5 2
    endloop
  endfacet
  facet normal 0 -1 0
    outer loop
      vertex 74 -1.5 2
      vertex 102 -1.5 4.39
      vertex 70 -1.5 2
    endloop
  endfacet
  facet normal 0 -1 0
    outer loop
      vertex 80 -1.5 2
      vertex 102 -1.5 4.39
      vertex 74 -1.5 2
    endloop
  endfacet
  facet normal 0 -1 0
    outer loop
      vertex 84 -1.5 2
      vertex 102 -1.5 4.39
      vertex 80 -1.5 2
    endloop
  endfacet
  facet normal 0 -1 0
    outer loop
      vertex 90 -1.5 2
      vertex 102 -1.5 4.39
      vertex 84 -1.5 2
    endloop
  endfacet
  facet normal 0 -1 0
    outer loop
      vertex 94 -1.5 2
      vertex 102 -1.5 4.39
      vertex 90 -1.5 2
    endloop
  endfacet
  facet normal 0 -1 0
    outer loop
      vertex 100 -1.5 2
      vertex 102 -1.5 4.39
      vertex 94 -1.5 2
    endloop
  endfacet
  facet normal 0 -1 -0
    outer loop
      vertex 102 -1.5 4.39
      vertex 100 -1.5 2
      vertex 102 -1.5 2
    endloop
  endfacet
  facet normal -1 0 0
    outer loop
      vertex 10 -10.79 0
      vertex 10 -1.5 2
      vertex 10 -1.5 0
    endloop
  endfacet
  facet normal -1 -0 0
    outer loop
      vertex 10 -1.5 2
      vertex 10 -10.79 0
      vertex 10 -10.79 2
    endloop
  endfacet
  facet normal 0 -1 0
    outer loop
      vertex 10 -10.79 0
      vertex 14 -10.79 2
      vertex 10 -10.79 2
    endloop
  endfacet
  facet normal 0 -1 -0
    outer loop
      vertex 14 -10.79 2
      vertex 10 -10.79 0
      vertex 14 -10.79 0
    endloop
  endfacet
  facet normal 1 -0 0
    outer loop
      vertex 14 -10.79 2
      vertex 14 -1.5 0
      vertex 14 -1.5 2
    endloop
  endfacet
  facet normal 1 0 0
    outer loop
      vertex 14 -1.5 0
      vertex 14 -10.79 2
      vertex 14 -10.79 0
    endloop
  endfacet
  facet normal -1 0 0
    outer loop
      vertex 20 -10.79 0
      vertex 20 -1.5 2
      vertex 20 -1.5 0
    endloop
  endfacet
  facet normal -1 -0 0
    outer loop
      vertex 20 -1.5 2
      vertex 20 -10.79 0
      vertex 20 -10.79 2
    endloop
  endfacet
  facet normal 0 -1 0
    outer loop
      vertex 20 -10.79 0
      vertex 24 -10.79 2
      vertex 20 -10.79 2
    endloop
  endfacet
  facet normal 0 -1 -0
    outer loop
      vertex 24 -10.79 2
      vertex 20 -10.79 0
      vertex 24 -10.79 0
    endloop
  endfacet
  facet normal 1 -0 0
    outer loop
      vertex 24 -10.79 2
      vertex 24 -1.5 0
      vertex 24 -1.5 2
    endloop
  endfacet
  facet normal 1 0 0
    outer loop
      vertex 24 -1.5 0
      vertex 24 -10.79 2
      vertex 24 -10.79 0
    endloop
  endfacet
  facet normal -1 0 0
    outer loop
      vertex 30 -10.79 0
      vertex 30 -1.5 2
      vertex 30 -1.5 0
    endloop
  endfacet
  facet normal -1 -0 0
    outer loop
      vertex 30 -1.5 2
      vertex 30 -10.79 0
      vertex 30 -10.79 2
    endloop
  endfacet
  facet normal 0 -1 0
    outer loop
      vertex 30 -10.79 0
      vertex 34 -10.79 2
      vertex 30 -10.79 2
    endloop
  endfacet
  facet normal 0 -1 -0
    outer loop
      vertex 34 -10.79 2
      vertex 30 -10.79 0
      vertex 34 -10.79 0
    endloop
  endfacet
  facet normal 1 -0 0
    outer loop
      vertex 34 -10.79 2
      vertex 34 -1.5 0
      vertex 34 -1.5 2
    endloop
  endfacet
  facet normal 1 0 0
    outer loop
      vertex 34 -1.5 0
      vertex 34 -10.79 2
      vertex 34 -10.79 0
    endloop
  endfacet
  facet normal -1 0 0
    outer loop
      vertex 40 -10.79 0
      vertex 40 -1.5 2
      vertex 40 -1.5 0
    endloop
  endfacet
  facet normal -1 -0 0
    outer loop
      vertex 40 -1.5 2
      vertex 40 -10.79 0
      vertex 40 -10.79 2
    endloop
  endfacet
  facet normal 0 -1 0
    outer loop
      vertex 40 -10.79 0
      vertex 44 -10.79 2
      vertex 40 -10.79 2
    endloop
  endfacet
  facet normal 0 -1 -0
    outer loop
      vertex 44 -10.79 2
      vertex 40 -10.79 0
      vertex 44 -10.79 0
    endloop
  endfacet
  facet normal 1 -0 0
    outer loop
      vertex 44 -10.79 2
      vertex 44 -1.5 0
      vertex 44 -1.5 2
    endloop
  endfacet
  facet normal 1 0 0
    outer loop
      vertex 44 -1.5 0
      vertex 44 -10.79 2
      vertex 44 -10.79 0
    endloop
  endfacet
  facet normal -1 0 0
    outer loop
      vertex 50 -10.79 0
      vertex 50 -1.5 2
      vertex 50 -1.5 0
    endloop
  endfacet
  facet normal -1 -0 0
    outer loop
      vertex 50 -1.5 2
      vertex 50 -10.79 0
      vertex 50 -10.79 2
    endloop
  endfacet
  facet normal 0 -1 0
    outer loop
      vertex 50 -10.79 0
      vertex 54 -10.79 2
      vertex 50 -10.79 2
    endloop
  endfacet
  facet normal 0 -1 -0
    outer loop
      vertex 54 -10.79 2
      vertex 50 -10.79 0
      vertex 54 -10.79 0
    endloop
  endfacet
  facet normal 1 -0 0
    outer loop
      vertex 54 -10.79 2
      vertex 54 -1.5 0
      vertex 54 -1.5 2
    endloop
  endfacet
  facet normal 1 0 0
    outer loop
      vertex 54 -1.5 0
      vertex 54 -10.79 2
      vertex 54 -10.79 0
    endloop
  endfacet
  facet normal -1 0 0
    outer loop
      vertex 60 -10.79 0
      vertex 60 -1.5 2
      vertex 60 -1.5 0
    endloop
  endfacet
  facet normal -1 -0 0
    outer loop
      vertex 60 -1.5 2
      vertex 60 -10.79 0
      vertex 60 -10.79 2
    endloop
  endfacet
  facet normal 0 -1 0
    outer loop
      vertex 60 -10.79 0
      vertex 64 -10.79 2
      vertex 60 -10.79 2
    endloop
  endfacet
  facet normal 0 -1 -0
    outer loop
      vertex 64 -10.79 2
      vertex 60 -10.79 0
      vertex 64 -10.79 0
    endloop
  endfacet
  facet normal 1 -0 0
    outer loop
      vertex 64 -10.79 2
      vertex 64 -1.5 0
      vertex 64 -1.5 2
    endloop
  endfacet
  facet normal 1 0 0
    outer loop
      vertex 64 -1.5 0
      vertex 64 -10.79 2
      vertex 64 -10.79 0
    endloop
  endfacet
  facet normal -1 0 0
    outer loop
      vertex 70 -10.79 0
      vertex 70 -1.5 2
      vertex 70 -1.5 0
    endloop
  endfacet
  facet normal -1 -0 0
    outer loop
      vertex 70 -1.5 2
      vertex 70 -10.79 0
      vertex 70 -10.79 2
    endloop
  endfacet
  facet normal 0 -1 0
    outer loop
      vertex 70 -10.79 0
      vertex 74 -10.79 2
      vertex 70 -10.79 2
    endloop
  endfacet
  facet normal 0 -1 -0
    outer loop
      vertex 74 -10.79 2
      vertex 70 -10.79 0
      vertex 74 -10.79 0
    endloop
  endfacet
  facet normal 1 -0 0
    outer loop
      vertex 74 -10.79 2
      vertex 74 -1.5 0
      vertex 74 -1.5 2
    endloop
  endfacet
  facet normal 1 0 0
    outer loop
      vertex 74 -1.5 0
      vertex 74 -10.79 2
      vertex 74 -10.79 0
    endloop
  endfacet
  facet normal -1 0 0
    outer loop
      vertex 80 -10.79 0
      vertex 80 -1.5 2
      vertex 80 -1.5 0
    endloop
  endfacet
  facet normal -1 -0 0
    outer loop
      vertex 80 -1.5 2
      vertex 80 -10.79 0
      vertex 80 -10.79 2
    endloop
  endfacet
  facet normal 0 -1 0
    outer loop
      vertex 80 -10.79 0
      vertex 84 -10.79 2
      vertex 80 -10.79 2
    endloop
  endfacet
  facet normal 0 -1 -0
    outer loop
      vertex 84 -10.79 2
      vertex 80 -10.79 0
      vertex 84 -10.79 0
    endloop
  endfacet
  facet normal 1 -0 0
    outer loop
      vertex 84 -10.79 2
      vertex 84 -1.5 0
      vertex 84 -1.5 2
    endloop
  endfacet
  facet normal 1 0 0
    outer loop
      vertex 84 -1.5 0
      vertex 84 -10.79 2
      vertex 84 -10.79 0
    endloop
  endfacet
  facet normal -1 0 0
    outer loop
      vertex 90 -10.79 0
      vertex 90 -1.5 2
      vertex 90 -1.5 0
    endloop
  endfacet
  facet normal -1 -0 0
    outer loop
      vertex 90 -1.5 2
      vertex 90 -10.79 0
      vertex 90 -10.79 2
    endloop
  endfacet
  facet normal 0 -1 0
    outer loop
      vertex 90 -10.79 0
      vertex 94 -10.79 2
      vertex 90 -10.79 2
    endloop
  endfacet
  facet normal 0 -1 -0
    outer loop
      vertex 94 -10.79 2
      vertex 90 -10.79 0
      vertex 94 -10.79 0
    endloop
  endfacet
  facet normal 1 -0 0
    outer loop
      vertex 94 -10.79 2
      vertex 94 -1.5 0
      vertex 94 -1.5 2
    endloop
  endfacet
  facet normal 1 0 0
    outer loop
      vertex 94 -1.5 0
      vertex 94 -10.79 2
      vertex 94 -10.79 0
    endloop
  endfacet
  facet normal -1 0 0
    outer loop
      vertex 100 -10.79 0
      vertex 100 -1.5 2
      vertex 100 -1.5 0
    endloop
  endfacet
  facet normal -1 -0 0
    outer loop
      vertex 100 -1.5 2
      vertex 100 -10.79 0
      vertex 100 -10.79 2
    endloop
  endfacet
  facet normal 0 -1 0
    outer loop
      vertex 100 -10.79 0
      vertex 102 -10.79 2
      vertex 100 -10.79 2
    endloop
  endfacet
  facet normal 0 -1 -0
    outer loop
      vertex 102 -10.79 2
      vertex 100 -10.79 0
      vertex 102 -10.79 0
    endloop
  endfacet
  facet normal 1 0 0
    outer loop
      vertex 102 0 4.39
      vertex 102 -1.5 4.39
      vertex 102 0 2
    endloop
  endfacet
  facet normal 1 -0 0
    outer loop
      vertex 102 0 2
      vertex 102 10.0596 0
      vertex 102 10.0596 2
    endloop
  endfacet
  facet normal 1 0 0
    outer loop
      vertex 102 -1.5 2
      vertex 102 0 2
      vertex 102 -1.5 4.39
    endloop
  endfacet
  facet normal 1 0 0
    outer loop
      vertex 102 -10.79 0
      vertex 102 0 2
      vertex 102 -1.5 2
    endloop
  endfacet
  facet normal 1 0 0
    outer loop
      vertex 102 -10.79 0
      vertex 102 -1.5 2
      vertex 102 -10.79 2
    endloop
  endfacet
  facet normal 1 0 0
    outer loop
      vertex 102 0 2
      vertex 102 -10.79 0
      vertex 102 10.0596 0
    endloop
  endfacet
  facet normal 0 -1 0
    outer loop
      vertex 102 10.0596 0
      vertex 104.2 10.0596 2
      vertex 102 10.0596 2
    endloop
  endfacet
  facet normal 0 -1 -0
    outer loop
      vertex 104.2 10.0596 2
      vertex 102 10.0596 0
      vertex 104.2 10.0596 0
    endloop
  endfacet
  facet normal -1 0 0
    outer loop
      vertex 104.2 7.05957 0
      vertex 104.2 10.0596 2
      vertex 104.2 10.0596 0
    endloop
  endfacet
  facet normal -1 -0 0
    outer loop
      vertex 104.2 10.0596 2
      vertex 104.2 7.05957 0
      vertex 104.2 7.05957 2
    endloop
  endfacet
  facet normal 0 -1 0
    outer loop
      vertex 104.2 7.05957 0
      vertex 106.4 7.05957 2
      vertex 104.2 7.05957 2
    endloop
  endfacet
  facet normal 0 -1 -0
    outer loop
      vertex 106.4 7.05957 2
      vertex 104.2 7.05957 0
      vertex 106.4 7.05957 0
    endloop
  endfacet
  facet normal 1 -0 0
    outer loop
      vertex 106.4 7.05957 2
      vertex 106.4 16.8604 0
      vertex 106.4 16.8604 2
    endloop
  endfacet
  facet normal 1 0 0
    outer loop
      vertex 106.4 16.8604 0
      vertex 106.4 7.05957 2
      vertex 106.4 7.05957 0
    endloop
  endfacet
  facet normal 0 1 -0
    outer loop
      vertex 106.4 16.8604 0
      vertex 104.2 16.8604 2
      vertex 106.4 16.8604 2
    endloop
  endfacet
  facet normal 0 1 0
    outer loop
      vertex 104.2 16.8604 2
      vertex 106.4 16.8604 0
      vertex 104.2 16.8604 0
    endloop
  endfacet
  facet normal -1 0 0
    outer loop
      vertex 104.2 13.8604 0
      vertex 104.2 16.8604 2
      vertex 104.2 16.8604 0
    endloop
  endfacet
  facet normal -1 -0 0
    outer loop
      vertex 104.2 16.8604 2
      vertex 104.2 13.8604 0
      vertex 104.2 13.8604 2
    endloop
  endfacet
  facet normal 0 1 -0
    outer loop
      vertex 104.2 13.8604 0
      vertex 102 13.8604 2
      vertex 104.2 13.8604 2
    endloop
  endfacet
  facet normal 0 1 0
    outer loop
      vertex 102 13.8604 2
      vertex 104.2 13.8604 0
      vertex 102 13.8604 0
    endloop
  endfacet
  facet normal 1 0 0
    outer loop
      vertex 102 25.4199 4.39
      vertex 102 23.9199 4.39
      vertex 102 25.4199 2
    endloop
  endfacet
  facet normal 1 -0 0
    outer loop
      vertex 102 25.4199 2
      vertex 102 34.71 0
      vertex 102 34.71 2
    endloop
  endfacet
  facet normal 1 0 0
    outer loop
      vertex 102 23.9199 2
      vertex 102 25.4199 2
      vertex 102 23.9199 4.39
    endloop
  endfacet
  facet normal 1 -0 0
    outer loop
      vertex 102 23.9199 2
      vertex 102 34.71 0
      vertex 102 25.4199 2
    endloop
  endfacet
  facet normal 1 0 0
    outer loop
      vertex 102 13.8604 0
      vertex 102 23.9199 2
      vertex 102 13.8604 2
    endloop
  endfacet
  facet normal 1 0 0
    outer loop
      vertex 102 23.9199 2
      vertex 102 13.8604 0
      vertex 102 34.71 0
    endloop
  endfacet
  facet normal 0 1 -0
    outer loop
      vertex 102 34.71 0
      vertex 100 34.71 2
      vertex 102 34.71 2
    endloop
  endfacet
  facet normal 0 1 0
    outer loop
      vertex 100 34.71 2
      vertex 102 34.71 0
      vertex 100 34.71 0
    endloop
  endfacet
  facet normal -1 0 0
    outer loop
      vertex 100 25.4199 0
      vertex 100 34.71 2
      vertex 100 34.71 0
    endloop
  endfacet
  facet normal -1 -0 0
    outer loop
      vertex 100 34.71 2
      vertex 100 25.4199 0
      vertex 100 25.4199 2
    endloop
  endfacet
  facet normal 0 1 -0
    outer loop
      vertex 10 25.4199 0
      vertex 4 25.4199 2
      vertex 10 25.4199 2
    endloop
  endfacet
  facet normal 0 1 0
    outer loop
      vertex 4 25.4199 2
      vertex 10 25.4199 0
      vertex 4 25.4199 0
    endloop
  endfacet
  facet normal 0 1 -0
    outer loop
      vertex 20 25.4199 0
      vertex 14 25.4199 2
      vertex 20 25.4199 2
    endloop
  endfacet
  facet normal 0 1 0
    outer loop
      vertex 14 25.4199 2
      vertex 20 25.4199 0
      vertex 14 25.4199 0
    endloop
  endfacet
  facet normal 0 1 -0
    outer loop
      vertex 30 25.4199 0
      vertex 24 25.4199 2
      vertex 30 25.4199 2
    endloop
  endfacet
  facet normal 0 1 0
    outer loop
      vertex 24 25.4199 2
      vertex 30 25.4199 0
      vertex 24 25.4199 0
    endloop
  endfacet
  facet normal 0 1 -0
    outer loop
      vertex 40 25.4199 0
      vertex 34 25.4199 2
      vertex 40 25.4199 2
    endloop
  endfacet
  facet normal 0 1 0
    outer loop
      vertex 34 25.4199 2
      vertex 40 25.4199 0
      vertex 34 25.4199 0
    endloop
  endfacet
  facet normal 0 1 -0
    outer loop
      vertex 50 25.4199 0
      vertex 44 25.4199 2
      vertex 50 25.4199 2
    endloop
  endfacet
  facet normal 0 1 0
    outer loop
      vertex 44 25.4199 2
      vertex 50 25.4199 0
      vertex 44 25.4199 0
    endloop
  endfacet
  facet normal 0 1 -0
    outer loop
      vertex 60 25.4199 0
      vertex 54 25.4199 2
      vertex 60 25.4199 2
    endloop
  endfacet
  facet normal 0 1 0
    outer loop
      vertex 54 25.4199 2
      vertex 60 25.4199 0
      vertex 54 25.4199 0
    endloop
  endfacet
  facet normal 0 1 -0
    outer loop
      vertex 70 25.4199 0
      vertex 64 25.4199 2
      vertex 70 25.4199 2
    endloop
  endfacet
  facet normal 0 1 0
    outer loop
      vertex 64 25.4199 2
      vertex 70 25.4199 0
      vertex 64 25.4199 0
    endloop
  endfacet
  facet normal 0 1 -0
    outer loop
      vertex 80 25.4199 0
      vertex 74 25.4199 2
      vertex 80 25.4199 2
    endloop
  endfacet
  facet normal 0 1 0
    outer loop
      vertex 74 25.4199 2
      vertex 80 25.4199 0
      vertex 74 25.4199 0
    endloop
  endfacet
  facet normal 0 1 -0
    outer loop
      vertex 90 25.4199 0
      vertex 84 25.4199 2
      vertex 90 25.4199 2
    endloop
  endfacet
  facet normal 0 1 0
    outer loop
      vertex 84 25.4199 2
      vertex 90 25.4199 0
      vertex 84 25.4199 0
    endloop
  endfacet
  facet normal 0 1 -0
    outer loop
      vertex 100 25.4199 0
      vertex 94 25.4199 2
      vertex 100 25.4199 2
    endloop
  endfacet
  facet normal 0 1 0
    outer loop
      vertex 94 25.4199 2
      vertex 100 25.4199 0
      vertex 94 25.4199 0
    endloop
  endfacet
  facet normal 0 1 0
    outer loop
      vertex 100 25.4199 2
      vertex 102 25.4199 4.39
      vertex 102 25.4199 2
    endloop
  endfacet
  facet normal 0 1 0
    outer loop
      vertex 94 25.4199 2
      vertex 102 25.4199 4.39
      vertex 100 25.4199 2
    endloop
  endfacet
  facet normal 0 1 0
    outer loop
      vertex 90 25.4199 2
      vertex 102 25.4199 4.39
      vertex 94 25.4199 2
    endloop
  endfacet
  facet normal 0 1 0
    outer loop
      vertex 84 25.4199 2
      vertex 102 25.4199 4.39
      vertex 90 25.4199 2
    endloop
  endfacet
  facet normal 0 1 0
    outer loop
      vertex 80 25.4199 2
      vertex 102 25.4199 4.39
      vertex 84 25.4199 2
    endloop
  endfacet
  facet normal 0 1 0
    outer loop
      vertex 74 25.4199 2
      vertex 102 25.4199 4.39
      vertex 80 25.4199 2
    endloop
  endfacet
  facet normal 0 1 0
    outer loop
      vertex 70 25.4199 2
      vertex 102 25.4199 4.39
      vertex 74 25.4199 2
    endloop
  endfacet
  facet normal 0 1 0
    outer loop
      vertex 64 25.4199 2
      vertex 102 25.4199 4.39
      vertex 70 25.4199 2
    endloop
  endfacet
  facet normal 0 1 0
    outer loop
      vertex 60 25.4199 2
      vertex 102 25.4199 4.39
      vertex 64 25.4199 2
    endloop
  endfacet
  facet normal 0 1 0
    outer loop
      vertex 54 25.4199 2
      vertex 102 25.4199 4.39
      vertex 60 25.4199 2
    endloop
  endfacet
  facet normal 0 1 0
    outer loop
      vertex 102 25.4199 4.39
      vertex 54 25.4199 2
      vertex 2 25.4199 4.39
    endloop
  endfacet
  facet normal 0 1 -0
    outer loop
      vertex 50 25.4199 2
      vertex 2 25.4199 4.39
      vertex 54 25.4199 2
    endloop
  endfacet
  facet normal 0 1 -0
    outer loop
      vertex 44 25.4199 2
      vertex 2 25.4199 4.39
      vertex 50 25.4199 2
    endloop
  endfacet
  facet normal 0 1 -0
    outer loop
      vertex 40 25.4199 2
      vertex 2 25.4199 4.39
      vertex 44 25.4199 2
    endloop
  endfacet
  facet normal 0 1 -0
    outer loop
      vertex 34 25.4199 2
      vertex 2 25.4199 4.39
      vertex 40 25.4199 2
    endloop
  endfacet
  facet normal 0 1 -0
    outer loop
      vertex 30 25.4199 2
      vertex 2 25.4199 4.39
      vertex 34 25.4199 2
    endloop
  endfacet
  facet normal 0 1 -0
    outer loop
      vertex 24 25.4199 2
      vertex 2 25.4199 4.39
      vertex 30 25.4199 2
    endloop
  endfacet
  facet normal 0 1 -0
    outer loop
      vertex 20 25.4199 2
      vertex 2 25.4199 4.39
      vertex 24 25.4199 2
    endloop
  endfacet
  facet normal 0 1 -0
    outer loop
      vertex 14 25.4199 2
      vertex 2 25.4199 4.39
      vertex 20 25.4199 2
    endloop
  endfacet
  facet normal 0 1 -0
    outer loop
      vertex 10 25.4199 2
      vertex 2 25.4199 4.39
      vertex 14 25.4199 2
    endloop
  endfacet
  facet normal 0 1 -0
    outer loop
      vertex 4 25.4199 2
      vertex 2 25.4199 4.39
      vertex 10 25.4199 2
    endloop
  endfacet
  facet normal 0 1 0
    outer loop
      vertex 2 25.4199 4.39
      vertex 4 25.4199 2
      vertex 2 25.4199 2
    endloop
  endfacet
  facet normal 1 -0 0
    outer loop
      vertex 94 25.4199 2
      vertex 94 34.71 0
      vertex 94 34.71 2
    endloop
  endfacet
  facet normal 1 0 0
    outer loop
      vertex 94 34.71 0
      vertex 94 25.4199 2
      vertex 94 25.4199 0
    endloop
  endfacet
  facet normal 0 1 -0
    outer loop
      vertex 94 34.71 0
      vertex 90 34.71 2
      vertex 94 34.71 2
    endloop
  endfacet
  facet normal 0 1 0
    outer loop
      vertex 90 34.71 2
      vertex 94 34.71 0
      vertex 90 34.71 0
    endloop
  endfacet
  facet normal -1 0 0
    outer loop
      vertex 90 25.4199 0
      vertex 90 34.71 2
      vertex 90 34.71 0
    endloop
  endfacet
  facet normal -1 -0 0
    outer loop
      vertex 90 34.71 2
      vertex 90 25.4199 0
      vertex 90 25.4199 2
    endloop
  endfacet
  facet normal 1 -0 0
    outer loop
      vertex 84 25.4199 2
      vertex 84 34.71 0
      vertex 84 34.71 2
    endloop
  endfacet
  facet normal 1 0 0
    outer loop
      vertex 84 34.71 0
      vertex 84 25.4199 2
      vertex 84 25.4199 0
    endloop
  endfacet
  facet normal 0 1 -0
    outer loop
      vertex 84 34.71 0
      vertex 80 34.71 2
      vertex 84 34.71 2
    endloop
  endfacet
  facet normal 0 1 0
    outer loop
      vertex 80 34.71 2
      vertex 84 34.71 0
      vertex 80 34.71 0
    endloop
  endfacet
  facet normal -1 0 0
    outer loop
      vertex 80 25.4199 0
      vertex 80 34.71 2
      vertex 80 34.71 0
    endloop
  endfacet
  facet normal -1 -0 0
    outer loop
      vertex 80 34.71 2
      vertex 80 25.4199 0
      vertex 80 25.4199 2
    endloop
  endfacet
  facet normal 1 -0 0
    outer loop
      vertex 74 25.4199 2
      vertex 74 34.71 0
      vertex 74 34.71 2
    endloop
  endfacet
  facet normal 1 0 0
    outer loop
      vertex 74 34.71 0
      vertex 74 25.4199 2
      vertex 74 25.4199 0
    endloop
  endfacet
  facet normal 0 1 -0
    outer loop
      vertex 74 34.71 0
      vertex 70 34.71 2
      vertex 74 34.71 2
    endloop
  endfacet
  facet normal 0 1 0
    outer loop
      vertex 70 34.71 2
      vertex 74 34.71 0
      vertex 70 34.71 0
    endloop
  endfacet
  facet normal -1 0 0
    outer loop
      vertex 70 25.4199 0
      vertex 70 34.71 2
      vertex 70 34.71 0
    endloop
  endfacet
  facet normal -1 -0 0
    outer loop
      vertex 70 34.71 2
      vertex 70 25.4199 0
      vertex 70 25.4199 2
    endloop
  endfacet
  facet normal 1 -0 0
    outer loop
      vertex 64 25.4199 2
      vertex 64 34.71 0
      vertex 64 34.71 2
    endloop
  endfacet
  facet normal 1 0 0
    outer loop
      vertex 64 34.71 0
      vertex 64 25.4199 2
      vertex 64 25.4199 0
    endloop
  endfacet
  facet normal 0 1 -0
    outer loop
      vertex 64 34.71 0
      vertex 60 34.71 2
      vertex 64 34.71 2
    endloop
  endfacet
  facet normal 0 1 0
    outer loop
      vertex 60 34.71 2
      vertex 64 34.71 0
      vertex 60 34.71 0
    endloop
  endfacet
  facet normal -1 0 0
    outer loop
      vertex 60 25.4199 0
      vertex 60 34.71 2
      vertex 60 34.71 0
    endloop
  endfacet
  facet normal -1 -0 0
    outer loop
      vertex 60 34.71 2
      vertex 60 25.4199 0
      vertex 60 25.4199 2
    endloop
  endfacet
  facet normal 1 -0 0
    outer loop
      vertex 54 25.4199 2
      vertex 54 34.71 0
      vertex 54 34.71 2
    endloop
  endfacet
  facet normal 1 0 0
    outer loop
      vertex 54 34.71 0
      vertex 54 25.4199 2
      vertex 54 25.4199 0
    endloop
  endfacet
  facet normal 0 1 -0
    outer loop
      vertex 54 34.71 0
      vertex 50 34.71 2
      vertex 54 34.71 2
    endloop
  endfacet
  facet normal 0 1 0
    outer loop
      vertex 50 34.71 2
      vertex 54 34.71 0
      vertex 50 34.71 0
    endloop
  endfacet
  facet normal -1 0 0
    outer loop
      vertex 50 25.4199 0
      vertex 50 34.71 2
      vertex 50 34.71 0
    endloop
  endfacet
  facet normal -1 -0 0
    outer loop
      vertex 50 34.71 2
      vertex 50 25.4199 0
      vertex 50 25.4199 2
    endloop
  endfacet
  facet normal 1 -0 0
    outer loop
      vertex 44 25.4199 2
      vertex 44 34.71 0
      vertex 44 34.71 2
    endloop
  endfacet
  facet normal 1 0 0
    outer loop
      vertex 44 34.71 0
      vertex 44 25.4199 2
      vertex 44 25.4199 0
    endloop
  endfacet
  facet normal 0 1 -0
    outer loop
      vertex 44 34.71 0
      vertex 40 34.71 2
      vertex 44 34.71 2
    endloop
  endfacet
  facet normal 0 1 0
    outer loop
      vertex 40 34.71 2
      vertex 44 34.71 0
      vertex 40 34.71 0
    endloop
  endfacet
  facet normal -1 0 0
    outer loop
      vertex 40 25.4199 0
      vertex 40 34.71 2
      vertex 40 34.71 0
    endloop
  endfacet
  facet normal -1 -0 0
    outer loop
      vertex 40 34.71 2
      vertex 40 25.4199 0
      vertex 40 25.4199 2
    endloop
  endfacet
  facet normal 1 -0 0
    outer loop
      vertex 34 25.4199 2
      vertex 34 34.71 0
      vertex 34 34.71 2
    endloop
  endfacet
  facet normal 1 0 0
    outer loop
      vertex 34 34.71 0
      vertex 34 25.4199 2
      vertex 34 25.4199 0
    endloop
  endfacet
  facet normal 0 1 -0
    outer loop
      vertex 34 34.71 0
      vertex 30 34.71 2
      vertex 34 34.71 2
    endloop
  endfacet
  facet normal 0 1 0
    outer loop
      vertex 30 34.71 2
      vertex 34 34.71 0
      vertex 30 34.71 0
    endloop
  endfacet
  facet normal -1 0 0
    outer loop
      vertex 30 25.4199 0
      vertex 30 34.71 2
      vertex 30 34.71 0
    endloop
  endfacet
  facet normal -1 -0 0
    outer loop
      vertex 30 34.71 2
      vertex 30 25.4199 0
      vertex 30 25.4199 2
    endloop
  endfacet
  facet normal 1 -0 0
    outer loop
      vertex 24 25.4199 2
      vertex 24 34.71 0
      vertex 24 34.71 2
    endloop
  endfacet
  facet normal 1 0 0
    outer loop
      vertex 24 34.71 0
      vertex 24 25.4199 2
      vertex 24 25.4199 0
    endloop
  endfacet
  facet normal 0 1 -0
    outer loop
      vertex 24 34.71 0
      vertex 20 34.71 2
      vertex 24 34.71 2
    endloop
  endfacet
  facet normal 0 1 0
    outer loop
      vertex 20 34.71 2
      vertex 24 34.71 0
      vertex 20 34.71 0
    endloop
  endfacet
  facet normal -1 0 0
    outer loop
      vertex 20 25.4199 0
      vertex 20 34.71 2
      vertex 20 34.71 0
    endloop
  endfacet
  facet normal -1 -0 0
    outer loop
      vertex 20 34.71 2
      vertex 20 25.4199 0
      vertex 20 25.4199 2
    endloop
  endfacet
  facet normal 1 -0 0
    outer loop
      vertex 14 25.4199 2
      vertex 14 34.71 0
      vertex 14 34.71 2
    endloop
  endfacet
  facet normal 1 0 0
    outer loop
      vertex 14 34.71 0
      vertex 14 25.4199 2
      vertex 14 25.4199 0
    endloop
  endfacet
  facet normal 0 1 -0
    outer loop
      vertex 14 34.71 0
      vertex 10 34.71 2
      vertex 14 34.71 2
    endloop
  endfacet
  facet normal 0 1 0
    outer loop
      vertex 10 34.71 2
      vertex 14 34.71 0
      vertex 10 34.71 0
    endloop
  endfacet
  facet normal -1 0 0
    outer loop
      vertex 10 25.4199 0
      vertex 10 34.71 2
      vertex 10 34.71 0
    endloop
  endfacet
  facet normal -1 -0 0
    outer loop
      vertex 10 34.71 2
      vertex 10 25.4199 0
      vertex 10 25.4199 2
    endloop
  endfacet
  facet normal 1 -0 0
    outer loop
      vertex 4 25.4199 2
      vertex 4 34.71 0
      vertex 4 34.71 2
    endloop
  endfacet
  facet normal 1 0 0
    outer loop
      vertex 4 34.71 0
      vertex 4 25.4199 2
      vertex 4 25.4199 0
    endloop
  endfacet
  facet normal 0 1 -0
    outer loop
      vertex 4 34.71 0
      vertex 2 34.71 2
      vertex 4 34.71 2
    endloop
  endfacet
  facet normal 0 1 0
    outer loop
      vertex 2 34.71 2
      vertex 4 34.71 0
      vertex 2 34.71 0
    endloop
  endfacet
  facet normal -1 0 0
    outer loop
      vertex 2 34.71 0
      vertex 2 25.4199 2
      vertex 2 34.71 2
    endloop
  endfacet
  facet normal -1 0 0
    outer loop
      vertex 2 25.4199 2
      vertex 2 23.9199 2
      vertex 2 25.4199 4.39
    endloop
  endfacet
  facet normal -1 0 0
    outer loop
      vertex 2 34.71 0
      vertex 2 23.9199 2
      vertex 2 25.4199 2
    endloop
  endfacet
  facet normal -1 0 0
    outer loop
      vertex 2 13.96 0
      vertex 2 23.9199 2
      vertex 2 34.71 0
    endloop
  endfacet
  facet normal -1 -0 0
    outer loop
      vertex 2 23.9199 2
      vertex 2 13.96 0
      vertex 2 13.96 2
    endloop
  endfacet
  facet normal -1 -0 0
    outer loop
      vertex 2 25.4199 4.39
      vertex 2 23.9199 2
      vertex 2 23.9199 4.39
    endloop
  endfacet
  facet normal 0 -1 0
    outer loop
      vertex 2 13.96 0
      vertex 4 13.96 2
      vertex 2 13.96 2
    endloop
  endfacet
  facet normal 0 -1 -0
    outer loop
      vertex 4 13.96 2
      vertex 2 13.96 0
      vertex 4 13.96 0
    endloop
  endfacet
  facet normal 1 -0 0
    outer loop
      vertex 4 13.96 2
      vertex 4 23.9199 0
      vertex 4 23.9199 2
    endloop
  endfacet
  facet normal 1 0 0
    outer loop
      vertex 4 23.9199 0
      vertex 4 13.96 2
      vertex 4 13.96 0
    endloop
  endfacet
  facet normal 0 -1 0
    outer loop
      vertex 94 23.9199 0
      vertex 100 23.9199 2
      vertex 94 23.9199 2
    endloop
  endfacet
  facet normal 0 -1 -0
    outer loop
      vertex 100 23.9199 2
      vertex 94 23.9199 0
      vertex 100 23.9199 0
    endloop
  endfacet
  facet normal 0 -1 0
    outer loop
      vertex 84 23.9199 0
      vertex 90 23.9199 2
      vertex 84 23.9199 2
    endloop
  endfacet
  facet normal 0 -1 -0
    outer loop
      vertex 90 23.9199 2
      vertex 84 23.9199 0
      vertex 90 23.9199 0
    endloop
  endfacet
  facet normal 0 -1 0
    outer loop
      vertex 74 23.9199 0
      vertex 80 23.9199 2
      vertex 74 23.9199 2
    endloop
  endfacet
  facet normal 0 -1 -0
    outer loop
      vertex 80 23.9199 2
      vertex 74 23.9199 0
      vertex 80 23.9199 0
    endloop
  endfacet
  facet normal 0 -1 0
    outer loop
      vertex 64 23.9199 0
      vertex 70 23.9199 2
      vertex 64 23.9199 2
    endloop
  endfacet
  facet normal 0 -1 -0
    outer loop
      vertex 70 23.9199 2
      vertex 64 23.9199 0
      vertex 70 23.9199 0
    endloop
  endfacet
  facet normal 0 -1 0
    outer loop
      vertex 54 23.9199 0
      vertex 60 23.9199 2
      vertex 54 23.9199 2
    endloop
  endfacet
  facet normal 0 -1 -0
    outer loop
      vertex 60 23.9199 2
      vertex 54 23.9199 0
      vertex 60 23.9199 0
    endloop
  endfacet
  facet normal 0 -1 0
    outer loop
      vertex 44 23.9199 0
      vertex 50 23.9199 2
      vertex 44 23.9199 2
    endloop
  endfacet
  facet normal 0 -1 -0
    outer loop
      vertex 50 23.9199 2
      vertex 44 23.9199 0
      vertex 50 23.9199 0
    endloop
  endfacet
  facet normal 0 -1 0
    outer loop
      vertex 34 23.9199 0
      vertex 40 23.9199 2
      vertex 34 23.9199 2
    endloop
  endfacet
  facet normal 0 -1 -0
    outer loop
      vertex 40 23.9199 2
      vertex 34 23.9199 0
      vertex 40 23.9199 0
    endloop
  endfacet
  facet normal 0 -1 0
    outer loop
      vertex 24 23.9199 0
      vertex 30 23.9199 2
      vertex 24 23.9199 2
    endloop
  endfacet
  facet normal 0 -1 -0
    outer loop
      vertex 30 23.9199 2
      vertex 24 23.9199 0
      vertex 30 23.9199 0
    endloop
  endfacet
  facet normal 0 -1 0
    outer loop
      vertex 14 23.9199 0
      vertex 20 23.9199 2
      vertex 14 23.9199 2
    endloop
  endfacet
  facet normal 0 -1 -0
    outer loop
      vertex 20 23.9199 2
      vertex 14 23.9199 0
      vertex 20 23.9199 0
    endloop
  endfacet
  facet normal 0 -1 0
    outer loop
      vertex 4 23.9199 0
      vertex 10 23.9199 2
      vertex 4 23.9199 2
    endloop
  endfacet
  facet normal 0 -1 -0
    outer loop
      vertex 10 23.9199 2
      vertex 4 23.9199 0
      vertex 10 23.9199 0
    endloop
  endfacet
  facet normal 0 -1 0
    outer loop
      vertex 4 23.9199 2
      vertex 2 23.9199 4.39
      vertex 2 23.9199 2
    endloop
  endfacet
  facet normal 0 -1 0
    outer loop
      vertex 10 23.9199 2
      vertex 2 23.9199 4.39
      vertex 4 23.9199 2
    endloop
  endfacet
  facet normal 0 -1 0
    outer loop
      vertex 14 23.9199 2
      vertex 2 23.9199 4.39
      vertex 10 23.9199 2
    endloop
  endfacet
  facet normal 0 -1 0
    outer loop
      vertex 20 23.9199 2
      vertex 2 23.9199 4.39
      vertex 14 23.9199 2
    endloop
  endfacet
  facet normal 0 -1 0
    outer loop
      vertex 24 23.9199 2
      vertex 2 23.9199 4.39
      vertex 20 23.9199 2
    endloop
  endfacet
  facet normal 0 -1 0
    outer loop
      vertex 30 23.9199 2
      vertex 2 23.9199 4.39
      vertex 24 23.9199 2
    endloop
  endfacet
  facet normal 0 -1 0
    outer loop
      vertex 34 23.9199 2
      vertex 2 23.9199 4.39
      vertex 30 23.9199 2
    endloop
  endfacet
  facet normal 0 -1 0
    outer loop
      vertex 40 23.9199 2
      vertex 2 23.9199 4.39
      vertex 34 23.9199 2
    endloop
  endfacet
  facet normal 0 -1 0
    outer loop
      vertex 44 23.9199 2
      vertex 2 23.9199 4.39
      vertex 40 23.9199 2
    endloop
  endfacet
  facet normal 0 -1 0
    outer loop
      vertex 50 23.9199 2
      vertex 2 23.9199 4.39
      vertex 44 23.9199 2
    endloop
  endfacet
  facet normal 0 -1 0
    outer loop
      vertex 2 23.9199 4.39
      vertex 50 23.9199 2
      vertex 102 23.9199 4.39
    endloop
  endfacet
  facet normal 0 -1 0
    outer loop
      vertex 54 23.9199 2
      vertex 102 23.9199 4.39
      vertex 50 23.9199 2
    endloop
  endfacet
  facet normal 0 -1 0
    outer loop
      vertex 60 23.9199 2
      vertex 102 23.9199 4.39
      vertex 54 23.9199 2
    endloop
  endfacet
  facet normal 0 -1 0
    outer loop
      vertex 64 23.9199 2
      vertex 102 23.9199 4.39
      vertex 60 23.9199 2
    endloop
  endfacet
  facet normal 0 -1 0
    outer loop
      vertex 70 23.9199 2
      vertex 102 23.9199 4.39
      vertex 64 23.9199 2
    endloop
  endfacet
  facet normal 0 -1 0
    outer loop
      vertex 74 23.9199 2
      vertex 102 23.9199 4.39
      vertex 70 23.9199 2
    endloop
  endfacet
  facet normal 0 -1 0
    outer loop
      vertex 80 23.9199 2
      vertex 102 23.9199 4.39
      vertex 74 23.9199 2
    endloop
  endfacet
  facet normal 0 -1 0
    outer loop
      vertex 84 23.9199 2
      vertex 102 23.9199 4.39
      vertex 80 23.9199 2
    endloop
  endfacet
  facet normal 0 -1 0
    outer loop
      vertex 90 23.9199 2
      vertex 102 23.9199 4.39
      vertex 84 23.9199 2
    endloop
  endfacet
  facet normal 0 -1 0
    outer loop
      vertex 94 23.9199 2
      vertex 102 23.9199 4.39
      vertex 90 23.9199 2
    endloop
  endfacet
  facet normal 0 -1 0
    outer loop
      vertex 100 23.9199 2
      vertex 102 23.9199 4.39
      vertex 94 23.9199 2
    endloop
  endfacet
  facet normal 0 -1 -0
    outer loop
      vertex 102 23.9199 4.39
      vertex 100 23.9199 2
      vertex 102 23.9199 2
    endloop
  endfacet
  facet normal -1 0 0
    outer loop
      vertex 10 0 0
      vertex 10 23.9199 2
      vertex 10 23.9199 0
    endloop
  endfacet
  facet normal -1 -0 0
    outer loop
      vertex 10 23.9199 2
      vertex 10 0 0
      vertex 10 0 2
    endloop
  endfacet
  facet normal 0 1 -0
    outer loop
      vertex 10 0 0
      vertex 4 0 2
      vertex 10 0 2
    endloop
  endfacet
  facet normal 0 1 0
    outer loop
      vertex 4 0 2
      vertex 10 0 0
      vertex 4 0 0
    endloop
  endfacet
  facet normal 0 1 -0
    outer loop
      vertex 20 0 0
      vertex 14 0 2
      vertex 20 0 2
    endloop
  endfacet
  facet normal 0 1 0
    outer loop
      vertex 14 0 2
      vertex 20 0 0
      vertex 14 0 0
    endloop
  endfacet
  facet normal 0 1 -0
    outer loop
      vertex 30 0 0
      vertex 24 0 2
      vertex 30 0 2
    endloop
  endfacet
  facet normal 0 1 0
    outer loop
      vertex 24 0 2
      vertex 30 0 0
      vertex 24 0 0
    endloop
  endfacet
  facet normal 0 1 -0
    outer loop
      vertex 40 0 0
      vertex 34 0 2
      vertex 40 0 2
    endloop
  endfacet
  facet normal 0 1 0
    outer loop
      vertex 34 0 2
      vertex 40 0 0
      vertex 34 0 0
    endloop
  endfacet
  facet normal 0 1 -0
    outer loop
      vertex 50 0 0
      vertex 44 0 2
      vertex 50 0 2
    endloop
  endfacet
  facet normal 0 1 0
    outer loop
      vertex 44 0 2
      vertex 50 0 0
      vertex 44 0 0
    endloop
  endfacet
  facet normal 0 1 -0
    outer loop
      vertex 60 0 0
      vertex 54 0 2
      vertex 60 0 2
    endloop
  endfacet
  facet normal 0 1 0
    outer loop
      vertex 54 0 2
      vertex 60 0 0
      vertex 54 0 0
    endloop
  endfacet
  facet normal 0 1 -0
    outer loop
      vertex 70 0 0
      vertex 64 0 2
      vertex 70 0 2
    endloop
  endfacet
  facet normal 0 1 0
    outer loop
      vertex 64 0 2
      vertex 70 0 0
      vertex 64 0 0
    endloop
  endfacet
  facet normal 0 1 -0
    outer loop
      vertex 80 0 0
      vertex 74 0 2
      vertex 80 0 2
    endloop
  endfacet
  facet normal 0 1 0
    outer loop
      vertex 74 0 2
      vertex 80 0 0
      vertex 74 0 0
    endloop
  endfacet
  facet normal 0 1 -0
    outer loop
      vertex 90 0 0
      vertex 84 0 2
      vertex 90 0 2
    endloop
  endfacet
  facet normal 0 1 0
    outer loop
      vertex 84 0 2
      vertex 90 0 0
      vertex 84 0 0
    endloop
  endfacet
  facet normal 0 1 -0
    outer loop
      vertex 100 0 0
      vertex 94 0 2
      vertex 100 0 2
    endloop
  endfacet
  facet normal 0 1 0
    outer loop
      vertex 94 0 2
      vertex 100 0 0
      vertex 94 0 0
    endloop
  endfacet
  facet normal 0 1 0
    outer loop
      vertex 100 0 2
      vertex 102 0 4.39
      vertex 102 0 2
    endloop
  endfacet
  facet normal 0 1 0
    outer loop
      vertex 94 0 2
      vertex 102 0 4.39
      vertex 100 0 2
    endloop
  endfacet
  facet normal 0 1 0
    outer loop
      vertex 90 0 2
      vertex 102 0 4.39
      vertex 94 0 2
    endloop
  endfacet
  facet normal 0 1 0
    outer loop
      vertex 84 0 2
      vertex 102 0 4.39
      vertex 90 0 2
    endloop
  endfacet
  facet normal 0 1 0
    outer loop
      vertex 80 0 2
      vertex 102 0 4.39
      vertex 84 0 2
    endloop
  endfacet
  facet normal 0 1 0
    outer loop
      vertex 74 0 2
      vertex 102 0 4.39
      vertex 80 0 2
    endloop
  endfacet
  facet normal 0 1 0
    outer loop
      vertex 70 0 2
      vertex 102 0 4.39
      vertex 74 0 2
    endloop
  endfacet
  facet normal 0 1 0
    outer loop
      vertex 64 0 2
      vertex 102 0 4.39
      vertex 70 0 2
    endloop
  endfacet
  facet normal 0 1 0
    outer loop
      vertex 60 0 2
      vertex 102 0 4.39
      vertex 64 0 2
    endloop
  endfacet
  facet normal 0 1 0
    outer loop
      vertex 54 0 2
      vertex 102 0 4.39
      vertex 60 0 2
    endloop
  endfacet
  facet normal 0 1 0
    outer loop
      vertex 102 0 4.39
      vertex 54 0 2
      vertex 2 0 4.39
    endloop
  endfacet
  facet normal 0 1 -0
    outer loop
      vertex 50 0 2
      vertex 2 0 4.39
      vertex 54 0 2
    endloop
  endfacet
  facet normal 0 1 -0
    outer loop
      vertex 44 0 2
      vertex 2 0 4.39
      vertex 50 0 2
    endloop
  endfacet
  facet normal 0 1 -0
    outer loop
      vertex 40 0 2
      vertex 2 0 4.39
      vertex 44 0 2
    endloop
  endfacet
  facet normal 0 1 -0
    outer loop
      vertex 34 0 2
      vertex 2 0 4.39
      vertex 40 0 2
    endloop
  endfacet
  facet normal 0 1 -0
    outer loop
      vertex 30 0 2
      vertex 2 0 4.39
      vertex 34 0 2
    endloop
  endfacet
  facet normal 0 1 -0
    outer loop
      vertex 24 0 2
      vertex 2 0 4.39
      vertex 30 0 2
    endloop
  endfacet
  facet normal 0 1 -0
    outer loop
      vertex 20 0 2
      vertex 2 0 4.39
      vertex 24 0 2
    endloop
  endfacet
  facet normal 0 1 -0
    outer loop
      vertex 14 0 2
      vertex 2 0 4.39
      vertex 20 0 2
    endloop
  endfacet
  facet normal 0 1 -0
    outer loop
      vertex 10 0 2
      vertex 2 0 4.39
      vertex 14 0 2
    endloop
  endfacet
  facet normal 0 1 -0
    outer loop
      vertex 4 0 2
      vertex 2 0 4.39
      vertex 10 0 2
    endloop
  endfacet
  facet normal 0 1 0
    outer loop
      vertex 2 0 4.39
      vertex 4 0 2
      vertex 2 0 2
    endloop
  endfacet
  facet normal 1 -0 0
    outer loop
      vertex 4 0 2
      vertex 4 9.95996 0
      vertex 4 9.95996 2
    endloop
  endfacet
  facet normal 1 0 0
    outer loop
      vertex 4 9.95996 0
      vertex 4 0 2
      vertex 4 0 0
    endloop
  endfacet
  facet normal 0 1 -0
    outer loop
      vertex 4 9.95996 0
      vertex 2 9.95996 2
      vertex 4 9.95996 2
    endloop
  endfacet
  facet normal 0 1 0
    outer loop
      vertex 2 9.95996 2
      vertex 4 9.95996 0
      vertex 2 9.95996 0
    endloop
  endfacet
  facet normal -1 0 0
    outer loop
      vertex 2 9.95996 0
      vertex 2 0 2
      vertex 2 9.95996 2
    endloop
  endfacet
  facet normal -1 0 0
    outer loop
      vertex 2 0 2
      vertex 2 -1.5 2
      vertex 2 0 4.39
    endloop
  endfacet
  facet normal -1 0 0
    outer loop
      vertex 2 -10.79 0
      vertex 2 0 2
      vertex 2 9.95996 0
    endloop
  endfacet
  facet normal -1 -0 0
    outer loop
      vertex 2 0 2
      vertex 2 -10.79 0
      vertex 2 -1.5 2
    endloop
  endfacet
  facet normal -1 -0 0
    outer loop
      vertex 2 -1.5 2
      vertex 2 -10.79 0
      vertex 2 -10.79 2
    endloop
  endfacet
  facet normal -1 -0 0
    outer loop
      vertex 2 0 4.39
      vertex 2 -1.5 2
      vertex 2 -1.5 4.39
    endloop
  endfacet
  facet normal 0 -1 0
    outer loop
      vertex 2 -10.79 0
      vertex 4 -10.79 2
      vertex 2 -10.79 2
    endloop
  endfacet
  facet normal 0 -1 -0
    outer loop
      vertex 4 -10.79 2
      vertex 2 -10.79 0
      vertex 4 -10.79 0
    endloop
  endfacet
  facet normal 1 -0 0
    outer loop
      vertex 4 -10.79 2
      vertex 4 -1.5 0
      vertex 4 -1.5 2
    endloop
  endfacet
  facet normal 1 0 0
    outer loop
      vertex 4 -1.5 0
      vertex 4 -10.79 2
      vertex 4 -10.79 0
    endloop
  endfacet
  facet normal 1 -0 0
    outer loop
      vertex 94 0 2
      vertex 94 23.9199 0
      vertex 94 23.9199 2
    endloop
  endfacet
  facet normal 1 0 0
    outer loop
      vertex 94 23.9199 0
      vertex 94 0 2
      vertex 94 0 0
    endloop
  endfacet
  facet normal -1 0 0
    outer loop
      vertex 100 0 0
      vertex 100 23.9199 2
      vertex 100 23.9199 0
    endloop
  endfacet
  facet normal -1 -0 0
    outer loop
      vertex 100 23.9199 2
      vertex 100 0 0
      vertex 100 0 2
    endloop
  endfacet
  facet normal 1 -0 0
    outer loop
      vertex 14 0 2
      vertex 14 23.9199 0
      vertex 14 23.9199 2
    endloop
  endfacet
  facet normal 1 0 0
    outer loop
      vertex 14 23.9199 0
      vertex 14 0 2
      vertex 14 0 0
    endloop
  endfacet
  facet normal -1 0 0
    outer loop
      vertex 20 0 0
      vertex 20 23.9199 2
      vertex 20 23.9199 0
    endloop
  endfacet
  facet normal -1 -0 0
    outer loop
      vertex 20 23.9199 2
      vertex 20 0 0
      vertex 20 0 2
    endloop
  endfacet
  facet normal 1 -0 0
    outer loop
      vertex 24 0 2
      vertex 24 23.9199 0
      vertex 24 23.9199 2
    endloop
  endfacet
  facet normal 1 0 0
    outer loop
      vertex 24 23.9199 0
      vertex 24 0 2
      vertex 24 0 0
    endloop
  endfacet
  facet normal -1 0 0
    outer loop
      vertex 30 0 0
      vertex 30 23.9199 2
      vertex 30 23.9199 0
    endloop
  endfacet
  facet normal -1 -0 0
    outer loop
      vertex 30 23.9199 2
      vertex 30 0 0
      vertex 30 0 2
    endloop
  endfacet
  facet normal 1 -0 0
    outer loop
      vertex 34 0 2
      vertex 34 23.9199 0
      vertex 34 23.9199 2
    endloop
  endfacet
  facet normal 1 0 0
    outer loop
      vertex 34 23.9199 0
      vertex 34 0 2
      vertex 34 0 0
    endloop
  endfacet
  facet normal -1 0 0
    outer loop
      vertex 40 0 0
      vertex 40 23.9199 2
      vertex 40 23.9199 0
    endloop
  endfacet
  facet normal -1 -0 0
    outer loop
      vertex 40 23.9199 2
      vertex 40 0 0
      vertex 40 0 2
    endloop
  endfacet
  facet normal 1 -0 0
    outer loop
      vertex 44 0 2
      vertex 44 23.9199 0
      vertex 44 23.9199 2
    endloop
  endfacet
  facet normal 1 0 0
    outer loop
      vertex 44 23.9199 0
      vertex 44 0 2
      vertex 44 0 0
    endloop
  endfacet
  facet normal -1 0 0
    outer loop
      vertex 50 0 0
      vertex 50 23.9199 2
      vertex 50 23.9199 0
    endloop
  endfacet
  facet normal -1 -0 0
    outer loop
      vertex 50 23.9199 2
      vertex 50 0 0
      vertex 50 0 2
    endloop
  endfacet
  facet normal 1 -0 0
    outer loop
      vertex 54 0 2
      vertex 54 23.9199 0
      vertex 54 23.9199 2
    endloop
  endfacet
  facet normal 1 0 0
    outer loop
      vertex 54 23.9199 0
      vertex 54 0 2
      vertex 54 0 0
    endloop
  endfacet
  facet normal -1 0 0
    outer loop
      vertex 60 0 0
      vertex 60 23.9199 2
      vertex 60 23.9199 0
    endloop
  endfacet
  facet normal -1 -0 0
    outer loop
      vertex 60 23.9199 2
      vertex 60 0 0
      vertex 60 0 2
    endloop
  endfacet
  facet normal 1 -0 0
    outer loop
      vertex 64 0 2
      vertex 64 23.9199 0
      vertex 64 23.9199 2
    endloop
  endfacet
  facet normal 1 0 0
    outer loop
      vertex 64 23.9199 0
      vertex 64 0 2
      vertex 64 0 0
    endloop
  endfacet
  facet normal -1 0 0
    outer loop
      vertex 70 0 0
      vertex 70 23.9199 2
      vertex 70 23.9199 0
    endloop
  endfacet
  facet normal -1 -0 0
    outer loop
      vertex 70 23.9199 2
      vertex 70 0 0
      vertex 70 0 2
    endloop
  endfacet
  facet normal 1 -0 0
    outer loop
      vertex 74 0 2
      vertex 74 23.9199 0
      vertex 74 23.9199 2
    endloop
  endfacet
  facet normal 1 0 0
    outer loop
      vertex 74 23.9199 0
      vertex 74 0 2
      vertex 74 0 0
    endloop
  endfacet
  facet normal -1 0 0
    outer loop
      vertex 80 0 0
      vertex 80 23.9199 2
      vertex 80 23.9199 0
    endloop
  endfacet
  facet normal -1 -0 0
    outer loop
      vertex 80 23.9199 2
      vertex 80 0 0
      vertex 80 0 2
    endloop
  endfacet
  facet normal 1 -0 0
    outer loop
      vertex 84 0 2
      vertex 84 23.9199 0
      vertex 84 23.9199 2
    endloop
  endfacet
  facet normal 1 0 0
    outer loop
      vertex 84 23.9199 0
      vertex 84 0 2
      vertex 84 0 0
    endloop
  endfacet
  facet normal -1 0 0
    outer loop
      vertex 90 0 0
      vertex 90 23.9199 2
      vertex 90 23.9199 0
    endloop
  endfacet
  facet normal -1 -0 0
    outer loop
      vertex 90 23.9199 2
      vertex 90 0 0
      vertex 90 0 2
    endloop
  endfacet
  facet normal -0 0 1
    outer loop
      vertex 2 25.4199 4.39
      vertex 102 23.9199 4.39
      vertex 102 25.4199 4.39
    endloop
  endfacet
  facet normal 0 0 1
    outer loop
      vertex 102 23.9199 4.39
      vertex 2 25.4199 4.39
      vertex 2 23.9199 4.39
    endloop
  endfacet
  facet normal -0 0 1
    outer loop
      vertex 2 0 4.39
      vertex 102 -1.5 4.39
      vertex 102 0 4.39
    endloop
  endfacet
  facet normal 0 0 1
    outer loop
      vertex 102 -1.5 4.39
      vertex 2 0 4.39
      vertex 2 -1.5 4.39
    endloop
  endfacet
endsolid OpenSCAD_Model
