999
dxfrw 0.6.3
  0
SECTION
  2
HEADER
  9
$ACADVER
  1
AC1021
  9
$DWGCODEPAGE
  3
ANSI_1252
  9
$INSBASE
 10
0
 20
0
 30
0
  9
$EXTMIN
 10
10000000000
 20
10000000000
 30
0
  9
$EXTMAX
 10
-10000000000
 20
-10000000000
 30
0
  9
$LIMMIN
 10
0
 20
0
  9
$LIMMAX
 10
420
 20
297
  9
$ORTHOMODE
 70
    0
  9
$REGENMODE
 70
    1
  9
$FILLMODE
 70
    1
  9
$QTEXTMODE
 70
    0
  9
$MIRRTEXT
 70
    0
  9
$LTSCALE
 40
1
  9
$ATTMODE
 70
    0
  9
$TEXTSIZE
 40
2.5
  9
$TRACEWID
 40
15.68
  9
$TEXTSTYLE
  7
STANDARD
  9
$CLAYER
  8
0
  9
$CELTYPE
  6
BYLAYER
  9
$CECOLOR
 62
  256
  9
$CELTSCALE
 40
1
  9
$DISPSILH
 70
    0
  9
$DIMSCALE
 40
1
  9
$DIMASZ
 40
1
  9
$DIMEXO
 40
0.625
  9
$DIMDLI
 40
3.75
  9
$DIMRND
 40
0
  9
$DIMDLE
 40
0
  9
$DIMEXE
 40
1.25
  9
$DIMTP
 40
0
  9
$DIMTM
 40
0
  9
$DIMTXT
 40
1
  9
$DIMCEN
 40
2.5
  9
$DIMTSZ
 40
0
  9
$DIMTOL
 70
    0
  9
$DIMLIM
 70
    0
  9
$DIMTIH
 70
    0
  9
$DIMTOH
 70
    0
  9
$DIMSE1
 70
    0
  9
$DIMSE2
 70
    0
  9
$DIMTAD
 70
    1
  9
$DIMZIN
 70
    1
  9
$DIMBLK
  1

  9
$DIMASO
 70
    1
  9
$DIMSHO
 70
    1
  9
$DIMPOST
  1

  9
$DIMAPOST
  1

  9
$DIMALT
 70
    0
  9
$DIMALTD
 70
    3
  9
$DIMALTF
 40
0.03937
  9
$DIMLFAC
 40
1
  9
$DIMTOFL
 70
    1
  9
$DIMTVP
 40
0
  9
$DIMTIX
 70
    0
  9
$DIMSOXD
 70
    0
  9
$DIMSAH
 70
    0
  9
$DIMBLK1
  1

  9
$DIMBLK2
  1

  9
$DIMSTYLE
  2
STANDARD
  9
$DIMCLRD
 70
    0
  9
$DIMCLRE
 70
    0
  9
$DIMCLRT
 70
    0
  9
$DIMTFAC
 40
1
  9
$DIMGAP
 40
0.625
  9
$DIMJUST
 70
    0
  9
$DIMSD1
 70
    0
  9
$DIMSD2
 70
    0
  9
$DIMTOLJ
 70
    0
  9
$DIMTZIN
 70
    8
  9
$DIMALTZ
 70
    0
  9
$DIMALTTZ
 70
    0
  9
$DIMUPT
 70
    0
  9
$DIMDEC
 70
    2
  9
$DIMTDEC
 70
    2
  9
$DIMALTU
 70
    2
  9
$DIMALTTD
 70
    3
  9
$DIMTXSTY
  7
standard
  9
$DIMAUNIT
 70
    0
  9
$DIMADEC
 70
    2
  9
$DIMALTRND
 40
0
  9
$DIMAZIN
 70
    0
  9
$DIMDSEP
 70
    0
  9
$DIMATFIT
 70
    3
  9
$DIMFRAC
 70
    0
  9
$DIMLDRBLK
  1
STANDARD
  9
$DIMLUNIT
 70
    2
  9
$DIMLWD
 70
   -2
  9
$DIMLWE
 70
   -2
  9
$DIMTMOVE
 70
    0
  9
$DIMFXL
 40
1
  9
$DIMFXLON
 70
    0
  9
$DIMJOGANG
 40
0.7854
  9
$DIMTFILL
 70
    0
  9
$DIMTFILLCLR
 70
    0
  9
$DIMARCSYM
 70
    0
  9
$DIMLTYPE
  6

  9
$DIMLTEX1
  6

  9
$DIMLTEX2
  6

  9
$LUNITS
 70
    2
  9
$LUPREC
 70
    4
  9
$SKETCHINC
 40
1
  9
$FILLETRAD
 40
0
  9
$AUNITS
 70
    0
  9
$AUPREC
 70
    2
  9
$MENU
  1
.
  9
$ELEVATION
 40
0
  9
$PELEVATION
 40
0
  9
$THICKNESS
 40
0
  9
$LIMCHECK
 70
    0
  9
$CHAMFERA
 40
0
  9
$CHAMFERB
 40
0
  9
$CHAMFERC
 40
0
  9
$CHAMFERD
 40
0
  9
$SKPOLY
 70
    0
  9
$USRTIMER
 70
    1
  9
$ANGBASE
 50
0
  9
$ANGDIR
 70
    0
  9
$PDMODE
 70
   34
  9
$PDSIZE
 40
0
  9
$PLINEWID
 40
0
  9
$SPLFRAME
 70
    0
  9
$SPLINETYPE
 70
    2
  9
$SPLINESEGS
 70
    8
  9
$HANDSEED
  5
20000
  9
$SURFTAB1
 70
    6
  9
$SURFTAB2
 70
    6
  9
$SURFTYPE
 70
    6
  9
$SURFU
 70
    6
  9
$SURFV
 70
    6
  9
$UCSBASE
  2

  9
$UCSNAME
  2

  9
$UCSORG
 10
0
 20
0
 30
0
  9
$UCSXDIR
 10
1
 20
0
 30
0
  9
$UCSYDIR
 10
0
 20
1
 30
0
  9
$UCSORTHOREF
  2

  9
$UCSORTHOVIEW
 70
    0
  9
$UCSORGTOP
 10
0
 20
0
 30
0
  9
$UCSORGBOTTOM
 10
0
 20
0
 30
0
  9
$UCSORGLEFT
 10
0
 20
0
 30
0
  9
$UCSORGRIGHT
 10
0
 20
0
 30
0
  9
$UCSORGFRONT
 10
0
 20
0
 30
0
  9
$UCSORGBACK
 10
0
 20
0
 30
0
  9
$PUCSBASE
  2

  9
$PUCSNAME
  2

  9
$PUCSORG
 10
0
 20
0
 30
0
  9
$PUCSXDIR
 10
1
 20
0
 30
0
  9
$PUCSYDIR
 10
0
 20
1
 30
0
  9
$PUCSORTHOREF
  2

  9
$PUCSORTHOVIEW
 70
    0
  9
$PUCSORGTOP
 10
0
 20
0
 30
0
  9
$PUCSORGBOTTOM
 10
0
 20
0
 30
0
  9
$PUCSORGLEFT
 10
0
 20
0
 30
0
  9
$PUCSORGRIGHT
 10
0
 20
0
 30
0
  9
$PUCSORGFRONT
 10
0
 20
0
 30
0
  9
$PUCSORGBACK
 10
0
 20
0
 30
0
  9
$USERI1
 70
    0
  9
$USERI2
 70
    0
  9
$USERI3
 70
    0
  9
$USERI4
 70
    0
  9
$USERI5
 70
    0
  9
$USERR1
 40
0
  9
$USERR2
 40
0
  9
$USERR3
 40
0
  9
$USERR4
 40
0
  9
$USERR5
 40
0
  9
$WORLDVIEW
 70
    1
  9
$SHADEDGE
 70
    3
  9
$SHADEDIF
 70
   70
  9
$TILEMODE
 70
    1
  9
$MAXACTVP
 70
   64
  9
$PINSBASE
 10
0
 20
0
 30
0
  9
$PLIMCHECK
 70
    0
  9
$PEXTMIN
 10
0
 20
0
 30
0
  9
$PEXTMAX
 10
0
 20
0
 30
0
  9
$GRIDMODE
 70
    1
  9
$SNAPSTYLE
 70
    0
  9
$GRIDUNIT
 10
0
 20
0
  9
$PLIMMIN
 10
0
 20
0
  9
$PLIMMAX
 10
210
 20
297
  9
$UNITMODE
 70
    0
  9
$VISRETAIN
 70
    1
  9
$PLINEGEN
 70
    0
  9
$PSLTSCALE
 70
    1
  9
$TREEDEPTH
 70
 3020
  9
$CMLSTYLE
  2
Standard
  9
$CMLJUST
 70
    0
  9
$CMLSCALE
 40
20
  9
$PROXYGRAPHICS
 70
    1
  9
$MEASUREMENT
 70
    1
  9
$CELWEIGHT
370
   -1
  9
$ENDCAPS
280
    0
  9
$JOINSTYLE
280
    0
  9
$LWDISPLAY
290
    0
  9
$INSUNITS
 70
    4
  9
$HYPERLINKBASE
  1

  9
$STYLESHEET
  1

  9
$XEDIT
290
    1
  9
$CEPSNTYPE
380
    0
  9
$PSTYLEMODE
290
    1
  9
$EXTNAMES
290
    1
  9
$PSVPSCALE
 40
1
  9
$OLESTARTUP
290
    0
  9
$SORTENTS
280
  127
  9
$INDEXCTL
280
    0
  9
$HIDETEXT
280
    1
  9
$XCLIPFRAME
290
    0
  9
$HALOGAP
280
    0
  9
$OBSCOLOR
 70
  257
  9
$OBSLTYPE
280
    0
  9
$INTERSECTIONDISPLAY
280
    0
  9
$INTERSECTIONCOLOR
 70
  257
  9
$DIMASSOC
280
    1
  9
$PROJECTNAME
  1

  9
$CAMERADISPLAY
290
    0
  9
$LENSLENGTH
 40
50
  9
$CAMERAHEIGHT
 40
0
  9
$STEPSPERSEC
 40
2
  9
$STEPSIZE
 40
50
  9
$3DDWFPREC
 40
2
  9
$PSOLWIDTH
 40
5
  9
$PSOLHEIGHT
 40
80
  9
$LOFTANG1
 40
1.570796326794897
  9
$LOFTANG2
 40
1.570796326794897
  9
$LOFTMAG1
 40
0
  9
$LOFTMAG2
 40
0
  9
$LOFTPARAM
 70
    7
  9
$LOFTNORMALS
280
    1
  9
$LATITUDE
 40
1
  9
$LONGITUDE
 40
1
  9
$NORTHDIRECTION
 40
0
  9
$TIMEZONE
 70
-8000
  9
$LIGHTGLYPHDISPLAY
280
    1
  9
$TILEMODELIGHTSYNCH
280
    1
  9
$SOLIDHIST
280
    1
  9
$SHOWHIST
280
    1
  9
$DWFFRAME
280
    2
  9
$DGNFRAME
280
    0
  9
$REALWORLDSCALE
290
    1
  9
$INTERFERECOLOR
 62
    1
  9
$CSHADOW
280
    0
  9
$SHADOWPLANELOCATION
 40
0
  0
ENDSEC
  0
SECTION
  2
CLASSES
  0
ENDSEC
  0
SECTION
  2
TABLES
  0
TABLE
  2
VPORT
  5
8
330
0
100
AcDbSymbolTable
 70
    1
  0
VPORT
  5
31
330
2
100
AcDbSymbolTableRecord
100
AcDbViewportTableRecord
  2
*ACTIVE
 70
    0
 10
0
 20
0
 11
1
 21
1
 12
157.380095202276
 22
41.81813958231905
 13
0
 23
0
 14
10
 24
10
 15
10
 25
10
 16
0
 26
0
 36
1
 17
0
 27
0
 37
0
 40
183.0105678495038
 41
2.201474201474201
 42
50
 43
0
 44
0
 50
0
 51
0
 71
    0
 72
  100
 73
    1
 74
    3
 75
    0
 76
    1
 77
    0
 78
    0
281
    0
 65
    1
110
0
120
0
130
0
111
1
121
0
131
0
112
0
122
1
132
0
 79
    0
146
0
348
10020
 60
    7
 61
    5
292
1
282
    1
141
0
142
0
 63
  250
421
3358443
  0
ENDTAB
  0
TABLE
  2
LTYPE
  5
5
330
0
100
AcDbSymbolTable
 70
    4
  0
LTYPE
  5
14
330
5
100
AcDbSymbolTableRecord
100
AcDbLinetypeTableRecord
  2
ByBlock
 70
    0
  3

 72
   65
 73
    0
 40
0
  0
LTYPE
  5
15
330
5
100
AcDbSymbolTableRecord
100
AcDbLinetypeTableRecord
  2
ByLayer
 70
    0
  3

 72
   65
 73
    0
 40
0
  0
LTYPE
  5
16
330
5
100
AcDbSymbolTableRecord
100
AcDbLinetypeTableRecord
  2
Continuous
 70
    0
  3
Solid line
 72
   65
 73
    0
 40
0
  0
LTYPE
  5
32
330
5
100
AcDbSymbolTableRecord
100
AcDbLinetypeTableRecord
  2
DOT
 70
    0
  3
Dot . . . . . . . . . . . . . . . . . . . . . .
 72
   65
 73
    2
 40
6.35
 49
0
 74
    0
 49
-6.35
 74
    0
  0
LTYPE
  5
33
330
5
100
AcDbSymbolTableRecord
100
AcDbLinetypeTableRecord
  2
DOTTINY
 70
    0
  3
Dot (.15x) .....................................
 72
   65
 73
    2
 40
0.9525
 49
0
 74
    0
 49
-0.9525
 74
    0
  0
LTYPE
  5
34
330
5
100
AcDbSymbolTableRecord
100
AcDbLinetypeTableRecord
  2
DOT2
 70
    0
  3
Dot (.5x) .....................................
 72
   65
 73
    2
 40
3.175
 49
0
 74
    0
 49
-3.175
 74
    0
  0
LTYPE
  5
35
330
5
100
AcDbSymbolTableRecord
100
AcDbLinetypeTableRecord
  2
DOTX2
 70
    0
  3
Dot (2x) .  .  .  .  .  .  .  .  .  .  .  .  .
 72
   65
 73
    2
 40
12.7
 49
0
 74
    0
 49
-12.7
 74
    0
  0
LTYPE
  5
36
330
5
100
AcDbSymbolTableRecord
100
AcDbLinetypeTableRecord
  2
DASHED
 70
    0
  3
Dashed _ _ _ _ _ _ _ _ _ _ _ _ _ _ _ _ _
 72
   65
 73
    2
 40
19.05
 49
12.7
 74
    0
 49
-6.35
 74
    0
  0
LTYPE
  5
37
330
5
100
AcDbSymbolTableRecord
100
AcDbLinetypeTableRecord
  2
DASHEDTINY
 70
    0
  3
Dashed (.15x) _ _ _ _ _ _ _ _ _ _ _ _ _ _ _ _ _
 72
   65
 73
    2
 40
2.8575
 49
1.905
 74
    0
 49
-0.9525
 74
    0
  0
LTYPE
  5
38
330
5
100
AcDbSymbolTableRecord
100
AcDbLinetypeTableRecord
  2
DASHED2
 70
    0
  3
Dashed (.5x) _ _ _ _ _ _ _ _ _ _ _ _ _ _ _ _ _
 72
   65
 73
    2
 40
9.524999999999999
 49
6.35
 74
    0
 49
-3.175
 74
    0
  0
LTYPE
  5
39
330
5
100
AcDbSymbolTableRecord
100
AcDbLinetypeTableRecord
  2
DASHEDX2
 70
    0
  3
Dashed (2x) ____  ____  ____  ____  ____  ___
 72
   65
 73
    2
 40
38.09999999999999
 49
25.4
 74
    0
 49
-12.7
 74
    0
  0
LTYPE
  5
3A
330
5
100
AcDbSymbolTableRecord
100
AcDbLinetypeTableRecord
  2
DASHDOT
 70
    0
  3
Dash dot __ . __ . __ . __ . __ . __ . __ . __
 72
   65
 73
    4
 40
25.4
 49
12.7
 74
    0
 49
-6.35
 74
    0
 49
0
 74
    0
 49
-6.35
 74
    0
  0
LTYPE
  5
3B
330
5
100
AcDbSymbolTableRecord
100
AcDbLinetypeTableRecord
  2
DASHDOTTINY
 70
    0
  3
Dash dot (.15x) _._._._._._._._._._._._._._._.
 72
   65
 73
    4
 40
3.81
 49
1.905
 74
    0
 49
-0.9525
 74
    0
 49
0
 74
    0
 49
-0.9525
 74
    0
  0
LTYPE
  5
3C
330
5
100
AcDbSymbolTableRecord
100
AcDbLinetypeTableRecord
  2
DASHDOT2
 70
    0
  3
Dash dot (.5x) _._._._._._._._._._._._._._._.
 72
   65
 73
    4
 40
12.7
 49
6.35
 74
    0
 49
-3.175
 74
    0
 49
0
 74
    0
 49
-3.175
 74
    0
  0
LTYPE
  5
3D
330
5
100
AcDbSymbolTableRecord
100
AcDbLinetypeTableRecord
  2
DASHDOTX2
 70
    0
  3
Dash dot (2x) ____  .  ____  .  ____  .  ___
 72
   65
 73
    4
 40
50.8
 49
25.4
 74
    0
 49
-12.7
 74
    0
 49
0
 74
    0
 49
-12.7
 74
    0
  0
LTYPE
  5
3E
330
5
100
AcDbSymbolTableRecord
100
AcDbLinetypeTableRecord
  2
DIVIDE
 70
    0
  3
Divide ____ . . ____ . . ____ . . ____ . . ____
 72
   65
 73
    6
 40
31.75
 49
12.7
 74
    0
 49
-6.35
 74
    0
 49
0
 74
    0
 49
-6.35
 74
    0
 49
0
 74
    0
 49
-6.35
 74
    0
  0
LTYPE
  5
3F
330
5
100
AcDbSymbolTableRecord
100
AcDbLinetypeTableRecord
  2
DIVIDETINY
 70
    0
  3
Divide (.15x) __..__..__..__..__..__..__..__.._
 72
   65
 73
    6
 40
4.7625
 49
1.905
 74
    0
 49
-0.9525
 74
    0
 49
0
 74
    0
 49
-0.9525
 74
    0
 49
0
 74
    0
 49
-0.9525
 74
    0
  0
LTYPE
  5
40
330
5
100
AcDbSymbolTableRecord
100
AcDbLinetypeTableRecord
  2
DIVIDE2
 70
    0
  3
Divide (.5x) __..__..__..__..__..__..__..__.._
 72
   65
 73
    6
 40
15.875
 49
6.35
 74
    0
 49
-3.175
 74
    0
 49
0
 74
    0
 49
-3.175
 74
    0
 49
0
 74
    0
 49
-3.175
 74
    0
  0
LTYPE
  5
41
330
5
100
AcDbSymbolTableRecord
100
AcDbLinetypeTableRecord
  2
DIVIDEX2
 70
    0
  3
Divide (2x) ________  .  .  ________  .  .  _
 72
   65
 73
    6
 40
63.5
 49
25.4
 74
    0
 49
-12.7
 74
    0
 49
0
 74
    0
 49
-12.7
 74
    0
 49
0
 74
    0
 49
-12.7
 74
    0
  0
LTYPE
  5
42
330
5
100
AcDbSymbolTableRecord
100
AcDbLinetypeTableRecord
  2
BORDER
 70
    0
  3
Border __ __ . __ __ . __ __ . __ __ . __ __ .
 72
   65
 73
    6
 40
44.45
 49
12.7
 74
    0
 49
-6.35
 74
    0
 49
12.7
 74
    0
 49
-6.35
 74
    0
 49
0
 74
    0
 49
-6.35
 74
    0
  0
LTYPE
  5
43
330
5
100
AcDbSymbolTableRecord
100
AcDbLinetypeTableRecord
  2
BORDERTINY
 70
    0
  3
Border (.15x) __.__.__.__.__.__.__.__.__.__.__.
 72
   65
 73
    6
 40
6.6675
 49
1.905
 74
    0
 49
-0.9525
 74
    0
 49
1.905
 74
    0
 49
-0.9525
 74
    0
 49
0
 74
    0
 49
-0.9525
 74
    0
  0
LTYPE
  5
44
330
5
100
AcDbSymbolTableRecord
100
AcDbLinetypeTableRecord
  2
BORDER2
 70
    0
  3
Border (.5x) __.__.__.__.__.__.__.__.__.__.__.
 72
   65
 73
    6
 40
22.225
 49
6.35
 74
    0
 49
-3.175
 74
    0
 49
6.35
 74
    0
 49
-3.175
 74
    0
 49
0
 74
    0
 49
-3.175
 74
    0
  0
LTYPE
  5
45
330
5
100
AcDbSymbolTableRecord
100
AcDbLinetypeTableRecord
  2
BORDERX2
 70
    0
  3
Border (2x) ____  ____  .  ____  ____  .  ___
 72
   65
 73
    6
 40
88.89999999999999
 49
25.4
 74
    0
 49
-12.7
 74
    0
 49
25.4
 74
    0
 49
-12.7
 74
    0
 49
0
 74
    0
 49
-12.7
 74
    0
  0
LTYPE
  5
46
330
5
100
AcDbSymbolTableRecord
100
AcDbLinetypeTableRecord
  2
CENTER
 70
    0
  3
Center ____ _ ____ _ ____ _ ____ _ ____ _ ____
 72
   65
 73
    4
 40
50.8
 49
31.75
 74
    0
 49
-6.35
 74
    0
 49
6.35
 74
    0
 49
-6.35
 74
    0
  0
LTYPE
  5
47
330
5
100
AcDbSymbolTableRecord
100
AcDbLinetypeTableRecord
  2
CENTERTINY
 70
    0
  3
Center (.15x) ___ _ ___ _ ___ _ ___ _ ___ _ ___
 72
   65
 73
    4
 40
7.619999999999999
 49
4.7625
 74
    0
 49
-0.9525
 74
    0
 49
0.9525
 74
    0
 49
-0.9525
 74
    0
  0
LTYPE
  5
48
330
5
100
AcDbSymbolTableRecord
100
AcDbLinetypeTableRecord
  2
CENTER2
 70
    0
  3
Center (.5x) ___ _ ___ _ ___ _ ___ _ ___ _ ___
 72
   65
 73
    4
 40
28.575
 49
19.05
 74
    0
 49
-3.175
 74
    0
 49
3.175
 74
    0
 49
-3.175
 74
    0
  0
LTYPE
  5
49
330
5
100
AcDbSymbolTableRecord
100
AcDbLinetypeTableRecord
  2
CENTERX2
 70
    0
  3
Center (2x) ________  __  ________  __  _____
 72
   65
 73
    4
 40
101.6
 49
63.5
 74
    0
 49
-12.7
 74
    0
 49
12.7
 74
    0
 49
-12.7
 74
    0
  0
ENDTAB
  0
TABLE
  2
LAYER
  5
2
330
0
100
AcDbSymbolTable
 70
    1
  0
LAYER
  5
10
330
2
100
AcDbSymbolTableRecord
100
AcDbLayerTableRecord
  2
0
 70
    5
 62
    7
  6
CONTINUOUS
370
    0
390
F
  0
LAYER
  5
4A
330
2
100
AcDbSymbolTableRecord
100
AcDbLayerTableRecord
  2
aiguillages
 70
    1
 62
    7
  6
CONTINUOUS
370
    0
390
F
  0
LAYER
  5
4B
330
2
100
AcDbSymbolTableRecord
100
AcDbLayerTableRecord
  2
cotes
 70
    5
 62
    7
  6
CONTINUOUS
370
    0
390
F
  0
LAYER
  5
4C
330
2
100
AcDbSymbolTableRecord
100
AcDbLayerTableRecord
  2
courbes-rails
 70
    0
 62
    7
  6
CONTINUOUS
370
    0
390
F
  0
LAYER
  5
4D
330
2
100
AcDbSymbolTableRecord
100
AcDbLayerTableRecord
  2
courbes-traverses
 70
    4
 62
    7
  6
CONTINUOUS
370
    0
390
F
  0
LAYER
  5
4E
330
2
100
AcDbSymbolTableRecord
100
AcDbLayerTableRecord
  2
fix-rails
 70
    5
 62
    7
  6
CONTINUOUS
370
    0
390
F
  0
LAYER
  5
4F
330
2
100
AcDbSymbolTableRecord
100
AcDbLayerTableRecord
  2
fix-traverses
 70
    5
 62
    7
  6
CONTINUOUS
370
    0
390
F
  0
LAYER
  5
50
330
2
100
AcDbSymbolTableRecord
100
AcDbLayerTableRecord
  2
fix2-rails
 70
    5
 62
    7
  6
CONTINUOUS
370
    0
390
F
  0
LAYER
  5
51
330
2
100
AcDbSymbolTableRecord
100
AcDbLayerTableRecord
  2
fix2-traverses
 70
    5
 62
    7
  6
CONTINUOUS
370
    0
390
F
  0
LAYER
  5
52
330
2
100
AcDbSymbolTableRecord
100
AcDbLayerTableRecord
  2
grille
 70
    1
 62
    7
  6
CONTINUOUS
370
    0
390
F
  0
LAYER
  5
53
330
2
100
AcDbSymbolTableRecord
100
AcDbLayerTableRecord
  2
rails
 70
    1
 62
    7
  6
CONTINUOUS
370
    0
390
F
  0
LAYER
  5
54
330
2
100
AcDbSymbolTableRecord
100
AcDbLayerTableRecord
  2
rails-courbes-reverse
 70
    5
 62
    7
  6
CONTINUOUS
370
    0
390
F
  0
LAYER
  5
55
330
2
100
AcDbSymbolTableRecord
100
AcDbLayerTableRecord
  2
rails-courbes-reverse2
 70
    5
 62
    7
  6
CONTINUOUS
370
    0
390
F
  0
LAYER
  5
56
330
2
100
AcDbSymbolTableRecord
100
AcDbLayerTableRecord
  2
traverses
 70
    1
 62
    7
  6
CONTINUOUS
370
    0
390
F
  0
ENDTAB
  0
TABLE
  2
STYLE
  5
3
330
0
100
AcDbSymbolTable
 70
    3
  0
STYLE
  5
57
330
2
100
AcDbSymbolTableRecord
100
AcDbTextStyleTableRecord
  2
Standard
 70
    0
 40
0
 41
1
 50
0
 71
    0
 42
1
  3
txt
  4

  0
ENDTAB
  0
TABLE
  2
VIEW
  5
6
330
0
100
AcDbSymbolTable
 70
    0
  0
ENDTAB
  0
TABLE
  2
UCS
  5
7
330
0
100
AcDbSymbolTable
 70
    0
  0
ENDTAB
  0
TABLE
  2
APPID
  5
9
330
0
100
AcDbSymbolTable
 70
    1
  0
APPID
  5
12
330
9
100
AcDbSymbolTableRecord
100
AcDbRegAppTableRecord
  2
ACAD
 70
    0
  0
APPID
  5
58
330
9
100
AcDbSymbolTableRecord
100
AcDbRegAppTableRecord
  2
LibreCad
 70
    0
  0
ENDTAB
  0
TABLE
  2
DIMSTYLE
  5
A
330
0
100
AcDbSymbolTable
 70
    1
100
AcDbDimStyleTable
 71
    1
  0
DIMSTYLE
105
59
330
A
100
AcDbSymbolTableRecord
100
AcDbDimStyleTableRecord
  2
Standard
 70
    0
 40
1
 41
1
 42
0.625
 43
0.38
 44
1.25
 45
0
 46
0
 47
0
 48
0
 49
1
140
1
141
0.09
142
0
143
25.4
144
1
145
0
146
1
147
0.625
148
0
 71
    0
 72
    0
 73
    0
 74
    1
 75
    0
 76
    0
 77
    0
 78
    1
 79
    0
170
    0
171
    2
172
    0
173
    0
174
    0
175
    0
176
    0
177
    0
178
    0
179
    2
271
    2
272
    4
273
    2
274
    2
275
    0
276
    0
277
    2
278
    0
279
    0
280
    0
281
    0
282
    0
283
    1
284
    0
285
    0
286
    0
288
    0
289
    3
340
standard
341

371
   -2
372
   -2
  0
ENDTAB
  0
TABLE
  2
BLOCK_RECORD
  5
1
330
0
100
AcDbSymbolTable
 70
    2
  0
BLOCK_RECORD
  5
1F
330
1
100
AcDbSymbolTableRecord
100
AcDbBlockTableRecord
  2
*Model_Space
 70
    0
280
    1
281
    0
  0
BLOCK_RECORD
  5
1E
330
1
100
AcDbSymbolTableRecord
100
AcDbBlockTableRecord
  2
*Paper_Space
 70
    0
280
    1
281
    0
  0
BLOCK_RECORD
  5
5A
330
1
100
AcDbSymbolTableRecord
100
AcDbBlockTableRecord
  2
*D8
 70
    0
280
    1
281
    0
  0
BLOCK_RECORD
  5
5D
330
1
100
AcDbSymbolTableRecord
100
AcDbBlockTableRecord
  2
*D6
 70
    0
280
    1
281
    0
  0
BLOCK_RECORD
  5
60
330
1
100
AcDbSymbolTableRecord
100
AcDbBlockTableRecord
  2
*D7
 70
    0
280
    1
281
    0
  0
BLOCK_RECORD
  5
63
330
1
100
AcDbSymbolTableRecord
100
AcDbBlockTableRecord
  2
*D5
 70
    0
280
    1
281
    0
  0
BLOCK_RECORD
  5
66
330
1
100
AcDbSymbolTableRecord
100
AcDbBlockTableRecord
  2
*D4
 70
    0
280
    1
281
    0
  0
BLOCK_RECORD
  5
69
330
1
100
AcDbSymbolTableRecord
100
AcDbBlockTableRecord
  2
*D3
 70
    0
280
    1
281
    0
  0
BLOCK_RECORD
  5
6C
330
1
100
AcDbSymbolTableRecord
100
AcDbBlockTableRecord
  2
*D2
 70
    0
280
    1
281
    0
  0
BLOCK_RECORD
  5
6F
330
1
100
AcDbSymbolTableRecord
100
AcDbBlockTableRecord
  2
*D1
 70
    0
280
    1
281
    0
  0
ENDTAB
  0
ENDSEC
  0
SECTION
  2
BLOCKS
  0
BLOCK
  5
20
330
1F
100
AcDbEntity
  8
0
100
AcDbBlockBegin
  2
*Model_Space
 70
    0
 10
0
 20
0
 30
0
  3
*Model_Space
  1

  0
ENDBLK
  5
21
330
1F
100
AcDbEntity
  8
0
100
AcDbBlockEnd
  0
BLOCK
  5
1C
330
1B
100
AcDbEntity
  8
0
100
AcDbBlockBegin
  2
*Paper_Space
 70
    0
 10
0
 20
0
 30
0
  3
*Paper_Space
  1

  0
ENDBLK
  5
1D
330
1F
100
AcDbEntity
  8
0
100
AcDbBlockEnd
  0
BLOCK
  5
5B
330
5A
100
AcDbEntity
  8
0
100
AcDbBlockBegin
  2
*D8
 70
    1
 10
0
 20
0
  3
*D8
  1

  0
LINE
  5
72
100
AcDbEntity
  8
cotes
  6
ByBlock
 62
    0
370
   -2
100
AcDbLine
 10
-3.2273585313536
 20
2
 11
-3.2273585313536
 21
4.500000000000002
  0
SOLID
  5
73
100
AcDbEntity
  8
cotes
  6
ByBlock
 62
    0
370
   -2
100
AcDbTrace
 10
-3.2273585313536
 20
2
 30
0
 11
-3.393872394462736
 21
3
 31
0
 12
-3.060844668244464
 22
3
 32
0
 13
-3.060844668244464
 23
3
 33
0
  0
SOLID
  5
74
100
AcDbEntity
  8
cotes
  6
ByBlock
 62
    0
370
   -2
100
AcDbTrace
 10
-3.2273585313536
 20
4.500000000000002
 30
0
 11
-3.060844668244464
 21
3.500000000000002
 31
0
 12
-3.393872394462736
 22
3.500000000000002
 32
0
 13
-3.393872394462736
 23
3.500000000000002
 33
0
  0
MTEXT
  5
75
100
AcDbEntity
  8
cotes
  6
CONTINUOUS
 62
    0
370
   -2
100
AcDbMText
 10
-4.3523585313536
 20
3.250000000000001
 30
0
 40
1
 41
2.333333333333396
 71
    5
 72
    1
  1
2.50
  7
standard
210
0
220
0
230
1
 50
90
 73
    2
 44
1
  0
LINE
  5
76
100
AcDbEntity
  8
cotes
  6
ByBlock
 62
    0
370
   -2
100
AcDbLine
 10
-0.6249999999999999
 20
2
 11
-4.4773585313536
 21
2
  0
LINE
  5
77
100
AcDbEntity
  8
cotes
  6
ByBlock
 62
    0
370
   -2
100
AcDbLine
 10
8.664999999999999
 20
4.500000000000001
 11
-4.4773585313536
 21
4.500000000000002
  0
ENDBLK
  5
5C
330
5A
100
AcDbEntity
  8
0
100
AcDbBlockEnd
  0
BLOCK
  5
5E
330
5D
100
AcDbEntity
  8
0
100
AcDbBlockBegin
  2
*D6
 70
    1
 10
0
 20
0
  3
*D6
  1

  0
LINE
  5
78
100
AcDbEntity
  8
cotes
  6
ByBlock
 62
    0
370
   -2
100
AcDbLine
 10
0
 20
9.828773709122331
 11
45.5
 21
9.828773709122331
  0
SOLID
  5
79
100
AcDbEntity
  8
cotes
  6
ByBlock
 62
    0
370
   -2
100
AcDbTrace
 10
0
 20
9.828773709122331
 30
0
 11
1
 21
9.995287572231467
 31
0
 12
1
 22
9.662259846013194
 32
0
 13
1
 23
9.662259846013194
 33
0
  0
SOLID
  5
7A
100
AcDbEntity
  8
cotes
  6
ByBlock
 62
    0
370
   -2
100
AcDbTrace
 10
45.5
 20
9.828773709122331
 30
0
 11
44.5
 21
9.662259846013194
 31
0
 12
44.5
 22
9.995287572231467
 32
0
 13
44.5
 23
9.995287572231467
 33
0
  0
MTEXT
  5
7B
100
AcDbEntity
  8
cotes
  6
CONTINUOUS
 62
    0
370
   -2
100
AcDbMText
 10
22.75
 20
10.95377370912233
 30
0
 40
1
 41
3.222222222222346
 71
    5
 72
    1
  1
45.50
  7
standard
210
0
220
0
230
1
 50
0
 73
    2
 44
1
  0
LINE
  5
7C
100
AcDbEntity
  8
cotes
  6
ByBlock
 62
    0
370
   -2
100
AcDbLine
 10
1.607348923880901e-16
 20
2.625
 11
7.654042494670958e-17
 21
11.07877370912233
  0
LINE
  5
7D
100
AcDbEntity
  8
cotes
  6
ByBlock
 62
    0
370
   -2
100
AcDbLine
 10
45.5
 20
2.625000000000003
 11
45.5
 21
11.07877370912233
  0
ENDBLK
  5
5F
330
5D
100
AcDbEntity
  8
0
100
AcDbBlockEnd
  0
BLOCK
  5
61
330
60
100
AcDbEntity
  8
0
100
AcDbBlockBegin
  2
*D7
 70
    1
 10
0
 20
0
  3
*D7
  1

  0
LINE
  5
7E
100
AcDbEntity
  8
cotes
  6
ByBlock
 62
    0
370
   -2
100
AcDbLine
 10
-6.014622717522623
 20
-2
 11
-6.014622717522623
 21
4
  0
SOLID
  5
7F
100
AcDbEntity
  8
cotes
  6
ByBlock
 62
    0
370
   -2
100
AcDbTrace
 10
-6.014622717522623
 20
0
 30
0
 11
-5.848108854413486
 21
-1
 31
0
 12
-6.181136580631759
 22
-1
 32
0
 13
-6.181136580631759
 23
-1
 33
0
  0
SOLID
  5
80
100
AcDbEntity
  8
cotes
  6
ByBlock
 62
    0
370
   -2
100
AcDbTrace
 10
-6.014622717522623
 20
2
 30
0
 11
-6.181136580631759
 21
3
 31
0
 12
-5.848108854413486
 22
3
 32
0
 13
-5.848108854413486
 23
3
 33
0
  0
MTEXT
  5
81
100
AcDbEntity
  8
cotes
  6
CONTINUOUS
 62
    0
370
   -2
100
AcDbMText
 10
-7.139622717522623
 20
3.791666666666667
 30
0
 40
1
 41
2.333333333333333
 71
    5
 72
    1
  1
2.00
  7
standard
210
0
220
0
230
1
 50
90
 73
    2
 44
1
  0
LINE
  5
82
100
AcDbEntity
  8
cotes
  6
ByBlock
 62
    0
370
   -2
100
AcDbLine
 10
-0.625
 20
7.654042494670958e-17
 11
-7.264622717522623
 21
1.530808498934192e-16
  0
LINE
  5
83
100
AcDbEntity
  8
cotes
  6
ByBlock
 62
    0
370
   -2
100
AcDbLine
 10
-0.6249999999999999
 20
2
 11
-7.264622717522623
 21
2
  0
ENDBLK
  5
62
330
60
100
AcDbEntity
  8
0
100
AcDbBlockEnd
  0
BLOCK
  5
64
330
63
100
AcDbEntity
  8
0
100
AcDbBlockBegin
  2
*D5
 70
    1
 10
0
 20
0
  3
*D5
  1

  0
LINE
  5
84
100
AcDbEntity
  8
cotes
  6
ByBlock
 62
    0
370
   -2
100
AcDbLine
 10
36.21
 20
5.941273659991856
 11
45.5
 21
5.941273659991856
  0
SOLID
  5
85
100
AcDbEntity
  8
cotes
  6
ByBlock
 62
    0
370
   -2
100
AcDbTrace
 10
36.21
 20
5.941273659991856
 30
0
 11
37.21
 21
6.107787523100992
 31
0
 12
37.21
 22
5.774759796882719
 32
0
 13
37.21
 23
5.774759796882719
 33
0
  0
SOLID
  5
86
100
AcDbEntity
  8
cotes
  6
ByBlock
 62
    0
370
   -2
100
AcDbTrace
 10
45.5
 20
5.941273659991856
 30
0
 11
44.5
 21
5.774759796882719
 31
0
 12
44.5
 22
6.107787523100992
 32
0
 13
44.5
 23
6.107787523100992
 33
0
  0
MTEXT
  5
87
100
AcDbEntity
  8
cotes
  6
CONTINUOUS
 62
    0
370
   -2
100
AcDbMText
 10
40.855
 20
7.066273659991856
 30
0
 40
1
 41
2.333333333333395
 71
    5
 72
    1
  1
9.29
  7
standard
210
0
220
0
230
1
 50
0
 73
    2
 44
1
  0
LINE
  5
88
100
AcDbEntity
  8
cotes
  6
ByBlock
 62
    0
370
   -2
100
AcDbLine
 10
36.21
 20
5.125000000000009
 11
36.21
 21
7.191273659991856
  0
LINE
  5
89
100
AcDbEntity
  8
cotes
  6
ByBlock
 62
    0
370
   -2
100
AcDbLine
 10
45.5
 20
2.625000000000003
 11
45.5
 21
7.191273659991856
  0
ENDBLK
  5
65
330
63
100
AcDbEntity
  8
0
100
AcDbBlockEnd
  0
BLOCK
  5
67
330
66
100
AcDbEntity
  8
0
100
AcDbBlockBegin
  2
*D4
 70
    1
 10
0
 20
0
  3
*D4
  1

  0
LINE
  5
8A
100
AcDbEntity
  8
cotes
  6
ByBlock
 62
    0
370
   -2
100
AcDbLine
 10
32.71
 20
5.941273659991857
 11
38.21
 21
5.941273659991857
  0
SOLID
  5
8B
100
AcDbEntity
  8
cotes
  6
ByBlock
 62
    0
370
   -2
100
AcDbTrace
 10
34.71
 20
5.941273659991857
 30
0
 11
33.71
 21
5.774759796882721
 31
0
 12
33.71
 22
6.107787523100994
 32
0
 13
33.71
 23
6.107787523100994
 33
0
  0
SOLID
  5
8C
100
AcDbEntity
  8
cotes
  6
ByBlock
 62
    0
370
   -2
100
AcDbTrace
 10
36.21
 20
5.941273659991857
 30
0
 11
37.21
 21
6.107787523100994
 31
0
 12
37.21
 22
5.774759796882721
 32
0
 13
37.21
 23
5.774759796882721
 33
0
  0
MTEXT
  5
8D
100
AcDbEntity
  8
cotes
  6
CONTINUOUS
 62
    0
370
   -2
100
AcDbMText
 10
37.89055555555559
 20
7.066273659991857
 30
0
 40
1
 41
2.111111111111173
 71
    5
 72
    1
  1
1.50
  7
standard
210
0
220
0
230
1
 50
0
 73
    2
 44
1
  0
LINE
  5
8E
100
AcDbEntity
  8
cotes
  6
ByBlock
 62
    0
370
   -2
100
AcDbLine
 10
34.71
 20
5.125000000000008
 11
34.71
 21
7.191273659991857
  0
LINE
  5
8F
100
AcDbEntity
  8
cotes
  6
ByBlock
 62
    0
370
   -2
100
AcDbLine
 10
36.21
 20
5.125000000000009
 11
36.21
 21
7.191273659991857
  0
ENDBLK
  5
68
330
66
100
AcDbEntity
  8
0
100
AcDbBlockEnd
  0
BLOCK
  5
6A
330
69
100
AcDbEntity
  8
0
100
AcDbBlockBegin
  2
*D3
 70
    1
 10
0
 20
0
  3
*D3
  1

  0
LINE
  5
90
100
AcDbEntity
  8
cotes
  6
ByBlock
 62
    0
370
   -2
100
AcDbLine
 10
10.79
 20
5.941273659991857
 11
34.71
 21
5.941273659991857
  0
SOLID
  5
91
100
AcDbEntity
  8
cotes
  6
ByBlock
 62
    0
370
   -2
100
AcDbTrace
 10
10.79
 20
5.941273659991857
 30
0
 11
11.79
 21
6.107787523100994
 31
0
 12
11.79
 22
5.774759796882721
 32
0
 13
11.79
 23
5.774759796882721
 33
0
  0
SOLID
  5
92
100
AcDbEntity
  8
cotes
  6
ByBlock
 62
    0
370
   -2
100
AcDbTrace
 10
34.71
 20
5.941273659991857
 30
0
 11
33.71
 21
5.774759796882721
 31
0
 12
33.71
 22
6.107787523100994
 32
0
 13
33.71
 23
6.107787523100994
 33
0
  0
MTEXT
  5
93
100
AcDbEntity
  8
cotes
  6
CONTINUOUS
 62
    0
370
   -2
100
AcDbMText
 10
22.75
 20
7.066273659991857
 30
0
 40
1
 41
3.111111111111173
 71
    5
 72
    1
  1
23.92
  7
standard
210
0
220
0
230
1
 50
0
 73
    2
 44
1
  0
LINE
  5
94
100
AcDbEntity
  8
cotes
  6
ByBlock
 62
    0
370
   -2
100
AcDbLine
 10
10.79
 20
5.125000000000001
 11
10.79
 21
7.191273659991857
  0
LINE
  5
95
100
AcDbEntity
  8
cotes
  6
ByBlock
 62
    0
370
   -2
100
AcDbLine
 10
34.71
 20
5.125000000000008
 11
34.71
 21
7.191273659991857
  0
ENDBLK
  5
6B
330
69
100
AcDbEntity
  8
0
100
AcDbBlockEnd
  0
BLOCK
  5
6D
330
6C
100
AcDbEntity
  8
0
100
AcDbBlockBegin
  2
*D2
 70
    1
 10
0
 20
0
  3
*D2
  1

  0
LINE
  5
96
100
AcDbEntity
  8
cotes
  6
ByBlock
 62
    0
370
   -2
100
AcDbLine
 10
7.289999999999999
 20
5.941273659991858
 11
12.79
 21
5.941273659991858
  0
SOLID
  5
97
100
AcDbEntity
  8
cotes
  6
ByBlock
 62
    0
370
   -2
100
AcDbTrace
 10
9.289999999999999
 20
5.941273659991858
 30
0
 11
8.289999999999999
 21
5.774759796882722
 31
0
 12
8.289999999999999
 22
6.107787523100995
 32
0
 13
8.289999999999999
 23
6.107787523100995
 33
0
  0
SOLID
  5
98
100
AcDbEntity
  8
cotes
  6
ByBlock
 62
    0
370
   -2
100
AcDbTrace
 10
10.79
 20
5.941273659991858
 30
0
 11
11.79
 21
6.107787523100995
 31
0
 12
11.79
 22
5.774759796882722
 32
0
 13
11.79
 23
5.774759796882722
 33
0
  0
MTEXT
  5
99
100
AcDbEntity
  8
cotes
  6
CONTINUOUS
 62
    0
370
   -2
100
AcDbMText
 10
12.47055555555558
 20
7.066273659991858
 30
0
 40
1
 41
2.111111111111173
 71
    5
 72
    1
  1
1.50
  7
standard
210
0
220
0
230
1
 50
0
 73
    2
 44
1
  0
LINE
  5
9A
100
AcDbEntity
  8
cotes
  6
ByBlock
 62
    0
370
   -2
100
AcDbLine
 10
9.289999999999999
 20
5.125000000000001
 11
9.289999999999999
 21
7.191273659991858
  0
LINE
  5
9B
100
AcDbEntity
  8
cotes
  6
ByBlock
 62
    0
370
   -2
100
AcDbLine
 10
10.79
 20
5.125000000000001
 11
10.79
 21
7.191273659991858
  0
ENDBLK
  5
6E
330
6C
100
AcDbEntity
  8
0
100
AcDbBlockEnd
  0
BLOCK
  5
70
330
6F
100
AcDbEntity
  8
0
100
AcDbBlockBegin
  2
*D1
 70
    1
 10
0
 20
0
  3
*D1
  1

  0
LINE
  5
9C
100
AcDbEntity
  8
cotes
  6
ByBlock
 62
    0
370
   -2
100
AcDbLine
 10
0
 20
5.941273659991859
 11
9.289999999999999
 21
5.941273659991859
  0
SOLID
  5
9D
100
AcDbEntity
  8
cotes
  6
ByBlock
 62
    0
370
   -2
100
AcDbTrace
 10
0
 20
5.941273659991859
 30
0
 11
1
 21
6.107787523100995
 31
0
 12
1
 22
5.774759796882723
 32
0
 13
1
 23
5.774759796882723
 33
0
  0
SOLID
  5
9E
100
AcDbEntity
  8
cotes
  6
ByBlock
 62
    0
370
   -2
100
AcDbTrace
 10
9.289999999999999
 20
5.941273659991859
 30
0
 11
8.289999999999999
 21
5.774759796882723
 31
0
 12
8.289999999999999
 22
6.107787523100995
 32
0
 13
8.289999999999999
 23
6.107787523100995
 33
0
  0
MTEXT
  5
9F
100
AcDbEntity
  8
cotes
  6
CONTINUOUS
 62
    0
370
   -2
100
AcDbMText
 10
4.645
 20
7.066273659991859
 30
0
 40
1
 41
2.333333333333395
 71
    5
 72
    1
  1
9.29
  7
standard
210
0
220
0
230
1
 50
0
 73
    2
 44
1
  0
LINE
  5
A0
100
AcDbEntity
  8
cotes
  6
ByBlock
 62
    0
370
   -2
100
AcDbLine
 10
1.607348923880901e-16
 20
2.625
 11
7.654042494670958e-17
 21
7.191273659991859
  0
LINE
  5
A1
100
AcDbEntity
  8
cotes
  6
ByBlock
 62
    0
370
   -2
100
AcDbLine
 10
9.289999999999999
 20
2.625
 11
9.289999999999999
 21
7.191273659991859
  0
ENDBLK
  5
71
330
6F
100
AcDbEntity
  8
0
100
AcDbBlockEnd
  0
ENDSEC
  0
SECTION
  2
ENTITIES
  0
HATCH
  5
A2
100
AcDbEntity
  8
cotes
  6
ByLayer
 62
  256
370
   -1
100
AcDbHatch
 10
0
 20
0
 30
0
210
0
220
0
230
1
  2
SOLID
 70
    1
 71
    0
 91
    1
 92
    0
 93
   12
 72
    1
 10
0
 20
0
 11
45.5
 21
2.786071468060229e-15
 72
    1
 10
45.5
 20
2.786071468060229e-15
 11
45.5
 21
2.000000000000003
 72
    1
 10
45.5
 20
2.000000000000003
 11
36.21
 21
2.000000000000003
 72
    1
 10
36.21
 20
2.000000000000003
 11
36.21
 21
4.500000000000009
 72
    1
 10
36.21
 20
4.500000000000009
 11
34.71
 21
4.500000000000008
 72
    1
 10
34.71
 20
4.500000000000008
 11
34.71
 21
2.000000000000008
 72
    1
 10
34.71
 20
2.000000000000008
 11
10.79
 21
2.000000000000001
 72
    1
 10
10.79
 20
2.000000000000001
 11
10.79
 21
4.500000000000001
 72
    1
 10
10.79
 20
4.500000000000001
 11
9.289999999999999
 21
4.500000000000001
 72
    1
 10
9.289999999999999
 20
4.500000000000001
 11
9.289999999999999
 21
2
 72
    1
 10
9.289999999999999
 20
2
 11
1.224646799147353e-16
 21
2
 72
    1
 10
1.224646799147353e-16
 20
2
 11
0
 21
0
 97
    0
 75
    0
 76
    1
 98
    0
  0
HATCH
  5
A3
100
AcDbEntity
  8
0
  6
ByLayer
 62
  256
370
   -1
100
AcDbHatch
 10
0
 20
0
 30
0
210
0
220
0
230
1
  2
SOLID
 70
    1
 71
    0
 91
    1
 92
    0
 93
  124
 72
    1
 10
2.03352600998418e-15
 20
33.21
 11
-3.354919906264174e-15
 21
-10.79
 72
    1
 10
-3.354919906264174e-15
 20
-10.79
 11
3.999999999999996
 21
-10.79
 72
    1
 10
3.999999999999996
 20
-10.79
 11
3.999999999999997
 21
-1.5
 72
    1
 10
3.999999999999997
 20
-1.5
 11
9.999999999999996
 21
-1.5
 72
    1
 10
9.999999999999996
 20
-1.5
 11
9.999999999999995
 21
-10.79
 72
    1
 10
9.999999999999995
 20
-10.79
 11
13.99999999999999
 21
-10.79
 72
    1
 10
13.99999999999999
 20
-10.79
 11
14
 21
-1.5
 72
    1
 10
14
 20
-1.5
 11
20
 21
-1.5
 72
    1
 10
20
 20
-1.5
 11
20
 21
-10.79
 72
    1
 10
20
 20
-10.79
 11
24
 21
-10.79
 72
    1
 10
24
 20
-10.79
 11
24
 21
-1.5
 72
    1
 10
24
 20
-1.5
 11
30
 21
-1.5
 72
    1
 10
30
 20
-1.5
 11
30
 21
-10.79
 72
    1
 10
30
 20
-10.79
 11
34
 21
-10.79
 72
    1
 10
34
 20
-10.79
 11
34
 21
-1.5
 72
    1
 10
34.00000000000001
 20
-1.5
 11
40
 21
-1.5
 72
    1
 10
40
 20
-1.5
 11
40
 21
-10.79
 72
    1
 10
40
 20
-10.79
 11
44
 21
-10.79
 72
    1
 10
44
 20
-10.79
 11
44
 21
-1.5
 72
    1
 10
44.00000000000001
 20
-1.5
 11
50
 21
-1.5
 72
    1
 10
50
 20
-1.5
 11
50
 21
-10.79
 72
    1
 10
50
 20
-10.79
 11
54
 21
-10.79
 72
    1
 10
54
 20
-10.79
 11
54
 21
-1.5
 72
    1
 10
54.00000000000001
 20
-1.5
 11
60
 21
-1.5
 72
    1
 10
60
 20
-1.5
 11
60
 21
-10.79
 72
    1
 10
60
 20
-10.79
 11
64
 21
-10.79
 72
    1
 10
64
 20
-10.79
 11
64
 21
-1.5
 72
    1
 10
64.00000000000001
 20
-1.5
 11
70.00000000000001
 21
-1.5
 72
    1
 10
70.00000000000001
 20
-1.5
 11
70.00000000000001
 21
-10.79
 72
    1
 10
70.00000000000001
 20
-10.79
 11
74.00000000000001
 21
-10.79
 72
    1
 10
74.00000000000001
 20
-10.79
 11
74.00000000000001
 21
-1.5
 72
    1
 10
74.00000000000001
 20
-1.5
 11
80.00000000000001
 21
-1.5
 72
    1
 10
80.00000000000001
 20
-1.5
 11
80.00000000000001
 21
-10.79
 72
    1
 10
80.00000000000001
 20
-10.79
 11
84.00000000000001
 21
-10.79
 72
    1
 10
84.00000000000001
 20
-10.79
 11
84.00000000000001
 21
-1.5
 72
    1
 10
84.00000000000001
 20
-1.5
 11
90.00000000000001
 21
-1.5
 72
    1
 10
90.00000000000001
 20
-1.5
 11
90.00000000000001
 21
-10.79
 72
    1
 10
90.00000000000001
 20
-10.79
 11
94.00000000000001
 21
-10.79
 72
    1
 10
94.00000000000001
 20
-10.79
 11
94.00000000000001
 21
-1.5
 72
    1
 10
94.00000000000001
 20
-1.5
 11
100
 21
-1.5
 72
    1
 10
100
 20
-1.5
 11
100
 21
-10.79
 72
    1
 10
100
 20
-10.79
 11
104
 21
-10.79
 72
    1
 10
104
 20
-10.79
 11
104
 21
33.21
 72
    1
 10
104
 20
33.21
 11
100
 21
33.21
 72
    1
 10
100
 20
33.21
 11
100
 21
23.92
 72
    1
 10
100
 20
23.92
 11
94.00000000000001
 21
23.92
 72
    1
 10
94.00000000000001
 20
23.92
 11
94.00000000000001
 21
33.21
 72
    1
 10
94.00000000000001
 20
33.21
 11
90.00000000000001
 21
33.21
 72
    1
 10
90.00000000000001
 20
33.21
 11
90.00000000000001
 21
23.92
 72
    1
 10
90.00000000000001
 20
23.92
 11
84.00000000000001
 21
23.92
 72
    1
 10
84.00000000000001
 20
23.92
 11
84.00000000000001
 21
33.21
 72
    1
 10
84.00000000000001
 20
33.21
 11
80.00000000000001
 21
33.21
 72
    1
 10
80.00000000000001
 20
33.21
 11
80.00000000000001
 21
23.92
 72
    1
 10
80.00000000000001
 20
23.92
 11
74.00000000000001
 21
23.92
 72
    1
 10
74.00000000000001
 20
23.92
 11
74.00000000000001
 21
33.21
 72
    1
 10
74.00000000000001
 20
33.21
 11
70.00000000000001
 21
33.21
 72
    1
 10
70.00000000000001
 20
33.21
 11
70.00000000000001
 21
23.92
 72
    1
 10
70.00000000000001
 20
23.92
 11
64.00000000000001
 21
23.92
 72
    1
 10
64.00000000000001
 20
23.92
 11
64.00000000000001
 21
33.21
 72
    1
 10
64.00000000000001
 20
33.21
 11
60.00000000000001
 21
33.21
 72
    1
 10
60.00000000000001
 20
33.21
 11
60.00000000000001
 21
23.92
 72
    1
 10
60.00000000000001
 20
23.92
 11
54.00000000000001
 21
23.92
 72
    1
 10
54.00000000000001
 20
23.92
 11
54.00000000000001
 21
33.21
 72
    1
 10
54.00000000000001
 20
33.21
 11
50.00000000000001
 21
33.21
 72
    1
 10
50.00000000000001
 20
33.21
 11
50.00000000000001
 21
23.92
 72
    1
 10
50.00000000000001
 20
23.92
 11
44.00000000000001
 21
23.92
 72
    1
 10
44.00000000000001
 20
23.92
 11
44.00000000000001
 21
33.21
 72
    1
 10
44.00000000000001
 20
33.21
 11
40.00000000000001
 21
33.21
 72
    1
 10
40.00000000000001
 20
33.21
 11
40.00000000000001
 21
23.92
 72
    1
 10
40.00000000000001
 20
23.92
 11
34.00000000000001
 21
23.92
 72
    1
 10
34.00000000000001
 20
23.92
 11
34.00000000000001
 21
33.21
 72
    1
 10
34.00000000000001
 20
33.21
 11
30.00000000000001
 21
33.21
 72
    1
 10
30.00000000000001
 20
33.21
 11
30
 21
23.92
 72
    1
 10
30
 20
23.92
 11
24
 21
23.92
 72
    1
 10
24
 20
23.92
 11
24
 21
33.21
 72
    1
 10
24
 20
33.21
 11
20
 21
33.21
 72
    1
 10
20
 20
33.21
 11
20
 21
23.92
 72
    1
 10
20
 20
23.92
 11
14
 21
23.92
 72
    1
 10
14
 20
23.92
 11
14
 21
33.21
 72
    1
 10
14
 20
33.21
 11
10
 21
33.21
 72
    1
 10
10
 20
33.21
 11
10
 21
23.92
 72
    1
 10
10
 20
23.92
 11
4
 21
23.92
 72
    1
 10
4
 20
23.92
 11
4.000000000000002
 21
33.21
 72
    1
 10
4.000000000000002
 20
33.21
 11
2.03352600998418e-15
 21
33.21
 72
    1
 10
4
 20
22.42
 11
3.999999999999997
 21
0
 72
    1
 10
3.999999999999997
 20
0
 11
9.999999999999996
 21
0
 72
    1
 10
9.999999999999996
 20
0
 11
10
 21
22.42
 72
    1
 10
10
 20
22.42
 11
4
 21
22.42
 72
    1
 10
14
 20
22.42
 11
14
 21
0
 72
    1
 10
14
 20
0
 11
20
 21
0
 72
    1
 10
20
 20
0
 11
20
 21
22.42
 72
    1
 10
20
 20
22.42
 11
14
 21
22.42
 72
    1
 10
24
 20
22.42
 11
24
 21
0
 72
    1
 10
24
 20
0
 11
30
 21
0
 72
    1
 10
30
 20
0
 11
30
 21
22.42
 72
    1
 10
30
 20
22.42
 11
24
 21
22.42
 72
    1
 10
34.00000000000001
 20
22.42
 11
34
 21
0
 72
    1
 10
34.00000000000001
 20
0
 11
40
 21
0
 72
    1
 10
40
 20
0
 11
40.00000000000001
 21
22.42
 72
    1
 10
40.00000000000001
 20
22.42
 11
34.00000000000001
 21
22.42
 72
    1
 10
44.00000000000001
 20
22.42
 11
44
 21
0
 72
    1
 10
44.00000000000001
 20
0
 11
50
 21
0
 72
    1
 10
50
 20
0
 11
50.00000000000001
 21
22.42
 72
    1
 10
50.00000000000001
 20
22.42
 11
44.00000000000001
 21
22.42
 72
    1
 10
54.00000000000001
 20
22.42
 11
54
 21
0
 72
    1
 10
54.00000000000001
 20
0
 11
60
 21
0
 72
    1
 10
60
 20
0
 11
60.00000000000001
 21
22.42
 72
    1
 10
60.00000000000001
 20
22.42
 11
54.00000000000001
 21
22.42
 72
    1
 10
64.00000000000001
 20
22.42
 11
64
 21
0
 72
    1
 10
64.00000000000001
 20
0
 11
70.00000000000001
 21
0
 72
    1
 10
70.00000000000001
 20
0
 11
70.00000000000001
 21
22.42
 72
    1
 10
70.00000000000001
 20
22.42
 11
64.00000000000001
 21
22.42
 72
    1
 10
74.00000000000001
 20
22.42
 11
74.00000000000001
 21
0
 72
    1
 10
74.00000000000001
 20
0
 11
80.00000000000001
 21
0
 72
    1
 10
80.00000000000001
 20
0
 11
80.00000000000001
 21
22.42
 72
    1
 10
80.00000000000001
 20
22.42
 11
74.00000000000001
 21
22.42
 72
    1
 10
84.00000000000001
 20
22.42
 11
84.00000000000001
 21
0
 72
    1
 10
84.00000000000001
 20
0
 11
90.00000000000001
 21
0
 72
    1
 10
90.00000000000001
 20
0
 11
90.00000000000001
 21
22.42
 72
    1
 10
90.00000000000001
 20
22.42
 11
84.00000000000001
 21
22.42
 72
    1
 10
94.00000000000001
 20
22.42
 11
94.00000000000001
 21
0
 72
    1
 10
94.00000000000001
 20
0
 11
100
 21
0
 72
    1
 10
100
 20
0
 11
100
 21
22.42
 72
    1
 10
100
 20
22.42
 11
94.00000000000001
 21
22.42
 97
    0
 75
    0
 76
    1
 98
    0
  0
LINE
  5
A4
100
AcDbEntity
  8
cotes
  6
ByLayer
 62
  256
370
   -1
100
AcDbLine
 10
0
 20
0
 11
45.5
 21
2.786071468060229e-15
  0
LINE
  5
A5
100
AcDbEntity
  8
cotes
  6
ByLayer
 62
  256
370
   -1
100
AcDbLine
 10
1.224646799147353e-16
 20
2
 11
0
 21
0
  0
LINE
  5
A6
100
AcDbEntity
  8
cotes
  6
ByLayer
 62
  256
370
   -1
100
AcDbLine
 10
45.5
 20
2.000000000000003
 11
45.5
 21
2.786071468060229e-15
  0
LINE
  5
A7
100
AcDbEntity
  8
cotes
  6
ByLayer
 62
  256
370
   -1
100
AcDbLine
 10
1.224646799147353e-16
 20
2
 11
9.289999999999999
 21
2
  0
LINE
  5
A8
100
AcDbEntity
  8
cotes
  6
ByLayer
 62
  256
370
   -1
100
AcDbLine
 10
36.21
 20
2.000000000000003
 11
45.5
 21
2.000000000000003
  0
LINE
  5
A9
100
AcDbEntity
  8
cotes
  6
ByLayer
 62
  256
370
   -1
100
AcDbLine
 10
10.79
 20
2.000000000000001
 11
34.71
 21
2.000000000000008
  0
LINE
  5
AA
100
AcDbEntity
  8
cotes
  6
ByLayer
 62
  256
370
   -1
100
AcDbLine
 10
10.79
 20
2.000000000000001
 11
10.79
 21
4.500000000000001
  0
LINE
  5
AB
100
AcDbEntity
  8
cotes
  6
ByLayer
 62
  256
370
   -1
100
AcDbLine
 10
9.289999999999999
 20
4.500000000000001
 11
9.289999999999999
 21
2
  0
LINE
  5
AC
100
AcDbEntity
  8
cotes
  6
ByLayer
 62
  256
370
   -1
100
AcDbLine
 10
34.71
 20
4.500000000000008
 11
34.71
 21
2.000000000000008
  0
LINE
  5
AD
100
AcDbEntity
  8
cotes
  6
ByLayer
 62
  256
370
   -1
100
AcDbLine
 10
36.21
 20
2.000000000000003
 11
36.21
 21
4.500000000000009
  0
LINE
  5
AE
100
AcDbEntity
  8
cotes
  6
ByLayer
 62
  256
370
   -1
100
AcDbLine
 10
9.289999999999999
 20
4.500000000000001
 11
10.79
 21
4.500000000000001
  0
LINE
  5
AF
100
AcDbEntity
  8
cotes
  6
ByLayer
 62
  256
370
   -1
100
AcDbLine
 10
34.71
 20
4.500000000000008
 11
36.21
 21
4.500000000000009
  0
DIMENSION
  5
B0
100
AcDbEntity
  8
cotes
  6
ByLayer
 62
  256
370
   -1
100
AcDbDimension
  2
*D1
 10
9.289999999999999
 20
5.941273659991859
 30
0
 11
4.645
 21
7.066273659991859
 31
0
 70
   32
 71
    5
  3
Standard
 53
0
210
0
220
0
230
1
100
AcDbAlignedDimension
 13
1.224646799147353e-16
 23
2
 33
0
 14
9.289999999999999
 24
2
 34
0
100
AcDbRotatedDimension
  0
DIMENSION
  5
B1
100
AcDbEntity
  8
cotes
  6
ByLayer
 62
  256
370
   -1
100
AcDbDimension
  2
*D2
 10
10.79
 20
5.941273659991858
 30
0
 11
10.04
 21
7.066273659991858
 31
0
 70
   32
 71
    5
  3
Standard
 53
0
210
0
220
0
230
1
100
AcDbAlignedDimension
 13
9.289999999999999
 23
4.500000000000001
 33
0
 14
10.79
 24
4.500000000000001
 34
0
100
AcDbRotatedDimension
  0
DIMENSION
  5
B2
100
AcDbEntity
  8
cotes
  6
ByLayer
 62
  256
370
   -1
100
AcDbDimension
  2
*D3
 10
34.71
 20
5.941273659991857
 30
0
 11
22.75
 21
7.066273659991857
 31
0
 70
   32
 71
    5
  3
Standard
 53
0
210
0
220
0
230
1
100
AcDbAlignedDimension
 13
10.79
 23
4.500000000000001
 33
0
 14
34.71
 24
4.500000000000008
 34
0
100
AcDbRotatedDimension
  0
DIMENSION
  5
B3
100
AcDbEntity
  8
cotes
  6
ByLayer
 62
  256
370
   -1
100
AcDbDimension
  2
*D4
 10
36.21
 20
5.941273659991857
 30
0
 11
35.46
 21
7.066273659991857
 31
0
 70
   32
 71
    5
  3
Standard
 53
0
210
0
220
0
230
1
100
AcDbAlignedDimension
 13
34.71
 23
4.500000000000008
 33
0
 14
36.21
 24
4.500000000000009
 34
0
100
AcDbRotatedDimension
  0
DIMENSION
  5
B4
100
AcDbEntity
  8
cotes
  6
ByLayer
 62
  256
370
   -1
100
AcDbDimension
  2
*D5
 10
45.5
 20
5.941273659991856
 30
0
 11
40.855
 21
7.066273659991856
 31
0
 70
   32
 71
    5
  3
Standard
 53
0
210
0
220
0
230
1
100
AcDbAlignedDimension
 13
36.21
 23
4.500000000000009
 33
0
 14
45.5
 24
2.000000000000003
 34
0
100
AcDbRotatedDimension
  0
DIMENSION
  5
B5
100
AcDbEntity
  8
cotes
  6
ByLayer
 62
  256
370
   -1
100
AcDbDimension
  2
*D6
 10
45.5
 20
9.828773709122331
 30
0
 11
22.75
 21
10.95377370912233
 31
0
 70
   32
 71
    5
  3
Standard
 53
0
210
0
220
0
230
1
100
AcDbAlignedDimension
 13
1.224646799147353e-16
 23
2
 33
0
 14
45.5
 24
2.000000000000003
 34
0
100
AcDbRotatedDimension
  0
DIMENSION
  5
B6
100
AcDbEntity
  8
cotes
  6
ByLayer
 62
  256
370
   -1
100
AcDbDimension
  2
*D7
 10
-6.014622717522623
 20
2.000000000000001
 30
0
 11
-7.139622717522623
 21
1
 31
0
 70
   32
 71
    5
  3
Standard
 53
0
210
0
220
0
230
1
100
AcDbAlignedDimension
 13
0
 23
0
 33
0
 14
1.224646799147353e-16
 24
2
 34
0
 50
90
100
AcDbRotatedDimension
  0
DIMENSION
  5
B7
100
AcDbEntity
  8
cotes
  6
ByLayer
 62
  256
370
   -1
100
AcDbDimension
  2
*D8
 10
-3.2273585313536
 20
4.500000000000003
 30
0
 11
-4.3523585313536
 21
3.250000000000001
 31
0
 70
   32
 71
    5
  3
Standard
 53
0
210
0
220
0
230
1
100
AcDbAlignedDimension
 13
1.224646799147353e-16
 23
2
 33
0
 14
9.289999999999999
 24
4.500000000000001
 34
0
 50
90
100
AcDbRotatedDimension
  0
LINE
  5
B8
100
AcDbEntity
  8
rails-courbes-reverse
  6
ByLayer
 62
  256
370
   -1
100
AcDbLine
 10
-36.70023008119075
 20
-81.13653507877676
 11
-32.89600401601014
 21
-82.37260305627655
  0
LINE
  5
B9
100
AcDbEntity
  8
rails-courbes-reverse
  6
ByLayer
 62
  256
370
   -1
100
AcDbLine
 10
-22.16974909490483
 20
-85.72494763297476
 11
-18.32470231115155
 21
-86.82749705624275
  0
LINE
  5
BA
100
AcDbEntity
  8
rails-courbes-reverse
  6
ByLayer
 62
  256
370
   -1
100
AcDbLine
 10
-7.487986396230367
 20
-89.80345857695281
 11
-3.606803491126378
 21
-90.77114615935147
  0
LINE
  5
BB
100
AcDbEntity
  8
rails-courbes-reverse
  6
ByLayer
 62
  256
370
   -1
100
AcDbLine
 10
7.327170548536522
 20
-93.36709887337221
 11
11.23976095147175
 21
-94.19874563664325
  0
LINE
  5
BC
100
AcDbEntity
  8
rails-courbes-reverse
  6
ByLayer
 62
  256
370
   -1
100
AcDbLine
 10
22.25767175275859
 20
-96.41152677546837
 11
26.19690276480743
 21
-97.10611948613609
  0
LINE
  5
BD
100
AcDbEntity
  8
rails-courbes-reverse
  6
ByLayer
 62
  256
370
   -1
100
AcDbLine
 10
37.28532670058587
 20
-98.93303311680086
 11
41.24639897555218
 21
-99.48972552064112
  0
LINE
  5
BE
100
AcDbEntity
  8
rails-courbes-reverse
  6
ByLayer
 62
  256
370
   -1
100
AcDbLine
 10
52.3918265092973
 20
-100.928545830301
 11
56.36991409077037
 21
-101.3466596833716
  0
LINE
  5
BF
100
AcDbEntity
  8
rails-courbes-reverse
  6
ByLayer
 62
  256
370
   -1
100
AcDbLine
 10
67.55876623585377
 20
-102.3956336911126
 11
71.5490224368931
 21
-102.6746595860891
  0
LINE
  5
C0
100
AcDbEntity
  8
rails-courbes-reverse
  6
ByLayer
 62
  256
370
   -1
100
AcDbLine
 10
82.76766730048652
 20
-103.3325092786648
 11
86.7652306085629
 21
-103.4721072654748
  0
LINE
  5
C1
100
AcDbEntity
  8
rails-courbes-reverse
  6
ByLayer
 62
  256
370
   -1
100
AcDbLine
 10
-22.5339284803875
 20
-37.53714185932512
 11
-18.73602987223578
 21
-38.79268374715495
  0
LINE
  5
C2
100
AcDbEntity
  8
rails-courbes-reverse
  6
ByLayer
 62
  256
370
   -1
100
AcDbLine
 10
-9.533674102169403
 20
-41.65771718985232
 11
-5.694271291259827
 21
-42.77994948553605
  0
LINE
  5
C3
100
AcDbEntity
  8
rails-courbes-reverse
  6
ByLayer
 62
  256
370
   -1
100
AcDbLine
 10
3.602466877496697
 20
-45.32208004241808
 11
7.478696170253736
 21
-46.30963547877006
  0
LINE
  5
C4
100
AcDbEntity
  8
rails-courbes-reverse
  6
ByLayer
 62
  256
370
   -1
100
AcDbLine
 10
16.85849009429456
 20
-48.52576595533837
 11
20.76682328059317
 21
-49.37744134818067
  0
LINE
  5
C5
100
AcDbEntity
  8
rails-courbes-reverse
  6
ByLayer
 62
  256
370
   -1
100
AcDbLine
 10
30.21824512586834
 20
-51.26487173081831
 11
34.15392050375358
 21
-51.9796294448753
  0
LINE
  5
C6
100
AcDbEntity
  8
rails-courbes-reverse
  6
ByLayer
 62
  256
370
   -1
100
AcDbLine
 10
43.66545516862453
 20
-53.53606019039734
 11
47.62367772389276
 21
-54.11302940349442
  0
LINE
  5
C7
100
AcDbEntity
  8
rails-courbes-reverse
  6
ByLayer
 62
  256
370
   -1
100
AcDbLine
 10
57.18373686850992
 20
-55.33656424078727
 11
61.15968411669502
 21
-55.77504200481356
  0
LINE
  5
C8
100
AcDbEntity
  8
rails-courbes-reverse
  6
ByLayer
 62
  256
370
   -1
100
AcDbLine
 10
70.75662028160497
 20
-56.66419024514904
 11
74.74544814343268
 21
-56.96364234249141
  0
LINE
  5
C9
100
AcDbEntity
  8
rails-courbes-reverse
  6
ByLayer
 62
  256
370
   -1
100
AcDbLine
 10
84.36756894021313
 20
-57.51732069570149
 11
88.36441764336578
 21
-57.67738229010638
  0
ARC
  5
CA
100
AcDbEntity
  8
rails-courbes-reverse
  6
ByLayer
 62
  256
370
   -1
100
AcDbCircle
 10
101.9999999999998
 20
332.7946077345245
 40
426.92
100
AcDbArc
 50
250.2684155771087
 51
251.4631629547075
  0
ARC
  5
CB
100
AcDbEntity
  8
rails-courbes-reverse
  6
ByLayer
 62
  256
370
   -1
100
AcDbCircle
 10
101.9999999999998
 20
332.7946077345245
 40
425.42
100
AcDbArc
 50
250.2693619978851
 51
251.4612700506181
  0
ARC
  5
CC
100
AcDbEntity
  8
rails-courbes-reverse
  6
ByLayer
 62
  256
370
   -1
100
AcDbCircle
 10
101.9999999999998
 20
332.7946077345245
 40
401.5
100
AcDbArc
 50
250.2854097956048
 51
251.4291733263941
  0
LINE
  5
CD
100
AcDbEntity
  8
rails-courbes-reverse
  6
ByLayer
 62
  256
370
   -1
100
AcDbLine
 10
-33.72397054618525
 20
-71.97655010552995
 11
-36.70023008119075
 21
-81.13653507877676
  0
LINE
  5
CE
100
AcDbEntity
  8
rails-courbes-reverse
  6
ByLayer
 62
  256
370
   -1
100
AcDbLine
 10
-25.86839190373162
 20
-47.79956504266573
 11
-33.26042463593156
 21
-70.54990248881734
  0
LINE
  5
CF
100
AcDbEntity
  8
rails-courbes-reverse
  6
ByLayer
 62
  256
370
   -1
100
AcDbLine
 10
-22.5339284803875
 20
-37.53714185932512
 11
-25.40484332075596
 21
-46.3729092001592
  0
ARC
  5
D0
100
AcDbEntity
  8
rails-courbes-reverse
  6
ByLayer
 62
  256
370
   -1
100
AcDbCircle
 10
101.9999999999998
 20
332.7946077345245
 40
400
100
AcDbArc
 50
250.2864800912409
 51
251.4270326551429
  0
LINE
  5
D1
100
AcDbEntity
  8
rails-courbes-reverse
  6
ByLayer
 62
  256
370
   -1
100
AcDbLine
 10
-18.73602987223578
 20
-38.79268374715495
 11
-21.60679774997905
 21
-47.62799878353695
  0
LINE
  5
D2
100
AcDbEntity
  8
rails-courbes-reverse
  6
ByLayer
 62
  256
370
   -1
100
AcDbLine
 10
-9.533674102169403
 20
-41.65771718985232
 11
-12.09447622561112
 21
-50.58829550296142
  0
LINE
  5
D3
100
AcDbEntity
  8
rails-courbes-reverse
  6
ByLayer
 62
  256
370
   -1
100
AcDbLine
 10
-5.694271291259827
 20
-42.77994948553605
 11
-8.254942326799757
 21
-51.71007064080305
  0
LINE
  5
D4
100
AcDbEntity
  8
rails-courbes-reverse
  6
ByLayer
 62
  256
370
   -1
100
AcDbLine
 10
3.602466877496697
 20
-45.32208004241808
 11
1.354897413907824
 21
-54.33658879377779
  0
LINE
  5
D5
100
AcDbEntity
  8
rails-courbes-reverse
  6
ByLayer
 62
  256
370
   -1
100
AcDbLine
 10
7.478696170253736
 20
-46.30963547877006
 11
5.231241760132824
 21
-55.3236827758741
  0
LINE
  5
D6
100
AcDbEntity
  8
rails-courbes-reverse
  6
ByLayer
 62
  256
370
   -1
100
AcDbLine
 10
16.85849009429456
 20
-48.52576595533837
 11
14.92689160773836
 21
-57.6132223546138
  0
LINE
  5
D7
100
AcDbEntity
  8
rails-courbes-reverse
  6
ByLayer
 62
  256
370
   -1
100
AcDbLine
 10
20.76682328059317
 20
-49.37744134818067
 11
18.83532367289617
 21
-58.46443255899776
  0
LINE
  5
D8
100
AcDbEntity
  8
rails-courbes-reverse
  6
ByLayer
 62
  256
370
   -1
100
AcDbLine
 10
30.21824512586834
 20
-51.26487173081831
 11
28.6049709715607
 21
-60.41420411220227
  0
LINE
  5
D9
100
AcDbEntity
  8
rails-courbes-reverse
  6
ByLayer
 62
  256
370
   -1
100
AcDbLine
 10
34.15392050375358
 20
-51.9796294448753
 11
32.54072893322775
 21
-61.12849347035873
  0
LINE
  5
DA
100
AcDbEntity
  8
rails-courbes-reverse
  6
ByLayer
 62
  256
370
   -1
100
AcDbLine
 10
43.66545516862453
 20
-53.53606019039734
 11
42.37247087261668
 21
-62.73612150172975
  0
LINE
  5
DB
100
AcDbEntity
  8
rails-courbes-reverse
  6
ByLayer
 62
  256
370
   -1
100
AcDbLine
 10
47.62367772389276
 20
-54.11302940349442
 11
46.3307596159737
 21
-63.31261976210364
  0
LINE
  5
DC
100
AcDbEntity
  8
rails-courbes-reverse
  6
ByLayer
 62
  256
370
   -1
100
AcDbLine
 10
57.18373686850992
 20
-55.33656424078727
 11
56.21261773299761
 21
-64.57614562452105
  0
LINE
  5
DD
100
AcDbEntity
  8
rails-courbes-reverse
  6
ByLayer
 62
  256
370
   -1
100
AcDbLine
 10
61.15968411669502
 20
-55.77504200481356
 11
60.18861469293852
 21
-65.01415041278484
  0
LINE
  5
DE
100
AcDbEntity
  8
rails-courbes-reverse
  6
ByLayer
 62
  256
370
   -1
100
AcDbLine
 10
70.75662028160497
 20
-56.66419024514904
 11
70.10854946566536
 21
-65.93203469461653
  0
LINE
  5
DF
100
AcDbEntity
  8
rails-courbes-reverse
  6
ByLayer
 62
  256
370
   -1
100
AcDbLine
 10
74.74544814343268
 20
-56.96364234249141
 11
74.09741050234976
 21
-66.23101236940521
  0
LINE
  5
E0
100
AcDbEntity
  8
rails-courbes-reverse
  6
ByLayer
 62
  256
370
   -1
100
AcDbLine
 10
84.36756894021313
 20
-57.51732069570149
 11
84.04333601830777
 21
-66.80213677004301
  0
LINE
  5
E1
100
AcDbEntity
  8
rails-courbes-reverse
  6
ByLayer
 62
  256
370
   -1
100
AcDbLine
 10
88.36441764336578
 20
-57.67738229010638
 11
88.04020131899951
 21
-66.9617230731138
  0
LINE
  5
E2
100
AcDbEntity
  8
rails-courbes-reverse
  6
ByLayer
 62
  256
370
   -1
100
AcDbLine
 10
-22.07032324154148
 20
-49.05458355797968
 11
-12.50795285644395
 21
-52.03025987751852
  0
LINE
  5
E3
100
AcDbEntity
  8
rails-courbes-reverse
  6
ByLayer
 62
  256
370
   -1
100
AcDbLine
 10
-21.60679774997905
 20
-47.62799878353695
 11
-12.09447622561112
 21
-50.58829550296142
  0
LINE
  5
E4
100
AcDbEntity
  8
rails-courbes-reverse
  6
ByLayer
 62
  256
370
   -1
100
AcDbLine
 10
-8.668398360525249
 20
-53.15196318471054
 11
0.9919964928016932
 21
-55.7921048889128
  0
LINE
  5
E5
100
AcDbEntity
  8
rails-courbes-reverse
  6
ByLayer
 62
  256
370
   -1
100
AcDbLine
 10
4.868358916733317
 20
-56.77912636528809
 11
14.61500853523072
 21
-59.08051684816986
  0
LINE
  5
E6
100
AcDbEntity
  8
rails-courbes-reverse
  6
ByLayer
 62
  256
370
   -1
100
AcDbLine
 10
18.52345613666953
 20
-59.93165396009847
 11
28.3444857291335
 21
-61.89148933185837
  0
LINE
  5
E7
100
AcDbEntity
  8
rails-courbes-reverse
  6
ByLayer
 62
  256
370
   -1
100
AcDbLine
 10
32.28025666672735
 20
-62.60570509987704
 11
42.16370082141313
 21
-64.22159760300408
  0
LINE
  5
E8
100
AcDbEntity
  8
rails-courbes-reverse
  6
ByLayer
 62
  256
370
   -1
100
AcDbLine
 10
46.12199996453361
 20
-64.79802186521599
 11
56.05581722716656
 21
-66.06800278360427
  0
LINE
  5
E9
100
AcDbEntity
  8
rails-courbes-reverse
  6
ByLayer
 62
  256
370
   -1
100
AcDbLine
 10
60.031821998037
 20
-66.50593325583725
 11
70.00390954246986
 21
-67.42845531336329
  0
LINE
  5
EA
100
AcDbEntity
  8
rails-courbes-reverse
  6
ByLayer
 62
  256
370
   -1
100
AcDbLine
 10
73.99277579173359
 20
-67.72735844479494
 11
83.99098416537572
 21
-68.30129769043526
  0
LINE
  5
EB
100
AcDbEntity
  8
rails-courbes-reverse
  6
ByLayer
 62
  256
370
   -1
100
AcDbLine
 10
87.98785207394576
 20
-68.46080931364244
 11
99.99999999999986
 21
-68.70041091452424
  0
LINE
  5
EC
100
AcDbEntity
  8
rails-courbes-reverse
  6
ByLayer
 62
  256
370
   -1
100
AcDbLine
 10
99.99999999999986
 20
-67.20039223422511
 11
88.04020131899951
 21
-66.9617230731138
  0
LINE
  5
ED
100
AcDbEntity
  8
rails-courbes-reverse
  6
ByLayer
 62
  256
370
   -1
100
AcDbLine
 10
84.04333601830777
 20
-66.80213677004301
 11
74.09741050234976
 21
-66.23101236940521
  0
LINE
  5
EE
100
AcDbEntity
  8
rails-courbes-reverse
  6
ByLayer
 62
  256
370
   -1
100
AcDbLine
 10
70.10854946566536
 20
-65.93203469461653
 11
60.18861469293852
 21
-65.01415041278484
  0
LINE
  5
EF
100
AcDbEntity
  8
rails-courbes-reverse
  6
ByLayer
 62
  256
370
   -1
100
AcDbLine
 10
56.21261773299761
 20
-64.57614562452105
 11
46.3307596159737
 21
-63.31261976210364
  0
LINE
  5
F0
100
AcDbEntity
  8
rails-courbes-reverse
  6
ByLayer
 62
  256
370
   -1
100
AcDbLine
 10
42.37247087261668
 20
-62.73612150172975
 11
32.54072893322775
 21
-61.12849347035873
  0
LINE
  5
F1
100
AcDbEntity
  8
rails-courbes-reverse
  6
ByLayer
 62
  256
370
   -1
100
AcDbLine
 10
28.6049709715607
 20
-60.41420411220227
 11
18.83532367289617
 21
-58.46443255899776
  0
LINE
  5
F2
100
AcDbEntity
  8
rails-courbes-reverse
  6
ByLayer
 62
  256
370
   -1
100
AcDbLine
 10
14.92689160773836
 20
-57.6132223546138
 11
5.231241760132824
 21
-55.3236827758741
  0
LINE
  5
F3
100
AcDbEntity
  8
rails-courbes-reverse
  6
ByLayer
 62
  256
370
   -1
100
AcDbLine
 10
1.354897413907824
 20
-54.33658879377779
 11
-8.254942326799757
 21
-51.71007064080305
  0
LINE
  5
F4
100
AcDbEntity
  8
rails-courbes-reverse
  6
ByLayer
 62
  256
370
   -1
100
AcDbLine
 10
-29.92553523855264
 20
-73.23044020220249
 11
-32.89600401601014
 21
-82.37260305627655
  0
LINE
  5
F5
100
AcDbEntity
  8
rails-courbes-reverse
  6
ByLayer
 62
  256
370
   -1
100
AcDbLine
 10
-22.07032324154148
 20
-49.05458355797968
 11
-29.46200974699022
 21
-71.80385542775977
  0
LINE
  5
F6
100
AcDbEntity
  8
rails-courbes-reverse
  6
ByLayer
 62
  256
370
   -1
100
AcDbLine
 10
-19.51498148216114
 20
-76.46667271525133
 11
-22.16974909490483
 21
-85.72494763297476
  0
LINE
  5
F7
100
AcDbEntity
  8
rails-courbes-reverse
  6
ByLayer
 62
  256
370
   -1
100
AcDbLine
 10
-12.50795285644395
 20
-52.03025987751852
 11
-19.10150723534651
 21
-75.02471665475376
  0
LINE
  5
F8
100
AcDbEntity
  8
rails-courbes-reverse
  6
ByLayer
 62
  256
370
   -1
100
AcDbLine
 10
-8.668398360525249
 20
-53.15196318471054
 11
-15.26164391166788
 21
-76.14534295155515
  0
LINE
  5
F9
100
AcDbEntity
  8
rails-courbes-reverse
  6
ByLayer
 62
  256
370
   -1
100
AcDbLine
 10
-15.67509994539337
 20
-77.58723549546261
 11
-18.32470231115155
 21
-86.82749705624275
  0
LINE
  5
FA
100
AcDbEntity
  8
rails-courbes-reverse
  6
ByLayer
 62
  256
370
   -1
100
AcDbLine
 10
0.9919964928016932
 20
-55.7921048889128
 11
-4.795046302452175
 21
-79.00266579367305
  0
LINE
  5
FB
100
AcDbEntity
  8
rails-courbes-reverse
  6
ByLayer
 62
  256
370
   -1
100
AcDbLine
 10
-5.157945131148863
 20
-80.45817349661219
 11
-7.487986396230367
 21
-89.80345857695281
  0
LINE
  5
FC
100
AcDbEntity
  8
rails-courbes-reverse
  6
ByLayer
 62
  256
370
   -1
100
AcDbLine
 10
-1.281295669410237
 20
-81.44404372722393
 11
-3.606803491126378
 21
-90.77114615935147
  0
LINE
  5
FD
100
AcDbEntity
  8
rails-courbes-reverse
  6
ByLayer
 62
  256
370
   -1
100
AcDbLine
 10
4.868358916733317
 20
-56.77912636528809
 11
-0.9184128260107403
 21
-79.98860013780995
  0
LINE
  5
FE
100
AcDbEntity
  8
rails-courbes-reverse
  6
ByLayer
 62
  256
370
   -1
100
AcDbLine
 10
9.329646669589657
 20
-83.94618942075395
 11
7.327170548536522
 21
-93.36709887337221
  0
LINE
  5
FF
100
AcDbEntity
  8
rails-courbes-reverse
  6
ByLayer
 62
  256
370
   -1
100
AcDbLine
 10
14.61500853523072
 20
-59.08051684816986
 11
9.641527943845908
 21
-82.47890338730548
  0
LINE
  5
100
100
AcDbEntity
  8
rails-courbes-reverse
  6
ByLayer
 62
  256
370
   -1
100
AcDbLine
 10
13.2383409560821
 20
-84.79616597075182
 11
11.23976095147175
 21
-94.19874563664325
  0
LINE
  5
101
100
AcDbEntity
  8
rails-courbes-reverse
  6
ByLayer
 62
  256
370
   -1
100
AcDbLine
 10
18.52345613666953
 20
-59.93165396009847
 11
13.55020849230873
 21
-83.32894456965113
  0
LINE
  5
102
100
AcDbEntity
  8
rails-courbes-reverse
  6
ByLayer
 62
  256
370
   -1
100
AcDbLine
 10
28.3444857291335
 20
-61.89148933185837
 11
24.19062676161244
 21
-85.4491941756166
  0
LINE
  5
103
100
AcDbEntity
  8
rails-courbes-reverse
  6
ByLayer
 62
  256
370
   -1
100
AcDbLine
 10
23.93014302108769
 20
-86.92647087756069
 11
22.25767175275859
 21
-96.41152677546837
  0
LINE
  5
104
100
AcDbEntity
  8
rails-courbes-reverse
  6
ByLayer
 62
  256
370
   -1
100
AcDbLine
 10
27.866119990434
 20
-87.63951818144739
 11
26.19690276480743
 21
-97.10611948613609
  0
LINE
  5
105
100
AcDbEntity
  8
rails-courbes-reverse
  6
ByLayer
 62
  256
370
   -1
100
AcDbLine
 10
32.28025666672735
 20
-62.60570509987704
 11
28.12659225693441
 21
-86.16230655192909
  0
LINE
  5
106
100
AcDbEntity
  8
rails-courbes-reverse
  6
ByLayer
 62
  256
370
   -1
100
AcDbLine
 10
38.62575546757488
 20
-89.39538685315449
 11
37.28532670058587
 21
-98.93303311680086
  0
LINE
  5
107
100
AcDbEntity
  8
rails-courbes-reverse
  6
ByLayer
 62
  256
370
   -1
100
AcDbLine
 10
42.16370082141313
 20
-64.22159760300408
 11
38.83452431505479
 21
-87.90991931681903
  0
LINE
  5
108
100
AcDbEntity
  8
rails-courbes-reverse
  6
ByLayer
 62
  256
370
   -1
100
AcDbLine
 10
42.58421973812876
 20
-89.97063617262671
 11
41.24639897555218
 21
-99.48972552064112
  0
LINE
  5
109
100
AcDbEntity
  8
rails-courbes-reverse
  6
ByLayer
 62
  256
370
   -1
100
AcDbLine
 10
46.12199996453361
 20
-64.79802186521599
 11
42.79297938956885
 21
-88.48523406951438
  0
LINE
  5
10A
100
AcDbEntity
  8
rails-courbes-reverse
  6
ByLayer
 62
  256
370
   -1
100
AcDbLine
 10
53.39857966897087
 20
-91.34992935372641
 11
52.3918265092973
 21
-100.928545830301
  0
LINE
  5
10B
100
AcDbEntity
  8
rails-courbes-reverse
  6
ByLayer
 62
  256
370
   -1
100
AcDbLine
 10
56.05581722716656
 20
-66.06800278360427
 11
53.55537927072364
 21
-89.85808079637388
  0
LINE
  5
10C
100
AcDbEntity
  8
rails-courbes-reverse
  6
ByLayer
 62
  256
370
   -1
100
AcDbLine
 10
57.3747084617733
 20
-91.78667983609877
 11
56.36991409077037
 21
-101.3466596833716
  0
LINE
  5
10D
100
AcDbEntity
  8
rails-courbes-reverse
  6
ByLayer
 62
  256
370
   -1
100
AcDbLine
 10
60.031821998037
 20
-66.50593325583725
 11
57.53150115667474
 21
-90.29489699304639
  0
LINE
  5
10E
100
AcDbEntity
  8
rails-courbes-reverse
  6
ByLayer
 62
  256
370
   -1
100
AcDbLine
 10
68.23061721456531
 20
-92.78771707031372
 11
67.55876623585377
 21
-102.3956336911126
  0
LINE
  5
10F
100
AcDbEntity
  8
rails-courbes-reverse
  6
ByLayer
 62
  256
370
   -1
100
AcDbLine
 10
70.00390954246986
 20
-67.42845531336329
 11
68.33525653442929
 21
-91.2913050796096
  0
LINE
  5
110
100
AcDbEntity
  8
rails-courbes-reverse
  6
ByLayer
 62
  256
370
   -1
100
AcDbLine
 10
72.21956622915789
 20
-93.08543660239968
 11
71.5490224368931
 21
-102.6746595860891
  0
LINE
  5
111
100
AcDbEntity
  8
rails-courbes-reverse
  6
ByLayer
 62
  256
370
   -1
100
AcDbLine
 10
73.99277579173359
 20
-67.72735844479494
 11
72.32420093977407
 21
-91.58909052700997
  0
LINE
  5
112
100
AcDbEntity
  8
rails-courbes-reverse
  6
ByLayer
 62
  256
370
   -1
100
AcDbLine
 10
83.10379755130911
 20
-93.70699828005795
 11
82.76766730048652
 21
-103.3325092786648
  0
LINE
  5
113
100
AcDbEntity
  8
rails-courbes-reverse
  6
ByLayer
 62
  256
370
   -1
100
AcDbLine
 10
83.99098416537572
 20
-68.30129769043526
 11
83.15614910239159
 21
-92.20784600350834
  0
LINE
  5
114
100
AcDbEntity
  8
rails-courbes-reverse
  6
ByLayer
 62
  256
370
   -1
100
AcDbLine
 10
87.10070686776817
 20
-93.86532413646786
 11
86.7652306085629
 21
-103.4721072654748
  0
LINE
  5
115
100
AcDbEntity
  8
rails-courbes-reverse
  6
ByLayer
 62
  256
370
   -1
100
AcDbLine
 10
87.98785207394576
 20
-68.46080931364244
 11
87.15305611282191
 21
-92.36623789593925
  0
LINE
  5
116
100
AcDbEntity
  8
rails-courbes-reverse
  6
ByLayer
 62
  256
370
   -1
100
AcDbLine
 10
-29.92553523855264
 20
-73.23044020220249
 11
-19.51498148216114
 21
-76.46667271525133
  0
LINE
  5
117
100
AcDbEntity
  8
rails-courbes-reverse
  6
ByLayer
 62
  256
370
   -1
100
AcDbLine
 10
-15.67509994539337
 20
-77.58723549546261
 11
-5.157945131148863
 21
-80.45817349661219
  0
LINE
  5
118
100
AcDbEntity
  8
rails-courbes-reverse
  6
ByLayer
 62
  256
370
   -1
100
AcDbLine
 10
-1.281295669410237
 20
-81.44404372722393
 11
9.329646669589657
 21
-83.94618942075395
  0
LINE
  5
119
100
AcDbEntity
  8
rails-courbes-reverse
  6
ByLayer
 62
  256
370
   -1
100
AcDbLine
 10
13.2383409560821
 20
-84.79616597075182
 11
23.93014302108769
 21
-86.92647087756069
  0
LINE
  5
11A
100
AcDbEntity
  8
rails-courbes-reverse
  6
ByLayer
 62
  256
370
   -1
100
AcDbLine
 10
27.866119990434
 20
-87.63951818144739
 11
38.62575546757488
 21
-89.39538685315449
  0
LINE
  5
11B
100
AcDbEntity
  8
rails-courbes-reverse
  6
ByLayer
 62
  256
370
   -1
100
AcDbLine
 10
-29.46200974699022
 20
-71.80385542775977
 11
-19.10150723534651
 21
-75.02471665475376
  0
LINE
  5
11C
100
AcDbEntity
  8
rails-courbes-reverse
  6
ByLayer
 62
  256
370
   -1
100
AcDbLine
 10
-15.26164391166788
 20
-76.14534295155515
 11
-4.795046302452175
 21
-79.00266579367305
  0
LINE
  5
11D
100
AcDbEntity
  8
rails-courbes-reverse
  6
ByLayer
 62
  256
370
   -1
100
AcDbLine
 10
-0.9184128260107403
 20
-79.98860013780995
 11
9.641527943845908
 21
-82.47890338730548
  0
LINE
  5
11E
100
AcDbEntity
  8
rails-courbes-reverse
  6
ByLayer
 62
  256
370
   -1
100
AcDbLine
 10
13.55020849230873
 20
-83.32894456965113
 11
24.19062676161244
 21
-85.4491941756166
  0
LINE
  5
11F
100
AcDbEntity
  8
rails-courbes-reverse
  6
ByLayer
 62
  256
370
   -1
100
AcDbLine
 10
28.12659225693441
 20
-86.16230655192909
 11
38.83452431505479
 21
-87.90991931681903
  0
LINE
  5
120
100
AcDbEntity
  8
rails-courbes-reverse
  6
ByLayer
 62
  256
370
   -1
100
AcDbLine
 10
42.58421973812876
 20
-89.97063617262671
 11
53.39857966897087
 21
-91.34992935372641
  0
LINE
  5
121
100
AcDbEntity
  8
rails-courbes-reverse
  6
ByLayer
 62
  256
370
   -1
100
AcDbLine
 10
57.3747084617733
 20
-91.78667983609877
 11
68.23061721456531
 21
-92.78771707031372
  0
LINE
  5
122
100
AcDbEntity
  8
rails-courbes-reverse
  6
ByLayer
 62
  256
370
   -1
100
AcDbLine
 10
72.21956622915789
 20
-93.08543660239968
 11
83.10379755130911
 21
-93.70699828005795
  0
LINE
  5
123
100
AcDbEntity
  8
rails-courbes-reverse
  6
ByLayer
 62
  256
370
   -1
100
AcDbLine
 10
87.10070686776817
 20
-93.86532413646786
 11
99.99999999999994
 21
-94.12070752132341
  0
LINE
  5
124
100
AcDbEntity
  8
rails-courbes-reverse
  6
ByLayer
 62
  256
370
   -1
100
AcDbLine
 10
42.79297938956885
 20
-88.48523406951438
 11
53.55537927072364
 21
-89.85808079637388
  0
LINE
  5
125
100
AcDbEntity
  8
rails-courbes-reverse
  6
ByLayer
 62
  256
370
   -1
100
AcDbLine
 10
57.53150115667474
 20
-90.29489699304639
 11
68.33525653442929
 21
-91.2913050796096
  0
LINE
  5
126
100
AcDbEntity
  8
rails-courbes-reverse
  6
ByLayer
 62
  256
370
   -1
100
AcDbLine
 10
72.32420093977407
 20
-91.58909052700997
 11
83.15614910239159
 21
-92.20784600350834
  0
LINE
  5
127
100
AcDbEntity
  8
rails-courbes-reverse
  6
ByLayer
 62
  256
370
   -1
100
AcDbLine
 10
87.15305611282191
 20
-92.36623789593925
 11
99.99999999999984
 21
-92.62069100307382
  0
LINE
  5
128
100
AcDbEntity
  8
rails-courbes-reverse
  6
ByLayer
 62
  256
370
   -1
100
AcDbLine
 10
99.99999999999984
 20
-57.58307076322932
 11
101.9999999999998
 21
-57.58307076322932
  0
LINE
  5
129
100
AcDbEntity
  8
rails-courbes-reverse
  6
ByLayer
 62
  256
370
   -1
100
AcDbLine
 10
99.99999999999984
 20
-103.4108285717859
 11
101.9999999999998
 21
-103.4057096521226
  0
LINE
  5
12A
100
AcDbEntity
  8
rails-courbes-reverse
  6
ByLayer
 62
  256
370
   -1
100
AcDbLine
 10
99.99999999999984
 20
-103.4108285717859
 11
99.99999999999986
 21
-94.12070968337297
  0
LINE
  5
12B
100
AcDbEntity
  8
rails-courbes-reverse
  6
ByLayer
 62
  256
370
   -1
100
AcDbLine
 10
99.99999999999986
 20
-92.62069100307383
 11
99.99999999999984
 21
-68.70041091452426
  0
LINE
  5
12C
100
AcDbEntity
  8
rails-courbes-reverse
  6
ByLayer
 62
  256
370
   -1
100
AcDbLine
 10
99.99999999999994
 20
-67.20039439627466
 11
99.99999999999984
 21
-57.58307076322932
  0
LINE
  5
12D
100
AcDbEntity
  8
rails-courbes-reverse
  6
ByLayer
 62
  256
370
   -1
100
AcDbLine
 10
-31.51702955094368
 20
-34.04041606934859
 11
-29.63764430937185
 21
-34.72445635599993
  0
LINE
  5
12E
100
AcDbEntity
  8
rails-courbes-reverse
  6
ByLayer
 62
  256
370
   -1
100
AcDbLine
 10
-47.18929507128331
 20
-77.09961169817898
 11
-45.31166060334842
 21
-77.78846219586435
  0
LINE
  5
12F
100
AcDbEntity
  8
rails-courbes-reverse
  6
ByLayer
 62
  256
370
   -1
100
AcDbLine
 10
-32.92696271675535
 20
-43.76178440568253
 11
-29.63764430937185
 21
-34.72445635599993
  0
LINE
  5
130
100
AcDbEntity
  8
rails-courbes-reverse
  6
ByLayer
 62
  256
370
   -1
100
AcDbLine
 10
-45.31166060334842
 20
-77.78846219586435
 11
-42.13425280962091
 21
-69.05860603019889
  0
ARC
  5
131
100
AcDbEntity
  8
rails-courbes-reverse2
  6
ByLayer
 62
  256
370
   -1
100
AcDbCircle
 10
101.9999999999999
 20
332.7946077345245
 40
426.92
100
AcDbArc
 50
250
 51
270
  0
ARC
  5
132
100
AcDbEntity
  8
rails-courbes-reverse2
  6
ByLayer
 62
  256
370
   -1
100
AcDbCircle
 10
101.9999999999999
 20
332.7946077345245
 40
425.42
100
AcDbArc
 50
250
 51
270
  0
LINE
  5
133
100
AcDbEntity
  8
rails-courbes-reverse2
  6
ByLayer
 62
  256
370
   -1
100
AcDbLine
 10
101.9999999999999
 20
-68.7053922654756
 11
101.9999999999999
 21
-67.20539226547548
  0
ARC
  5
134
100
AcDbEntity
  8
rails-courbes-reverse2
  6
ByLayer
 62
  256
370
   -1
100
AcDbCircle
 10
101.9999999999999
 20
332.7946077345245
 40
400
100
AcDbArc
 50
250
 51
270
  0
ARC
  5
135
100
AcDbEntity
  8
rails-courbes-reverse2
  6
ByLayer
 62
  256
370
   -1
100
AcDbCircle
 10
101.9999999999999
 20
332.7946077345245
 40
401.5000000000001
100
AcDbArc
 50
250
 51
270
  0
LINE
  5
136
100
AcDbEntity
  8
rails-courbes-reverse2
  6
ByLayer
 62
  256
370
   -1
100
AcDbLine
 10
-35.32108754525611
 20
-44.4919795110178
 11
-34.80805733026757
 21
-43.08244057983887
  0
LINE
  5
137
100
AcDbEntity
  8
rails-courbes-reverse2
  6
ByLayer
 62
  256
370
   -1
100
AcDbLine
 10
101.9999999999999
 20
-94.12539226547551
 11
101.9999999999999
 21
-92.62539226547551
  0
LINE
  5
138
100
AcDbEntity
  8
rails-courbes-reverse2
  6
ByLayer
 62
  256
370
   -1
100
AcDbLine
 10
-44.01523958859458
 20
-68.37896593139556
 11
-43.50220937360608
 21
-66.96942700021668
  0
LINE
  5
139
100
AcDbEntity
  8
fix-traverses
  6
ByLayer
 62
  256
370
   -1
100
AcDbLine
 10
102.2
 20
34.71
 11
102.2
 21
13.31
  0
LINE
  5
13A
100
AcDbEntity
  8
fix-traverses
  6
ByLayer
 62
  256
370
   -1
100
AcDbLine
 10
102.2
 20
13.31
 11
104
 21
13.31
  0
LINE
  5
13B
100
AcDbEntity
  8
fix-traverses
  6
ByLayer
 62
  256
370
   -1
100
AcDbLine
 10
104
 20
13.31
 11
104
 21
34.71
  0
LINE
  5
13C
100
AcDbEntity
  8
fix-traverses
  6
ByLayer
 62
  256
370
   -1
100
AcDbLine
 10
104
 20
34.71
 11
102.2
 21
34.71
  0
LINE
  5
13D
100
AcDbEntity
  8
fix-traverses
  6
ByLayer
 62
  256
370
   -1
100
AcDbLine
 10
102.2
 20
9.110000000000001
 11
102.2
 21
-10.79
  0
LINE
  5
13E
100
AcDbEntity
  8
fix-traverses
  6
ByLayer
 62
  256
370
   -1
100
AcDbLine
 10
102.2
 20
-10.79
 11
104
 21
-10.79
  0
LINE
  5
13F
100
AcDbEntity
  8
fix-traverses
  6
ByLayer
 62
  256
370
   -1
100
AcDbLine
 10
104
 20
-10.79
 11
104
 21
9.110000000000001
  0
LINE
  5
140
100
AcDbEntity
  8
fix-traverses
  6
ByLayer
 62
  256
370
   -1
100
AcDbLine
 10
104
 20
9.110000000000001
 11
102.2
 21
9.110000000000001
  0
LINE
  5
141
100
AcDbEntity
  8
fix-traverses
  6
ByLayer
 62
  256
370
   -1
100
AcDbLine
 10
110
 20
34.71000000000001
 11
110
 21
-10.79
  0
LINE
  5
142
100
AcDbEntity
  8
fix-traverses
  6
ByLayer
 62
  256
370
   -1
100
AcDbLine
 10
110
 20
-10.79
 11
112
 21
-10.79
  0
LINE
  5
143
100
AcDbEntity
  8
fix-traverses
  6
ByLayer
 62
  256
370
   -1
100
AcDbLine
 10
112
 20
-10.79
 11
112
 21
10.06
  0
LINE
  5
144
100
AcDbEntity
  8
fix-traverses
  6
ByLayer
 62
  256
370
   -1
100
AcDbLine
 10
112
 20
10.06
 11
114
 21
10.06
  0
LINE
  5
145
100
AcDbEntity
  8
fix-traverses
  6
ByLayer
 62
  256
370
   -1
100
AcDbLine
 10
114
 20
10.06
 11
114
 21
6.31
  0
LINE
  5
146
100
AcDbEntity
  8
fix-traverses
  6
ByLayer
 62
  256
370
   -1
100
AcDbLine
 10
114
 20
6.31
 11
116
 21
6.309999999999999
  0
LINE
  5
147
100
AcDbEntity
  8
fix-traverses
  6
ByLayer
 62
  256
370
   -1
100
AcDbLine
 10
116
 20
6.309999999999999
 11
116
 21
16.11
  0
LINE
  5
148
100
AcDbEntity
  8
fix-traverses
  6
ByLayer
 62
  256
370
   -1
100
AcDbLine
 10
116
 20
16.11
 11
114
 21
16.11
  0
LINE
  5
149
100
AcDbEntity
  8
fix-traverses
  6
ByLayer
 62
  256
370
   -1
100
AcDbLine
 10
114
 20
16.11
 11
114
 21
13.86000000000001
  0
LINE
  5
14A
100
AcDbEntity
  8
fix-traverses
  6
ByLayer
 62
  256
370
   -1
100
AcDbLine
 10
114
 20
13.86000000000001
 11
112
 21
13.86
  0
LINE
  5
14B
100
AcDbEntity
  8
fix-traverses
  6
ByLayer
 62
  256
370
   -1
100
AcDbLine
 10
112
 20
13.86
 11
112
 21
34.71000000000001
  0
LINE
  5
14C
100
AcDbEntity
  8
fix-traverses
  6
ByLayer
 62
  256
370
   -1
100
AcDbLine
 10
112
 20
34.71000000000001
 11
110
 21
34.71000000000001
  0
LINE
  5
14D
100
AcDbEntity
  8
fix-rails
  6
ByLayer
 62
  256
370
   -1
100
AcDbLine
 10
102.2
 20
23.92
 11
102.2
 21
25.42
  0
LINE
  5
14E
100
AcDbEntity
  8
fix-rails
  6
ByLayer
 62
  256
370
   -1
100
AcDbLine
 10
102.2
 20
25.42
 11
112
 21
25.42
  0
LINE
  5
14F
100
AcDbEntity
  8
fix-rails
  6
ByLayer
 62
  256
370
   -1
100
AcDbLine
 10
112
 20
25.42
 11
112
 21
23.92
  0
LINE
  5
150
100
AcDbEntity
  8
fix-rails
  6
ByLayer
 62
  256
370
   -1
100
AcDbLine
 10
112
 20
23.92
 11
102.2
 21
23.92
  0
LINE
  5
151
100
AcDbEntity
  8
fix-rails
  6
ByLayer
 62
  256
370
   -1
100
AcDbLine
 10
102.2
 20
0
 11
112
 21
0
  0
LINE
  5
152
100
AcDbEntity
  8
fix-rails
  6
ByLayer
 62
  256
370
   -1
100
AcDbLine
 10
112
 20
0
 11
112
 21
-1.5
  0
LINE
  5
153
100
AcDbEntity
  8
fix-rails
  6
ByLayer
 62
  256
370
   -1
100
AcDbLine
 10
112
 20
-1.5
 11
102.2
 21
-1.5
  0
LINE
  5
154
100
AcDbEntity
  8
fix-rails
  6
ByLayer
 62
  256
370
   -1
100
AcDbLine
 10
102.2
 20
-1.5
 11
102.2
 21
0
  0
LINE
  5
155
100
AcDbEntity
  8
fix2-traverses
  6
ByLayer
 62
  256
370
   -1
100
AcDbLine
 10
1.900000000000002
 20
34.71
 11
-0.09999999999999752
 21
34.71
  0
LINE
  5
156
100
AcDbEntity
  8
fix2-traverses
  6
ByLayer
 62
  256
370
   -1
100
AcDbLine
 10
-0.09999999999999752
 20
34.71
 11
-0.1000000000000041
 21
-10.79
  0
LINE
  5
157
100
AcDbEntity
  8
fix2-traverses
  6
ByLayer
 62
  256
370
   -1
100
AcDbLine
 10
1.899999999999996
 20
-10.79
 11
-0.1000000000000041
 21
-10.79
  0
LINE
  5
158
100
AcDbEntity
  8
fix2-traverses
  6
ByLayer
 62
  256
370
   -1
100
AcDbLine
 10
4.099999999999998
 20
6.31
 11
6.099999999999998
 21
6.31
  0
LINE
  5
159
100
AcDbEntity
  8
fix2-traverses
  6
ByLayer
 62
  256
370
   -1
100
AcDbLine
 10
6.099999999999999
 20
16.11
 11
6.099999999999998
 21
6.31
  0
LINE
  5
15A
100
AcDbEntity
  8
fix2-traverses
  6
ByLayer
 62
  256
370
   -1
100
AcDbLine
 10
4.099999999999999
 20
16.11
 11
6.099999999999999
 21
16.11
  0
LINE
  5
15B
100
AcDbEntity
  8
fix2-traverses
  6
ByLayer
 62
  256
370
   -1
100
AcDbLine
 10
-8.099999999999998
 20
34.71
 11
-6.099999999999998
 21
34.71
  0
LINE
  5
15C
100
AcDbEntity
  8
fix2-traverses
  6
ByLayer
 62
  256
370
   -1
100
AcDbLine
 10
-6.100000000000004
 20
-10.79
 11
-8.100000000000005
 21
-10.79
  0
LINE
  5
15D
100
AcDbEntity
  8
fix2-traverses
  6
ByLayer
 62
  256
370
   -1
100
AcDbLine
 10
4.099999999999998
 20
9.31
 11
4.099999999999998
 21
6.31
  0
LINE
  5
15E
100
AcDbEntity
  8
fix2-traverses
  6
ByLayer
 62
  256
370
   -1
100
AcDbLine
 10
1.899999999999999
 20
9.31
 11
1.899999999999996
 21
-10.79
  0
LINE
  5
15F
100
AcDbEntity
  8
fix2-traverses
  6
ByLayer
 62
  256
370
   -1
100
AcDbLine
 10
1.899999999999999
 20
9.31
 11
4.099999999999998
 21
9.31
  0
LINE
  5
160
100
AcDbEntity
  8
fix2-traverses
  6
ByLayer
 62
  256
370
   -1
100
AcDbLine
 10
1.900000000000002
 20
34.71
 11
1.899999999999999
 21
13.11
  0
LINE
  5
161
100
AcDbEntity
  8
fix2-traverses
  6
ByLayer
 62
  256
370
   -1
100
AcDbLine
 10
4.099999999999999
 20
16.11
 11
4.099999999999999
 21
13.11
  0
LINE
  5
162
100
AcDbEntity
  8
fix2-traverses
  6
ByLayer
 62
  256
370
   -1
100
AcDbLine
 10
1.899999999999999
 20
13.11
 11
4.099999999999999
 21
13.11
  0
LINE
  5
163
100
AcDbEntity
  8
fix2-traverses
  6
ByLayer
 62
  256
370
   -1
100
AcDbLine
 10
-6.099999999999998
 20
34.71
 11
-6.100000000000002
 21
13.96
  0
LINE
  5
164
100
AcDbEntity
  8
fix2-traverses
  6
ByLayer
 62
  256
370
   -1
100
AcDbLine
 10
-8.099999999999998
 20
34.71
 11
-8.100000000000001
 21
13.96
  0
LINE
  5
165
100
AcDbEntity
  8
fix2-traverses
  6
ByLayer
 62
  256
370
   -1
100
AcDbLine
 10
-8.100000000000001
 20
9.960000000000001
 11
-8.100000000000005
 21
-10.79
  0
LINE
  5
166
100
AcDbEntity
  8
fix2-traverses
  6
ByLayer
 62
  256
370
   -1
100
AcDbLine
 10
-6.100000000000001
 20
9.960000000000001
 11
-6.100000000000004
 21
-10.79
  0
LINE
  5
167
100
AcDbEntity
  8
fix2-traverses
  6
ByLayer
 62
  256
370
   -1
100
AcDbLine
 10
-8.100000000000001
 20
9.960000000000001
 11
-6.100000000000001
 21
9.960000000000001
  0
LINE
  5
168
100
AcDbEntity
  8
fix2-traverses
  6
ByLayer
 62
  256
370
   -1
100
AcDbLine
 10
-8.100000000000001
 20
13.96
 11
-6.1
 21
13.96
  0
LINE
  5
169
100
AcDbEntity
  8
fix2-traverses
  6
ByLayer
 62
  256
370
   -1
100
AcDbLine
 10
-6.099999999999998
 20
34.71
 11
-6.1
 21
13.96
  0
LINE
  5
16A
100
AcDbEntity
  8
fix2-rails
  6
ByLayer
 62
  256
370
   -1
100
AcDbLine
 10
1.900000000000001
 20
25.42
 11
-8.1
 21
25.42
  0
LINE
  5
16B
100
AcDbEntity
  8
fix2-rails
  6
ByLayer
 62
  256
370
   -1
100
AcDbLine
 10
1.900000000000001
 20
23.92
 11
-8.1
 21
23.92
  0
LINE
  5
16C
100
AcDbEntity
  8
fix2-rails
  6
ByLayer
 62
  256
370
   -1
100
AcDbLine
 10
1.899999999999997
 20
-0
 11
-8.100000000000003
 21
0
  0
LINE
  5
16D
100
AcDbEntity
  8
fix2-rails
  6
ByLayer
 62
  256
370
   -1
100
AcDbLine
 10
1.899999999999997
 20
-1.5
 11
-8.100000000000003
 21
-1.5
  0
LINE
  5
16E
100
AcDbEntity
  8
fix2-rails
  6
ByLayer
 62
  256
370
   -1
100
AcDbLine
 10
-8.100000000000003
 20
0
 11
-8.100000000000003
 21
-1.5
  0
LINE
  5
16F
100
AcDbEntity
  8
fix2-rails
  6
ByLayer
 62
  256
370
   -1
100
AcDbLine
 10
1.899999999999997
 20
-1.5
 11
1.899999999999997
 21
-0
  0
LINE
  5
170
100
AcDbEntity
  8
fix2-rails
  6
ByLayer
 62
  256
370
   -1
100
AcDbLine
 10
1.900000000000001
 20
23.92
 11
1.900000000000001
 21
25.42
  0
LINE
  5
171
100
AcDbEntity
  8
fix2-rails
  6
ByLayer
 62
  256
370
   -1
100
AcDbLine
 10
-8.1
 20
23.92
 11
-8.1
 21
25.42
  0
LINE
  5
172
100
AcDbEntity
  8
rails-courbes-reverse
  6
ByLayer
 62
  256
370
   -1
100
AcDbLine
 10
-38.63492001012958
 20
-53.59665938011341
 11
-31.51702955094368
 21
-34.04041606934859
  0
LINE
  5
173
100
AcDbEntity
  8
rails-courbes-reverse
  6
ByLayer
 62
  256
370
   -1
100
AcDbLine
 10
-38.63492001012958
 20
-53.59665938011341
 11
-36.75718382297333
 21
-54.28523040653496
  0
LINE
  5
174
100
AcDbEntity
  8
rails-courbes-reverse
  6
ByLayer
 62
  256
370
   -1
100
AcDbLine
 10
-36.75718382297333
 20
-54.28523040653496
 11
-33.43999858131794
 21
-45.17133885893864
  0
LINE
  5
175
100
AcDbEntity
  8
rails-courbes-reverse
  6
ByLayer
 62
  256
370
   -1
100
AcDbLine
 10
-41.6212162055938
 20
-67.64904954528077
 11
-38.19368529279698
 21
-58.23198575788882
  0
LINE
  5
176
100
AcDbEntity
  8
rails-courbes-reverse
  6
ByLayer
 62
  256
370
   -1
100
AcDbLine
 10
-40.07140461209741
 20
-57.54336838741421
 11
-38.19368529279698
 21
-58.23198575788882
  0
LINE
  5
177
100
AcDbEntity
  8
rails-courbes-reverse
  6
ByLayer
 62
  256
370
   -1
100
AcDbLine
 10
-47.18929507128331
 20
-77.09961169817898
 11
-40.07140461209741
 21
-57.54336838741421
  0
LINE
  5
178
100
AcDbEntity
  8
rails-courbes-reverse
  6
ByLayer
 62
  256
370
   -1
100
AcDbLine
 10
104.2
 20
-82.56055095879904
 11
102
 21
-82.56055095879904
  0
LINE
  5
179
100
AcDbEntity
  8
rails-courbes-reverse
  6
ByLayer
 62
  256
370
   -1
100
AcDbLine
 10
104.2
 20
-78.76055095879904
 11
104.2
 21
-75.76055095879904
  0
LINE
  5
17A
100
AcDbEntity
  8
rails-courbes-reverse
  6
ByLayer
 62
  256
370
   -1
100
AcDbLine
 10
104.2
 20
-75.76055095879904
 11
106.4
 21
-75.76055095879904
  0
LINE
  5
17B
100
AcDbEntity
  8
rails-courbes-reverse
  6
ByLayer
 62
  256
370
   -1
100
AcDbLine
 10
106.4
 20
-75.76055095879904
 11
106.4
 21
-85.56055095879904
  0
LINE
  5
17C
100
AcDbEntity
  8
rails-courbes-reverse
  6
ByLayer
 62
  256
370
   -1
100
AcDbLine
 10
106.4
 20
-85.56055095879904
 11
104.2
 21
-85.56055095879904
  0
LINE
  5
17D
100
AcDbEntity
  8
rails-courbes-reverse
  6
ByLayer
 62
  256
370
   -1
100
AcDbLine
 10
104.2
 20
-82.56055095879904
 11
104.2
 21
-85.56055095879904
  0
LINE
  5
17E
100
AcDbEntity
  8
rails-courbes-reverse
  6
ByLayer
 62
  256
370
   -1
100
AcDbLine
 10
101.9999999999998
 20
-103.4057096521226
 11
102
 21
-82.56055095879904
  0
LINE
  5
17F
100
AcDbEntity
  8
rails-courbes-reverse
  6
ByLayer
 62
  256
370
   -1
100
AcDbLine
 10
102
 20
-78.76055095879904
 11
101.9999999999998
 21
-57.58307076322932
  0
LINE
  5
180
100
AcDbEntity
  8
rails-courbes-reverse
  6
ByLayer
 62
  256
370
   -1
100
AcDbLine
 10
104.2
 20
-78.76055095879904
 11
102
 21
-78.76055095879904
  0
LINE
  5
181
100
AcDbEntity
  8
aiguillages
  6
ByLayer
 62
  256
370
   -1
100
AcDbLine
 10
102
 20
25.42
 11
2.000000000000002
 21
25.42
  0
LINE
  5
182
100
AcDbEntity
  8
aiguillages
  6
ByLayer
 62
  256
370
   -1
100
AcDbLine
 10
102
 20
0
 11
1.999999999999998
 21
0
  0
LINE
  5
183
100
AcDbEntity
  8
cotes
  6
ByLayer
 62
  256
370
   -1
100
AcDbLine
 10
102
 20
23.92
 11
2.000000000000002
 21
23.92
  0
LINE
  5
184
100
AcDbEntity
  8
cotes
  6
ByLayer
 62
  256
370
   -1
100
AcDbLine
 10
102
 20
-1.5
 11
1.999999999999998
 21
-1.5
  0
LINE
  5
185
100
AcDbEntity
  8
cotes
  6
ByLayer
 62
  256
370
   -1
100
AcDbLine
 10
102
 20
23.92
 11
2.000000000000002
 21
23.92
  0
LINE
  5
186
100
AcDbEntity
  8
cotes
  6
ByLayer
 62
  256
370
   -1
100
AcDbLine
 10
102
 20
23.92
 11
2.000000000000002
 21
23.92
  0
LINE
  5
187
100
AcDbEntity
  8
cotes
  6
ByLayer
 62
  256
370
   -1
100
AcDbLine
 10
102
 20
23.92
 11
2.000000000000002
 21
23.92
  0
LINE
  5
188
100
AcDbEntity
  8
aiguillages
  6
ByLayer
 62
  256
370
   -1
100
AcDbLine
 10
102
 20
23.92
 11
2.000000000000002
 21
23.92
  0
LINE
  5
189
100
AcDbEntity
  8
aiguillages
  6
ByLayer
 62
  256
370
   -1
100
AcDbLine
 10
102
 20
-1.5
 11
1.999999999999998
 21
-1.5
  0
LINE
  5
18A
100
AcDbEntity
  8
aiguillages
  6
ByLayer
 62
  256
370
   -1
100
AcDbLine
 10
101.9999999999999
 20
-401.5
 11
1.999999999999924
 21
-401.5
  0
LINE
  5
18B
100
AcDbEntity
  8
aiguillages
  6
ByLayer
 62
  256
370
   -1
100
AcDbLine
 10
102
 20
-1.5
 11
101.9999999999999
 21
-401.5
  0
LINE
  5
18C
100
AcDbEntity
  8
aiguillages
  6
ByLayer
 62
  256
370
   -1
100
AcDbLine
 10
-51.07337294603592
 20
-31.94818699548529
 11
101.9999999999999
 21
-401.5
  0
CIRCLE
  5
18D
100
AcDbEntity
  8
aiguillages
  6
ByLayer
 62
  256
370
   -1
100
AcDbCircle
 10
101.9999999999999
 20
-401.5
 40
400
  0
LINE
  5
18E
100
AcDbEntity
  8
grille
  6
ByLayer
 62
  256
370
   -1
100
AcDbLine
 10
-1627.206566077371
 20
0
 11
10000
 21
0
  0
LINE
  5
18F
100
AcDbEntity
  8
grille
  6
ByLayer
 62
  256
370
   -1
100
AcDbLine
 10
-1627.206566077371
 20
-100
 11
10000
 21
-100
  0
LINE
  5
190
100
AcDbEntity
  8
grille
  6
ByLayer
 62
  256
370
   -1
100
AcDbLine
 10
-1627.206566077371
 20
-200
 11
10000
 21
-200
  0
LINE
  5
191
100
AcDbEntity
  8
grille
  6
ByLayer
 62
  256
370
   -1
100
AcDbLine
 10
-1627.206566077371
 20
-300
 11
10000
 21
-300
  0
LINE
  5
192
100
AcDbEntity
  8
grille
  6
ByLayer
 62
  256
370
   -1
100
AcDbLine
 10
-1627.206566077371
 20
-400
 11
10000
 21
-400
  0
LINE
  5
193
100
AcDbEntity
  8
grille
  6
ByLayer
 62
  256
370
   -1
100
AcDbLine
 10
-1627.206566077371
 20
-500
 11
10000
 21
-500
  0
LINE
  5
194
100
AcDbEntity
  8
grille
  6
ByLayer
 62
  256
370
   -1
100
AcDbLine
 10
-1627.206566077371
 20
-600
 11
10000
 21
-600
  0
LINE
  5
195
100
AcDbEntity
  8
grille
  6
ByLayer
 62
  256
370
   -1
100
AcDbLine
 10
-1627.206566077371
 20
100
 11
10000
 21
100
  0
LINE
  5
196
100
AcDbEntity
  8
grille
  6
ByLayer
 62
  256
370
   -1
100
AcDbLine
 10
-1627.206566077371
 20
200
 11
10000
 21
200
  0
LINE
  5
197
100
AcDbEntity
  8
grille
  6
ByLayer
 62
  256
370
   -1
100
AcDbLine
 10
-1627.206566077371
 20
300
 11
10000
 21
300
  0
LINE
  5
198
100
AcDbEntity
  8
grille
  6
ByLayer
 62
  256
370
   -1
100
AcDbLine
 10
-1627.206566077371
 20
400
 11
10000
 21
400
  0
LINE
  5
199
100
AcDbEntity
  8
grille
  6
ByLayer
 62
  256
370
   -1
100
AcDbLine
 10
0
 20
-10000
 11
0
 21
10000
  0
LINE
  5
19A
100
AcDbEntity
  8
grille
  6
ByLayer
 62
  256
370
   -1
100
AcDbLine
 10
-100
 20
-10000
 11
-100
 21
10000
  0
LINE
  5
19B
100
AcDbEntity
  8
grille
  6
ByLayer
 62
  256
370
   -1
100
AcDbLine
 10
-200
 20
-10000
 11
-200
 21
10000
  0
LINE
  5
19C
100
AcDbEntity
  8
grille
  6
ByLayer
 62
  256
370
   -1
100
AcDbLine
 10
-300
 20
-10000
 11
-300
 21
10000
  0
LINE
  5
19D
100
AcDbEntity
  8
grille
  6
ByLayer
 62
  256
370
   -1
100
AcDbLine
 10
-400
 20
-10000
 11
-400
 21
10000
  0
LINE
  5
19E
100
AcDbEntity
  8
grille
  6
ByLayer
 62
  256
370
   -1
100
AcDbLine
 10
-500
 20
-10000
 11
-500
 21
10000
  0
LINE
  5
19F
100
AcDbEntity
  8
grille
  6
ByLayer
 62
  256
370
   -1
100
AcDbLine
 10
-600
 20
-10000
 11
-600
 21
10000
  0
LINE
  5
1A0
100
AcDbEntity
  8
grille
  6
ByLayer
 62
  256
370
   -1
100
AcDbLine
 10
-700
 20
-10000
 11
-700
 21
10000
  0
LINE
  5
1A1
100
AcDbEntity
  8
grille
  6
ByLayer
 62
  256
370
   -1
100
AcDbLine
 10
-800
 20
-10000
 11
-800
 21
10000
  0
LINE
  5
1A2
100
AcDbEntity
  8
grille
  6
ByLayer
 62
  256
370
   -1
100
AcDbLine
 10
-900
 20
-10000
 11
-900
 21
10000
  0
LINE
  5
1A3
100
AcDbEntity
  8
grille
  6
ByLayer
 62
  256
370
   -1
100
AcDbLine
 10
-1000
 20
-10000
 11
-1000
 21
10000
  0
LINE
  5
1A4
100
AcDbEntity
  8
grille
  6
ByLayer
 62
  256
370
   -1
100
AcDbLine
 10
100
 20
-10000
 11
100
 21
10000
  0
LINE
  5
1A5
100
AcDbEntity
  8
grille
  6
ByLayer
 62
  256
370
   -1
100
AcDbLine
 10
200
 20
-10000
 11
200
 21
10000
  0
LINE
  5
1A6
100
AcDbEntity
  8
grille
  6
ByLayer
 62
  256
370
   -1
100
AcDbLine
 10
300
 20
-10000
 11
300
 21
10000
  0
LINE
  5
1A7
100
AcDbEntity
  8
grille
  6
ByLayer
 62
  256
370
   -1
100
AcDbLine
 10
400
 20
-10000
 11
400
 21
10000
  0
LINE
  5
1A8
100
AcDbEntity
  8
grille
  6
ByLayer
 62
  256
370
   -1
100
AcDbLine
 10
500
 20
-10000
 11
500
 21
10000
  0
LINE
  5
1A9
100
AcDbEntity
  8
grille
  6
ByLayer
 62
  256
370
   -1
100
AcDbLine
 10
600
 20
-10000
 11
600
 21
10000
  0
LINE
  5
1AA
100
AcDbEntity
  8
grille
  6
ByLayer
 62
  256
370
   -1
100
AcDbLine
 10
0
 20
100
 11
0
 21
0
  0
LINE
  5
1AB
100
AcDbEntity
  8
rails
  6
ByLayer
 62
  256
370
   -1
100
AcDbLine
 10
-1.554312234475219e-15
 20
38.04
 11
-2.664535259100376e-15
 21
36.54
  0
LINE
  5
1AC
100
AcDbEntity
  8
rails
  6
ByLayer
 62
  256
370
   -1
100
AcDbLine
 10
-1.554312234475219e-15
 20
38.04
 11
100
 21
38.04
  0
LINE
  5
1AD
100
AcDbEntity
  8
rails
  6
ByLayer
 62
  256
370
   -1
100
AcDbLine
 10
100
 20
36.54
 11
-2.664535259100376e-15
 21
36.54
  0
LINE
  5
1AE
100
AcDbEntity
  8
rails
  6
ByLayer
 62
  256
370
   -1
100
AcDbLine
 10
100
 20
38.04
 11
100
 21
36.54
  0
LINE
  5
1AF
100
AcDbEntity
  8
rails
  6
ByLayer
 62
  256
370
   -1
100
AcDbLine
 10
2.664535259100376e-15
 20
63.46
 11
1.332267629550188e-15
 21
61.96
  0
LINE
  5
1B0
100
AcDbEntity
  8
rails
  6
ByLayer
 62
  256
370
   -1
100
AcDbLine
 10
2.664535259100376e-15
 20
63.46
 11
100
 21
63.46
  0
LINE
  5
1B1
100
AcDbEntity
  8
rails
  6
ByLayer
 62
  256
370
   -1
100
AcDbLine
 10
100
 20
61.96
 11
1.332267629550188e-15
 21
61.96
  0
LINE
  5
1B2
100
AcDbEntity
  8
rails
  6
ByLayer
 62
  256
370
   -1
100
AcDbLine
 10
100
 20
63.46
 11
100
 21
61.96
  0
LINE
  5
1B3
100
AcDbEntity
  8
traverses
  6
ByLayer
 62
  256
370
   -1
100
AcDbLine
 10
1.999999999999997
 20
36.54
 11
1.999999999999996
 21
27.25
  0
LINE
  5
1B4
100
AcDbEntity
  8
traverses
  6
ByLayer
 62
  256
370
   -1
100
AcDbLine
 10
7.999999999999995
 20
27.25
 11
11.99999999999999
 21
27.25
  0
LINE
  5
1B5
100
AcDbEntity
  8
traverses
  6
ByLayer
 62
  256
370
   -1
100
AcDbLine
 10
1.999999999999997
 20
38.04
 11
7.999999999999996
 21
38.04
  0
LINE
  5
1B6
100
AcDbEntity
  8
traverses
  6
ByLayer
 62
  256
370
   -1
100
AcDbLine
 10
7.999999999999996
 20
36.54
 11
7.999999999999995
 21
27.25
  0
LINE
  5
1B7
100
AcDbEntity
  8
traverses
  6
ByLayer
 62
  256
370
   -1
100
AcDbLine
 10
1.999999999999997
 20
36.54
 11
7.999999999999996
 21
36.54
  0
LINE
  5
1B8
100
AcDbEntity
  8
traverses
  6
ByLayer
 62
  256
370
   -1
100
AcDbLine
 10
12
 20
36.54
 11
11.99999999999999
 21
27.25
  0
LINE
  5
1B9
100
AcDbEntity
  8
traverses
  6
ByLayer
 62
  256
370
   -1
100
AcDbLine
 10
18
 20
27.25
 11
22
 21
27.25
  0
LINE
  5
1BA
100
AcDbEntity
  8
traverses
  6
ByLayer
 62
  256
370
   -1
100
AcDbLine
 10
12
 20
38.04
 11
18
 21
38.04
  0
LINE
  5
1BB
100
AcDbEntity
  8
traverses
  6
ByLayer
 62
  256
370
   -1
100
AcDbLine
 10
18
 20
36.54
 11
18
 21
27.25
  0
LINE
  5
1BC
100
AcDbEntity
  8
traverses
  6
ByLayer
 62
  256
370
   -1
100
AcDbLine
 10
12
 20
36.54
 11
18
 21
36.54
  0
LINE
  5
1BD
100
AcDbEntity
  8
traverses
  6
ByLayer
 62
  256
370
   -1
100
AcDbLine
 10
22
 20
36.54
 11
22
 21
27.25
  0
LINE
  5
1BE
100
AcDbEntity
  8
traverses
  6
ByLayer
 62
  256
370
   -1
100
AcDbLine
 10
28
 20
27.25
 11
32
 21
27.25
  0
LINE
  5
1BF
100
AcDbEntity
  8
traverses
  6
ByLayer
 62
  256
370
   -1
100
AcDbLine
 10
22
 20
38.04
 11
28
 21
38.04
  0
LINE
  5
1C0
100
AcDbEntity
  8
traverses
  6
ByLayer
 62
  256
370
   -1
100
AcDbLine
 10
28
 20
36.54
 11
28
 21
27.25
  0
LINE
  5
1C1
100
AcDbEntity
  8
traverses
  6
ByLayer
 62
  256
370
   -1
100
AcDbLine
 10
22
 20
36.54
 11
28
 21
36.54
  0
LINE
  5
1C2
100
AcDbEntity
  8
traverses
  6
ByLayer
 62
  256
370
   -1
100
AcDbLine
 10
32
 20
36.54
 11
32
 21
27.25
  0
LINE
  5
1C3
100
AcDbEntity
  8
traverses
  6
ByLayer
 62
  256
370
   -1
100
AcDbLine
 10
38
 20
27.25
 11
42
 21
27.25
  0
LINE
  5
1C4
100
AcDbEntity
  8
traverses
  6
ByLayer
 62
  256
370
   -1
100
AcDbLine
 10
32.00000000000001
 20
38.04
 11
38
 21
38.04
  0
LINE
  5
1C5
100
AcDbEntity
  8
traverses
  6
ByLayer
 62
  256
370
   -1
100
AcDbLine
 10
38
 20
36.54
 11
38
 21
27.25
  0
LINE
  5
1C6
100
AcDbEntity
  8
traverses
  6
ByLayer
 62
  256
370
   -1
100
AcDbLine
 10
32.00000000000001
 20
36.54
 11
38
 21
36.54
  0
LINE
  5
1C7
100
AcDbEntity
  8
traverses
  6
ByLayer
 62
  256
370
   -1
100
AcDbLine
 10
42
 20
36.54
 11
42
 21
27.25
  0
LINE
  5
1C8
100
AcDbEntity
  8
traverses
  6
ByLayer
 62
  256
370
   -1
100
AcDbLine
 10
48
 20
27.25
 11
52
 21
27.25
  0
LINE
  5
1C9
100
AcDbEntity
  8
traverses
  6
ByLayer
 62
  256
370
   -1
100
AcDbLine
 10
42.00000000000001
 20
38.04
 11
48
 21
38.04
  0
LINE
  5
1CA
100
AcDbEntity
  8
traverses
  6
ByLayer
 62
  256
370
   -1
100
AcDbLine
 10
48
 20
36.54
 11
48
 21
27.25
  0
LINE
  5
1CB
100
AcDbEntity
  8
traverses
  6
ByLayer
 62
  256
370
   -1
100
AcDbLine
 10
42.00000000000001
 20
36.54
 11
48
 21
36.54
  0
LINE
  5
1CC
100
AcDbEntity
  8
traverses
  6
ByLayer
 62
  256
370
   -1
100
AcDbLine
 10
52
 20
36.54
 11
52
 21
27.25
  0
LINE
  5
1CD
100
AcDbEntity
  8
traverses
  6
ByLayer
 62
  256
370
   -1
100
AcDbLine
 10
58
 20
27.25
 11
62
 21
27.25
  0
LINE
  5
1CE
100
AcDbEntity
  8
traverses
  6
ByLayer
 62
  256
370
   -1
100
AcDbLine
 10
52.00000000000001
 20
38.04
 11
58
 21
38.04
  0
LINE
  5
1CF
100
AcDbEntity
  8
traverses
  6
ByLayer
 62
  256
370
   -1
100
AcDbLine
 10
58
 20
36.54
 11
58
 21
27.25
  0
LINE
  5
1D0
100
AcDbEntity
  8
traverses
  6
ByLayer
 62
  256
370
   -1
100
AcDbLine
 10
52.00000000000001
 20
36.54
 11
58
 21
36.54
  0
LINE
  5
1D1
100
AcDbEntity
  8
traverses
  6
ByLayer
 62
  256
370
   -1
100
AcDbLine
 10
62
 20
36.54
 11
62
 21
27.25
  0
LINE
  5
1D2
100
AcDbEntity
  8
traverses
  6
ByLayer
 62
  256
370
   -1
100
AcDbLine
 10
68.00000000000001
 20
27.25
 11
72.00000000000001
 21
27.25
  0
LINE
  5
1D3
100
AcDbEntity
  8
traverses
  6
ByLayer
 62
  256
370
   -1
100
AcDbLine
 10
62.00000000000001
 20
38.04
 11
68.00000000000001
 21
38.04
  0
LINE
  5
1D4
100
AcDbEntity
  8
traverses
  6
ByLayer
 62
  256
370
   -1
100
AcDbLine
 10
68.00000000000001
 20
36.54
 11
68.00000000000001
 21
27.25
  0
LINE
  5
1D5
100
AcDbEntity
  8
traverses
  6
ByLayer
 62
  256
370
   -1
100
AcDbLine
 10
62.00000000000001
 20
36.54
 11
68.00000000000001
 21
36.54
  0
LINE
  5
1D6
100
AcDbEntity
  8
traverses
  6
ByLayer
 62
  256
370
   -1
100
AcDbLine
 10
72.00000000000001
 20
36.54
 11
72.00000000000001
 21
27.25
  0
LINE
  5
1D7
100
AcDbEntity
  8
traverses
  6
ByLayer
 62
  256
370
   -1
100
AcDbLine
 10
78.00000000000001
 20
27.25
 11
82.00000000000001
 21
27.25
  0
LINE
  5
1D8
100
AcDbEntity
  8
traverses
  6
ByLayer
 62
  256
370
   -1
100
AcDbLine
 10
72.00000000000001
 20
38.04
 11
78.00000000000001
 21
38.04
  0
LINE
  5
1D9
100
AcDbEntity
  8
traverses
  6
ByLayer
 62
  256
370
   -1
100
AcDbLine
 10
78.00000000000001
 20
36.54
 11
78.00000000000001
 21
27.25
  0
LINE
  5
1DA
100
AcDbEntity
  8
traverses
  6
ByLayer
 62
  256
370
   -1
100
AcDbLine
 10
72.00000000000001
 20
36.54
 11
78.00000000000001
 21
36.54
  0
LINE
  5
1DB
100
AcDbEntity
  8
traverses
  6
ByLayer
 62
  256
370
   -1
100
AcDbLine
 10
82.00000000000001
 20
36.54
 11
82.00000000000001
 21
27.25
  0
LINE
  5
1DC
100
AcDbEntity
  8
traverses
  6
ByLayer
 62
  256
370
   -1
100
AcDbLine
 10
88.00000000000001
 20
27.25
 11
92.00000000000001
 21
27.25
  0
LINE
  5
1DD
100
AcDbEntity
  8
traverses
  6
ByLayer
 62
  256
370
   -1
100
AcDbLine
 10
82.00000000000001
 20
38.04
 11
88.00000000000001
 21
38.04
  0
LINE
  5
1DE
100
AcDbEntity
  8
traverses
  6
ByLayer
 62
  256
370
   -1
100
AcDbLine
 10
88.00000000000001
 20
36.54
 11
88.00000000000001
 21
27.25
  0
LINE
  5
1DF
100
AcDbEntity
  8
traverses
  6
ByLayer
 62
  256
370
   -1
100
AcDbLine
 10
82.00000000000001
 20
36.54
 11
88.00000000000001
 21
36.54
  0
LINE
  5
1E0
100
AcDbEntity
  8
traverses
  6
ByLayer
 62
  256
370
   -1
100
AcDbLine
 10
92.00000000000001
 20
36.54
 11
92.00000000000001
 21
27.25
  0
LINE
  5
1E1
100
AcDbEntity
  8
traverses
  6
ByLayer
 62
  256
370
   -1
100
AcDbLine
 10
98
 20
36.54
 11
98
 21
27.25
  0
LINE
  5
1E2
100
AcDbEntity
  8
traverses
  6
ByLayer
 62
  256
370
   -1
100
AcDbLine
 10
-3.996802888650564e-15
 20
27.25
 11
1.999999999999996
 21
27.25
  0
LINE
  5
1E3
100
AcDbEntity
  8
traverses
  6
ByLayer
 62
  256
370
   -1
100
AcDbLine
 10
98
 20
27.25
 11
100
 21
27.25
  0
LINE
  5
1E4
100
AcDbEntity
  8
traverses
  6
ByLayer
 62
  256
370
   -1
100
AcDbLine
 10
92.00000000000001
 20
38.04
 11
98
 21
38.04
  0
LINE
  5
1E5
100
AcDbEntity
  8
traverses
  6
ByLayer
 62
  256
370
   -1
100
AcDbLine
 10
92.00000000000001
 20
36.54
 11
98
 21
36.54
  0
LINE
  5
1E6
100
AcDbEntity
  8
traverses
  6
ByLayer
 62
  256
370
   -1
100
AcDbLine
 10
2.000000000000002
 20
72.75
 11
2
 21
63.46
  0
LINE
  5
1E7
100
AcDbEntity
  8
traverses
  6
ByLayer
 62
  256
370
   -1
100
AcDbLine
 10
8
 20
72.75
 11
12
 21
72.75
  0
LINE
  5
1E8
100
AcDbEntity
  8
traverses
  6
ByLayer
 62
  256
370
   -1
100
AcDbLine
 10
8
 20
72.75
 11
8
 21
63.46
  0
LINE
  5
1E9
100
AcDbEntity
  8
traverses
  6
ByLayer
 62
  256
370
   -1
100
AcDbLine
 10
2
 20
63.46
 11
8
 21
63.46
  0
LINE
  5
1EA
100
AcDbEntity
  8
traverses
  6
ByLayer
 62
  256
370
   -1
100
AcDbLine
 10
12
 20
72.75
 11
12
 21
63.46
  0
LINE
  5
1EB
100
AcDbEntity
  8
traverses
  6
ByLayer
 62
  256
370
   -1
100
AcDbLine
 10
18
 20
72.75
 11
22
 21
72.75
  0
LINE
  5
1EC
100
AcDbEntity
  8
traverses
  6
ByLayer
 62
  256
370
   -1
100
AcDbLine
 10
18
 20
72.75
 11
18
 21
63.46
  0
LINE
  5
1ED
100
AcDbEntity
  8
traverses
  6
ByLayer
 62
  256
370
   -1
100
AcDbLine
 10
12
 20
63.46
 11
18
 21
63.46
  0
LINE
  5
1EE
100
AcDbEntity
  8
traverses
  6
ByLayer
 62
  256
370
   -1
100
AcDbLine
 10
22
 20
72.75
 11
22
 21
63.46
  0
LINE
  5
1EF
100
AcDbEntity
  8
traverses
  6
ByLayer
 62
  256
370
   -1
100
AcDbLine
 10
28.00000000000001
 20
72.75
 11
32.00000000000001
 21
72.75
  0
LINE
  5
1F0
100
AcDbEntity
  8
traverses
  6
ByLayer
 62
  256
370
   -1
100
AcDbLine
 10
28.00000000000001
 20
72.75
 11
28
 21
63.46
  0
LINE
  5
1F1
100
AcDbEntity
  8
traverses
  6
ByLayer
 62
  256
370
   -1
100
AcDbLine
 10
22
 20
63.46
 11
28
 21
63.46
  0
LINE
  5
1F2
100
AcDbEntity
  8
traverses
  6
ByLayer
 62
  256
370
   -1
100
AcDbLine
 10
22
 20
61.96
 11
28
 21
61.96
  0
LINE
  5
1F3
100
AcDbEntity
  8
traverses
  6
ByLayer
 62
  256
370
   -1
100
AcDbLine
 10
32.00000000000001
 20
72.75
 11
32.00000000000001
 21
63.46
  0
LINE
  5
1F4
100
AcDbEntity
  8
traverses
  6
ByLayer
 62
  256
370
   -1
100
AcDbLine
 10
38.00000000000001
 20
72.75
 11
42.00000000000001
 21
72.75
  0
LINE
  5
1F5
100
AcDbEntity
  8
traverses
  6
ByLayer
 62
  256
370
   -1
100
AcDbLine
 10
38.00000000000001
 20
72.75
 11
38.00000000000001
 21
63.46
  0
LINE
  5
1F6
100
AcDbEntity
  8
traverses
  6
ByLayer
 62
  256
370
   -1
100
AcDbLine
 10
32.00000000000001
 20
63.46
 11
38.00000000000001
 21
63.46
  0
LINE
  5
1F7
100
AcDbEntity
  8
traverses
  6
ByLayer
 62
  256
370
   -1
100
AcDbLine
 10
42.00000000000001
 20
72.75
 11
42.00000000000001
 21
63.46
  0
LINE
  5
1F8
100
AcDbEntity
  8
traverses
  6
ByLayer
 62
  256
370
   -1
100
AcDbLine
 10
48.00000000000001
 20
72.75
 11
52.00000000000001
 21
72.75
  0
LINE
  5
1F9
100
AcDbEntity
  8
traverses
  6
ByLayer
 62
  256
370
   -1
100
AcDbLine
 10
48.00000000000001
 20
72.75
 11
48.00000000000001
 21
63.46
  0
LINE
  5
1FA
100
AcDbEntity
  8
traverses
  6
ByLayer
 62
  256
370
   -1
100
AcDbLine
 10
42.00000000000001
 20
63.46
 11
48.00000000000001
 21
63.46
  0
LINE
  5
1FB
100
AcDbEntity
  8
traverses
  6
ByLayer
 62
  256
370
   -1
100
AcDbLine
 10
52.00000000000001
 20
72.75
 11
52.00000000000001
 21
63.46
  0
LINE
  5
1FC
100
AcDbEntity
  8
traverses
  6
ByLayer
 62
  256
370
   -1
100
AcDbLine
 10
58.00000000000001
 20
72.75
 11
62.00000000000001
 21
72.75
  0
LINE
  5
1FD
100
AcDbEntity
  8
traverses
  6
ByLayer
 62
  256
370
   -1
100
AcDbLine
 10
58.00000000000001
 20
72.75
 11
58.00000000000001
 21
63.46
  0
LINE
  5
1FE
100
AcDbEntity
  8
traverses
  6
ByLayer
 62
  256
370
   -1
100
AcDbLine
 10
52.00000000000001
 20
63.46
 11
58.00000000000001
 21
63.46
  0
LINE
  5
1FF
100
AcDbEntity
  8
traverses
  6
ByLayer
 62
  256
370
   -1
100
AcDbLine
 10
52.00000000000001
 20
61.96
 11
58.00000000000001
 21
61.96
  0
LINE
  5
200
100
AcDbEntity
  8
traverses
  6
ByLayer
 62
  256
370
   -1
100
AcDbLine
 10
62.00000000000001
 20
72.75
 11
62.00000000000001
 21
63.46
  0
LINE
  5
201
100
AcDbEntity
  8
traverses
  6
ByLayer
 62
  256
370
   -1
100
AcDbLine
 10
68.00000000000001
 20
72.75
 11
72.00000000000001
 21
72.75
  0
LINE
  5
202
100
AcDbEntity
  8
traverses
  6
ByLayer
 62
  256
370
   -1
100
AcDbLine
 10
68.00000000000001
 20
72.75
 11
68.00000000000001
 21
63.46
  0
LINE
  5
203
100
AcDbEntity
  8
traverses
  6
ByLayer
 62
  256
370
   -1
100
AcDbLine
 10
62.00000000000001
 20
63.46
 11
68.00000000000001
 21
63.46
  0
LINE
  5
204
100
AcDbEntity
  8
traverses
  6
ByLayer
 62
  256
370
   -1
100
AcDbLine
 10
62.00000000000001
 20
61.96
 11
68.00000000000001
 21
61.96
  0
LINE
  5
205
100
AcDbEntity
  8
traverses
  6
ByLayer
 62
  256
370
   -1
100
AcDbLine
 10
72.00000000000001
 20
72.75
 11
72.00000000000001
 21
63.46
  0
LINE
  5
206
100
AcDbEntity
  8
traverses
  6
ByLayer
 62
  256
370
   -1
100
AcDbLine
 10
78.00000000000001
 20
72.75
 11
82.00000000000001
 21
72.75
  0
LINE
  5
207
100
AcDbEntity
  8
traverses
  6
ByLayer
 62
  256
370
   -1
100
AcDbLine
 10
78.00000000000001
 20
72.75
 11
78.00000000000001
 21
63.46
  0
LINE
  5
208
100
AcDbEntity
  8
traverses
  6
ByLayer
 62
  256
370
   -1
100
AcDbLine
 10
72.00000000000001
 20
63.46
 11
78.00000000000001
 21
63.46
  0
LINE
  5
209
100
AcDbEntity
  8
traverses
  6
ByLayer
 62
  256
370
   -1
100
AcDbLine
 10
72.00000000000001
 20
61.96
 11
78.00000000000001
 21
61.96
  0
LINE
  5
20A
100
AcDbEntity
  8
traverses
  6
ByLayer
 62
  256
370
   -1
100
AcDbLine
 10
82.00000000000001
 20
72.75
 11
82.00000000000001
 21
63.46
  0
LINE
  5
20B
100
AcDbEntity
  8
traverses
  6
ByLayer
 62
  256
370
   -1
100
AcDbLine
 10
88.00000000000001
 20
72.75
 11
92.00000000000001
 21
72.75
  0
LINE
  5
20C
100
AcDbEntity
  8
traverses
  6
ByLayer
 62
  256
370
   -1
100
AcDbLine
 10
88.00000000000001
 20
72.75
 11
88.00000000000001
 21
63.46
  0
LINE
  5
20D
100
AcDbEntity
  8
traverses
  6
ByLayer
 62
  256
370
   -1
100
AcDbLine
 10
82.00000000000001
 20
63.46
 11
88.00000000000001
 21
63.46
  0
LINE
  5
20E
100
AcDbEntity
  8
traverses
  6
ByLayer
 62
  256
370
   -1
100
AcDbLine
 10
82.00000000000001
 20
61.96
 11
88.00000000000001
 21
61.96
  0
LINE
  5
20F
100
AcDbEntity
  8
traverses
  6
ByLayer
 62
  256
370
   -1
100
AcDbLine
 10
92.00000000000001
 20
72.75
 11
92.00000000000001
 21
63.46
  0
LINE
  5
210
100
AcDbEntity
  8
traverses
  6
ByLayer
 62
  256
370
   -1
100
AcDbLine
 10
98
 20
72.75
 11
98
 21
63.46
  0
LINE
  5
211
100
AcDbEntity
  8
traverses
  6
ByLayer
 62
  256
370
   -1
100
AcDbLine
 10
2.220446049250313e-15
 20
72.75
 11
2.000000000000002
 21
72.75
  0
LINE
  5
212
100
AcDbEntity
  8
traverses
  6
ByLayer
 62
  256
370
   -1
100
AcDbLine
 10
98
 20
72.75
 11
100
 21
72.75
  0
LINE
  5
213
100
AcDbEntity
  8
traverses
  6
ByLayer
 62
  256
370
   -1
100
AcDbLine
 10
8
 20
61.96
 11
7.999999999999996
 21
38.04
  0
LINE
  5
214
100
AcDbEntity
  8
traverses
  6
ByLayer
 62
  256
370
   -1
100
AcDbLine
 10
2
 20
61.96
 11
8
 21
61.96
  0
LINE
  5
215
100
AcDbEntity
  8
traverses
  6
ByLayer
 62
  256
370
   -1
100
AcDbLine
 10
12
 20
61.96
 11
12
 21
38.04
  0
LINE
  5
216
100
AcDbEntity
  8
traverses
  6
ByLayer
 62
  256
370
   -1
100
AcDbLine
 10
12
 20
61.96
 11
18
 21
61.96
  0
LINE
  5
217
100
AcDbEntity
  8
traverses
  6
ByLayer
 62
  256
370
   -1
100
AcDbLine
 10
18
 20
61.96
 11
18
 21
38.04
  0
LINE
  5
218
100
AcDbEntity
  8
traverses
  6
ByLayer
 62
  256
370
   -1
100
AcDbLine
 10
22
 20
61.96
 11
22
 21
38.04
  0
LINE
  5
219
100
AcDbEntity
  8
traverses
  6
ByLayer
 62
  256
370
   -1
100
AcDbLine
 10
28
 20
61.96
 11
28
 21
38.04
  0
LINE
  5
21A
100
AcDbEntity
  8
traverses
  6
ByLayer
 62
  256
370
   -1
100
AcDbLine
 10
32.00000000000001
 20
61.96
 11
32
 21
38.04
  0
LINE
  5
21B
100
AcDbEntity
  8
traverses
  6
ByLayer
 62
  256
370
   -1
100
AcDbLine
 10
38.00000000000001
 20
61.96
 11
38
 21
38.04
  0
LINE
  5
21C
100
AcDbEntity
  8
traverses
  6
ByLayer
 62
  256
370
   -1
100
AcDbLine
 10
32.00000000000001
 20
61.96
 11
38.00000000000001
 21
61.96
  0
LINE
  5
21D
100
AcDbEntity
  8
traverses
  6
ByLayer
 62
  256
370
   -1
100
AcDbLine
 10
42.00000000000001
 20
61.96
 11
42
 21
38.04
  0
LINE
  5
21E
100
AcDbEntity
  8
traverses
  6
ByLayer
 62
  256
370
   -1
100
AcDbLine
 10
42.00000000000001
 20
61.96
 11
48
 21
61.96
  0
LINE
  5
21F
100
AcDbEntity
  8
traverses
  6
ByLayer
 62
  256
370
   -1
100
AcDbLine
 10
48
 20
61.96
 11
48
 21
38.04
  0
LINE
  5
220
100
AcDbEntity
  8
traverses
  6
ByLayer
 62
  256
370
   -1
100
AcDbLine
 10
52.00000000000001
 20
61.96
 11
52
 21
38.04
  0
LINE
  5
221
100
AcDbEntity
  8
traverses
  6
ByLayer
 62
  256
370
   -1
100
AcDbLine
 10
58.00000000000001
 20
61.96
 11
58
 21
38.04
  0
LINE
  5
222
100
AcDbEntity
  8
traverses
  6
ByLayer
 62
  256
370
   -1
100
AcDbLine
 10
62.00000000000001
 20
61.96
 11
62
 21
38.04
  0
LINE
  5
223
100
AcDbEntity
  8
traverses
  6
ByLayer
 62
  256
370
   -1
100
AcDbLine
 10
68.00000000000001
 20
61.96
 11
68.00000000000001
 21
38.04
  0
LINE
  5
224
100
AcDbEntity
  8
traverses
  6
ByLayer
 62
  256
370
   -1
100
AcDbLine
 10
72.00000000000001
 20
61.96
 11
72.00000000000001
 21
38.04
  0
LINE
  5
225
100
AcDbEntity
  8
traverses
  6
ByLayer
 62
  256
370
   -1
100
AcDbLine
 10
78.00000000000001
 20
61.96
 11
78.00000000000001
 21
38.04
  0
LINE
  5
226
100
AcDbEntity
  8
traverses
  6
ByLayer
 62
  256
370
   -1
100
AcDbLine
 10
82.00000000000001
 20
61.96
 11
82.00000000000001
 21
38.04
  0
LINE
  5
227
100
AcDbEntity
  8
traverses
  6
ByLayer
 62
  256
370
   -1
100
AcDbLine
 10
88.00000000000001
 20
61.96
 11
88.00000000000001
 21
38.04
  0
LINE
  5
228
100
AcDbEntity
  8
traverses
  6
ByLayer
 62
  256
370
   -1
100
AcDbLine
 10
92.00000000000001
 20
61.96
 11
92.00000000000001
 21
38.04
  0
LINE
  5
229
100
AcDbEntity
  8
traverses
  6
ByLayer
 62
  256
370
   -1
100
AcDbLine
 10
92.00000000000001
 20
61.96
 11
97.99999999999999
 21
61.96
  0
LINE
  5
22A
100
AcDbEntity
  8
traverses
  6
ByLayer
 62
  256
370
   -1
100
AcDbLine
 10
97.99999999999999
 20
61.96
 11
98
 21
38.04
  0
LINE
  5
22B
100
AcDbEntity
  8
traverses
  6
ByLayer
 62
  256
370
   -1
100
AcDbLine
 10
-1.110223024625157e-15
 20
48
 11
1.999999999999998
 21
48
  0
LINE
  5
22C
100
AcDbEntity
  8
traverses
  6
ByLayer
 62
  256
370
   -1
100
AcDbLine
 10
2
 20
61.96
 11
2
 21
52
  0
LINE
  5
22D
100
AcDbEntity
  8
traverses
  6
ByLayer
 62
  256
370
   -1
100
AcDbLine
 10
-1.110223024625157e-15
 20
52
 11
2
 21
52
  0
LINE
  5
22E
100
AcDbEntity
  8
traverses
  6
ByLayer
 62
  256
370
   -1
100
AcDbLine
 10
2.220446049250313e-15
 20
72.75
 11
-1.110223024625157e-15
 21
52
  0
LINE
  5
22F
100
AcDbEntity
  8
traverses
  6
ByLayer
 62
  256
370
   -1
100
AcDbLine
 10
-1.110223024625157e-15
 20
48
 11
-3.996802888650564e-15
 21
27.25
  0
LINE
  5
230
100
AcDbEntity
  8
traverses
  6
ByLayer
 62
  256
370
   -1
100
AcDbLine
 10
1.999999999999998
 20
48
 11
1.999999999999997
 21
38.04
  0
LINE
  5
231
100
AcDbEntity
  8
traverses
  6
ByLayer
 62
  256
370
   -1
100
AcDbLine
 10
102.2
 20
54.9
 11
104.4
 21
54.9
  0
LINE
  5
232
100
AcDbEntity
  8
traverses
  6
ByLayer
 62
  256
370
   -1
100
AcDbLine
 10
102.2
 20
54.9
 11
102.2
 21
51.9
  0
LINE
  5
233
100
AcDbEntity
  8
traverses
  6
ByLayer
 62
  256
370
   -1
100
AcDbLine
 10
104.4
 20
54.9
 11
104.4
 21
45.09999999999999
  0
LINE
  5
234
100
AcDbEntity
  8
traverses
  6
ByLayer
 62
  256
370
   -1
100
AcDbLine
 10
102.2
 20
45.09999999999999
 11
104.4
 21
45.09999999999999
  0
LINE
  5
235
100
AcDbEntity
  8
traverses
  6
ByLayer
 62
  256
370
   -1
100
AcDbLine
 10
102.2
 20
48.1
 11
102.2
 21
45.09999999999999
  0
LINE
  5
236
100
AcDbEntity
  8
traverses
  6
ByLayer
 62
  256
370
   -1
100
AcDbLine
 10
100
 20
72.75
 11
100
 21
51.9
  0
LINE
  5
237
100
AcDbEntity
  8
traverses
  6
ByLayer
 62
  256
370
   -1
100
AcDbLine
 10
100
 20
51.9
 11
102.2
 21
51.9
  0
LINE
  5
238
100
AcDbEntity
  8
traverses
  6
ByLayer
 62
  256
370
   -1
100
AcDbLine
 10
100
 20
48.1
 11
100
 21
27.25
  0
LINE
  5
239
100
AcDbEntity
  8
traverses
  6
ByLayer
 62
  256
370
   -1
100
AcDbLine
 10
100
 20
48.1
 11
102.2
 21
48.1
  0
LINE
  5
23A
100
AcDbEntity
  8
traverses
  6
ByLayer
 62
  256
370
   -1
100
AcDbLine
 10
92.00000000000001
 20
63.46
 11
100
 21
63.46
  0
ARC
  5
23B
100
AcDbEntity
  8
courbes-rails
  6
ByLayer
 62
  256
370
   -1
100
AcDbCircle
 10
100
 20
-200
 40
238.04
100
AcDbArc
 50
67.5
 51
90
  0
ARC
  5
23C
100
AcDbEntity
  8
courbes-rails
  6
ByLayer
 62
  256
370
   -1
100
AcDbCircle
 10
100
 20
-200
 40
263.46
100
AcDbArc
 50
67.5
 51
90
  0
ARC
  5
23D
100
AcDbEntity
  8
courbes-rails
  6
ByLayer
 62
  256
370
   -1
100
AcDbCircle
 10
100
 20
-200
 40
261.96
100
AcDbArc
 50
67.5
 51
90
  0
ARC
  5
23E
100
AcDbEntity
  8
courbes-rails
  6
ByLayer
 62
  256
370
   -1
100
AcDbCircle
 10
100
 20
-200
 40
236.54
100
AcDbArc
 50
67.5
 51
90
  0
LINE
  5
23F
100
AcDbEntity
  8
traverses
  6
ByLayer
 62
  256
370
   -1
100
AcDbLine
 10
102
 20
36.54
 11
102
 21
27.25
  0
LINE
  5
240
100
AcDbEntity
  8
traverses
  6
ByLayer
 62
  256
370
   -1
100
AcDbLine
 10
100
 20
27.25
 11
102
 21
27.25
  0
LINE
  5
241
100
AcDbEntity
  8
traverses
  6
ByLayer
 62
  256
370
   -1
100
AcDbLine
 10
102
 20
72.75
 11
102
 21
63.46
  0
LINE
  5
242
100
AcDbEntity
  8
traverses
  6
ByLayer
 62
  256
370
   -1
100
AcDbLine
 10
100
 20
72.75
 11
102
 21
72.75
  0
LINE
  5
243
100
AcDbEntity
  8
traverses
  6
ByLayer
 62
  256
370
   -1
100
AcDbLine
 10
100
 20
48
 11
102
 21
48
  0
LINE
  5
244
100
AcDbEntity
  8
traverses
  6
ByLayer
 62
  256
370
   -1
100
AcDbLine
 10
100
 20
72.75
 11
100
 21
52
  0
LINE
  5
245
100
AcDbEntity
  8
traverses
  6
ByLayer
 62
  256
370
   -1
100
AcDbLine
 10
100
 20
48
 11
100
 21
27.25
  0
LINE
  5
246
100
AcDbEntity
  8
courbes-traverses
  6
ByLayer
 62
  256
370
   -1
100
AcDbLine
 10
108.7096566758045
 20
72.61823926617529
 11
112.7065728207674
 21
72.46120000313903
  0
LINE
  5
247
100
AcDbEntity
  8
courbes-traverses
  6
ByLayer
 62
  256
370
   -1
100
AcDbLine
 10
112.7065728207674
 20
72.46120000313903
 11
110.9202512037298
 21
26.99627885418616
  0
LINE
  5
248
100
AcDbEntity
  8
courbes-traverses
  6
ByLayer
 62
  256
370
   -1
100
AcDbLine
 10
110.9202512037298
 20
26.99627885418616
 11
106.9233350587669
 21
27.15331811722243
  0
LINE
  5
249
100
AcDbEntity
  8
courbes-traverses
  6
ByLayer
 62
  256
370
   -1
100
AcDbLine
 10
106.9233350587669
 20
27.15331811722243
 11
108.7096566758045
 21
72.61823926617529
  0
LINE
  5
24A
100
AcDbEntity
  8
courbes-traverses
  6
ByLayer
 62
  256
370
   -1
100
AcDbLine
 10
119.4058836923034
 20
72.06612096716634
 11
123.393553027236
 21
71.75228458425494
  0
LINE
  5
24B
100
AcDbEntity
  8
courbes-traverses
  6
ByLayer
 62
  256
370
   -1
100
AcDbLine
 10
123.393553027236
 20
71.75228458425494
 11
119.823664171619
 21
26.39254589939762
  0
LINE
  5
24C
100
AcDbEntity
  8
courbes-traverses
  6
ByLayer
 62
  256
370
   -1
100
AcDbLine
 10
119.823664171619
 20
26.39254589939762
 11
115.8359948366865
 21
26.70638228230902
  0
LINE
  5
24D
100
AcDbEntity
  8
courbes-traverses
  6
ByLayer
 62
  256
370
   -1
100
AcDbLine
 10
115.8359948366865
 20
26.70638228230902
 11
119.4058836923034
 21
72.06612096716634
  0
LINE
  5
24E
100
AcDbEntity
  8
courbes-traverses
  6
ByLayer
 62
  256
370
   -1
100
AcDbLine
 10
130.0721882427154
 20
71.09449642937182
 11
134.0444620705351
 21
70.62434683954052
  0
LINE
  5
24F
100
AcDbEntity
  8
courbes-traverses
  6
ByLayer
 62
  256
370
   -1
100
AcDbLine
 10
134.0444620705351
 20
70.62434683954052
 11
128.6965104862035
 21
25.43973204809132
  0
LINE
  5
250
100
AcDbEntity
  8
courbes-traverses
  6
ByLayer
 62
  256
370
   -1
100
AcDbLine
 10
128.6965104862035
 20
25.43973204809132
 11
124.7242366583837
 21
25.90988163792267
  0
LINE
  5
251
100
AcDbEntity
  8
courbes-traverses
  6
ByLayer
 62
  256
370
   -1
100
AcDbLine
 10
124.7242366583837
 20
25.90988163792267
 11
130.0721882427154
 21
71.09449642937182
  0
LINE
  5
252
100
AcDbEntity
  8
courbes-traverses
  6
ByLayer
 62
  256
370
   -1
100
AcDbLine
 10
140.6921236585327
 20
69.70486382740432
 11
144.6428770209133
 21
69.07912596724339
  0
LINE
  5
253
100
AcDbEntity
  8
courbes-traverses
  6
ByLayer
 62
  256
370
   -1
100
AcDbLine
 10
144.6428770209133
 20
69.07912596724339
 11
137.5251088615827
 21
24.1393064701646
  0
LINE
  5
254
100
AcDbEntity
  8
courbes-traverses
  6
ByLayer
 62
  256
370
   -1
100
AcDbLine
 10
137.5251088615827
 20
24.1393064701646
 11
133.5743554992022
 21
24.76504433032554
  0
LINE
  5
255
100
AcDbEntity
  8
courbes-traverses
  6
ByLayer
 62
  256
370
   -1
100
AcDbLine
 10
133.5743554992022
 20
24.76504433032554
 11
140.6921236585327
 21
69.70486382740432
  0
LINE
  5
256
100
AcDbEntity
  8
courbes-traverses
  6
ByLayer
 62
  256
370
   -1
100
AcDbLine
 10
151.2493147690925
 20
67.89936587401337
 11
155.1724558907054
 21
67.1190045859488
  0
LINE
  5
257
100
AcDbEntity
  8
courbes-traverses
  6
ByLayer
 62
  256
370
   -1
100
AcDbLine
 10
155.1724558907054
 20
67.1190045859488
 11
146.2958462389716
 21
22.49327432760185
  0
LINE
  5
258
100
AcDbEntity
  8
courbes-traverses
  6
ByLayer
 62
  256
370
   -1
100
AcDbLine
 10
146.2958462389716
 20
22.49327432760185
 11
142.3727051173587
 21
23.27363561566636
  0
LINE
  5
259
100
AcDbEntity
  8
courbes-traverses
  6
ByLayer
 62
  256
370
   -1
100
AcDbLine
 10
142.3727051173587
 20
23.27363561566636
 11
151.2493147690925
 21
67.89936587401337
  0
LINE
  5
25A
100
AcDbEntity
  8
courbes-traverses
  6
ByLayer
 62
  256
370
   -1
100
AcDbLine
 10
161.7274831509029
 20
65.6807865161781
 11
165.6169628324936
 21
64.74700506075447
  0
LINE
  5
25B
100
AcDbEntity
  8
courbes-traverses
  6
ByLayer
 62
  256
370
   -1
100
AcDbLine
 10
165.6169628324936
 20
64.74700506075447
 11
154.9951987770498
 21
20.50417368266019
  0
LINE
  5
25C
100
AcDbEntity
  8
courbes-traverses
  6
ByLayer
 62
  256
370
   -1
100
AcDbLine
 10
154.9951987770498
 20
20.50417368266019
 11
151.1057190954592
 21
21.43795513808382
  0
LINE
  5
25D
100
AcDbEntity
  8
courbes-traverses
  6
ByLayer
 62
  256
370
   -1
100
AcDbLine
 10
151.1057190954592
 20
21.43795513808382
 11
161.7274831509029
 21
65.6807865161781
  0
LINE
  5
25E
100
AcDbEntity
  8
courbes-traverses
  6
ByLayer
 62
  256
370
   -1
100
AcDbLine
 10
172.1104722277917
 20
63.05254664246246
 11
175.9602931736063
 21
61.96678484300213
  0
LINE
  5
25F
100
AcDbEntity
  8
courbes-traverses
  6
ByLayer
 62
  256
370
   -1
100
AcDbLine
 10
175.9602931736063
 20
61.96678484300213
 11
163.6097527047454
 21
18.17507158436121
  0
LINE
  5
260
100
AcDbEntity
  8
courbes-traverses
  6
ByLayer
 62
  256
370
   -1
100
AcDbLine
 10
163.6097527047454
 20
18.17507158436121
 11
159.7599317589308
 21
19.26083338382148
  0
LINE
  5
261
100
AcDbEntity
  8
courbes-traverses
  6
ByLayer
 62
  256
370
   -1
100
AcDbLine
 10
159.7599317589308
 20
19.26083338382148
 11
172.1104722277917
 21
63.05254664246246
  0
LINE
  5
262
100
AcDbEntity
  8
courbes-traverses
  6
ByLayer
 62
  256
370
   -1
100
AcDbLine
 10
182.3822721831766
 20
60.01869880825302
 11
186.1864982483572
 21
58.78263083075319
  0
LINE
  5
263
100
AcDbEntity
  8
courbes-traverses
  6
ByLayer
 62
  256
370
   -1
100
AcDbLine
 10
186.1864982483572
 20
58.78263083075319
 11
172.1262250042971
 21
15.50955933932374
  0
LINE
  5
264
100
AcDbEntity
  8
courbes-traverses
  6
ByLayer
 62
  256
370
   -1
100
AcDbLine
 10
172.1262250042971
 20
15.50955933932374
 11
168.3219989391165
 21
16.74562731682352
  0
LINE
  5
265
100
AcDbEntity
  8
courbes-traverses
  6
ByLayer
 62
  256
370
   -1
100
AcDbLine
 10
168.3219989391165
 20
16.74562731682352
 11
182.3822721831766
 21
60.01869880825302
  0
LINE
  5
266
100
AcDbEntity
  8
courbes-traverses
  6
ByLayer
 62
  256
370
   -1
100
AcDbLine
 10
192.5270446460412
 20
56.58392098701256
 11
196.2798099897312
 21
55.19945275870256
  0
LINE
  5
267
100
AcDbEntity
  8
courbes-traverses
  6
ByLayer
 62
  256
370
   -1
100
AcDbLine
 10
196.2798099897312
 20
55.19945275870256
 11
180.5314838927052
 21
12.51174697422954
  0
LINE
  5
268
100
AcDbEntity
  8
courbes-traverses
  6
ByLayer
 62
  256
370
   -1
100
AcDbLine
 10
180.5314838927052
 20
12.51174697422954
 11
176.7787185490153
 21
13.89621520253951
  0
LINE
  5
269
100
AcDbEntity
  8
courbes-traverses
  6
ByLayer
 62
  256
370
   -1
100
AcDbLine
 10
176.7787185490153
 20
13.89621520253951
 11
192.5270446460412
 21
56.58392098701256
  0
LINE
  5
26A
100
AcDbEntity
  8
courbes-traverses
  6
ByLayer
 62
  256
370
   -1
100
AcDbLine
 10
185.1170509399441
 20
10.71699062792007
 11
186.9648100049666
 21
9.9516237631899
  0
LINE
  5
26B
100
AcDbEntity
  8
courbes-traverses
  6
ByLayer
 62
  256
370
   -1
100
AcDbLine
 10
202.5291471125557
 20
52.75350935718362
 11
204.3769061775782
 21
51.98814249245345
  0
LINE
  5
26C
100
AcDbEntity
  8
courbes-traverses
  6
ByLayer
 62
  256
370
   -1
100
AcDbLine
 10
199.5785418813862
 20
34.65498928592382
 11
201.6110768529111
 21
33.8130857347206
  0
LINE
  5
26D
100
AcDbEntity
  8
courbes-traverses
  6
ByLayer
 62
  256
370
   -1
100
AcDbLine
 10
199.5785418813862
 20
34.65498928592382
 11
198.430491584291
 21
31.88335068838995
  0
LINE
  5
26E
100
AcDbEntity
  8
courbes-traverses
  6
ByLayer
 62
  256
370
   -1
100
AcDbLine
 10
201.6110768529111
 20
33.8130857347206
 11
197.8607792157332
 21
24.75906631610997
  0
LINE
  5
26F
100
AcDbEntity
  8
courbes-traverses
  6
ByLayer
 62
  256
370
   -1
100
AcDbLine
 10
195.8282442442083
 20
25.60096986731318
 11
197.8607792157332
 21
24.75906631610997
  0
LINE
  5
270
100
AcDbEntity
  8
courbes-traverses
  6
ByLayer
 62
  256
370
   -1
100
AcDbLine
 10
196.9762945413036
 20
28.37260846484705
 11
195.8282442442083
 21
25.60096986731318
  0
LINE
  5
271
100
AcDbEntity
  8
courbes-traverses
  6
ByLayer
 62
  256
370
   -1
100
AcDbLine
 10
204.3769061775782
 20
51.98814249245345
 11
196.3979566127661
 21
32.72525423959314
  0
LINE
  5
272
100
AcDbEntity
  8
courbes-traverses
  6
ByLayer
 62
  256
370
   -1
100
AcDbLine
 10
196.3979566127661
 20
32.72525423959314
 11
198.430491584291
 21
31.88335068838995
  0
LINE
  5
273
100
AcDbEntity
  8
courbes-traverses
  6
ByLayer
 62
  256
370
   -1
100
AcDbLine
 10
194.9437595697788
 20
29.21451201605024
 11
196.9762945413036
 21
28.37260846484705
  0
LINE
  5
274
100
AcDbEntity
  8
courbes-traverses
  6
ByLayer
 62
  256
370
   -1
100
AcDbLine
 10
202.5291471125557
 20
52.75350935718362
 11
185.1170509399441
 21
10.71699062792007
  0
LINE
  5
275
100
AcDbEntity
  8
courbes-traverses
  6
ByLayer
 62
  256
370
   -1
100
AcDbLine
 10
102
 20
52
 11
100
 21
52
  0
LINE
  5
276
100
AcDbEntity
  8
courbes-traverses
  6
ByLayer
 62
  256
370
   -1
100
AcDbLine
 10
102
 20
48
 11
100
 21
48
  0
LINE
  5
277
100
AcDbEntity
  8
courbes-traverses
  6
ByLayer
 62
  256
370
   -1
100
AcDbLine
 10
100
 20
72.9604426089677
 11
100
 21
52
  0
LINE
  5
278
100
AcDbEntity
  8
courbes-traverses
  6
ByLayer
 62
  256
370
   -1
100
AcDbLine
 10
102
 20
72.9604426089677
 11
102
 21
52
  0
LINE
  5
279
100
AcDbEntity
  8
courbes-traverses
  6
ByLayer
 62
  256
370
   -1
100
AcDbLine
 10
100
 20
72.9604426089677
 11
102
 21
72.9604426089677
  0
LINE
  5
27A
100
AcDbEntity
  8
courbes-traverses
  6
ByLayer
 62
  256
370
   -1
100
AcDbLine
 10
100
 20
27.42533669253131
 11
102
 21
27.34675647851598
  0
LINE
  5
27B
100
AcDbEntity
  8
courbes-traverses
  6
ByLayer
 62
  256
370
   -1
100
AcDbLine
 10
102
 20
48
 11
102
 21
27.34675647851598
  0
LINE
  5
27C
100
AcDbEntity
  8
courbes-traverses
  6
ByLayer
 62
  256
370
   -1
100
AcDbLine
 10
194.9437595697788
 20
29.21451201605024
 11
186.9648100049666
 21
9.9516237631899
  0
LINE
  5
27D
100
AcDbEntity
  8
courbes-traverses
  6
ByLayer
 62
  256
370
   -1
100
AcDbLine
 10
100
 20
48
 11
100
 21
27.42533669253131
  0
LINE
  5
27E
100
AcDbEntity
  8
courbes-rails
  6
ByLayer
 62
  256
370
   -1
100
AcDbLine
 10
100
 20
61.95999999999998
 11
100
 21
63.45999999999998
  0
LINE
  5
27F
100
AcDbEntity
  8
courbes-rails
  6
ByLayer
 62
  256
370
   -1
100
AcDbLine
 10
100
 20
38.03999999999999
 11
100
 21
36.53999999999999
  0
LINE
  5
280
100
AcDbEntity
  8
courbes-rails
  6
ByLayer
 62
  256
370
   -1
100
AcDbLine
 10
200.8217770909066
 20
43.4053016354236
 11
200.2477519423589
 21
42.01948233665667
  0
LINE
  5
281
100
AcDbEntity
  8
courbes-rails
  6
ByLayer
 62
  256
370
   -1
100
AcDbLine
 10
191.093964240186
 20
19.92028391898668
 11
190.5199390916383
 21
18.53446462021975
  0
ENDSEC
  0
SECTION
  2
OBJECTS
  0
DICTIONARY
  5
C
330
0
100
AcDbDictionary
281
    1
  3
ACAD_GROUP
350
D
  0
DICTIONARY
  5
D
330
C
100
AcDbDictionary
281
    1
  0
ENDSEC
  0
EOF
